<svg xmlns="http://www.w3.org/2000/svg" viewBox="0 0 882.97 221.47"><defs><style>.cls-1{fill:#ff6358;}</style></defs><title>logotype</title><g id="Layer_2" data-name="Layer 2"><g id="Layer_1-2" data-name="Layer 1"><path class="cls-1" d="M21.59,12.83A21.59,21.59,0,1,0,43.18,34.42,21.61,21.61,0,0,0,21.59,12.83ZM41.25,150.57l-8.6-64.93c-1-6.92-3.75-9.25-11.06-9.25s-10.1,2.33-11,9.25L1.93,150.58a108,108,0,0,0-1.1,12.89v32.2c0,13.21,7.18,20.19,20.76,20.19s20.76-7,20.76-20.19v-32.2A108.18,108.18,0,0,0,41.25,150.57Z"/><path class="cls-1" d="M65.29,109.79l-2.46-1.43s0,0,.07,0h0s0,0,0,0h0Z"/><path class="cls-1" d="M221.58,179.08c-2.52-.8-3.8,1.29-5.06,3.32-1.37,2.21-4.22,6.83-6.79,6.83-.77,0-3.12,0-3.46-.35,0,0-.66-.77-.15-4.62.4-3,1.75-9,3.45-16.68,8.44-37.76,16.56-79.07,6.06-91.3a10.83,10.83,0,0,0-8.45-3.84c-13,0-29.52,9.07-40.48,15.08L164,89c.7-5.63-.32-10-3-12.85-2.29-2.44-5.62-3.68-9.89-3.68-12.36,0-30.21,10.61-39.81,17-1.26-5.6-6-14.88-23.92-14.88-11.49,0-21.54,10.75-29.83,32a5.22,5.22,0,0,0,2.79,6.69,6.27,6.27,0,0,0,2.61.59,5.71,5.71,0,0,0,4.75-2.49A73.42,73.42,0,0,1,81,97.1c-1.48,14.56-5.88,49.09-9.47,77.22-2,15.61-3.71,29.09-4.48,35.59a4.89,4.89,0,0,0,1.3,4A5,5,0,0,0,72,215.41H91.22a4.91,4.91,0,0,0,5-4.27c.74-7,3-22.84,5.37-39.62,2.68-18.89,5.7-40.29,7.24-53.58.41-3.47,4.48-8.45,10.91-13.31s12.63-7.77,15.61-8.61c-4.21,31.81-13.49,102.15-14.72,113.87a5,5,0,0,0,1.33,4,5,5,0,0,0,3.61,1.5h16.75a5,5,0,0,0,5-4.1c1.39-9.69,4.62-34.36,7.74-58.2,1.62-12.43,3.24-24.79,4.59-35,.47-3.57,4.92-8.66,11.88-13.64s13.62-7.88,16.64-8.59c-2.38,17.72-4.84,32.94-7,46.43-6,36.68-9.25,56.9-.34,66.7,3.93,4.32,9.86,6.33,18.69,6.33,15.41,0,22.6-18.17,23.48-24.79.44-3.29.67-5.36.76-6.7C223.81,182.34,224,179.85,221.58,179.08Z"/><path class="cls-1" d="M359.92,91.93a49,49,0,0,0-18.18-14.46,57.34,57.34,0,0,0-24-4.84c-9.9,0-18.15,2.08-24.53,6.2a45.07,45.07,0,0,0-7.34,5.66,5.34,5.34,0,0,1-9-3.88V31.14a3.77,3.77,0,0,0-3.77-3.78H246.13a3.78,3.78,0,0,0-3.78,3.78v177a3.79,3.79,0,0,0,3.78,3.79h26.42a3.79,3.79,0,0,0,3.78-3.79V208a5.24,5.24,0,0,1,3.28-4.93,5.48,5.48,0,0,1,2.08-.42,5.35,5.35,0,0,1,3.79,1.61,33.86,33.86,0,0,0,5.53,4.6c6.78,4.45,15.91,6.7,27.15,6.7,17.87,0,32-7,41.95-20.79s15.11-31.64,15.11-52.78C375.22,121.66,370.07,104.79,359.92,91.93ZM331,175.85a26.27,26.27,0,0,1-9.62,8.68,27.49,27.49,0,0,1-12.82,2.91c-11,0-19.34-4-24.73-12s-8.05-17.87-8.05-29.78c0-10.08,1.31-18.44,3.88-24.82,5-12.16,14.42-18.32,27.89-18.32,13.29,0,22.54,6.3,27.49,18.7,2.57,6.48,3.88,14.75,3.88,24.57C339,158.15,336.3,168.26,331,175.85Z"/><path class="cls-1" d="M430.68,159.86,519.39,140a3.81,3.81,0,0,0,2.86-4.52,157.26,157.26,0,0,0-6.16-21.86,67.28,67.28,0,0,0-16.76-25.12A55.56,55.56,0,0,0,472,74a77.93,77.93,0,0,0-32.71.79c-19.41,4.35-34,14.14-43.42,29.09S384.3,138.05,389.46,161c5.5,24.51,16.34,40.9,32.2,48.71a74.64,74.64,0,0,0,50.57,5.85C493.59,210.8,509,200.5,517.92,185c4.4-7.44,6.93-14.46,7.5-20.87a3.67,3.67,0,0,0-1.25-3.12,3.79,3.79,0,0,0-3.35-.85L493,166.39a3.79,3.79,0,0,0-2.77,2.53,29.34,29.34,0,0,1-4.54,8.65c-4.17,5.35-10.42,9-18.58,10.82-7.67,1.72-14.71,1.48-20.95-.73-8.92-3.06-15.43-10-19.34-20.7a5.41,5.41,0,0,1,.32-4.45A5.34,5.34,0,0,1,430.68,159.86Zm-9.91-27.34A35.65,35.65,0,0,1,425.7,115a25,25,0,0,1,7.9-8,36.37,36.37,0,0,1,11.86-4.75c8.45-1.89,16.2-1,23,2.65,5.52,2.94,9.78,7.81,12.65,14.45a5.23,5.23,0,0,1-.14,4.47,5.34,5.34,0,0,1-3.61,2.8l-50.11,11.25a5.33,5.33,0,0,1-4.6-1.12A5.2,5.2,0,0,1,420.77,132.52Z"/><path class="cls-1" d="M654,130.18v80.64a3.79,3.79,0,0,1-3.79,3.78H625.46a3.78,3.78,0,0,1-3.78-3.78V146.3c0-23-7.62-33.74-24-33.74-21.8,0-24.8,16.51-24.8,34.33v63.93a3.78,3.78,0,0,1-3.79,3.78h-24a3.78,3.78,0,0,1-3.78-3.78V128.57a56.35,56.35,0,0,1,108.73-20.74l0,.08a55.8,55.8,0,0,1,3.14,11.33l0,.11a73.32,73.32,0,0,1,.74,9.88C654,129.54,654,129.86,654,130.18Z"/><path class="cls-1" d="M865.69,93.81c-11.43-14.31-29.05-21.57-52.38-21.57s-41,7.26-52.38,21.57S743.65,125.39,743.65,145c0,19.95,5.81,37.23,17.28,51.38s29.05,21.25,52.38,21.25,41-7.15,52.38-21.25a75.4,75.4,0,0,0,12.94-23.52A87.09,87.09,0,0,0,883,145C883,125.39,877.15,108.16,865.69,93.81Zm-27.61,83.6a27.79,27.79,0,0,1-10.59,8.64,33.65,33.65,0,0,1-14.31,2.9c-10.74,0-19.14-3.88-25-11.54s-8.7-18.5-8.7-32.42,2.93-24.8,8.7-32.35,14.22-11.49,25-11.49,19.12,3.87,24.9,11.49,8.63,18.44,8.63,32.35S843.81,169.81,838.08,177.41Z"/><path class="cls-1" d="M743.65,82.58V94.42a2.06,2.06,0,0,1-2.06,2.06h-18a2.06,2.06,0,0,0-2.06,2.06v5.35a1.21,1.21,0,0,1,0,.19l-9,100.26-1.4,15.25a2.06,2.06,0,0,1-3.76,1c-8-12-27.87-43.48-27.87-60.26,0-12.18,4.08-41.87,7.34-61.41a2.06,2.06,0,0,0-2-2.4H669.51a2.06,2.06,0,0,1-2.06-2.06V82.58a2.06,2.06,0,0,1,2.06-2.06h18.78a2.07,2.07,0,0,0,2-1.7l.89-4.88s0-.13.08-.39c.5-2.57,3.31-17,4.27-23.58.08-.58.14-1.1.2-1.54.5-4.29-2.09-8.94-3.57-11.2a2.06,2.06,0,0,1,.28-2.61l34.95-34a2.06,2.06,0,0,1,3.49,1.66l-7,76A2.06,2.06,0,0,0,726,80.52h15.61A2.06,2.06,0,0,1,743.65,82.58Z"/></g></g></svg>