<svg xmlns="http://www.w3.org/2000/svg" viewBox="0 0 2630.24 754.17"><defs><style>.cls-1{fill:#ff6358;}.cls-2{fill:#030113;}.cls-3{fill:#020113;}</style></defs><title>logo</title><g id="Layer_2" data-name="Layer 2"><g id="Layer_1-2" data-name="Layer 1"><path class="cls-1" d="M327.81,754.17a29.34,29.34,0,0,0-3.38-.95,71.32,71.32,0,0,1-24.8-9L243.39,711.8,120.9,641.08c-28.6-16.52-57.31-32.86-85.76-49.64C16.05,580.18,4.82,563.15.9,541.37a64.93,64.93,0,0,1-.83-11.24Q0,377,.13,224C.19,197.3,12.34,176.67,35,162.88c21.3-12.95,43.13-25,64.72-37.52L217.83,57.17Q258.66,33.59,299.48,10A71.84,71.84,0,0,1,337.75,0a69.19,69.19,0,0,1,33.41,9.14q49.43,28.42,98.79,57l111.73,64.5c18.42,10.63,37,21.07,55.22,32,19.22,11.46,30.69,28.48,34.38,50.56A80.92,80.92,0,0,1,672,226.4q.06,150.55.1,301.09c0,12.8-2.26,24.86-8.33,36.14a70.72,70.72,0,0,1-27.3,28.27q-76.76,44.36-153.54,88.66l-111,64.09a72.94,72.94,0,0,1-26,8.92,10.34,10.34,0,0,0-1.75.6ZM647.62,377.09q0-74.56,0-149.13a53.4,53.4,0,0,0-.93-10.65c-3.29-15.95-12.22-27.81-26.31-35.94q-92.8-53.52-185.55-107.12-36.18-20.89-72.37-41.76a51.76,51.76,0,0,0-37-6c-6.54,1.31-12.45,4.11-18.19,7.43q-67,38.71-133.95,77.37C132.5,134.84,91.69,158.26,51,182,33.62,192.1,24.6,207.68,24.57,227.84q-.2,149.27-.06,298.55A52.53,52.53,0,0,0,51,572.32l84.83,49q86.77,50.12,173.59,100.16c17.79,10.22,36,10,53.72-.19q128.76-74.21,257.41-148.63c17.83-10.31,27-26,27-46.7Q647.7,451.53,647.62,377.09Z"/><path class="cls-2" d="M647.62,377.09q0,74.43,0,148.85c0,20.7-9.19,36.39-27,46.7Q491.94,647.07,363.17,721.27c-17.76,10.23-35.93,10.41-53.72.19Q222.57,671.54,135.86,621.3L51,572.32a52.53,52.53,0,0,1-26.52-45.93q0-149.28.06-298.55c0-20.16,9-35.74,26.47-45.89,40.65-23.69,81.46-47.11,122.2-70.63q67-38.68,134-77.37c5.74-3.32,11.65-6.12,18.19-7.43a51.76,51.76,0,0,1,37,6q36.21,20.82,72.37,41.76,92.77,53.57,185.55,107.12c14.09,8.13,23,20,26.31,35.94a53.4,53.4,0,0,1,.93,10.65Q647.67,302.53,647.62,377.09Zm-15.29.3q0-74.56,0-149.12a38.2,38.2,0,0,0-1.55-11.41A37.11,37.11,0,0,0,613.19,195l-50.36-29.06Q459.2,106.09,355.54,46.25c-12.93-7.46-25.93-7.46-38.86,0Q188.1,120.46,59.53,194.71c-13.25,7.65-19.72,19.17-19.72,34.4v296c0,.66,0,1.32,0,2a37.38,37.38,0,0,0,19,32q31.67,18.25,63.31,36.54Q219.39,651.8,316.67,708c12.93,7.46,25.93,7.47,38.86,0q128.72-74.3,257.39-148.61c12.91-7.46,19.41-18.73,19.41-33.69Z"/><path class="cls-1" d="M632.33,377.39V525.66c0,15-6.5,26.23-19.41,33.69Q484.25,633.69,355.53,708c-12.93,7.46-25.93,7.45-38.86,0Q219.38,651.8,122.1,595.62q-31.65-18.27-63.31-36.54a37.38,37.38,0,0,1-19-32c0-.66,0-1.32,0-2v-296c0-15.23,6.47-26.75,19.72-34.4Q188.11,120.48,316.68,46.25c12.93-7.46,25.93-7.46,38.86,0q103.65,59.82,207.29,119.67L613.19,195a37.11,37.11,0,0,1,17.6,21.88,38.2,38.2,0,0,1,1.55,11.41Q632.31,302.84,632.33,377.39ZM69.18,388.64h0q-.22,12.14-.43,24.28-.3,17.93-.56,35.85-.51,35-1,70c-.14,10.49,4.55,18.22,13.54,23.4L281.39,657.67c7.25,4.17,14.5,8.37,21.78,12.51,4.55,2.59,9.33,3.18,14,.52,12.25-7,24.42-14.15,36.63-21.22a5.69,5.69,0,0,0,3-4.2,24.83,24.83,0,0,0,.29-3.65c.05-15,.06-29.93.11-44.9q.18-62.41.4-124.83.12-46.61.16-93.2c0-7.86-3.5-13.74-10.23-17.63Q234.6,295.82,121.66,230.63c-1.63-.94-3.24-1.93-4.92-2.77a6.4,6.4,0,0,0-6.7.21c-2.55,1.6-5.2,3-7.8,4.55-9.36,5.44-18.69,10.91-28.09,16.28a6.47,6.47,0,0,0-3.6,5.34c-.08.94-.16,1.88-.16,2.82,0,14,0,28.05-.09,42.08q-.12,19.49-.4,39Q69.57,363.38,69.18,388.64Z"/><path class="cls-2" d="M69.18,388.64q.36-25.27.72-50.54.25-19.49.4-39c.08-14,0-28.06.09-42.08,0-.94.08-1.88.16-2.82a6.47,6.47,0,0,1,3.6-5.34c9.4-5.37,18.73-10.84,28.09-16.28,2.6-1.51,5.25-3,7.8-4.55a6.4,6.4,0,0,1,6.7-.21c1.68.84,3.29,1.83,4.92,2.77q112.93,65.21,225.86,130.44c6.73,3.89,10.24,9.77,10.23,17.63q-.08,46.59-.16,93.2-.18,62.42-.4,124.83c-.05,15-.06,29.93-.11,44.9a24.83,24.83,0,0,1-.29,3.65,5.69,5.69,0,0,1-3,4.2c-12.21,7.07-24.38,14.23-36.63,21.22-4.66,2.66-9.44,2.07-14-.52-7.28-4.14-14.53-8.34-21.78-12.51L80.78,542.19c-9-5.18-13.68-12.91-13.54-23.4q.48-35,1-70,.25-17.92.56-35.85.19-12.15.43-24.28ZM87.42,274.47c-.07,1.35-.14,2.27-.15,3.19q-.22,14.4-.42,28.8-.27,18.21-.56,36.41-.57,37.26-1.13,74.53-.47,31.19-.88,62.39c-.19,13.08-.36,26.16-.61,39.24a8.85,8.85,0,0,0,2.45,6.68,16.67,16.67,0,0,0,3.65,2.6Q197,590.08,304.27,651.82c.79.46,1.61.84,2.62,1.37.08-.87.16-1.41.17-2,.06-8.47.13-16.94.16-25.41q.11-23.58.16-47.16.25-87.12.53-174.23c0-4.71-1.78-8-6-10.29q-55.28-30.67-110.47-61.51-50.88-28.41-101.69-57C89.13,275.32,88.46,275,87.42,274.47Z"/><path class="cls-1" d="M87.42,274.47c1,.53,1.71.85,2.35,1.21q50.85,28.49,101.69,57,55.2,30.84,110.47,61.51c4.2,2.32,6,5.58,6,10.29q-.32,87.12-.53,174.23-.06,23.58-.16,47.16c0,8.47-.1,16.94-.16,25.41,0,.54-.09,1.08-.17,2-1-.53-1.83-.91-2.62-1.37Q197,590.08,89.77,528.31a16.67,16.67,0,0,1-3.65-2.6A8.85,8.85,0,0,1,83.67,519c.25-13.08.42-26.16.61-39.24q.45-31.2.88-62.39.54-37.26,1.13-74.53.27-18.21.56-36.41.21-14.4.42-28.8C87.28,276.74,87.35,275.82,87.42,274.47ZM206.27,406.06c0-9.5.07-16,0-22.48a42.9,42.9,0,0,0-.8-7.84c-2.77-13.45-11.39-21.86-23.71-26.93a15.23,15.23,0,0,0-4.95-.91,6.45,6.45,0,0,0-6.72,4.18,18.65,18.65,0,0,0-1.55,6.23c-.26,7.14-.08,14.3-.36,21.44-.54,14.24.65,28.37,2.25,42.5,1.12,9.9,2.13,19.82,3.18,29.72,1.09,10.19,2.35,20.37,3.23,30.58.74,8.7,5.76,13.77,13.35,16.88,3.58,1.46,5.58.37,6.49-3.32a11,11,0,0,0,.23-1.4c.89-6.89,1.8-13.79,2.68-20.69,1.25-9.79,2.52-19.58,3.71-29.38.94-7.65,2-15.29,2.57-23C206.32,415.49,206.2,409.26,206.27,406.06ZM111.87,482h-.25c0,5-.08,10,0,15a64.25,64.25,0,0,0,.68,10.11c2.51,13.74,11.13,22.42,23.65,27.61a17.14,17.14,0,0,0,5.5,1,6.06,6.06,0,0,0,6.14-3.69,16.37,16.37,0,0,0,1.68-5.61c.34-4.68.42-9.39.44-14.09.05-9.32.43-18.66-.12-27.94-.69-11.53-2.15-23-3.33-34.53-1-10.1-2.13-20.19-3.21-30.29-.73-6.73-1.42-13.46-2.23-20.18-.48-3.93-1.91-7.58-5.07-10.1a41.91,41.91,0,0,0-7.82-4.94c-3.72-1.79-5.86-.52-6.77,3.53-.08.37-.11.74-.16,1.12q-1.68,13.14-3.37,26.29c-1.23,9.7-2.53,19.39-3.69,29.09-.8,6.72-1.63,13.45-2,20.2C111.6,470.27,111.87,476.12,111.87,482Zm149.89,85.84h.05c0-2,0-3.95,0-5.93-.07-5.74.16-11.5-.33-17.2-1-11.62-2.39-23.2-3.61-34.79-1.56-14.87-3.08-29.74-4.66-44.61a19.12,19.12,0,0,0-14.29-16.74c-2.76-.75-4.32.05-5.22,2.75a13.73,13.73,0,0,0-.64,2.75Q231,470.24,229,486.47c-1,8.21-2.15,16.41-3.1,24.63-.74,6.44-1.68,12.89-1.85,19.36-.31,11.56-.2,23.14-.07,34.72a36.73,36.73,0,0,0,1.17,9.47c3.73,13.23,12.64,21.5,25.59,25.44,5,1.51,8.51-.63,10-5.61a28.28,28.28,0,0,0,1-7.21C261.85,580.78,261.76,574.28,261.76,567.79Zm-55-15-.26-.05c-.05-1-.08-2.07-.16-3.1-.05-.56-.17-1.11-.27-1.66a44.87,44.87,0,0,0-12-23.18c-3.82-4-8.22-7.15-13.82-8.22a10.2,10.2,0,0,0-11.72,6.13,18.42,18.42,0,0,0-1.45,9.37c1.17,11.88,6.53,21.62,15.44,29.44a22.66,22.66,0,0,0,10.13,5.31c6,1.33,11-1.32,12.84-7.17A52,52,0,0,0,206.73,552.82ZM111.15,330.37c1.63,14.65,7.79,26.25,20.16,34.12a19.46,19.46,0,0,0,6,2.3c5.72,1.33,10.51-1.38,12.49-6.91a19.7,19.7,0,0,0,1-9.16,44.12,44.12,0,0,0-16-29.18,22.09,22.09,0,0,0-10-5c-5.61-1.13-10.41,1.47-12.27,6.9A51.65,51.65,0,0,0,111.15,330.37Zm152,87.24-.18,0c-.06-1-.1-2.06-.17-3.1a10.89,10.89,0,0,0-.15-1.4,45.17,45.17,0,0,0-15-26.2,23.67,23.67,0,0,0-9.55-5.29c-6.74-1.79-12.1,1.19-13.84,8a21.87,21.87,0,0,0-.7,7.24c1.09,12.13,6.65,22,15.86,29.83a22.5,22.5,0,0,0,8.89,4.76c6.74,1.79,12.08-1.23,13.89-7.93A56.14,56.14,0,0,0,263.2,417.61Z"/><path class="cls-2" d="M206.27,406.06c-.07,3.2,0,9.43-.43,15.61-.59,7.68-1.63,15.32-2.57,23-1.19,9.8-2.46,19.59-3.71,29.38-.88,6.9-1.79,13.8-2.68,20.69a11,11,0,0,1-.23,1.4c-.91,3.69-2.91,4.78-6.49,3.32-7.59-3.11-12.61-8.18-13.35-16.88-.88-10.21-2.14-20.39-3.23-30.58-1.05-9.9-2.06-19.82-3.18-29.72-1.6-14.13-2.79-28.26-2.25-42.5.28-7.14.1-14.3.36-21.44a18.65,18.65,0,0,1,1.55-6.23,6.45,6.45,0,0,1,6.72-4.18,15.23,15.23,0,0,1,4.95.91c12.32,5.07,20.94,13.48,23.71,26.93a42.9,42.9,0,0,1,.8,7.84C206.34,390.07,206.27,396.56,206.27,406.06Z"/><path class="cls-2" d="M111.87,482c0-5.83-.27-11.68.07-17.49.39-6.75,1.22-13.48,2-20.2,1.16-9.7,2.46-19.39,3.69-29.09Q119.33,402,121,388.88c0-.38.08-.75.16-1.12.91-4.05,3-5.32,6.77-3.53a41.91,41.91,0,0,1,7.82,4.94c3.16,2.52,4.59,6.17,5.07,10.1.81,6.72,1.5,13.45,2.23,20.18,1.08,10.1,2.18,20.19,3.21,30.29,1.18,11.51,2.64,23,3.33,34.53.55,9.28.17,18.62.12,27.94,0,4.7-.1,9.41-.44,14.09a16.37,16.37,0,0,1-1.68,5.61,6.06,6.06,0,0,1-6.14,3.69,17.14,17.14,0,0,1-5.5-1c-12.52-5.19-21.14-13.87-23.65-27.61a64.25,64.25,0,0,1-.68-10.11c-.1-5,0-10,0-15Z"/><path class="cls-2" d="M261.76,567.79c0,6.49.09,13,0,19.48a28.28,28.28,0,0,1-1,7.21c-1.49,5-5,7.12-10,5.61-12.95-3.94-21.86-12.21-25.59-25.44a36.73,36.73,0,0,1-1.17-9.47c-.13-11.58-.24-23.16.07-34.72.17-6.47,1.11-12.92,1.85-19.36,1-8.22,2.07-16.42,3.1-24.63q2.06-16.22,4.1-32.45a13.73,13.73,0,0,1,.64-2.75c.9-2.7,2.46-3.5,5.22-2.75a19.12,19.12,0,0,1,14.29,16.74c1.58,14.87,3.1,29.74,4.66,44.61,1.22,11.59,2.62,23.17,3.61,34.79.49,5.7.26,11.46.33,17.2,0,2,0,3.95,0,5.93Z"/><path class="cls-2" d="M206.73,552.82a52,52,0,0,1-1.28,6.87c-1.87,5.85-6.83,8.5-12.84,7.17a22.66,22.66,0,0,1-10.13-5.31c-8.91-7.82-14.27-17.56-15.44-29.44a18.42,18.42,0,0,1,1.45-9.37,10.2,10.2,0,0,1,11.72-6.13c5.6,1.07,10,4.23,13.82,8.22A44.87,44.87,0,0,1,206,548c.1.55.22,1.1.27,1.66.08,1,.11,2.07.16,3.1Z"/><path class="cls-2" d="M111.15,330.37a51.65,51.65,0,0,1,1.47-6.9c1.86-5.43,6.66-8,12.27-6.9a22.09,22.09,0,0,1,10,5,44.12,44.12,0,0,1,16,29.18,19.7,19.7,0,0,1-1,9.16c-2,5.53-6.77,8.24-12.49,6.91a19.46,19.46,0,0,1-6-2.3C118.94,356.62,112.78,345,111.15,330.37Z"/><path class="cls-2" d="M263.2,417.61a56.14,56.14,0,0,1-.91,5.83c-1.81,6.7-7.15,9.72-13.89,7.93a22.5,22.5,0,0,1-8.89-4.76c-9.21-7.84-14.77-17.7-15.86-29.83a21.87,21.87,0,0,1,.7-7.24c1.74-6.76,7.1-9.74,13.84-8a23.67,23.67,0,0,1,9.55,5.29,45.17,45.17,0,0,1,15,26.2,10.89,10.89,0,0,1,.15,1.4c.07,1,.11,2.07.17,3.1Z"/><path class="cls-3" d="M939.1,184.87a42.39,42.39,0,1,0,42.39,42.39A42.43,42.43,0,0,0,939.1,184.87ZM977.7,455.3,960.81,327.82c-1.87-13.59-7.36-18.17-21.71-18.17s-19.83,4.58-21.7,18.17l-16.9,127.5c-1,8.49-2.15,17.28-2.15,25.3v63.21c0,25.94,14.09,39.65,40.75,39.65s40.75-13.71,40.75-39.65V480.62C979.85,472.58,978.75,463.81,977.7,455.3Z"/><path class="cls-3" d="M1024.89,375.23l-4.82-2.81a.26.26,0,0,1,.13-.06l.07,0c0,.05,0,.06,0,.05v0Z"/><path class="cls-3" d="M1331.74,511.26c-5-1.57-7.47,2.54-9.93,6.52-2.69,4.35-8.29,13.42-13.33,13.42-1.52,0-6.14,0-6.8-.7,0-.06-1.29-1.5-.29-9,.79-6,3.42-17.78,6.77-32.76,16.56-74.13,32.51-155.24,11.89-179.25a21.19,21.19,0,0,0-16.58-7.53c-25.43,0-58,17.8-79.48,29.61l-5.22,2.84c1.39-11.06-.63-19.55-6-25.23-4.49-4.79-11-7.22-19.42-7.22-24.25,0-59.3,20.83-78.15,33.32-2.47-11-11.87-29.23-47-29.23-22.58,0-42.29,21.12-58.58,62.74a10.21,10.21,0,0,0,5.48,13.12,12,12,0,0,0,5.12,1.16,11.25,11.25,0,0,0,9.34-4.89,143.73,143.73,0,0,1,26.1-27.82c-2.9,28.6-11.54,96.39-18.59,151.61-3.91,30.64-7.28,57.12-8.79,69.87a9.6,9.6,0,0,0,2.54,7.78,9.72,9.72,0,0,0,7.19,3h37.72a9.66,9.66,0,0,0,9.82-8.39c1.45-13.71,5.87-44.84,10.54-77.79,5.25-37.07,11.19-79.09,14.22-105.19.79-6.81,8.79-16.58,21.41-26.12s24.8-15.27,30.65-16.91c-8.27,62.45-26.48,200.55-28.91,223.56a9.91,9.91,0,0,0,2.62,7.89,9.78,9.78,0,0,0,7.09,3h32.87a9.73,9.73,0,0,0,9.78-8.07c2.75-19,9.08-67.44,15.2-114.25,3.19-24.4,6.35-48.66,9-68.74.92-7,9.65-17,23.32-26.77,13.83-9.88,26.74-15.47,32.67-16.87-4.67,34.78-9.51,64.68-13.83,91.15-11.7,72-18.15,111.71-.66,131,7.71,8.47,19.36,12.42,36.7,12.42,30.25,0,44.37-35.68,46.1-48.67.85-6.46,1.31-10.52,1.48-13.16C1336.11,517.67,1336.44,512.77,1331.74,511.26Z"/><path class="cls-3" d="M1603.34,340.17a96.2,96.2,0,0,0-35.7-28.39c-13.85-6.32-29.61-9.51-47.18-9.51-19.44,0-35.64,4.09-48.16,12.17a88.57,88.57,0,0,0-14.43,11.12,10.47,10.47,0,0,1-17.65-7.62V220.81a7.43,7.43,0,0,0-7.42-7.42h-52.86a7.43,7.43,0,0,0-7.42,7.42V568.35a7.43,7.43,0,0,0,7.42,7.43h51.87a7.43,7.43,0,0,0,7.42-7.43v-.23a10.29,10.29,0,0,1,6.44-9.67,10.69,10.69,0,0,1,4.08-.82,10.43,10.43,0,0,1,7.45,3.16,67.54,67.54,0,0,0,10.84,9c13.33,8.74,31.26,13.16,53.32,13.16,35.09,0,62.79-13.72,82.36-40.83s29.65-62.11,29.65-103.61C1633.37,398.53,1623.27,365.42,1603.34,340.17Zm-56.69,164.76a51.73,51.73,0,0,1-18.89,17,54,54,0,0,1-25.16,5.72c-21.64,0-38-7.91-48.58-23.5-10.47-15.43-15.78-35.09-15.78-58.47,0-19.8,2.56-36.2,7.62-48.74,9.89-23.86,28.3-36,54.73-36,26.1,0,44.27,12.35,54,36.7,5,12.72,7.62,28.95,7.62,48.24C1562.19,470.17,1557,490,1546.65,504.93Z"/><path class="cls-3" d="M1742.26,473.54l174.16-39.09a7.44,7.44,0,0,0,5.62-8.86c-4.09-18.44-8.16-32.88-12.09-42.92-7.73-19.67-18.8-36.27-32.9-49.31-15.72-14.83-33.76-24.4-53.65-28.44s-41.59-3.53-64.24,1.55c-38.11,8.55-66.8,27.77-85.25,57.12s-22.69,67.13-12.57,112.24c10.8,48.12,32.07,80.29,63.21,95.64s64.65,19.26,99.29,11.49c41.94-9.42,72.11-29.63,89.7-60.09,8.65-14.61,13.62-28.39,14.74-41a7.25,7.25,0,0,0-2.47-6.13,7.43,7.43,0,0,0-6.58-1.67l-54.55,12.25a7.44,7.44,0,0,0-5.44,5,57.37,57.37,0,0,1-8.92,17c-8.19,10.51-20.46,17.66-36.48,21.25-15,3.38-28.88,2.9-41.13-1.44-17.52-6-30.29-19.68-38-40.65a10.61,10.61,0,0,1,.64-8.73A10.46,10.46,0,0,1,1742.26,473.54Zm-19.45-53.69c.47-13.1,3.73-24.67,9.68-34.41a49,49,0,0,1,15.5-15.7,71.85,71.85,0,0,1,23.29-9.33c16.59-3.72,31.8-2,45.2,5.19,10.83,5.79,19.19,15.34,24.84,28.37a10.31,10.31,0,0,1-.29,8.78,10.51,10.51,0,0,1-7.09,5.51l-98.37,22.07a10.44,10.44,0,0,1-9-2.18A10.23,10.23,0,0,1,1722.81,419.85Z"/><path class="cls-3" d="M2180.75,415.26V573.58a7.43,7.43,0,0,1-7.44,7.42h-48.63a7.42,7.42,0,0,1-7.42-7.42V446.91c0-45.18-15-66.23-47.12-66.23-42.8,0-48.69,32.4-48.69,67.39V573.58A7.43,7.43,0,0,1,2014,581h-47a7.42,7.42,0,0,1-7.42-7.42V412.1A110.63,110.63,0,0,1,2173,371.38l.05.17a108.49,108.49,0,0,1,6.16,22.23l0,.23a139.66,139.66,0,0,1,1.47,19.39C2180.75,414,2180.75,414.63,2180.75,415.26Z"/><path class="cls-3" d="M2596.31,343.85c-22.43-28.1-57-42.34-102.84-42.34s-80.4,14.24-102.83,42.34-33.93,62-33.93,100.5c0,39.15,11.42,73.07,33.93,100.86s57,41.72,102.83,41.72,80.41-14,102.84-41.72A148.08,148.08,0,0,0,2621.72,499a170.86,170.86,0,0,0,8.52-54.69C2630.24,405.85,2618.82,372,2596.31,343.85ZM2542.1,508a54.22,54.22,0,0,1-20.78,17q-12.26,5.68-28.09,5.7c-21.1,0-37.59-7.62-49-22.66s-17.07-36.33-17.07-63.64,5.74-48.69,17.07-63.52,27.91-22.55,49-22.55,37.53,7.59,48.87,22.55,17,36.2,17,63.52S2553.36,493.07,2542.1,508Z"/><path class="cls-3" d="M2356.71,321.81v23.25a4,4,0,0,1-4.05,4h-35.25a4,4,0,0,0-4,4v10.5c0,.12,0,.25,0,.37L2295.6,560.87l-2.74,29.93a4,4,0,0,1-7.39,1.88c-15.65-23.46-54.71-85.37-54.71-118.3,0-23.92,8-82.21,14.4-120.58a4,4,0,0,0-4-4.7h-30a4,4,0,0,1-4-4V321.81a4,4,0,0,1,4-4.05H2248a4.06,4.06,0,0,0,4-3.33c1.09-6.05,1.75-9.58,1.75-9.58l.14-.77c1-5,6.51-33.41,8.38-46.29.16-1.14.29-2.16.4-3,1-8.42-4.1-17.55-7-22a4,4,0,0,1,.55-5.13l68.6-66.81a4,4,0,0,1,6.85,3.27L2318,313.35a4,4,0,0,0,4,4.41h30.63A4,4,0,0,1,2356.71,321.81Z"/></g></g></svg>