<?xml version="1.0" encoding="UTF-8" standalone="no"?>
<!DOCTYPE svg PUBLIC "-//W3C//DTD SVG 1.1//EN" "http://www.w3.org/Graphics/SVG/1.1/DTD/svg11.dtd">
<svg width="100%" height="100%" viewBox="0 0 2145 1968" version="1.1" xmlns="http://www.w3.org/2000/svg" xmlns:xlink="http://www.w3.org/1999/xlink" xml:space="preserve" xmlns:serif="http://www.serif.com/" style="fill-rule:evenodd;clip-rule:evenodd;stroke-linecap:square;stroke-linejoin:round;stroke-miterlimit:1.5;">
    <g transform="matrix(1,0,0,1,-21077.705109,-323.34081)">
        <g transform="matrix(11.824786,0,0,12.195826,16812.136061,-2385.331721)">
            <path d="M422.481,346.777L422.481,363.223L387.519,363.223L387.519,328.797L404.481,328.797L404.481,346.777L422.481,346.777Z" style="fill:rgb(0,82,204);"/>
            <g transform="matrix(1.163043,0,0,1.12766,-3843.293478,-2372.808511)">
                <path d="M3652.292,2348.271L3637.708,2348.271L3637.708,2317.708L3667.768,2317.708L3667.768,2332.292L3652.292,2332.292L3652.292,2348.271Z" style="fill:rgb(0,82,204);"/>
            </g>
            <g transform="matrix(1.163043,0,0,1.12766,-3843.293478,-2372.808511)">
                <path d="M3728.849,2391.552L3679.161,2391.552L3679.161,2379.052L3704.956,2379.052L3704.956,2364.931L3679.161,2364.931L3679.161,2352.431L3728.849,2352.431L3728.849,2332.292L3713.372,2332.292L3713.372,2317.708L3743.432,2317.708L3743.433,2364.931L3717.456,2364.931L3717.456,2379.052L3743.44,2379.052L3743.432,2426.292L3713.372,2426.292L3713.372,2411.708L3728.849,2411.708L3728.849,2391.552Z" style="fill:rgb(0,82,204);"/>
            </g>
        </g>
        <g transform="matrix(2.520681,0,0,3.975717,-29913.496507,-15496.133719)">
            <path d="M20932,3981L20932,4472" style="fill:none;stroke:rgb(230,230,230);stroke-opacity:0.37;stroke-width:3.34px;"/>
        </g>
        <g transform="matrix(2.520681,0,0,3.975717,-31165.928478,-15496.133719)">
            <path d="M20932,3981L20932,4472" style="fill:none;stroke:rgb(230,230,230);stroke-opacity:0.37;stroke-width:3.34px;"/>
        </g>
        <g transform="matrix(2.520681,0,0,3.975717,-30950.531833,-15496.133719)">
            <path d="M20932,3981L20932,4472" style="fill:none;stroke:rgb(230,230,230);stroke-opacity:0.37;stroke-width:3.34px;"/>
        </g>
        <g transform="matrix(2.520681,0,0,3.975717,-30798.991997,-15496.133719)">
            <path d="M20932,3981L20932,4472" style="fill:none;stroke:rgb(230,230,230);stroke-opacity:0.37;stroke-width:3.34px;"/>
        </g>
        <g transform="matrix(2.520681,0,0,3.975717,-30444.042639,-15496.133719)">
            <path d="M20932,3981L20932,4472" style="fill:none;stroke:rgb(230,230,230);stroke-opacity:0.37;stroke-width:3.34px;"/>
        </g>
        <g transform="matrix(2.520681,0,0,3.975717,-30270.405389,-15496.133719)">
            <path d="M20932,3981L20932,4472" style="fill:none;stroke:rgb(230,230,230);stroke-opacity:0.37;stroke-width:3.34px;"/>
        </g>
        <g transform="matrix(2.520681,0,0,3.975717,-30116.096937,-15496.133719)">
            <path d="M20932,3981L20932,4472" style="fill:none;stroke:rgb(230,230,230);stroke-opacity:0.37;stroke-width:3.34px;"/>
        </g>
        <g transform="matrix(2.520681,0,0,3.975717,-30328.596194,-15496.133719)">
            <path d="M20932,3981L20932,4472" style="fill:none;stroke:rgb(230,230,230);stroke-opacity:0.37;stroke-width:3.34px;"/>
        </g>
        <g transform="matrix(2.520681,0,0,3.975717,-31368.995813,-15496.133719)">
            <path d="M20932,3981L20932,4472" style="fill:none;stroke:rgb(230,230,230);stroke-opacity:0.37;stroke-width:3.34px;"/>
        </g>
        <g transform="matrix(0,-2.520681,4.336538,0,3821.804153,54803.886213)">
            <path d="M20932,3981L20932,4472" style="fill:none;stroke:rgb(230,230,230);stroke-opacity:0.37;stroke-width:3.13px;"/>
        </g>
        <g transform="matrix(0,-2.520681,4.336538,0,3821.804153,53312.337081)">
            <path d="M20932,3981L20932,4472" style="fill:none;stroke:rgb(230,230,230);stroke-opacity:0.37;stroke-width:3.13px;"/>
        </g>
        <g transform="matrix(0,-2.520681,4.336538,0,3821.804153,53516.982822)">
            <path d="M20932,3981L20932,4472" style="fill:none;stroke:rgb(230,230,230);stroke-opacity:0.37;stroke-width:3.13px;"/>
        </g>
        <g transform="matrix(0,-2.520681,4.336538,0,3821.804153,53730.719923)">
            <path d="M20932,3981L20932,4472" style="fill:none;stroke:rgb(230,230,230);stroke-opacity:0.37;stroke-width:3.13px;"/>
        </g>
        <g transform="matrix(0,-2.520681,4.336538,0,3821.804153,53788.938108)">
            <path d="M20932,3981L20932,4472" style="fill:none;stroke:rgb(230,230,230);stroke-opacity:0.37;stroke-width:3.13px;"/>
        </g>
        <g transform="matrix(0,-2.520681,4.336538,0,3821.804153,53963.88884)">
            <path d="M20932,3981L20932,4472" style="fill:none;stroke:rgb(230,230,230);stroke-opacity:0.37;stroke-width:3.13px;"/>
        </g>
        <g transform="matrix(0,-2.520681,4.336538,0,3821.804153,54155.386877)">
            <path d="M20932,3981L20932,4472" style="fill:none;stroke:rgb(230,230,230);stroke-opacity:0.37;stroke-width:3.13px;"/>
        </g>
        <g transform="matrix(0,-2.520681,4.336538,0,3821.804153,54331.445056)">
            <path d="M20932,3981L20932,4472" style="fill:none;stroke:rgb(230,230,230);stroke-opacity:0.37;stroke-width:3.13px;"/>
        </g>
        <g transform="matrix(0,-2.520681,4.336538,0,3821.804153,54384.087378)">
            <path d="M20932,3981L20932,4472" style="fill:none;stroke:rgb(230,230,230);stroke-opacity:0.37;stroke-width:3.13px;"/>
        </g>
        <g transform="matrix(0,-2.520681,4.336538,0,3821.804153,54606.220466)">
            <path d="M20932,3981L20932,4472" style="fill:none;stroke:rgb(230,230,230);stroke-opacity:0.37;stroke-width:3.13px;"/>
        </g>
    </g>
</svg>
