<svg xmlns="http://www.w3.org/2000/svg" viewBox="0 0 1916.61 520.81"><defs><style>.cls-1,.cls-2{fill:#0052cc;}.cls-2{fill-rule:evenodd;}</style></defs><title>logo</title><g id="Layer_2" data-name="Layer 2"><g id="Layer_1-2" data-name="Layer 1"><path class="cls-1" d="M984.87,28.77V127a65.5,65.5,0,0,0-19.21-13.4c-11.29-5.73-24.85-8.78-39.91-8.78a100.82,100.82,0,0,0-53.09,14.51c-15.82,9.55-28.24,22.92-37.66,39.35s-13.93,34.77-13.93,55,4.52,38.59,13.93,55A103.26,103.26,0,0,0,872.28,308c15.81,9.55,33.89,14.52,53.85,14.52a96,96,0,0,0,39.16-8,63.32,63.32,0,0,0,23.34-16.29V318h52.72V28.77Zm-6.4,214.69A50.27,50.27,0,0,1,960,263.71c-7.91,5-16.95,7.26-27.12,7.26s-19.58-2.3-27.48-7.26a49.42,49.42,0,0,1-19.21-20.25,64.2,64.2,0,0,1-6.78-29.8,64.13,64.13,0,0,1,6.78-29.79,51.78,51.78,0,0,1,19.21-20.25c7.9-5,17.32-7.26,27.48-7.26s19.21,2.29,27.12,7.26a50.2,50.2,0,0,1,18.45,20.25,72.55,72.55,0,0,1,0,59.59ZM1009,410.34,991.5,463.92l-17.64-53.58H959.08l-17.77,53.6-17.4-53.6H906.69l26.7,78.79H948l18.43-56.08,18.17,56.08h14.78l26.84-78.79Zm85.33,11.36a26.68,26.68,0,0,0-11-9.61,36,36,0,0,0-16.22-3.49,40,40,0,0,0-13.92,2.47,37.34,37.34,0,0,0-11.34,7,25.09,25.09,0,0,0-7,10.34l13.5,6.85a18.66,18.66,0,0,1,7-8.89,18.94,18.94,0,0,1,11.2-3.49c4.73,0,8.46,1.31,11.33,3.78a12,12,0,0,1,4.31,9.47v3l-24.69,4.13a44.92,44.92,0,0,0-14.78,4.95,22.43,22.43,0,0,0-11.48,20.09,20.79,20.79,0,0,0,12.63,19.81,31.1,31.1,0,0,0,13.78,2.76,34.73,34.73,0,0,0,11.91-1.89,31.17,31.17,0,0,0,9.62-5.39,27.49,27.49,0,0,0,3.73-3.66v9.2h15.5v-53A27.22,27.22,0,0,0,1094.36,421.7Zm-12.2,34.66a22,22,0,0,1-2.73,10.92,20.8,20.8,0,0,1-7.75,7.72,23,23,0,0,1-11.62,2.91,13.17,13.17,0,0,1-8.62-2.91,8.68,8.68,0,0,1-3.3-7.13,10.39,10.39,0,0,1,3-7.72c2-2,5.16-3.5,9.47-4.23l21.53-3.81Zm71.27-46.89c-5.31,0-9.91,1-13.78,3.35a17.23,17.23,0,0,0-6.89,7.58V410.34h-15.5v78.79h16.07V443.69c0-6.11,1.72-10.92,5-14.27s7.6-5.1,13.06-5.1h6.74V409.47Zm85.4,22.72a35.42,35.42,0,0,0-7.18-12.09,32.39,32.39,0,0,0-11.62-8.44,38.75,38.75,0,0,0-15.79-3.06,35.29,35.29,0,0,0-19.38,5.39,38.88,38.88,0,0,0-13.78,14.41,46.62,46.62,0,0,0,0,42.09A37.34,37.34,0,0,0,1185,485.34a39.25,39.25,0,0,0,20.67,5.53,42.17,42.17,0,0,0,14.5-2.47,36.41,36.41,0,0,0,11.48-7,27.58,27.58,0,0,0,7.18-9.9l-13.2-6.7a25.56,25.56,0,0,1-7.9,8.3,21.2,21.2,0,0,1-11.91,3.2,23.39,23.39,0,0,1-12.35-3.35,21.8,21.8,0,0,1-8.32-9.32,24.07,24.07,0,0,1-2.22-9.17h57.77a30.76,30.76,0,0,0,.57-3.79,36.87,36.87,0,0,0,.14-3.93A41.5,41.5,0,0,0,1238.83,432.19Zm-55.57,9.17a26,26,0,0,1,1.74-6.26,20.16,20.16,0,0,1,7.9-9.32,19.27,19.27,0,0,1,11.34-3.35,19.52,19.52,0,0,1,18.51,12.23,18.58,18.58,0,0,1,1.47,6.7Zm202.25-299.14a69.93,69.93,0,0,0-27.11-27.5c-11.29-6.49-24.47-9.93-39.16-9.93-16.94,0-31.63,4.2-44,12.22a67.75,67.75,0,0,0-19.4,19.34,54.59,54.59,0,0,0-17.51-18.19,79.69,79.69,0,0,0-45.18-13.37c-16.19,0-29.75,3.82-41.42,11.46a46.31,46.31,0,0,0-16.19,18.25V109.37h-52.72V318h56.48V196.09a51,51,0,0,1,4.14-21A33.41,33.41,0,0,1,1175,156.36c7.53,0,13.94,1.53,19.21,5a36.15,36.15,0,0,1,12.42,13.75,50.78,50.78,0,0,1,4.15,21V318h56.48V196.09a50.78,50.78,0,0,1,4.14-21,34.27,34.27,0,0,1,12.8-13.75c5.27-3.44,11.68-5,18.83-5,7.53,0,13.93,1.53,19.2,5a36.1,36.1,0,0,1,12.43,13.75,50.78,50.78,0,0,1,4.14,21V318h56.48V183.87C1395.3,168.2,1391.92,154.07,1385.51,142.22ZM1553,410.34V456.8a22.61,22.61,0,0,1-2.29,10.05,15.24,15.24,0,0,1-6,6.4,16.73,16.73,0,0,1-9,2.33,17.85,17.85,0,0,1-8.89-2.18,17.46,17.46,0,0,1-6.18-6.41,21.84,21.84,0,0,1-2-9.46V410.34h-16.22V459a36.38,36.38,0,0,0,3.59,16.75,27.7,27.7,0,0,0,10.34,11.21,29.45,29.45,0,0,0,15.36,3.93,27.77,27.77,0,0,0,14.78-3.93,21.52,21.52,0,0,0,7.32-7.55v9.74h15.36V410.34Zm69.71-243.28a98.29,98.29,0,0,0-19.58-32.48,88.8,88.8,0,0,0-32-21.77c-12.42-5.35-27.11-8-43.3-8-19.58,0-37.28,4.58-52.72,14.13a103.06,103.06,0,0,0-36.9,38.59c-9.41,16.42-13.93,34.76-13.93,55.77,0,20.25,4.52,38.58,13.18,55A101.34,101.34,0,0,0,1474.76,308c16.19,9.55,35,14.52,56.85,14.52a114.65,114.65,0,0,0,38.79-6.5,88.38,88.38,0,0,0,30.88-17.57,69.08,69.08,0,0,0,18.82-26.74L1574.92,250a46.85,46.85,0,0,1-16.57,16.81c-7.53,4.21-15.82,6.12-26,6.12-10.92,0-20.34-2.68-28.24-7.64-7.91-4.59-13.56-11.85-17.32-20.63a55.73,55.73,0,0,1-4-14.9h144.06a35.06,35.06,0,0,0,2.26-10.32c.38-3.82.38-7.64.38-11.84A118.5,118.5,0,0,0,1622.74,167.06Zm-138.31,20.63a68.8,68.8,0,0,1,2.38-8.41c3.38-9.55,8.66-16.43,15.81-21.39s15.44-7.26,25.23-7.26c10.17,0,18.45,2.67,25.6,7.64a37.67,37.67,0,0,1,14.31,20.25,46.59,46.59,0,0,1,1.89,9.17Zm286.67-80.61c-14.31,0-26.74,3.06-37.28,9.55-7.73,4.64-13.94,12.6-18.45,23.87V109.37h-52.72V318h56.49V205.64c0-15.66,4.14-27.51,12.8-36.29,8.66-8.41,19.58-12.61,33.51-12.61h17.7V107.08ZM1838,422.87a27,27,0,0,0-10.48-10.49,29.77,29.77,0,0,0-15.07-3.78,26.89,26.89,0,0,0-14.64,3.93,20.92,20.92,0,0,0-7.32,7.34v-9.53h-15.5v78.79H1791V442.67a21.68,21.68,0,0,1,2.29-10.05,14.73,14.73,0,0,1,6.17-6.4,16.65,16.65,0,0,1,8.9-2.33,16.27,16.27,0,0,1,8.9,2.33,15.51,15.51,0,0,1,6.18,6.4,21.58,21.58,0,0,1,2,10.05v46.46h16.22V438.3A31.82,31.82,0,0,0,1838,422.87Z"/><g id="Secondary-Horizontal1"><path class="cls-2" d="M144.19,450.86v69.95H0V374.38H70v76.48Z"/><path class="cls-2" d="M70,146.59H0V0H144.18V70H70Z"/><path class="cls-2" d="M437.15,354.19H198.83v-60H322.55V226.5H198.83V166.55H437.15V70H362.92V0H507.1V226.5H382.5v67.73H507.13l0,226.58H362.92V450.86h74.23Z"/><path class="cls-1" d="M611.71,318V33.35H800.36V84.92H670.08v64.56H792.83v51.57H670.08v65.33H800.36V318Z"/><path class="cls-1" d="M984.87,28.77V127a65.5,65.5,0,0,0-19.21-13.4c-11.29-5.73-24.85-8.78-39.91-8.78a100.82,100.82,0,0,0-53.09,14.51c-15.82,9.55-28.24,22.92-37.66,39.35s-13.93,34.77-13.93,55,4.52,38.59,13.93,55A103.26,103.26,0,0,0,872.28,308c15.81,9.55,33.89,14.52,53.85,14.52a96,96,0,0,0,39.16-8,63.32,63.32,0,0,0,23.34-16.29V318h52.72V28.77Zm-6.4,214.69A50.27,50.27,0,0,1,960,263.71c-7.91,5-16.95,7.26-27.12,7.26s-19.58-2.3-27.48-7.26a49.42,49.42,0,0,1-19.21-20.25,64.2,64.2,0,0,1-6.78-29.8,64.13,64.13,0,0,1,6.78-29.79,51.78,51.78,0,0,1,19.21-20.25c7.9-5,17.32-7.26,27.48-7.26s19.21,2.29,27.12,7.26a50.2,50.2,0,0,1,18.45,20.25,72.55,72.55,0,0,1,0,59.59Z"/><path class="cls-1" d="M1395.3,183.87V318h-56.48V196.09a50.78,50.78,0,0,0-4.14-21,36.1,36.1,0,0,0-12.43-13.75c-5.27-3.44-11.67-5-19.2-5-7.15,0-13.56,1.53-18.83,5a34.27,34.27,0,0,0-12.8,13.75,50.78,50.78,0,0,0-4.14,21V318H1210.8V196.09a50.78,50.78,0,0,0-4.15-21,36.15,36.15,0,0,0-12.42-13.75c-5.27-3.44-11.68-5-19.21-5a33.41,33.41,0,0,0-31.63,18.72,51,51,0,0,0-4.14,21V318h-56.48V109.37h52.72V134.5a46.31,46.31,0,0,1,16.19-18.25c11.67-7.64,25.23-11.46,41.42-11.46a79.69,79.69,0,0,1,45.18,13.37,54.59,54.59,0,0,1,17.51,18.19,67.75,67.75,0,0,1,19.4-19.34c12.42-8,27.11-12.22,44-12.22,14.69,0,27.87,3.44,39.16,9.93a69.93,69.93,0,0,1,27.11,27.5C1391.92,154.07,1395.3,168.2,1395.3,183.87Z"/><path class="cls-1" d="M1622.74,167.06a98.29,98.29,0,0,0-19.58-32.48,88.8,88.8,0,0,0-32-21.77c-12.42-5.35-27.11-8-43.3-8-19.58,0-37.28,4.58-52.72,14.13a103.06,103.06,0,0,0-36.9,38.59c-9.41,16.42-13.93,34.76-13.93,55.77,0,20.25,4.52,38.58,13.18,55A101.34,101.34,0,0,0,1474.76,308c16.19,9.55,35,14.52,56.85,14.52a114.65,114.65,0,0,0,38.79-6.5,88.38,88.38,0,0,0,30.88-17.57,69.08,69.08,0,0,0,18.82-26.74L1574.92,250a46.85,46.85,0,0,1-16.57,16.81c-7.53,4.21-15.82,6.12-26,6.12-10.92,0-20.34-2.68-28.24-7.64-7.91-4.59-13.56-11.85-17.32-20.63a55.73,55.73,0,0,1-4-14.9h144.06a35.06,35.06,0,0,0,2.26-10.32c.38-3.82.38-7.64.38-11.84A118.5,118.5,0,0,0,1622.74,167.06Zm-138.31,20.63a68.8,68.8,0,0,1,2.38-8.41c3.38-9.55,8.66-16.43,15.81-21.39s15.44-7.26,25.23-7.26c10.17,0,18.45,2.67,25.6,7.64a37.67,37.67,0,0,1,14.31,20.25,46.59,46.59,0,0,1,1.89,9.17Z"/><path class="cls-1" d="M1783.15,107.08v49.66h-17.7c-13.93,0-24.85,4.2-33.51,12.61-8.66,8.78-12.8,20.63-12.8,36.29V318h-56.49V109.37h52.72V140.5c4.51-11.27,10.72-19.23,18.45-23.87,10.54-6.49,23-9.55,37.28-9.55Z"/><path class="cls-1" d="M650.69,490.87A46.6,46.6,0,0,1,632,487.09a43.56,43.56,0,0,1-14.64-10.63,42.62,42.62,0,0,1-8.9-15.44l14.36-6.12c2.58,6.7,6.31,11.8,11.34,15.44a28.64,28.64,0,0,0,17.22,5.53A26.44,26.44,0,0,0,661.46,474a16.21,16.21,0,0,0,6.6-5.24A13,13,0,0,0,670.5,461a13.55,13.55,0,0,0-3.3-9.47,21,21,0,0,0-9.76-5.38l-20.24-6.56c-7.89-2.47-14.07-6.26-18.23-11.5a30.38,30.38,0,0,1-1.86-34.37,29.83,29.83,0,0,1,12.2-10.92,39.26,39.26,0,0,1,17.94-3.93,43.28,43.28,0,0,1,17.51,3.49,39.13,39.13,0,0,1,13.49,9.47,36.27,36.27,0,0,1,8.33,13.69l-14.07,6.26a27.35,27.35,0,0,0-9.9-13.25A26.2,26.2,0,0,0,647.25,394a23.32,23.32,0,0,0-9.33,1.75A13.4,13.4,0,0,0,631.6,401a14.07,14.07,0,0,0-2.15,7.87,14.61,14.61,0,0,0,3.16,9.32c2.29,2.76,5.6,4.8,10.19,6.11l18.66,6c8.47,2.62,14.93,6.41,19.23,11.36s6.46,10.92,6.46,18.2A28.46,28.46,0,0,1,682.41,476a30.58,30.58,0,0,1-12.77,10.92A43.27,43.27,0,0,1,650.69,490.87Z"/><path class="cls-1" d="M777.07,428.55a40.27,40.27,0,0,0-35.16-19.95,39.83,39.83,0,0,0-35.17,19.95,43.63,43.63,0,0,0,0,42.23,38.73,38.73,0,0,0,14.64,14.71,39.71,39.71,0,0,0,20.53,5.38,39.2,39.2,0,0,0,20.38-5.38,40.32,40.32,0,0,0,14.64-14.57,44.4,44.4,0,0,0,.14-42.37Zm-14.64,34.51a23.28,23.28,0,0,1-8.32,9.17,23.89,23.89,0,0,1-24.4,0,23.55,23.55,0,0,1-8.47-9.17,29.17,29.17,0,0,1-3-13.4,28.54,28.54,0,0,1,3-13.25,25.74,25.74,0,0,1,8.47-9.17,23.89,23.89,0,0,1,24.4,0,25.43,25.43,0,0,1,8.32,9.17,28.54,28.54,0,0,1,3,13.25A29.17,29.17,0,0,1,762.43,463.06Z"/><path class="cls-1" d="M804.78,489.12V425.2H790.43V410.34h14.35v-4.07c0-5.83,1.15-10.78,3.59-14.86a24.06,24.06,0,0,1,10-9.32,31.1,31.1,0,0,1,14.64-3.2c1,0,2.29.14,3.58.14,1.3.15,2.44.44,3.31.59v14.27a15.33,15.33,0,0,0-2.59-.29,14.17,14.17,0,0,0-2.29-.15c-4.45,0-7.76,1-10.34,3.06s-3.87,5.24-3.87,9.76v4.07h17.79V425.2H820.86v63.92Z"/><path class="cls-1" d="M890.11,490q-12.27,0-18.94-7c-4.45-4.66-6.75-11.07-6.75-19.51V425.2H850.78V410.34h2.16c3.58,0,6.46-1,8.46-3.2s3-4.95,3-8.74v-6.11h16.22v18h17.51V425.2H880.64v37.57a18,18,0,0,0,1.15,6.7,10.77,10.77,0,0,0,4.3,4.51,15.91,15.91,0,0,0,7.47,1.46,16.65,16.65,0,0,0,2.58-.15c.86-.15,1.87-.15,2.58-.29v14.12a33.36,33.36,0,0,1-4.3.59C892.84,489.85,891.4,490,890.11,490Z"/><polygon class="cls-1" points="1026.25 410.34 999.41 489.13 984.63 489.13 966.46 433.05 948.03 489.13 933.39 489.13 906.69 410.34 923.91 410.34 941.31 463.94 959.08 410.34 973.86 410.34 991.5 463.92 1009.03 410.34 1026.25 410.34"/><path class="cls-1" d="M1094.36,421.7a26.68,26.68,0,0,0-11-9.61,36,36,0,0,0-16.22-3.49,40,40,0,0,0-13.92,2.47,37.34,37.34,0,0,0-11.34,7,25.09,25.09,0,0,0-7,10.34l13.5,6.85a18.66,18.66,0,0,1,7-8.89,18.94,18.94,0,0,1,11.2-3.49c4.73,0,8.46,1.31,11.33,3.78a12,12,0,0,1,4.31,9.47v3l-24.69,4.13a44.92,44.92,0,0,0-14.78,4.95,22.43,22.43,0,0,0-11.48,20.09,20.79,20.79,0,0,0,12.63,19.81,31.1,31.1,0,0,0,13.78,2.76,34.73,34.73,0,0,0,11.91-1.89,31.17,31.17,0,0,0,9.62-5.39,27.49,27.49,0,0,0,3.73-3.66v9.2h15.5v-53A27.22,27.22,0,0,0,1094.36,421.7Zm-12.2,34.66a22,22,0,0,1-2.73,10.92,20.8,20.8,0,0,1-7.75,7.72,23,23,0,0,1-11.62,2.91,13.17,13.17,0,0,1-8.62-2.91,8.68,8.68,0,0,1-3.3-7.13,10.39,10.39,0,0,1,3-7.72c2-2,5.16-3.5,9.47-4.23l21.53-3.81Z"/><path class="cls-1" d="M1158.16,409.47v14.85h-6.74c-5.46,0-9.76,1.75-13.06,5.1s-5,8.16-5,14.27v45.44h-16.07V410.34h15.5V420.4a17.23,17.23,0,0,1,6.89-7.58c3.87-2.33,8.47-3.35,13.78-3.35Z"/><path class="cls-1" d="M1238.83,432.19a35.42,35.42,0,0,0-7.18-12.09,32.39,32.39,0,0,0-11.62-8.44,38.75,38.75,0,0,0-15.79-3.06,35.29,35.29,0,0,0-19.38,5.39,38.88,38.88,0,0,0-13.78,14.41,46.62,46.62,0,0,0,0,42.09A37.34,37.34,0,0,0,1185,485.34a39.25,39.25,0,0,0,20.67,5.53,42.17,42.17,0,0,0,14.5-2.47,36.41,36.41,0,0,0,11.48-7,27.58,27.58,0,0,0,7.18-9.9l-13.2-6.7a25.56,25.56,0,0,1-7.9,8.3,21.2,21.2,0,0,1-11.91,3.2,23.39,23.39,0,0,1-12.35-3.35,21.8,21.8,0,0,1-8.32-9.32,24.07,24.07,0,0,1-2.22-9.17h57.77a30.76,30.76,0,0,0,.57-3.79,36.87,36.87,0,0,0,.14-3.93A41.5,41.5,0,0,0,1238.83,432.19Zm-55.57,9.17a26,26,0,0,1,1.74-6.26,20.16,20.16,0,0,1,7.9-9.32,19.27,19.27,0,0,1,11.34-3.35,19.52,19.52,0,0,1,18.51,12.23,18.58,18.58,0,0,1,1.47,6.7Z"/><path class="cls-1" d="M1321.37,490.87a46.57,46.57,0,0,1-18.66-3.78,43.56,43.56,0,0,1-14.64-10.63,42.47,42.47,0,0,1-8.9-15.44l14.35-6.12c2.59,6.7,6.32,11.8,11.34,15.44a28.67,28.67,0,0,0,17.23,5.53,26.42,26.42,0,0,0,10-1.89,16.24,16.24,0,0,0,6.61-5.24,13.07,13.07,0,0,0,2.44-7.72,13.51,13.51,0,0,0-3.31-9.47,21,21,0,0,0-9.76-5.38l-20.23-6.56c-7.9-2.47-14.07-6.26-18.23-11.5a30.36,30.36,0,0,1-1.87-34.37,29.83,29.83,0,0,1,12.2-10.92,39.32,39.32,0,0,1,17.94-3.93,43.25,43.25,0,0,1,17.51,3.49,39.17,39.17,0,0,1,13.5,9.47,36.12,36.12,0,0,1,8.32,13.69l-14.06,6.26a27.43,27.43,0,0,0-9.91-13.25,26.18,26.18,0,0,0-15.36-4.52,23.32,23.32,0,0,0-9.33,1.75,13.38,13.38,0,0,0-6.31,5.24,14,14,0,0,0-2.16,7.87,14.66,14.66,0,0,0,3.16,9.32c2.3,2.76,5.6,4.8,10.19,6.11l18.66,6c8.47,2.62,14.93,6.41,19.24,11.36s6.46,10.92,6.46,18.2a28.46,28.46,0,0,1-4.74,16.17,30.61,30.61,0,0,1-12.78,10.92A43.25,43.25,0,0,1,1321.37,490.87Z"/><path class="cls-1" d="M1447.75,428.55a40.27,40.27,0,0,0-35.17-19.95,39.8,39.8,0,0,0-35.16,19.95,43.56,43.56,0,0,0,0,42.23,38.59,38.59,0,0,0,14.64,14.71,39.7,39.7,0,0,0,20.52,5.38,39.17,39.17,0,0,0,20.38-5.38,40.32,40.32,0,0,0,14.64-14.57,41.75,41.75,0,0,0,5.46-21.26A42.23,42.23,0,0,0,1447.75,428.55Zm-14.64,34.51a23.22,23.22,0,0,1-8.33,9.17,23.89,23.89,0,0,1-24.4,0,23.62,23.62,0,0,1-8.47-9.17,29.16,29.16,0,0,1-3-13.4,28.54,28.54,0,0,1,3-13.25,25.83,25.83,0,0,1,8.47-9.17,23.89,23.89,0,0,1,24.4,0,25.37,25.37,0,0,1,8.33,9.17,28.54,28.54,0,0,1,3,13.25A29.16,29.16,0,0,1,1433.11,463.06Z"/><rect class="cls-1" x="1468.85" y="378.89" width="16.08" height="110.24"/><path class="cls-1" d="M1569.11,410.34v78.79h-15.36v-9.74a21.52,21.52,0,0,1-7.32,7.55,27.77,27.77,0,0,1-14.78,3.93,29.45,29.45,0,0,1-15.36-3.93A27.7,27.7,0,0,1,1506,475.73a36.38,36.38,0,0,1-3.59-16.75V410.34h16.22v47.19a21.84,21.84,0,0,0,2,9.46,17.46,17.46,0,0,0,6.18,6.41,17.85,17.85,0,0,0,8.89,2.18,16.73,16.73,0,0,0,9-2.33,15.24,15.24,0,0,0,6-6.4A22.61,22.61,0,0,0,1553,456.8V410.34Z"/><path class="cls-1" d="M1621.65,490q-12.29,0-19-7c-4.45-4.66-6.75-11.07-6.75-19.51V425.2h-13.63V410.34h2.15c3.59,0,6.46-1,8.47-3.2s3-4.95,3-8.74v-6.11h16.22v18h17.51V425.2h-17.51v37.57a18,18,0,0,0,1.15,6.7,10.85,10.85,0,0,0,4.31,4.51,15.86,15.86,0,0,0,7.46,1.46,16.59,16.59,0,0,0,2.58-.15c.87-.15,1.87-.15,2.59-.29v14.12a33.53,33.53,0,0,1-4.31.59C1624.37,489.85,1622.94,490,1621.65,490Z"/><path class="cls-1" d="M1646.12,380.64v18.93h16.07V380.64Zm0,29.7v78.79h16.07V410.34Z"/><path class="cls-1" d="M1753.84,428.55a40.27,40.27,0,0,0-35.17-19.95,39.8,39.8,0,0,0-35.16,19.95,43.56,43.56,0,0,0,0,42.23,38.73,38.73,0,0,0,14.64,14.71,39.7,39.7,0,0,0,20.52,5.38,39.23,39.23,0,0,0,20.39-5.38,40.48,40.48,0,0,0,14.64-14.57,44.4,44.4,0,0,0,.14-42.37Zm-14.64,34.51a23.22,23.22,0,0,1-8.33,9.17,23.89,23.89,0,0,1-24.4,0,23.62,23.62,0,0,1-8.47-9.17,29.16,29.16,0,0,1-3-13.4,28.54,28.54,0,0,1,3-13.25,25.83,25.83,0,0,1,8.47-9.17,23.89,23.89,0,0,1,24.4,0,25.37,25.37,0,0,1,8.33,9.17,28.54,28.54,0,0,1,3,13.25A29.16,29.16,0,0,1,1739.2,463.06Z"/><path class="cls-1" d="M1841.68,438.3v50.83h-16.22V442.67a21.58,21.58,0,0,0-2-10.05,15.51,15.51,0,0,0-6.18-6.4,16.27,16.27,0,0,0-8.9-2.33,16.65,16.65,0,0,0-8.9,2.33,14.73,14.73,0,0,0-6.17,6.4,21.68,21.68,0,0,0-2.29,10.05v46.46h-16.08V410.34h15.5v9.53a20.92,20.92,0,0,1,7.32-7.34,26.89,26.89,0,0,1,14.64-3.93,29.77,29.77,0,0,1,15.07,3.78A27,27,0,0,1,1838,422.87,31.82,31.82,0,0,1,1841.68,438.3Z"/><path class="cls-1" d="M1887.76,490.87a37.29,37.29,0,0,1-21-6,31.92,31.92,0,0,1-12.49-16l12.49-6a25.54,25.54,0,0,0,8.61,10.78,22.06,22.06,0,0,0,12.34,3.78,15.41,15.41,0,0,0,9.33-2.62,8.1,8.1,0,0,0,3.59-7,7.11,7.11,0,0,0-1.58-4.8,13.72,13.72,0,0,0-3.87-3.06,40.9,40.9,0,0,0-4.88-1.75l-12.2-3.49q-10.12-2.85-15.08-8.74a20.87,20.87,0,0,1-4.88-13.83,21.24,21.24,0,0,1,3.59-12.38,24,24,0,0,1,9.76-8.3,35.08,35.08,0,0,1,14.36-2.91,33.9,33.9,0,0,1,18.94,5.38,28.26,28.26,0,0,1,11.77,14.71l-12.48,6.12a19.36,19.36,0,0,0-7.32-9.18,19.85,19.85,0,0,0-11.06-3.35,13.39,13.39,0,0,0-8.47,2.48,8.12,8.12,0,0,0-3.15,6.7,7.23,7.23,0,0,0,1.43,4.66,9.06,9.06,0,0,0,3.73,2.76,21.35,21.35,0,0,0,4.74,1.9l12.63,3.78c6.32,1.9,11.34,4.81,14.79,8.74a22,22,0,0,1,1.57,26.21,23.15,23.15,0,0,1-10.19,8.3A34.83,34.83,0,0,1,1887.76,490.87Z"/></g></g></g></svg>