<?xml version="1.0" encoding="UTF-8" standalone="no"?>
<!DOCTYPE svg PUBLIC "-//W3C//DTD SVG 1.1//EN" "http://www.w3.org/Graphics/SVG/1.1/DTD/svg11.dtd">
<svg width="100%" height="100%" viewBox="0 0 3000 3000" version="1.1" xmlns="http://www.w3.org/2000/svg" xmlns:xlink="http://www.w3.org/1999/xlink" xml:space="preserve" xmlns:serif="http://www.serif.com/" style="fill-rule:evenodd;clip-rule:evenodd;stroke-linejoin:round;stroke-miterlimit:2;">
    <g transform="matrix(1,0,0,1,-9150,0)">
        <rect id="Lettermark2" x="9150" y="0" width="3000" height="3000" style="fill:none;"/>
        <g id="Lettermark21" serif:id="Lettermark2">
            <g transform="matrix(2.75716,0,0,2.75716,-31213.241341,-12333.403976)">
                <g transform="matrix(6.071083,0,0,6.071083,11654.838338,2020.356613)">
                    <g transform="matrix(50,0,0,50,491.268332,508.357776)">
                        <path d="M0.066,-0L0.066,-0.745L0.567,-0.745L0.567,-0.61L0.221,-0.61L0.221,-0.441L0.547,-0.441L0.547,-0.306L0.221,-0.306L0.221,-0.135L0.567,-0.135L0.567,-0L0.066,-0Z" style="fill:rgb(0,82,204);fill-rule:nonzero;"/>
                    </g>
                    <g transform="matrix(50,0,0,50,520.718332,508.357776)">
                        <path d="M0.312,0.012C0.259,0.012 0.211,-0.001 0.169,-0.026C0.127,-0.051 0.094,-0.086 0.07,-0.129C0.045,-0.172 0.033,-0.22 0.033,-0.273C0.033,-0.326 0.045,-0.374 0.07,-0.417C0.095,-0.46 0.128,-0.495 0.17,-0.52C0.212,-0.545 0.259,-0.558 0.311,-0.558C0.351,-0.558 0.387,-0.55 0.417,-0.535C0.448,-0.521 0.473,-0.499 0.491,-0.472L0.468,-0.442L0.468,-0.757L0.618,-0.757L0.618,-0L0.478,-0L0.478,-0.1L0.492,-0.069C0.473,-0.042 0.448,-0.022 0.416,-0.009C0.384,0.005 0.349,0.012 0.312,0.012ZM0.33,-0.123C0.357,-0.123 0.381,-0.129 0.402,-0.142C0.423,-0.155 0.439,-0.172 0.451,-0.195C0.462,-0.218 0.468,-0.244 0.468,-0.273C0.468,-0.302 0.462,-0.328 0.451,-0.351C0.439,-0.374 0.423,-0.391 0.402,-0.404C0.381,-0.417 0.357,-0.423 0.33,-0.423C0.303,-0.423 0.278,-0.417 0.257,-0.404C0.235,-0.391 0.218,-0.373 0.206,-0.351C0.194,-0.328 0.188,-0.302 0.188,-0.273C0.188,-0.244 0.194,-0.218 0.206,-0.195C0.218,-0.172 0.235,-0.155 0.257,-0.142C0.278,-0.129 0.303,-0.123 0.33,-0.123Z" style="fill:rgb(0,82,204);fill-rule:nonzero;"/>
                    </g>
                    <g transform="matrix(50,0,0,50,554.368332,508.357776)">
                        <path d="M0.055,-0L0.055,-0.546L0.195,-0.546L0.195,-0.413L0.18,-0.435C0.188,-0.477 0.207,-0.508 0.238,-0.528C0.269,-0.548 0.305,-0.558 0.348,-0.558C0.393,-0.558 0.433,-0.546 0.468,-0.523C0.502,-0.501 0.523,-0.47 0.532,-0.431L0.489,-0.427C0.507,-0.472 0.533,-0.505 0.566,-0.526C0.599,-0.547 0.638,-0.558 0.683,-0.558C0.722,-0.558 0.757,-0.549 0.787,-0.532C0.818,-0.515 0.842,-0.49 0.859,-0.46C0.876,-0.429 0.885,-0.392 0.885,-0.351L0.885,-0L0.735,-0L0.735,-0.319C0.735,-0.34 0.731,-0.359 0.724,-0.374C0.716,-0.389 0.705,-0.401 0.691,-0.41C0.677,-0.419 0.66,-0.423 0.64,-0.423C0.621,-0.423 0.604,-0.419 0.59,-0.41C0.575,-0.401 0.564,-0.389 0.556,-0.374C0.549,-0.359 0.545,-0.34 0.545,-0.319L0.545,-0L0.395,-0L0.395,-0.319C0.395,-0.34 0.391,-0.359 0.384,-0.374C0.376,-0.389 0.365,-0.401 0.351,-0.41C0.337,-0.419 0.32,-0.423 0.3,-0.423C0.281,-0.423 0.264,-0.419 0.249,-0.41C0.235,-0.401 0.224,-0.389 0.216,-0.374C0.209,-0.359 0.205,-0.34 0.205,-0.319L0.205,-0L0.055,-0Z" style="fill:rgb(0,82,204);fill-rule:nonzero;"/>
                    </g>
                    <g transform="matrix(50,0,0,50,600.818332,508.357776)">
                        <path d="M0.318,0.012C0.26,0.012 0.21,-0.001 0.167,-0.026C0.124,-0.052 0.091,-0.087 0.068,-0.13C0.045,-0.173 0.033,-0.221 0.033,-0.274C0.033,-0.329 0.045,-0.377 0.07,-0.42C0.094,-0.463 0.127,-0.496 0.168,-0.521C0.209,-0.546 0.256,-0.558 0.308,-0.558C0.351,-0.558 0.39,-0.551 0.423,-0.537C0.456,-0.524 0.484,-0.505 0.508,-0.48C0.531,-0.455 0.548,-0.427 0.56,-0.395C0.572,-0.362 0.578,-0.327 0.578,-0.289C0.578,-0.278 0.578,-0.268 0.577,-0.258C0.576,-0.247 0.574,-0.238 0.571,-0.231L0.162,-0.231L0.162,-0.341L0.486,-0.341L0.415,-0.289C0.422,-0.318 0.421,-0.343 0.414,-0.365C0.407,-0.388 0.394,-0.405 0.376,-0.418C0.357,-0.431 0.335,-0.438 0.308,-0.438C0.282,-0.438 0.26,-0.432 0.241,-0.419C0.222,-0.406 0.208,-0.388 0.199,-0.363C0.19,-0.338 0.186,-0.308 0.188,-0.273C0.185,-0.242 0.189,-0.215 0.199,-0.192C0.209,-0.169 0.224,-0.15 0.245,-0.138C0.266,-0.125 0.291,-0.118 0.32,-0.118C0.347,-0.118 0.369,-0.123 0.389,-0.134C0.407,-0.145 0.422,-0.159 0.433,-0.178L0.553,-0.121C0.542,-0.094 0.526,-0.071 0.503,-0.051C0.48,-0.031 0.452,-0.015 0.421,-0.005C0.39,0.006 0.355,0.012 0.318,0.012Z" style="fill:rgb(0,82,204);fill-rule:nonzero;"/>
                    </g>
                    <g transform="matrix(50,0,0,50,631.368332,508.357776)">
                        <path d="M0.055,-0L0.055,-0.546L0.195,-0.546L0.195,-0.415L0.185,-0.434C0.197,-0.48 0.217,-0.511 0.244,-0.527C0.272,-0.544 0.305,-0.552 0.343,-0.552L0.375,-0.552L0.375,-0.422L0.328,-0.422C0.291,-0.422 0.262,-0.411 0.239,-0.389C0.216,-0.366 0.205,-0.335 0.205,-0.294L0.205,-0L0.055,-0Z" style="fill:rgb(0,82,204);fill-rule:nonzero;"/>
                    </g>
                    <g transform="matrix(50,0,0,50,650.668332,508.357776)">
                    </g>
                </g>
                <g transform="matrix(6.071083,0,0,6.071083,11667.186092,2156.371006)">
                    <g transform="matrix(19.059551,0,0,19.059551,491.268332,508.357776)">
                        <path d="M0.338,0.012C0.291,0.012 0.248,0.003 0.208,-0.014C0.168,-0.032 0.134,-0.056 0.106,-0.087C0.078,-0.118 0.057,-0.153 0.044,-0.193L0.144,-0.235C0.162,-0.189 0.188,-0.154 0.223,-0.129C0.258,-0.104 0.298,-0.091 0.343,-0.091C0.37,-0.091 0.393,-0.096 0.413,-0.104C0.433,-0.113 0.448,-0.125 0.459,-0.14C0.47,-0.155 0.476,-0.173 0.476,-0.193C0.476,-0.22 0.468,-0.242 0.453,-0.258C0.437,-0.274 0.415,-0.287 0.385,-0.295L0.244,-0.34C0.189,-0.357 0.146,-0.383 0.117,-0.419C0.088,-0.455 0.073,-0.497 0.073,-0.545C0.073,-0.587 0.083,-0.623 0.104,-0.655C0.124,-0.687 0.153,-0.712 0.189,-0.73C0.225,-0.748 0.267,-0.757 0.314,-0.757C0.358,-0.757 0.399,-0.749 0.436,-0.733C0.473,-0.717 0.504,-0.696 0.53,-0.668C0.556,-0.641 0.576,-0.61 0.588,-0.574L0.49,-0.531C0.475,-0.57 0.452,-0.601 0.421,-0.622C0.39,-0.643 0.355,-0.653 0.314,-0.653C0.289,-0.653 0.268,-0.649 0.249,-0.641C0.23,-0.633 0.215,-0.621 0.205,-0.605C0.195,-0.59 0.19,-0.572 0.19,-0.551C0.19,-0.527 0.197,-0.506 0.212,-0.487C0.228,-0.468 0.251,-0.454 0.283,-0.445L0.413,-0.404C0.472,-0.386 0.517,-0.36 0.547,-0.326C0.577,-0.292 0.592,-0.251 0.592,-0.201C0.592,-0.159 0.581,-0.123 0.559,-0.09C0.538,-0.058 0.508,-0.033 0.47,-0.015C0.432,0.003 0.388,0.012 0.338,0.012Z" style="fill:rgb(0,82,204);fill-rule:nonzero;"/>
                    </g>
                    <g transform="matrix(19.059551,0,0,19.059551,503.590332,508.357776)">
                        <path d="M0.327,0.012C0.275,0.012 0.227,-0 0.184,-0.025C0.141,-0.049 0.107,-0.083 0.082,-0.126C0.057,-0.168 0.044,-0.217 0.044,-0.271C0.044,-0.325 0.057,-0.374 0.082,-0.416C0.107,-0.458 0.141,-0.492 0.183,-0.516C0.226,-0.541 0.274,-0.553 0.327,-0.553C0.38,-0.553 0.428,-0.541 0.47,-0.516C0.513,-0.492 0.546,-0.459 0.572,-0.416C0.596,-0.374 0.609,-0.326 0.609,-0.271C0.609,-0.216 0.596,-0.168 0.571,-0.125C0.545,-0.082 0.511,-0.049 0.469,-0.025C0.426,-0 0.379,0.012 0.327,0.012ZM0.327,-0.093C0.359,-0.093 0.387,-0.101 0.412,-0.116C0.436,-0.131 0.456,-0.152 0.47,-0.179C0.484,-0.206 0.491,-0.237 0.491,-0.271C0.491,-0.305 0.484,-0.335 0.47,-0.362C0.456,-0.388 0.436,-0.409 0.412,-0.425C0.387,-0.44 0.359,-0.448 0.327,-0.448C0.295,-0.448 0.267,-0.44 0.242,-0.425C0.217,-0.409 0.198,-0.388 0.183,-0.362C0.169,-0.335 0.162,-0.305 0.162,-0.271C0.162,-0.237 0.169,-0.206 0.183,-0.179C0.198,-0.152 0.217,-0.131 0.242,-0.116C0.267,-0.101 0.295,-0.093 0.327,-0.093Z" style="fill:rgb(0,82,204);fill-rule:nonzero;"/>
                    </g>
                    <g transform="matrix(19.059551,0,0,19.059551,515.750326,508.357776)">
                        <path d="M0.127,-0L0.127,-0.439L0.027,-0.439L0.027,-0.541L0.127,-0.541L0.127,-0.569C0.127,-0.609 0.135,-0.643 0.152,-0.671C0.169,-0.699 0.192,-0.72 0.222,-0.735C0.251,-0.75 0.285,-0.757 0.324,-0.757C0.331,-0.757 0.34,-0.756 0.349,-0.756C0.358,-0.755 0.366,-0.753 0.372,-0.752L0.372,-0.654C0.366,-0.655 0.36,-0.656 0.354,-0.656C0.347,-0.657 0.342,-0.657 0.338,-0.657C0.307,-0.657 0.284,-0.65 0.266,-0.636C0.248,-0.622 0.239,-0.6 0.239,-0.569L0.239,-0.541L0.363,-0.541L0.363,-0.439L0.239,-0.439L0.239,-0L0.127,-0Z" style="fill:rgb(0,82,204);fill-rule:nonzero;"/>
                    </g>
                    <g transform="matrix(19.059551,0,0,19.059551,523.783927,508.357776)">
                        <path d="M0.3,0.006C0.243,0.006 0.199,-0.01 0.168,-0.042C0.137,-0.074 0.121,-0.118 0.121,-0.176L0.121,-0.439L0.026,-0.439L0.026,-0.541L0.041,-0.541C0.066,-0.541 0.086,-0.548 0.1,-0.563C0.114,-0.577 0.121,-0.597 0.121,-0.623L0.121,-0.665L0.234,-0.665L0.234,-0.541L0.356,-0.541L0.356,-0.439L0.234,-0.439L0.234,-0.181C0.234,-0.163 0.237,-0.147 0.242,-0.135C0.249,-0.122 0.258,-0.112 0.272,-0.104C0.285,-0.097 0.303,-0.094 0.324,-0.094C0.329,-0.094 0.335,-0.094 0.342,-0.095C0.348,-0.096 0.355,-0.096 0.36,-0.097L0.36,-0C0.351,0.002 0.341,0.003 0.33,0.004C0.319,0.005 0.309,0.006 0.3,0.006Z" style="fill:rgb(0,82,204);fill-rule:nonzero;"/>
                    </g>
                    <g transform="matrix(19.059551,0,0,19.059551,531.493515,508.357776)">
                        <path d="M0.197,-0L0.011,-0.541L0.131,-0.541L0.273,-0.11L0.231,-0.11L0.376,-0.541L0.479,-0.541L0.623,-0.11L0.581,-0.11L0.724,-0.541L0.844,-0.541L0.657,-0L0.554,-0L0.409,-0.441L0.446,-0.441L0.299,-0L0.197,-0Z" style="fill:rgb(0,82,204);fill-rule:nonzero;"/>
                    </g>
                    <g transform="matrix(19.059551,0,0,19.059551,547.398711,508.357776)">
                        <path d="M0.228,0.012C0.191,0.012 0.159,0.006 0.132,-0.007C0.104,-0.02 0.082,-0.038 0.067,-0.061C0.052,-0.084 0.044,-0.112 0.044,-0.143C0.044,-0.172 0.05,-0.198 0.064,-0.222C0.076,-0.245 0.097,-0.265 0.124,-0.281C0.151,-0.296 0.185,-0.308 0.227,-0.315L0.415,-0.346L0.415,-0.257L0.249,-0.228C0.219,-0.223 0.197,-0.213 0.183,-0.199C0.169,-0.185 0.162,-0.168 0.162,-0.146C0.162,-0.126 0.169,-0.11 0.185,-0.097C0.201,-0.084 0.221,-0.077 0.245,-0.077C0.276,-0.077 0.303,-0.084 0.326,-0.097C0.349,-0.11 0.367,-0.128 0.38,-0.15C0.393,-0.173 0.399,-0.198 0.399,-0.225L0.399,-0.364C0.399,-0.39 0.389,-0.412 0.369,-0.429C0.349,-0.446 0.323,-0.455 0.29,-0.455C0.261,-0.455 0.235,-0.447 0.212,-0.431C0.19,-0.416 0.173,-0.396 0.163,-0.37L0.069,-0.417C0.079,-0.444 0.095,-0.468 0.118,-0.488C0.14,-0.508 0.167,-0.524 0.197,-0.536C0.227,-0.547 0.26,-0.553 0.294,-0.553C0.337,-0.553 0.374,-0.545 0.407,-0.529C0.44,-0.513 0.466,-0.491 0.484,-0.463C0.502,-0.434 0.512,-0.401 0.512,-0.364L0.512,-0L0.404,-0L0.404,-0.098L0.426,-0.095C0.414,-0.073 0.398,-0.054 0.378,-0.038C0.359,-0.022 0.336,-0.01 0.311,-0.001C0.286,0.008 0.258,0.012 0.228,0.012Z" style="fill:rgb(0,82,204);fill-rule:nonzero;"/>
                    </g>
                    <g transform="matrix(19.059551,0,0,19.059551,558.405602,508.357776)">
                        <path d="M0.066,-0L0.066,-0.541L0.174,-0.541L0.174,-0.431L0.164,-0.448C0.176,-0.483 0.195,-0.509 0.222,-0.524C0.249,-0.54 0.281,-0.547 0.318,-0.547L0.351,-0.547L0.351,-0.445L0.304,-0.445C0.266,-0.445 0.236,-0.433 0.213,-0.41C0.19,-0.387 0.178,-0.354 0.178,-0.312L0.178,-0L0.066,-0Z" style="fill:rgb(0,82,204);fill-rule:nonzero;"/>
                    </g>
                    <g transform="matrix(19.059551,0,0,19.059551,565.305159,508.357776)">
                        <path d="M0.32,0.012C0.266,0.012 0.218,-0.001 0.176,-0.026C0.135,-0.05 0.102,-0.085 0.079,-0.128C0.056,-0.171 0.044,-0.219 0.044,-0.272C0.044,-0.326 0.056,-0.375 0.079,-0.417C0.103,-0.459 0.135,-0.492 0.175,-0.516C0.215,-0.541 0.26,-0.553 0.31,-0.553C0.351,-0.553 0.388,-0.546 0.42,-0.532C0.452,-0.518 0.479,-0.499 0.501,-0.474C0.523,-0.45 0.54,-0.422 0.551,-0.391C0.563,-0.359 0.569,-0.326 0.569,-0.291C0.569,-0.282 0.569,-0.273 0.568,-0.264C0.567,-0.255 0.566,-0.246 0.564,-0.238L0.133,-0.238L0.133,-0.328L0.499,-0.328L0.446,-0.287C0.452,-0.32 0.45,-0.349 0.439,-0.374C0.428,-0.4 0.412,-0.421 0.389,-0.435C0.367,-0.451 0.341,-0.458 0.31,-0.458C0.281,-0.458 0.254,-0.451 0.231,-0.435C0.207,-0.421 0.189,-0.399 0.176,-0.371C0.164,-0.343 0.159,-0.31 0.162,-0.271C0.159,-0.234 0.164,-0.202 0.177,-0.175C0.191,-0.147 0.21,-0.126 0.235,-0.111C0.26,-0.096 0.289,-0.088 0.321,-0.088C0.353,-0.088 0.381,-0.095 0.404,-0.11C0.427,-0.125 0.445,-0.144 0.459,-0.167L0.551,-0.121C0.54,-0.096 0.524,-0.073 0.501,-0.053C0.479,-0.033 0.452,-0.017 0.421,-0.005C0.39,0.006 0.357,0.012 0.32,0.012Z" style="fill:rgb(0,82,204);fill-rule:nonzero;"/>
                    </g>
                    <g transform="matrix(19.059551,0,0,19.059551,576.988664,508.357776)">
                    </g>
                    <g transform="matrix(19.059551,0,0,19.059551,580.324086,508.357776)">
                        <path d="M0.338,0.012C0.291,0.012 0.248,0.003 0.208,-0.014C0.168,-0.032 0.134,-0.056 0.106,-0.087C0.078,-0.118 0.057,-0.153 0.044,-0.193L0.144,-0.235C0.162,-0.189 0.188,-0.154 0.223,-0.129C0.258,-0.104 0.298,-0.091 0.343,-0.091C0.37,-0.091 0.393,-0.096 0.413,-0.104C0.433,-0.113 0.448,-0.125 0.459,-0.14C0.47,-0.155 0.476,-0.173 0.476,-0.193C0.476,-0.22 0.468,-0.242 0.453,-0.258C0.437,-0.274 0.415,-0.287 0.385,-0.295L0.244,-0.34C0.189,-0.357 0.146,-0.383 0.117,-0.419C0.088,-0.455 0.073,-0.497 0.073,-0.545C0.073,-0.587 0.083,-0.623 0.104,-0.655C0.124,-0.687 0.153,-0.712 0.189,-0.73C0.225,-0.748 0.267,-0.757 0.314,-0.757C0.358,-0.757 0.399,-0.749 0.436,-0.733C0.473,-0.717 0.504,-0.696 0.53,-0.668C0.556,-0.641 0.576,-0.61 0.588,-0.574L0.49,-0.531C0.475,-0.57 0.452,-0.601 0.421,-0.622C0.39,-0.643 0.355,-0.653 0.314,-0.653C0.289,-0.653 0.268,-0.649 0.249,-0.641C0.23,-0.633 0.215,-0.621 0.205,-0.605C0.195,-0.59 0.19,-0.572 0.19,-0.551C0.19,-0.527 0.197,-0.506 0.212,-0.487C0.228,-0.468 0.251,-0.454 0.283,-0.445L0.413,-0.404C0.472,-0.386 0.517,-0.36 0.547,-0.326C0.577,-0.292 0.592,-0.251 0.592,-0.201C0.592,-0.159 0.581,-0.123 0.559,-0.09C0.538,-0.058 0.508,-0.033 0.47,-0.015C0.432,0.003 0.388,0.012 0.338,0.012Z" style="fill:rgb(0,82,204);fill-rule:nonzero;"/>
                    </g>
                    <g transform="matrix(19.059551,0,0,19.059551,592.646086,508.357776)">
                        <path d="M0.327,0.012C0.275,0.012 0.227,-0 0.184,-0.025C0.141,-0.049 0.107,-0.083 0.082,-0.126C0.057,-0.168 0.044,-0.217 0.044,-0.271C0.044,-0.325 0.057,-0.374 0.082,-0.416C0.107,-0.458 0.141,-0.492 0.183,-0.516C0.226,-0.541 0.274,-0.553 0.327,-0.553C0.38,-0.553 0.428,-0.541 0.47,-0.516C0.513,-0.492 0.546,-0.459 0.572,-0.416C0.596,-0.374 0.609,-0.326 0.609,-0.271C0.609,-0.216 0.596,-0.168 0.571,-0.125C0.545,-0.082 0.511,-0.049 0.469,-0.025C0.426,-0 0.379,0.012 0.327,0.012ZM0.327,-0.093C0.359,-0.093 0.387,-0.101 0.412,-0.116C0.436,-0.131 0.456,-0.152 0.47,-0.179C0.484,-0.206 0.491,-0.237 0.491,-0.271C0.491,-0.305 0.484,-0.335 0.47,-0.362C0.456,-0.388 0.436,-0.409 0.412,-0.425C0.387,-0.44 0.359,-0.448 0.327,-0.448C0.295,-0.448 0.267,-0.44 0.242,-0.425C0.217,-0.409 0.198,-0.388 0.183,-0.362C0.169,-0.335 0.162,-0.305 0.162,-0.271C0.162,-0.237 0.169,-0.206 0.183,-0.179C0.198,-0.152 0.217,-0.131 0.242,-0.116C0.267,-0.101 0.295,-0.093 0.327,-0.093Z" style="fill:rgb(0,82,204);fill-rule:nonzero;"/>
                    </g>
                    <g transform="matrix(19.059551,0,0,19.059551,605.091973,508.357776)">
                        <rect x="0.066" y="-0.757" width="0.112" height="0.757" style="fill:rgb(0,82,204);fill-rule:nonzero;"/>
                    </g>
                    <g transform="matrix(19.059551,0,0,19.059551,609.752033,508.357776)">
                        <path d="M0.259,0.012C0.218,0.012 0.183,0.003 0.152,-0.015C0.121,-0.034 0.097,-0.059 0.08,-0.092C0.063,-0.125 0.055,-0.163 0.055,-0.207L0.055,-0.541L0.168,-0.541L0.168,-0.217C0.168,-0.192 0.173,-0.171 0.182,-0.152C0.193,-0.133 0.207,-0.119 0.225,-0.108C0.243,-0.098 0.264,-0.093 0.287,-0.093C0.311,-0.093 0.332,-0.098 0.35,-0.109C0.368,-0.119 0.382,-0.134 0.392,-0.153C0.402,-0.173 0.408,-0.196 0.408,-0.222L0.408,-0.541L0.52,-0.541L0.52,-0L0.413,-0L0.413,-0.106L0.425,-0.092C0.412,-0.058 0.391,-0.033 0.362,-0.015C0.332,0.003 0.298,0.012 0.259,0.012Z" style="fill:rgb(0,82,204);fill-rule:nonzero;"/>
                    </g>
                    <g transform="matrix(19.059551,0,0,19.059551,620.92093,508.357776)">
                        <path d="M0.3,0.006C0.243,0.006 0.199,-0.01 0.168,-0.042C0.137,-0.074 0.121,-0.118 0.121,-0.176L0.121,-0.439L0.026,-0.439L0.026,-0.541L0.041,-0.541C0.066,-0.541 0.086,-0.548 0.1,-0.563C0.114,-0.577 0.121,-0.597 0.121,-0.623L0.121,-0.665L0.234,-0.665L0.234,-0.541L0.356,-0.541L0.356,-0.439L0.234,-0.439L0.234,-0.181C0.234,-0.163 0.237,-0.147 0.242,-0.135C0.249,-0.122 0.258,-0.112 0.272,-0.104C0.285,-0.097 0.303,-0.094 0.324,-0.094C0.329,-0.094 0.335,-0.094 0.342,-0.095C0.348,-0.096 0.355,-0.096 0.36,-0.097L0.36,-0C0.351,0.002 0.341,0.003 0.33,0.004C0.319,0.005 0.309,0.006 0.3,0.006Z" style="fill:rgb(0,82,204);fill-rule:nonzero;"/>
                    </g>
                    <g transform="matrix(19.059551,0,0,19.059551,628.630518,508.357776)">
                        <path d="M0.066,-0L0.066,-0.541L0.178,-0.541L0.178,-0L0.066,-0ZM0.066,-0.615L0.066,-0.745L0.178,-0.745L0.178,-0.615L0.066,-0.615Z" style="fill:rgb(0,82,204);fill-rule:nonzero;"/>
                    </g>
                    <g transform="matrix(19.059551,0,0,19.059551,633.290579,508.357776)">
                        <path d="M0.327,0.012C0.275,0.012 0.227,-0 0.184,-0.025C0.141,-0.049 0.107,-0.083 0.082,-0.126C0.057,-0.168 0.044,-0.217 0.044,-0.271C0.044,-0.325 0.057,-0.374 0.082,-0.416C0.107,-0.458 0.141,-0.492 0.183,-0.516C0.226,-0.541 0.274,-0.553 0.327,-0.553C0.38,-0.553 0.428,-0.541 0.47,-0.516C0.513,-0.492 0.546,-0.459 0.572,-0.416C0.596,-0.374 0.609,-0.326 0.609,-0.271C0.609,-0.216 0.596,-0.168 0.571,-0.125C0.545,-0.082 0.511,-0.049 0.469,-0.025C0.426,-0 0.379,0.012 0.327,0.012ZM0.327,-0.093C0.359,-0.093 0.387,-0.101 0.412,-0.116C0.436,-0.131 0.456,-0.152 0.47,-0.179C0.484,-0.206 0.491,-0.237 0.491,-0.271C0.491,-0.305 0.484,-0.335 0.47,-0.362C0.456,-0.388 0.436,-0.409 0.412,-0.425C0.387,-0.44 0.359,-0.448 0.327,-0.448C0.295,-0.448 0.267,-0.44 0.242,-0.425C0.217,-0.409 0.198,-0.388 0.183,-0.362C0.169,-0.335 0.162,-0.305 0.162,-0.271C0.162,-0.237 0.169,-0.206 0.183,-0.179C0.198,-0.152 0.217,-0.131 0.242,-0.116C0.267,-0.101 0.295,-0.093 0.327,-0.093Z" style="fill:rgb(0,82,204);fill-rule:nonzero;"/>
                    </g>
                    <g transform="matrix(19.059551,0,0,19.059551,645.736466,508.357776)">
                        <path d="M0.066,-0L0.066,-0.541L0.174,-0.541L0.174,-0.435L0.161,-0.449C0.174,-0.483 0.195,-0.508 0.225,-0.526C0.254,-0.544 0.288,-0.553 0.327,-0.553C0.367,-0.553 0.402,-0.544 0.432,-0.527C0.463,-0.51 0.487,-0.486 0.505,-0.455C0.522,-0.424 0.531,-0.389 0.531,-0.349L0.531,-0L0.418,-0L0.418,-0.319C0.419,-0.346 0.413,-0.369 0.404,-0.388C0.394,-0.407 0.379,-0.422 0.361,-0.432C0.343,-0.443 0.323,-0.448 0.299,-0.448C0.276,-0.448 0.255,-0.443 0.237,-0.432C0.218,-0.422 0.204,-0.407 0.194,-0.388C0.184,-0.369 0.178,-0.346 0.178,-0.319L0.178,-0L0.066,-0Z" style="fill:rgb(0,82,204);fill-rule:nonzero;"/>
                    </g>
                    <g transform="matrix(19.059551,0,0,19.059551,656.905363,508.357776)">
                        <path d="M0.266,0.012C0.21,0.012 0.162,-0.002 0.12,-0.029C0.079,-0.056 0.05,-0.093 0.033,-0.139L0.12,-0.18C0.134,-0.149 0.154,-0.124 0.18,-0.106C0.206,-0.089 0.235,-0.08 0.266,-0.08C0.293,-0.08 0.314,-0.086 0.331,-0.098C0.348,-0.11 0.356,-0.126 0.356,-0.146C0.356,-0.16 0.352,-0.171 0.345,-0.179C0.338,-0.187 0.329,-0.194 0.318,-0.2C0.306,-0.205 0.295,-0.209 0.284,-0.212L0.199,-0.236C0.152,-0.249 0.117,-0.269 0.094,-0.296C0.071,-0.323 0.06,-0.355 0.06,-0.391C0.06,-0.423 0.068,-0.452 0.085,-0.476C0.101,-0.5 0.124,-0.519 0.153,-0.533C0.183,-0.546 0.216,-0.553 0.253,-0.553C0.302,-0.553 0.346,-0.541 0.385,-0.516C0.424,-0.492 0.451,-0.458 0.467,-0.415L0.38,-0.373C0.369,-0.4 0.352,-0.421 0.329,-0.436C0.306,-0.451 0.28,-0.459 0.252,-0.459C0.227,-0.459 0.207,-0.453 0.193,-0.442C0.178,-0.43 0.171,-0.415 0.171,-0.396C0.171,-0.383 0.174,-0.373 0.181,-0.364C0.188,-0.356 0.196,-0.349 0.207,-0.345C0.218,-0.339 0.229,-0.335 0.24,-0.332L0.328,-0.306C0.372,-0.293 0.407,-0.273 0.431,-0.246C0.455,-0.219 0.467,-0.187 0.467,-0.149C0.467,-0.118 0.459,-0.09 0.442,-0.066C0.425,-0.041 0.401,-0.022 0.371,-0.009C0.341,0.005 0.306,0.012 0.266,0.012Z" style="fill:rgb(0,82,204);fill-rule:nonzero;"/>
                    </g>
                    <g transform="matrix(19.059551,0,0,19.059551,666.663853,508.357776)">
                    </g>
                </g>
            </g>
        </g>
    </g>
</svg>
