<svg xmlns="http://www.w3.org/2000/svg" viewBox="0 0 776.72 1202.93"><title>icon-comp</title><g id="Layer_2" data-name="Layer 2"><g id="Layer_1-2" data-name="Layer 1"><path fill="#e8a323" d="M450.63,798.49v265c0,17.25,21.84,24.71,32.4,11.07L702.94,782.87Z"/><path fill="#e8a323" d="M219.7,327.48V452l496.16-23.33V674.62l-573.56,27a75.23,75.23,0,0,1-78.75-75.14V158.35a75.23,75.23,0,0,1,71.63-75.14l580.68-27.7v248.3Z"/><line fill="none" stroke="#d7d6d6" stroke-miterlimit="10" stroke-width="5" opacity="0.71" x1="219.6" y1="1201.4" x2="219.6"/><line fill="none" stroke="#d7d6d6" stroke-miterlimit="10" stroke-width="5" opacity="0.71" x1="715.86" y1="1201.4" x2="715.86"/><line fill="none" stroke="#d7d6d6" stroke-miterlimit="10" stroke-width="5" opacity="0.71" x1="63.55" y1="1201.4" x2="63.55"/><line fill="none" stroke="#d7d6d6" stroke-miterlimit="10" stroke-width="5" opacity="0.71" x1="450.63" y1="1201.4" x2="450.63"/><line fill="none" stroke="#d7d6d6" stroke-miterlimit="10" stroke-width="5" opacity="0.71" x1="774.72" y1="686.82" x2="388.13" y2="1201.43"/><line fill="none" stroke="#d7d6d6" stroke-miterlimit="10" stroke-width="5" opacity="0.71" x1="771.04" y1="778.66" x2="6.2" y2="826.05"/><line fill="none" stroke="#d7d6d6" stroke-miterlimit="10" stroke-width="5" opacity="0.71" x1="776.15" y1="671.81" x2="0.12" y2="708"/><line fill="none" stroke="#d7d6d6" stroke-miterlimit="10" stroke-width="5" opacity="0.71" x1="776.16" y1="426.14" x2="0.13" y2="462.34"/><line fill="none" stroke="#d7d6d6" stroke-miterlimit="10" stroke-width="5" opacity="0.71" x1="776.15" y1="301.16" x2="0.12" y2="337.35"/><line fill="none" stroke="#d7d6d6" stroke-miterlimit="10" stroke-width="5" opacity="0.71" x1="776.15" y1="52.87" x2="0.12" y2="89.07"/><circle fill="none" stroke="#d7d6d6" stroke-miterlimit="10" stroke-width="5" opacity="0.56" cx="138.48" cy="626.74" r="74.93"/><circle fill="none" stroke="#d7d6d6" stroke-miterlimit="10" stroke-width="5" opacity="0.56" cx="138.48" cy="157.68" r="74.93"/><circle fill="none" stroke="#d7d6d6" stroke-miterlimit="10" stroke-width="5" opacity="0.56" cx="468.66" cy="1063.58" r="18.03"/></g></g></svg>