<svg xmlns="http://www.w3.org/2000/svg" viewBox="0 0 517.59 182.75" fill="#e8a216"><title>Icon_Logotype</title><g id="Layer_2" data-name="Layer 2"><g id="Layer_1-2" data-name="Layer 1"><path d="M203.75,113v41.26q0,20.19-19.67,20.19h-2.63q-10.53,0-15.1-5.36t-4.56-14.83V28.4q0-9.64,4.56-14.92t15.1-5.27h2.63q19.66,0,19.67,20.19V69.66H189.18V30.33a9.53,9.53,0,0,0-1.41-5.53c-.94-1.34-2.63-2-5.09-2s-4.12.68-5,2a10,10,0,0,0-1.32,5.53v122a10,10,0,0,0,1.32,5.53c.88,1.34,2.54,2,5,2s4.15-.68,5.09-2a9.53,9.53,0,0,0,1.41-5.53V113Z"/><path class="cls-1" d="M256.23,28.4V154.27q0,20.19-19.66,20.19h-2.63q-10.53,0-15.1-5.36t-4.56-14.83V28.4q0-9.64,4.56-14.92t15.1-5.27h2.63Q256.24,8.21,256.23,28.4Zm-14.57,1.93a9.61,9.61,0,0,0-1.4-5.53c-.94-1.34-2.63-2-5.09-2s-4.13.68-5,2a10.12,10.12,0,0,0-1.31,5.53v122a10.12,10.12,0,0,0,1.31,5.53c.88,1.34,2.55,2,5,2s4.15-.68,5.09-2a9.61,9.61,0,0,0,1.4-5.53Z"/><path class="cls-1" d="M270.53,168.5q-3.76-5.66-3.77-17.18V10h17.39V150.7a14.68,14.68,0,0,0,1.46,6.8,4.71,4.71,0,0,0,4.4,2.83,5,5,0,0,0,4.09-2.51c1.18-1.68,1.78-4.12,1.78-7.33V10h17.17V159.49q0,5,.31,8.28a31.85,31.85,0,0,0,1.37,6.59H298.18c-.7-1-1.4-3.14-2.09-6.49a13.7,13.7,0,0,1-4.51,5q-2.82,1.88-8.06,1.88Q274.93,174.78,270.53,168.5Z"/><path class="cls-1" d="M384.44,174.78a22.61,22.61,0,0,1-8-1.26,20,20,0,0,1-6.91-4.81q-5.65-6.08-5.66-17.39l.21-23.87a124.33,124.33,0,0,1,.53-12.57,33.77,33.77,0,0,1,2.2-9.21q3.34-8.39,13.82-19.06,7.74-8.37,10.05-13.09T393,61.27V33.62a13.48,13.48,0,0,0-1.57-6.6,4.79,4.79,0,0,0-4.3-2.82A4.92,4.92,0,0,0,383,26.71c-1.12,1.67-1.67,4.12-1.67,7.33V68.39H363.91V31.74q0-23,22-23h2.51q22,0,22,23l-.21,127.75a75.86,75.86,0,0,0,.31,7.75,52,52,0,0,0,1.37,7.12H395.33a16.92,16.92,0,0,1-1.47-5.44,10,10,0,0,1-3.24,4A9.78,9.78,0,0,1,384.44,174.78Zm8.17-75.61q-7.33,7.76-9.32,12.57t-2,12.78V150.7a13.76,13.76,0,0,0,1.57,6.8,4.77,4.77,0,0,0,4.29,2.83,5,5,0,0,0,4.09-2.51c1.18-1.68,1.78-4.12,1.78-7.33V98.76Z"/><path class="cls-1" d="M517.59,25.07H503.9V174.46H489.33V25.07H475.64V10.5h42Z"/><path class="cls-1" d="M465.25,16.39Q469,22,469,33.57V174.94H451.64V34.2a14.57,14.57,0,0,0-1.47-6.81,4.7,4.7,0,0,0-4.4-2.83q-2.29,0-4.08,2.52t-1.78,7.33V174.94H422.73V25.4q0-5-.31-8.27a32.43,32.43,0,0,0-1.36-6.6H437.6c.7,1,1.4,3.14,2.1,6.49a13.66,13.66,0,0,1,4.5-5q2.83-1.89,8.06-1.89Q460.86,10.11,465.25,16.39Z"/><path class="cls-1" d="M356.82,8.69v17.6h-1.26a11.57,11.57,0,0,0-2.32.21,10.54,10.54,0,0,0-6.69,4.3c-2.23,3-3.35,7.09-3.35,12.24V174.37h0v.32H325.94V24.85c0-3.35-.11-6.12-.3-8.29A33.83,33.83,0,0,0,324.27,10h16.57s0,0,0,0h2.34v5.23q4-6.49,12.36-6.5Z"/><path class="cls-1" d="M68.94,132.32v47.2a3.22,3.22,0,0,0,5.77,2l39.17-52Z"/><path class="cls-1" d="M27.81,48.44V70.62l88.37-4.16v43.8L14,115.07A13.4,13.4,0,0,1,0,101.68V18.32A13.41,13.41,0,0,1,12.76,4.93L116.18,0V44.22Z"/></g></g></svg>