<svg xmlns="http://www.w3.org/2000/svg" viewBox="0 0 413.56 193.79" fill="#e8a216"><title>Logotype</title><g id="Layer_2" data-name="Layer 2"><g id="Layer_1-2" data-name="Layer 1"><path class="cls-1" d="M48.77,121.81v47.95q0,23.48-22.86,23.47H22.85q-12.24,0-17.55-6.23T0,169.76V23.46Q0,12.26,5.3,6.12T22.85,0h3.06Q48.77,0,48.77,23.46V71.41H31.83V25.71a11.11,11.11,0,0,0-1.63-6.43q-1.64-2.34-5.92-2.34c-2.86,0-4.79.78-5.81,2.34a11.7,11.7,0,0,0-1.53,6.43V167.52a11.64,11.64,0,0,0,1.53,6.42c1,1.57,3,2.35,5.81,2.35s4.83-.78,5.92-2.35a11.05,11.05,0,0,0,1.63-6.42V121.81Z"/><path class="cls-1" d="M109.77,23.46v146.3q0,23.48-22.85,23.47H83.86q-12.24,0-17.55-6.23T61,169.76V23.46q0-11.21,5.3-17.34T83.86,0h3.06Q109.77,0,109.77,23.46ZM92.84,25.71a11.18,11.18,0,0,0-1.63-6.43q-1.65-2.34-5.92-2.34t-5.82,2.34a11.7,11.7,0,0,0-1.53,6.43V167.52a11.64,11.64,0,0,0,1.53,6.42q1.53,2.35,5.82,2.35t5.92-2.35a11.13,11.13,0,0,0,1.63-6.42Z"/><path class="cls-1" d="M126.4,186.3q-4.4-6.57-4.39-20V2h20.21V165.61a17.08,17.08,0,0,0,1.7,7.91,5.48,5.48,0,0,0,5.11,3.29c1.79,0,3.37-1,4.75-2.92s2.07-4.79,2.07-8.52V2h20V175.83q0,5.85.37,9.62a37.79,37.79,0,0,0,1.58,7.67H158.53c-.81-1.14-1.62-3.65-2.43-7.55a15.91,15.91,0,0,1-5.24,5.84c-2.19,1.46-5.32,2.2-9.37,2.2Q131.5,193.61,126.4,186.3Z"/><path class="cls-1" d="M258.79,193.61a26.17,26.17,0,0,1-9.25-1.47,23.06,23.06,0,0,1-8-5.6q-6.57-7-6.58-20.2l.25-27.75a144,144,0,0,1,.61-14.61,39.63,39.63,0,0,1,2.55-10.71q3.9-9.73,16.07-22.15,9-9.74,11.68-15.22t2.68-14.24V29.53A15.62,15.62,0,0,0,267,21.86c-1.22-2.19-2.89-3.28-5-3.28a5.7,5.7,0,0,0-4.87,2.92c-1.3,1.94-1.95,4.79-1.95,8.52V69.94H234.93V27.34Q234.93.56,260.49.56h2.93Q289,.56,289,27.34l-.25,148.49a86.18,86.18,0,0,0,.37,9,62.16,62.16,0,0,0,1.58,8.28H271.45a19.65,19.65,0,0,1-1.7-6.33,11.48,11.48,0,0,1-3.78,4.62A11.32,11.32,0,0,1,258.79,193.61Zm9.49-87.88q-8.52,9-10.83,14.6c-1.54,3.74-2.31,8.68-2.31,14.85v30.43a16.14,16.14,0,0,0,1.82,7.91c1.22,2.19,2.88,3.29,5,3.29,1.78,0,3.36-1,4.74-2.92s2.07-4.79,2.07-8.52V105.24Z"/><path class="cls-1" d="M413.56,19.59H397.64V193.23H380.71V19.59H364.79V2.65h48.77Z"/><path class="cls-1" d="M352.72,9.51q4.38,6.57,4.38,20V193.79H336.9V30.2a16.92,16.92,0,0,0-1.71-7.91A5.47,5.47,0,0,0,330.08,19c-1.78,0-3.37,1-4.75,2.92s-2.07,4.79-2.07,8.52V193.79h-20V20c0-3.89-.12-7.1-.36-9.61a37.69,37.69,0,0,0-1.59-7.67h19.24q1.21,1.69,2.43,7.55a15.91,15.91,0,0,1,5.23-5.85q3.28-2.19,9.38-2.19Q347.6,2.2,352.72,9.51Z"/><path class="cls-1" d="M226.69.55V21h-1.46a13.84,13.84,0,0,0-2.7.24,12.26,12.26,0,0,0-7.78,5q-3.88,5.24-3.89,14.23V193.13h-.05v.37h-20V19.33c0-3.89-.13-7.11-.36-9.64A39.3,39.3,0,0,0,188.86,2h19.26a0,0,0,0,0,0,0h2.72V8.11Q215.49.57,225.23.55Z"/></g></g></svg>