<svg xmlns="http://www.w3.org/2000/svg" viewBox="0 0 2243.61 775.74"><defs><style>.cls-1{fill:#151516;}.cls-2{fill:#fff;}.cls-3{fill:#780499;}</style></defs><title>logo</title><g id="Layer_2" data-name="Layer 2"><g id="Layer_1-2" data-name="Layer 1"><rect class="cls-1" width="2243.61" height="775.74" rx="62.71"/><path class="cls-2" d="M1757,395.45h129.59c-.13,4.55-1.79,7.56-3.32,10.53a83.83,83.83,0,0,1-6.15,10.38c-9.27,13-21.86,21.86-36.16,28.5-16.48,7.65-33.91,11.84-51.93,13.72-29.55,3.07-59,3.32-87.91-4.66-44.07-12.18-74-39.29-86.07-84.11-6.06-22.5-6.13-45.51-2.35-68.34,5.89-35.55,24.31-62.49,57-79a144.93,144.93,0,0,1,47-14.1,308.45,308.45,0,0,1,92,1.7c19.1,3.29,37.39,9,53.53,20.19,11.76,8.17,20.73,18.54,25.56,32.28,1.22,3.47.46,7.48,3,10.53h153.14c1.5-1.53,1.12-2.83,1.06-4-1.73-30.75-11.18-58.84-29-84.08-21.35-30.3-50.15-51.24-83.6-66.32-40.74-18.36-83.94-26.74-128.16-29.17-43.14-2.38-86.38-3-129.43,2.91-31.22,4.27-61.54,11.78-90.25,24.85-59.81,27.23-100.84,71.59-119.26,134.94-14.31,49.2-14,99.24-2.74,149.07,9.29,41.16,28.78,77,59.08,106.71,31.44,30.81,69.61,49.21,111.91,59.75,38.3,9.55,77.33,11.86,116.58,10.61,28-.9,55.6-5.17,82.27-14.3,39.62-13.57,73.88-35,100.47-67.83,1.2-1.48,1.62-4,5.2-3.93v78.75h106.5V308.94H1757ZM1294.42,414.5c2.55-1.13,5.14-2.16,7.7-3.25,43.33-18.32,71.21-49.68,81-96.12a241.71,241.71,0,0,0-.63-103.41c-6-26.74-19.15-49.61-40.43-67.4-15.21-12.71-32.61-21.36-51.36-27.52-33.13-10.88-67.37-14.48-102-14.57-109.49-.29-219-.13-328.49-.09-2.35,0-5-1-6.82,1V578.15h149.48V431.71h123.49l86.51,146.55h174.9l-95.45-162A13.07,13.07,0,0,1,1294.42,414.5Zm-63.46-133c-3.54,15.51-13.25,25.51-28.06,30.86-10.06,3.63-20.59,4.82-31.12,4.86-55,.2-110,.12-165,.11a24.93,24.93,0,0,1-3.59-.66V218c3.33-1.76,6.49-1,9.52-1q76.9-.09,153.82,0c9.63,0,19.23.18,28.69,2.45,22.09,5.31,37.2,19.17,36.93,45.43C1232.09,270.43,1232.22,276,1231,281.51ZM527.57,616.94l-23.18,47c-8-16.56-15.29-31.83-22.55-47H448.56v75.66h23.16v-45.5l1.27-.31L495.06,693c6.51-.29,12.09.75,17.48-.7L534.11,647c1.17,7.88,1.13,15.51,1.18,23.14s-.21,15.23.16,22.46h23.6V616.94Zm1012.78,46.75c6.81,1,13.33-.54,19.49.92.23,2.27-1,3.34-2.12,4.33-8.23,7-26.54,7.19-35,.48-10-7.91-9.46-25.66.92-32.33,11.73-7.55,30.72-4.23,39.46,7.16,6.87,0,14,0,21.13,0a11.25,11.25,0,0,0,2.58-.66c-1.41-12.28-7.08-20.16-19.37-24.59-17.42-6.27-35.33-6.77-52.94-.89-16.57,5.53-25,18.6-24.68,36.37.35,17.95,9.81,31.73,26.59,36.07,17.93,4.64,35.72,5.05,50.88-8.5.39-.35,1.15-.29,1.73-.42,1.36,3.17-.43,6.77,1.45,10.2h16.31V650.41h-47.07C1539.92,655.19,1539,659.43,1540.35,663.69ZM759.82,665.5c.78-.49,1.66-.85,2.42-1.38,9.83-6.8,11-16.76,9.49-27.36-1.44-10.06-8-15.87-17.56-18.24a66,66,0,0,0-16.62-2c-13.06.14-26.13,0-39.19.08-4.57,0-9.2-.59-14.05.54v75.52h24.41V670.14h20.42c4.69,7.61,9.37,15.2,13.86,22.46h28.5c-5.18-8.83-9.92-16.94-14.67-25.05C758.29,666.54,759,666,759.82,665.5Zm-21.73-14.33c-9.52.44-19.08.12-29,.12V635.53c9.63-1,19.19-.63,28.7-.29,5.85.21,8.45,3.15,8.5,7.83S743.85,650.91,738.09,651.17ZM317.39,637.8c-1.12-9.39-6.05-15.3-14.8-18.33a55.2,55.2,0,0,0-18.3-2.9c-16.16,0-32.33,0-48.5,0-2.07,0-4.41-.76-5.92,1.2v74.93c8.27.28,16.13.83,24.63-.43V670.43a73.8,73.8,0,0,1,20.51-.06L288.94,693c9.34-.26,18.46.59,28.31-.6l-15-25.14C315.7,661.74,319,651.11,317.39,637.8Zm-34.46,13.48c-9.23.33-18.47.09-28,.09-1.33-5.24-.63-10.09-.68-16.3,10,0,19.27-.22,28.47.08,6.23.2,9.5,3.29,9.56,8S289.08,651.07,282.93,651.28Zm639-12.68c-.85-9.28-5.36-15.62-14.15-18.85a55.19,55.19,0,0,0-19.18-3.16c-15.23,0-30.46-.05-45.69,0-2.71,0-5.55-.68-8.48.88v75.18h24.14v-22.5c7.58-.48,14.27-.86,20.86.17,4.71,7.72,9.21,15.08,13.53,22.17h27.88c-3.57-9.39-9.85-16.47-14-25.3C919.82,662,923.09,651.48,921.91,638.6ZM887.3,651.29c-9.19.32-18.41.08-27.95.08-1.62-5.19-.27-10.09-1.15-16.25,10.67,0,20.16-.27,29.63.1,5.75.22,8.35,3.11,8.42,7.8C896.33,648.09,893.54,651.06,887.3,651.29Zm803.61,12.4c9.71-7.06,10.26-17.25,8.71-27.68-1.44-9.65-8-15.18-17.19-17.44a66.41,66.41,0,0,0-16.61-2c-12.74.14-25.49.05-38.24.05h-15v76.08h23.64c1.47-7.66-.86-15.45,1.37-22.62h19.6L1671,692.63h28.51l-14.73-25.27C1687.22,665.91,1689.18,665,1690.91,663.69Zm-16.66-20.13c-.15,4.71-2.64,7.43-8.55,7.67-9.21.39-18.45.11-28.7.11V635.51a201.76,201.76,0,0,1,29.39-.22C1672.11,635.57,1674.42,638.62,1674.25,643.56Zm145.63,7.36c-.8-15.56-7.84-26.93-22.29-32.22a79.66,79.66,0,0,0-55.55-.06c-15,5.43-22.68,18.17-22.66,34.93,0,17,8.3,29.49,23.38,35.54,8.54,3.42,17.43,4,26.46,3.52,4.34,0,8.72.37,13-.06C1802.65,690.51,1821.3,678.64,1819.88,650.92Zm-36.7,20.61a28.46,28.46,0,0,1-13.07,2.37,34.6,34.6,0,0,1-9.72-1.17c-10.22-3-15.24-9.22-15.21-19.39s5.09-16.15,15.58-19a37.28,37.28,0,0,1,21.07.77c7.8,2.39,11.72,8.13,12.11,16.77C1794.4,662,1791,668.36,1783.18,671.53Zm-811.81-8.07h47.84c-1-6.31,1-12.13-1.51-18.3H970.15c-.45-3.85-1.14-7.11.65-10.91h47.46V617h-73v76h73.47V675.46H970.12C969.76,671,968.71,667.42,971.37,663.46ZM659.11,675.57H610.29c-.51-4.24-.94-7.76.51-11.84,8.08,0,16.12.16,24.14-.05s15.9,1,24.14-.86c-.21-5.92.6-11.37-.67-17.34H610.47a27.89,27.89,0,0,1-.22-11c8.46,0,16.47,0,24.47,0s15.88.15,23.78-.14V617H585.85v75.26c14.15,1.52,66.61,1.08,74-.71C659.36,686.56,660.44,681.39,659.11,675.57Zm1385.52-38.25c-1.2-9.12-6.46-15.19-15.36-18a60,60,0,0,0-18.34-2.73c-15.55,0-31.11,0-46.66,0-2.37,0-5-.83-7.17.94v75.08h24.55V669.77h21.2a126.3,126.3,0,0,0,19.51-1.13C2041.35,665.74,2046.68,653,2044.63,637.32Zm-25.4,6.23c-.16,4.25-2.66,7.33-7.82,7.57-9.53.44-19.1.13-29.58.13V636.41c4.34-1.18,26.5-2,30.25-1.12C2017,636.42,2019.4,639.2,2019.23,643.55Zm-86.34-27.61a141,141,0,0,0-25.11.08c0,5.81,0,10.75,0,15.7-.07,8.69.26,17.41-.4,26-.68,9-6.42,13.79-16.22,14.75-13,1.28-21.48-2.38-24.33-10.7a23.75,23.75,0,0,1-1.06-6.4c-.2-3.4-.15-6.82-.15-10.23,0-9.56,0-19.11,0-29.21h-25.17c.8,16.38-1,32.17,1.3,47.91,2,13.7,10,22.67,23,26.48a77.45,77.45,0,0,0,43.24.13c12.69-3.57,20.93-12.29,23.36-25.26C1934.37,649.05,1932.21,632.66,1932.89,615.94Zm-828.25,1h-32.77L1037.13,693c8.92-.27,16.84.64,24.55-.56,3-4.08,3.44-9.05,6.75-12.41h39.16c3.37,3.85,3.81,9.25,7.36,13,8.38-.38,16.61.75,25.28-.75C1128.2,666.8,1116.46,642,1104.64,616.93Zm-28.86,45.81a256.16,256.16,0,0,1,12-27.32,253,253,0,0,1,12.11,26.77C1091.92,663.67,1084.41,662.84,1075.78,662.74Zm155.69-45.82c-1,6.43-1.57,12.7.47,19.62h32.37v56.11h24.87V674c0-6.5-.18-13,.06-19.51.21-6-1.07-12.19,1.14-18.59h31.91v-19Zm177.85,0-22.17,28.32-22.08-28.39h-28.48c-.53,2.49,1.17,3.67,2.29,5.06,9.88,12.37,19.68,24.8,29.76,37,3.51,4.26,5.7,8.46,5.21,14.24-.54,6.39-.13,12.86-.13,19.59,8.85.14,16.72,1,24.93-.48,0-7.13.22-13.63-.07-20.1a16.7,16.7,0,0,1,4.11-11.87c9.31-11.62,18.35-23.46,27.37-35.32,1.8-2.37,4.55-4.28,4.78-8.05Zm-1006.17-.08L381,645.11l-22.53-28.5c-9.21,0-17.91,0-26.6,0-.51,0-1,.43-1.92.84,1.06,3.31,3.65,5.63,5.7,8.22,8.86,11.18,17.74,22.35,26.85,33.33,3.52,4.24,5.66,8.48,5.16,14.25-.55,6.37-.13,12.82-.13,19.27h24.57c0-6.59.24-12.73-.07-18.84a18.73,18.73,0,0,1,4.51-13.6c9.38-11.56,18.39-23.42,27.39-35.27,1.8-2.37,4.63-4.25,4.67-8Zm826.62,56h-45.25c-.4-19.19.11-37.62-.3-55.84h-24.57v75.22c13.09,1.55,64.24,1.06,71.27-.74C1230.45,685.65,1231.77,679.58,1229.77,672.88Z"/><path class="cls-3" d="M229.29,370.18c-11.26,1.64-21.78,6-32.62,9.09-18.49,5.34-36.93,10.89-55.36,16.43a15.66,15.66,0,0,1-7.27.68V139.25c8.81-.24,16.66,3.73,24.82,6,21.45,6.07,42.67,13,64,19.44,2,.61,4.26.52,6.4.76,2.33,2.32,5.56,2.57,8.46,3.44Q308.82,190.26,380,211.44c13.27,3.95,26.6,7.72,39.89,11.56,1.2-1.62,2.13-2.84,3-4.09,28.8-40.09,86.14-47.76,124.59-17.59,26.65,20.91,37.09,48.75,31.51,82.33-6.64,40-47.63,74.81-96.24,68.34-24-3.19-43.3-14.11-58.22-33-1.51-1.91-2.65-4.23-5.55-5.4-9.21,1.16-18.13,4.86-27.3,7.54C350.41,333.2,309.16,345.3,268,357.81,255.06,361.75,241.74,364.63,229.29,370.18Z"/><path class="cls-2" d="M2043.91,273.09H1890.77c-2.56-3-1.8-7.06-3-10.53-4.83-13.74-13.8-24.1-25.57-32.27-16.13-11.21-34.42-16.91-53.52-20.2a308.13,308.13,0,0,0-92-1.69,144.61,144.61,0,0,0-47,14.1c-32.72,16.48-51.14,43.42-57,79-3.78,22.82-3.71,45.83,2.35,68.34,12.08,44.81,42,71.93,86.07,84.1,28.88,8,58.36,7.74,87.91,4.66,18-1.88,35.45-6.06,51.93-13.72,14.3-6.64,26.89-15.51,36.16-28.49a84.57,84.57,0,0,0,6.15-10.38c1.53-3,3.18-6,3.32-10.53H1757V308.94h287.59V571.05h-106.5V492.3c-3.58,0-4,2.45-5.2,3.93-26.59,32.81-60.86,54.26-100.48,67.83-26.66,9.13-54.23,13.4-82.26,14.29-39.26,1.25-78.28-1.06-116.58-10.6-42.3-10.55-80.47-29-111.92-59.76-30.29-29.69-49.78-65.54-59.08-106.7-11.25-49.83-11.56-99.87,2.75-149.07,18.42-63.35,59.45-107.71,119.26-134.94,28.71-13.07,59-20.59,90.25-24.85,43-5.88,86.29-5.29,129.43-2.92,44.22,2.43,87.42,10.82,128.16,29.18,33.45,15.08,62.24,36,83.6,66.31,17.79,25.24,27.25,53.34,29,84.09C2045,270.26,2045.41,271.57,2043.91,273.09Z"/><path class="cls-2" d="M1294.42,414.5c2.55-1.13,5.14-2.16,7.7-3.25,43.33-18.32,71.21-49.68,81-96.12a241.71,241.71,0,0,0-.63-103.41c-6-26.74-19.15-49.61-40.43-67.4-15.21-12.71-32.61-21.36-51.36-27.52-33.13-10.88-67.37-14.48-102-14.57-109.49-.29-219-.13-328.49-.09-2.35,0-5-1-6.82,1V578.15h149.48V431.71h123.49l86.51,146.55h174.9l-95.45-162A13.07,13.07,0,0,1,1294.42,414.5Zm-63.46-133c-3.54,15.51-13.25,25.51-28.06,30.86-10.06,3.63-20.59,4.82-31.12,4.86-55,.2-110,.12-165,.11a24.93,24.93,0,0,1-3.59-.66V218c3.33-1.76,6.49-1,9.52-1q76.9-.09,153.82,0c9.63,0,19.23.18,28.69,2.45,22.09,5.31,37.2,19.17,36.93,45.43C1232.09,270.43,1232.22,276,1231,281.51Z"/><path class="cls-2" d="M229.29,370.18c12.45-5.55,25.77-8.43,38.73-12.37,41.14-12.51,82.39-24.61,123.65-36.7,9.17-2.68,18.09-6.38,27.3-7.54,2.9,1.17,4,3.49,5.55,5.4,14.92,18.91,34.21,29.83,58.22,33,48.61,6.47,89.6-28.39,96.24-68.34,5.58-33.58-4.86-61.42-31.51-82.33-38.45-30.17-95.79-22.5-124.59,17.59-.89,1.25-1.82,2.47-3,4.09-13.29-3.84-26.62-7.61-39.89-11.56q-71.14-21.18-142.24-42.51c-2.9-.87-6.13-1.12-8.46-3.44V103.8c2.77-2.56,5.38-1.66,7.74-1.66q163.74-.08,327.48.06c34.89.09,69.43,3.62,102.85,14.6,18.14,6,35,14.25,49.92,26.32,21.54,17.46,35.16,40.12,41.43,66.77A240.55,240.55,0,0,1,760,314.17c-9.58,46.85-37.49,78.5-81.1,97.09-3.1,1.32-6.59,1.88-10,4.9,31.61,53.61,63.28,107.33,95.51,162H589.47Q546.39,505.21,503,431.77H379.85v146.3H230.5c-2.14-2.74-1-6.28-1-9.53q-.12-94.06-.07-188.12C229.45,377,229.34,373.6,229.29,370.18Z"/><path class="cls-2" d="M448.56,617h33.27c7.27,15.12,14.6,30.39,22.56,47l23.18-47h31.48v75.65H535.44c-.36-7.22-.1-14.85-.15-22.46s0-15.25-1.18-23.14l-21.57,45.32c-5.39,1.45-11,.41-17.48.71L473,646.86l-1.28.31v45.49H448.56Z"/><path class="cls-2" d="M1559.84,664.6c-6.17-1.45-12.68.06-19.49-.92-1.34-4.25-.43-8.49-.64-13.28h47.07v41.4h-16.31c-1.88-3.44-.09-7-1.45-10.21-.58.13-1.34.08-1.73.43-15.16,13.55-33,13.14-50.89,8.5-16.77-4.35-26.23-18.13-26.58-36.08-.34-17.76,8.11-30.84,24.68-36.37,17.61-5.88,35.52-5.38,52.94.9,12.29,4.43,18,12.31,19.37,24.58a10.91,10.91,0,0,1-2.58.67c-7.13,0-14.26,0-21.13,0-8.74-11.4-27.73-14.71-39.46-7.17-10.38,6.68-10.89,24.43-.92,32.34,8.46,6.71,26.77,6.47,35-.49C1558.88,668,1560.07,666.87,1559.84,664.6Z"/><path class="cls-2" d="M759.82,665.5c.78-.49,1.66-.85,2.42-1.38,9.83-6.8,11-16.76,9.49-27.36-1.44-10.06-8-15.87-17.56-18.24a66,66,0,0,0-16.62-2c-13.06.14-26.13,0-39.19.08-4.57,0-9.2-.59-14.05.54v75.52h24.41V670.14h20.42c4.69,7.61,9.37,15.2,13.86,22.46h28.5c-5.18-8.83-9.92-16.94-14.67-25.05C758.29,666.54,759,666,759.82,665.5Zm-21.73-14.33c-9.52.44-19.08.12-29,.12V635.53c9.63-1,19.19-.63,28.7-.29,5.85.21,8.45,3.15,8.5,7.83S743.85,650.91,738.09,651.17Z"/><path class="cls-2" d="M317.39,637.8c-1.12-9.39-6.05-15.3-14.8-18.33a55.2,55.2,0,0,0-18.3-2.9c-16.16,0-32.33,0-48.5,0-2.07,0-4.41-.76-5.92,1.2v74.93c8.27.28,16.13.83,24.63-.43V670.43a73.8,73.8,0,0,1,20.51-.06L288.94,693c9.34-.26,18.46.59,28.31-.6l-15-25.14C315.7,661.74,319,651.11,317.39,637.8Zm-34.46,13.48c-9.23.33-18.47.09-28,.09-1.33-5.24-.63-10.09-.68-16.3,10,0,19.27-.22,28.47.08,6.23.2,9.5,3.29,9.56,8S289.08,651.07,282.93,651.28Z"/><path class="cls-2" d="M921.91,638.6c-.85-9.28-5.36-15.62-14.15-18.85a55.19,55.19,0,0,0-19.18-3.16c-15.23,0-30.46-.05-45.69,0-2.71,0-5.55-.68-8.48.88v75.18h24.14v-22.5c7.58-.48,14.27-.86,20.86.17,4.71,7.72,9.21,15.08,13.53,22.17h27.88c-3.57-9.39-9.85-16.47-14-25.3C919.82,662,923.09,651.48,921.91,638.6ZM887.3,651.29c-9.19.32-18.41.08-27.95.08-1.62-5.19-.27-10.09-1.15-16.25,10.67,0,20.16-.27,29.63.1,5.75.22,8.35,3.11,8.42,7.8C896.33,648.09,893.54,651.06,887.3,651.29Z"/><path class="cls-2" d="M1690.91,663.69c9.71-7.06,10.26-17.25,8.71-27.68-1.44-9.65-8-15.18-17.19-17.44a66.41,66.41,0,0,0-16.61-2c-12.74.14-25.49.05-38.24.05h-15v76.08h23.64c1.47-7.66-.86-15.45,1.37-22.62h19.6L1671,692.63h28.51l-14.73-25.27C1687.22,665.91,1689.18,665,1690.91,663.69Zm-16.66-20.13c-.15,4.71-2.64,7.43-8.55,7.67-9.21.39-18.45.11-28.7.11V635.51a201.76,201.76,0,0,1,29.39-.22C1672.11,635.57,1674.42,638.62,1674.25,643.56Z"/><path class="cls-2" d="M1819.88,650.92c-.8-15.56-7.84-26.93-22.29-32.22a79.66,79.66,0,0,0-55.55-.06c-15,5.43-22.68,18.17-22.66,34.93,0,17,8.3,29.49,23.38,35.54,8.54,3.42,17.43,4,26.46,3.52,4.34,0,8.72.37,13-.06C1802.65,690.51,1821.3,678.64,1819.88,650.92Zm-36.7,20.61a28.46,28.46,0,0,1-13.07,2.37,34.6,34.6,0,0,1-9.72-1.17c-10.22-3-15.24-9.22-15.21-19.39s5.09-16.15,15.58-19a37.28,37.28,0,0,1,21.07.77c7.8,2.39,11.72,8.13,12.11,16.77C1794.4,662,1791,668.36,1783.18,671.53Z"/><path class="cls-2" d="M945.26,617h73v17.24H970.8c-1.79,3.8-1.1,7.07-.65,10.92h47.54c2.49,6.17.52,12,1.52,18.3H971.36c-2.65,4-1.6,7.57-1.24,12h48.62V693H945.26Z"/><path class="cls-2" d="M658.5,617v17.37c-7.9.3-15.85.11-23.78.14s-16,0-24.47,0a28,28,0,0,0,.21,11h47.95c1.27,6,.46,11.42.67,17.35-8.25,1.81-16.24.65-24.14.86s-16.06,0-24.14,0c-1.46,4.08-1,7.61-.51,11.85h48.82c1.33,5.82.25,11,.73,16-7.38,1.79-59.84,2.22-74,.7V617Z"/><path class="cls-2" d="M2044.63,637.32c-1.2-9.12-6.46-15.19-15.36-18a60,60,0,0,0-18.34-2.73c-15.55,0-31.11,0-46.66,0-2.37,0-5-.83-7.17.94v75.08h24.55V669.77h21.2a126.3,126.3,0,0,0,19.51-1.13C2041.35,665.74,2046.68,653,2044.63,637.32Zm-25.4,6.23c-.16,4.25-2.66,7.33-7.82,7.57-9.53.44-19.1.13-29.58.13V636.41c4.34-1.18,26.5-2,30.25-1.12C2017,636.42,2019.4,639.2,2019.23,643.55Z"/><path class="cls-2" d="M1840.43,616h25.17c0,10.1,0,19.66,0,29.21,0,3.41,0,6.83.15,10.24a23.68,23.68,0,0,0,1.06,6.39c2.85,8.33,11.31,12,24.33,10.71,9.8-1,15.53-5.72,16.22-14.75.66-8.65.33-17.37.4-26,0-5,0-9.9,0-15.71a141.06,141.06,0,0,1,25.11-.07c-.68,16.72,1.48,33.1-1.55,49.3-2.43,13-10.67,21.69-23.36,25.26a77.54,77.54,0,0,1-43.24-.14c-13-3.8-21-12.77-23-26.47C1839.38,648.15,1841.23,632.36,1840.43,616Z"/><path class="cls-2" d="M1104.64,616.93h-32.77L1037.13,693c8.92-.27,16.84.64,24.55-.56,3-4.08,3.44-9.05,6.75-12.41h39.16c3.37,3.85,3.81,9.25,7.36,13,8.38-.38,16.61.75,25.28-.75C1128.2,666.8,1116.46,642,1104.64,616.93Zm-28.86,45.81a256.16,256.16,0,0,1,12-27.32,253,253,0,0,1,12.11,26.77C1091.92,663.67,1084.41,662.84,1075.78,662.74Z"/><path class="cls-2" d="M1264.31,692.65V636.54h-32.38c-2-6.92-1.44-13.19-.46-19.63h90.82v19h-31.91c-2.22,6.4-.93,12.57-1.15,18.6-.23,6.49,0,13,0,19.5v18.68Z"/><path class="cls-2" d="M1387.15,645.23l22.17-28.32h25.52c-.23,3.78-3,5.69-4.78,8.06-9,11.85-18.06,23.69-27.38,35.31a16.76,16.76,0,0,0-4.1,11.88c.29,6.47.07,13,.07,20.1-8.21,1.48-16.08.61-24.93.48,0-6.74-.41-13.2.13-19.59.49-5.79-1.7-10-5.21-14.24-10.08-12.21-19.89-24.64-29.76-37-1.12-1.4-2.82-2.58-2.29-5.06h28.47C1372,625.74,1379.19,635,1387.15,645.23Z"/><path class="cls-2" d="M330,617.48c.9-.41,1.41-.85,1.92-.85,8.69,0,17.38,0,26.6,0L381,645.11l22.14-28.28h25.46c0,3.76-2.87,5.64-4.67,8-9,11.85-18,23.71-27.39,35.27A18.78,18.78,0,0,0,392,673.7c.32,6.12.08,12.26.08,18.84H367.54c0-6.44-.43-12.89.12-19.26.5-5.78-1.64-10-5.15-14.25-9.11-11-18-22.15-26.86-33.34C333.61,623.11,331,620.79,330,617.48Z"/><path class="cls-2" d="M1159.65,692.26V617h24.57c.41,18.22-.1,36.64.3,55.84h45.25c2,6.7.68,12.77,1.15,18.63C1223.89,693.31,1172.74,693.81,1159.65,692.26Z"/></g></g></svg>