<?xml version="1.0" encoding="utf-8"?>
<!-- Generator: Adobe Illustrator 24.0.0, SVG Export Plug-In . SVG Version: 6.00 Build 0)  -->
<svg version="1.1" id="Layer_1" xmlns="http://www.w3.org/2000/svg" xmlns:xlink="http://www.w3.org/1999/xlink" x="0px" y="0px"
	 viewBox="0 0 2376.1 656.5" style="enable-background:new 0 0 2376.1 656.5;" xml:space="preserve">
<style type="text/css">
	.st0{fill:#932E2E;}
</style>
<path class="st0" d="M169.2,303.6c12.9-0.5,25.7-2,38.1-5.8c14.1-4.3,24.4-13.3,31.8-25.8c5.9-10,8.2-21,9.9-32.2
	c0.7-4.8,1.4-9.6,2.4-14.3c1.4-6.3,5.3-9.6,11.7-10.3c16.3-1.9,30.1,3.8,42.2,14.1c18.6,15.8,29,36.5,34.4,59.9
	c6.7,28.9,4.9,57.7-3.9,86c-7.9,25.3-20.7,48-36,69.4c-11.9,16.7-25.3,32.2-39.6,46.9c-13.6,13.9-27.3,27.7-42.1,40.3
	c-9.1,7.8-24,9.6-35.2,3c-11.6-6.8-23-14.1-34-21.8c-17.4-12.1-34.2-24.9-49.8-39.3c-22.3-20.4-42.2-42.8-56.6-69.6
	c-15.6-28.9-23.5-59.5-21.6-92.4c1.1-19.2,6.4-37.1,17.4-53c9.2-13.5,21-23.8,37.4-27.7c10.7-2.5,21.4-2.1,31.6,1.7
	c8.7,3.3,17,7.6,25.5,11.4c10.8,4.8,21.9,8.7,33.9,8.5c7.1-0.1,13.9-1.6,20.2-5.1c7.7-4.3,12.3-10.8,13-19.7
	c0.5-6.7-3.2-10.4-9.9-9.7c-4.5,0.5-9,1.8-13.5,2.7c-11.2,2.2-22.2,2-32.8-2.7c-14.5-6.4-22.3-18.3-25.2-33.4
	c-4.4-23.1,3.6-42.3,20.1-58.3c7.2-7,15.5-12.2,25.3-14.6c5.6-1.4,11.3-1.9,16.5,1.7c5,3.5,6.8,8.6,6.3,14.5
	c-0.6,6.2-4.3,10.1-9.9,12.1c-5.2,1.9-10.5,3.2-14.8,7.1c-8.2,7.5-14.1,16.1-13.8,27.8c0.3,10,7.1,16.4,17.1,15.4
	c5.9-0.6,11.7-2.1,17.6-3.2c10.1-1.9,19.8-0.8,28.8,4.4c10.5,6.2,16.1,15.8,17.8,27.5c2.5,16.7-2.8,31.3-14.1,43.6
	c-13.1,14.3-29.8,20.5-49,20.3c-16.9-0.1-32.6-5.2-47.6-12.7c-5.8-2.9-11.6-5.9-17.6-8.3c-14.5-5.8-27.4-2.1-36.7,10.4
	c-8.5,11.5-12.5,24.7-14.2,38.7c-2.3,19.4,1.8,37.8,8.2,55.9c7.4,21,19.1,39.6,33.7,56.4c15,17.3,31.7,33.1,49.8,47
	c14.4,11.1,29.1,21.7,44.2,31.7c7.8,5.2,16.1,3,21.5-1.9c16.5-15,32-31.1,46.7-47.8c14.7-16.6,27.8-34.4,38.7-53.7
	c12.3-21.8,20.2-45.1,21.1-70.3c0.7-22.1-3.7-42.9-15.1-62.1c-3.6-6.2-8.2-11.5-14-15.8c-3.9-2.9-6.6-2.1-8.2,2.6
	c-2.7,8.2-4.9,16.6-8.3,24.5c-7.3,16.8-17.5,31.5-34.2,40.7c-10.6,5.8-21.8,9.9-33.7,11.5c-14.8,2-29.7,3.6-44.6,4.5
	c-10.7,0.6-16.2,10.5-14.5,18.7c1.3,6.4,6.1,9.3,11.7,10.9c9.6,2.7,19.4,1.9,29-0.1c9.6-2,19-4.6,28.4-7c10-2.5,20.1-3.9,30.2-0.6
	c15.7,5,24.8,18.7,23.3,35.2c-1.1,12.6-6.1,23.7-13.4,33.8c-9.3,12.7-20.1,24-33.6,32.3c-12.2,7.5-25.4,12.2-40.1,10.6
	c-9.6-1.1-18.2-4.6-26.3-9.7c-12.2-7.8-22.9-17.7-31.4-29.4c-1.6-2.1-3-4.4-4.2-6.8c-3.3-6.6-1.1-14.4,5-18.5
	c5.1-3.4,12.1-2.6,17,2.4c4.5,4.5,8.5,9.3,12.9,13.8c5.3,5.4,11,10.4,17.8,14.2c10.8,5.9,21.4,5.3,31.8-0.7
	c14-8,24.7-19.3,32.4-33.4c1.5-2.7,2.5-5.7,3-8.8c0.9-5.1-2.3-8.7-7.5-8c-5.9,0.8-11.7,2.2-17.4,3.8c-15.4,4.4-30.9,8.1-47.1,7.9
	c-10.8-0.1-21.1-2.2-30.5-7.8c-17.1-10.3-24.6-29.6-19-49.4c5.3-19.1,19.3-31,39-33.2C158.2,304.4,163.7,304,169.2,303.6z"/>
<g>
	<path class="st0" d="M482.2,466.1c-3.6-1-7.6-2.2-12-3.6c0.4-1,0.2-1.9-0.5-2.7c-0.7-0.8-2.2-1.3-4.4-1.5c-3-2-6.1-4.8-9.3-8.4
		c-3.2-3.6-6-7.3-8.4-11.1c-2.4-3.8-4-6.6-4.8-8.4c-1.4-3-1.3-4.8,0.3-5.6c1.6-0.7,3.5-1.5,5.7-2.6c2.2-1.6,4.5-2.8,7.1-3.6
		c2.5-0.8,4.5,0.5,6.2,3.9c2.6,4.6,6.6,8.5,12.2,11.7c5.5,3.2,11.8,5.1,18.9,5.7c7.1,0.6,14.3-0.6,21.5-3.6c4.8-2.2,7.4-5.3,7.8-9.2
		c0.4-3.9-1.1-8.5-4.5-13.7c-0.6-1.6-1.5-2.9-2.6-3.9c-1.1-1-2.7-2.3-4.8-3.9c-2.1-1.6-5.1-4.2-8.9-7.8c-3-1.4-5.8-2.7-8.3-3.9
		c-2.5-1.2-5.2-2.5-8-3.9c-3.2-1.6-6.8-3.8-10.8-6.8c-4-2.9-7.7-6.1-11.1-9.6c-3.4-3.5-6-6.9-7.8-10.1c-3.2-3-5.2-7.2-6-12.5
		c-0.8-5.3-0.7-11,0.5-17c1.1-6,2.9-11.4,5.6-16.2c1.2-2.8,3.4-6.5,6.6-11c3.2-4.5,6.8-9.2,10.8-14c4-4.8,7.9-9.2,11.6-13.1
		c3.7-3.9,6.6-6.6,8.9-8c1.6-1.6,4.2-4.1,7.8-7.5c0.2-1,0.8-1.5,1.8-1.5c1-0.6,3.2-1.6,6.6-3c3.4-1.4,7.1-4,11.1-7.8
		c13.4-6.4,24.8-10.8,34.2-13.1c9.4-2.3,16.8-3.5,22.2-3.5c5,0.2,9.9,1.6,14.7,4.1c4.8,2.5,9,5.7,12.5,9.5c3.5,3.8,5.6,8.1,6.2,12.9
		c1.4,4.8,0.8,10.6-2,17.3c-2.7,6.7-6.4,13-11.1,18.9c-4.7,5.9-9.6,10.3-14.6,13.1c-5.6,2.4-10.4,2.7-14.3,0.9
		c-3.9-1.8-5.8-4.6-5.6-8.4c0-1.6,0.5-3.5,1.7-5.7c1.1-2.2,4.2-6.1,9.2-11.7c6.4-9.4,9.8-16.1,10.2-20.1c0.4-4-1.4-6.3-5.4-6.9
		c-1.2-0.4-3.5-0.3-6.9,0.3c-3.4,0.6-7.1,1.4-11,2.3c-3.9,0.9-7.3,1.9-10.2,2.9c-2.9,1-4.4,1.7-4.4,2.1c0,1.2-0.4,1.7-1.2,1.5
		c-0.4,0-1.8,0.7-4.1,2c-2.3,1.3-5.1,3-8.3,5c-3.2,2-6.4,4.1-9.5,6.2c-3.1,2.1-5.8,4-8,5.6c-2.2,1.6-3.4,2.6-3.6,3
		c-0.4,2.2-2.7,4.2-6.9,6c-4,2.4-7.5,5.8-10.5,10.2c-3,4.4-6.5,10-10.5,16.8c-3.4,4.6-5.8,9.6-7.2,14.9c-1.4,5.3-1.4,9.6,0,12.8
		c1,3.2,3.8,6.4,8.3,9.5c4.5,3.1,10.7,7,18.5,11.6c6.8,3.8,13.2,7.8,19.2,12s11.1,8.3,15.3,12.2c4.2,3.9,6.9,7.2,8.1,9.8
		c2.4,3.4,3.9,7.3,4.4,11.7c0.5,4.4,0.5,8.7,0,12.8c-0.5,4.1-1.2,7.5-2,10.1c-1.4,3.2-3.6,6.6-6.5,10.2c-2.9,3.6-5.6,5.3-8,5.1
		c-2.2,0.6-3.9,1.3-5,2.1c-1.1,0.8-2.4,1.5-3.8,2.1c-1.4,0.8-4.7,1.7-9.9,2.9c-5.2,1.1-10.9,2-17.1,2.7
		C492.2,466,486.8,466.3,482.2,466.1z"/>
	<path class="st0" d="M595.4,446.9c-2.2-0.4-4.6-1.7-7.2-4.1c-2.6-2.3-5-4.9-7.1-7.8c-2.1-2.9-3.5-5.4-4.1-7.4
		c0-0.4-0.5-1.2-1.5-2.4c-0.8-0.6-1.3-3.3-1.4-8c-0.1-4.7,0.2-10,0.8-15.8c0.6-5.8,1.3-10.4,2.1-13.8c1-3.2,2.5-7.6,4.5-13.1
		c2-5.5,3.7-10.5,5.1-14.9l8.1-17.4l-12-3.3c-1.4-0.4-2.6-1.2-3.5-2.4c-0.9-1.2-1.4-2.2-1.4-3c0-1.6,0.9-3.9,2.7-6.9
		c1.8-3,3.1-4.5,3.9-4.5c1,0.2,2.9,0.3,5.6,0.3s5.4-0.1,8-0.3c2.6-0.2,4.2-0.4,4.8-0.6c0.8-0.4,1.6-0.9,2.4-1.7
		c0.8-0.7,1.4-1.7,1.8-3.2c1-2.2,1.9-3.9,2.7-5.1c0.8-1.2,1.9-3,3.3-5.4c1.4-2.6,2.6-4.8,3.5-6.6c0.9-1.8,2.3-4.3,4.4-7.5
		c1-1.4,2.1-3.1,3.3-5.1c1.2-2,2.7-3.7,4.5-5.1c1.8-1.6,4.8-2.7,8.9-3.5c4.1-0.7,7.7,0.3,10.7,2.9c1.6,2,2.5,3.9,2.7,5.7
		c0.2,1.8-0.6,4.1-2.4,6.9c-1.6,3.4-3.5,6.5-5.6,9.2c-2.1,2.7-4.1,5.8-5.9,9.2c-3.2,4.4-3.8,6.9-1.8,7.5c2,0.6,7.6,0.2,16.8-1.2
		c5.8-1,10-0.4,12.6,1.8c2.6,2.2,4.1,5,4.5,8.4c0.6,4.8,0.1,7.7-1.5,8.7c-1.6,1-6.2,1.5-13.8,1.5c-4.8,0.8-8.9,1.3-12.3,1.4
		c-3.4,0.1-5.9,0.2-7.5,0.2c-2.6,0.2-4.3,0.3-5.1,0.3c-0.8,0-2,0.2-3.6,0.6c-1.6,0.4-2.8,1.1-3.5,2c-0.7,0.9-1.5,2.2-2.3,3.8
		c-0.8,0.8-2,2.9-3.6,6.3c-1.6,3.4-3.6,7.1-6,11.1c-2.8,8.4-5.2,16.5-7.1,24.2c-1.9,7.7-3.6,15.4-5,23c-0.6,3.8-0.5,6.6,0.4,8.3
		c0.9,1.7,3.5,2.8,7.7,3.2c2.2,0.2,5.4,0.2,9.6-0.2c4.2-0.3,7.7-0.8,10.5-1.7c2.2-1,4.5-2,6.9-3.2c2.4-1.1,4.6-2.3,6.6-3.5
		c1.8-1,4.5-2.6,8.1-4.8c1-1.6,2.4-1.4,4.4,0.8c1.9,2.1,3.2,4.4,4.1,6.8c0,2.4-0.5,5.3-1.5,8.6c-1,3.3-4.7,6.8-11.1,10.4
		c-9,5.6-18,9-27,10.2C607.8,447.8,600.6,447.9,595.4,446.9z"/>
	<path class="st0" d="M672.6,438.5c-1.8-1.4-3.8-3.2-5.9-5.4c-2.1-2.2-2.9-5.3-2.3-9.3c0.6-5.6,1.4-10.6,2.4-14.9
		c1-4.3,2.2-9.3,3.6-14.9c0.4-2.4,1.4-6.5,3.2-12.3c1.7-5.8,3.8-12.1,6.2-18.9c2.4-6.8,4.9-13.3,7.5-19.4c2.6-6.1,4.9-10.7,6.9-13.7
		c2.2-2,5.4-3,9.8-3c4.3,0,7.3,0.8,8.9,2.4c2.2,1.8,2.9,5,2.1,9.5c-0.8,4.5-3.6,11.5-8.4,20.9c-1,2.4-2.3,5-3.8,7.7
		c-1.5,2.7-2.6,4.9-3.2,6.6c-0.6,1.7-0.4,2.5,0.6,2.3c1.2-2.2,3.4-4.8,6.6-7.7c3.2-2.9,6.6-5.7,10.2-8.6c3.6-2.8,7-5.3,10.2-7.5
		c3.2-2.2,5.4-3.6,6.6-4.2c1.6-1,3.5-1.8,5.6-2.6c2.1-0.7,3.5-1.2,4.4-1.7c4.6-2.2,9.7-3,15.2-2.6c5.5,0.5,8.9,2.3,10.1,5.3
		c0.2,1.6,1.4,3.2,3.6,4.8c0.8,0,1.3,0.6,1.5,1.8c0,1.4-1.4,3.4-4.1,6c-2.7,2.6-5.7,4-8.9,4.2c-2.6,0.2-4.9,0.7-6.9,1.5
		c-2,0.8-4.4,1.8-7.2,3c-7.6,4.4-14.5,8.3-20.6,11.7c-6.1,3.4-12.4,8.6-18.8,15.6c-1.4,1.6-2.9,3.1-4.5,4.5c-1.6,1.4-3.2,3.4-4.8,6
		c-1,1-2,3.2-3,6.6c-1,3.4-1.9,6.7-2.6,9.8c-0.7,3.1-1.1,5-1.1,5.6c-1.2,3.8-2.5,6.6-3.9,8.4c-2.4,3.2-4.8,5.2-7.1,6
		C678.5,442.9,675.8,441.7,672.6,438.5z"/>
	<path class="st0" d="M768.6,440.3c-0.8-1.6-2.6-3.2-5.3-4.8c-2.7-1.6-4.1-2.8-4.1-3.6c0-0.8-0.5-2-1.4-3.8
		c-0.9-1.7-1.8-2.9-2.6-3.8c-1-1.2-0.7-4.2,0.9-8.9c1.6-4.7,4-10.5,7.2-17.3c3.2-6.8,6.7-13.7,10.5-20.7c1.6-1.6,3.2-3.7,4.8-6.3
		c1.6-2.6,2.8-4.3,3.6-5.1c0-0.8,0.3-1.5,0.9-2.3c0.6-0.7,1.3-1.1,2.1-1.1l2.4-4.8c0.4-0.8,1.7-2.4,3.8-4.8s4.7-5.1,7.7-8
		c3-2.9,6-5.7,9.2-8.3c3.1-2.6,5.7-4.5,7.7-5.7c4.2-2.8,8.6-4.1,13.1-3.9c4.5,0.2,8.4,1.6,11.6,4.2c0.6,0.6,2,1.8,4.1,3.6
		c2.1,1.8,4.5,3.8,7.2,6c2.7,2.2,5.1,4.2,7.1,6l11.1,9.9l-5.1,15c-2.6,8-3.3,15-2,21c1.3,6,3.2,11.2,5.6,15.6c1,2.2,2.3,3.9,4.1,5.1
		c1.7,1.2,3.9,2,6.8,2.4c1.6,0.2,3.1,0.8,4.5,1.8c1.4,1,2.1,2.6,2.1,4.8c0,4.8-0.9,8.3-2.6,10.4c-1.7,2.1-3.6,3.4-5.6,3.8
		c-6.6,0.8-12.9,0.1-18.9-2.1c-6-2.2-11.4-7.9-16.2-17.1c-0.8-1.2-1.9-3.5-3.2-6.8c-1.3-3.3-2.1-5.4-2.3-6.5c-0.8,1-1.9,2.3-3.2,3.8
		c-1.3,1.5-2.6,2.9-3.8,4.1c-14.2,14.4-26.4,23.8-36.5,28.1C783.9,444.7,775.4,444.7,768.6,440.3z M791.7,413.1c3-1.7,7-4.5,12-8.6
		c6.8-5.8,12.4-10.6,16.8-14.4c4.4-3.8,8.7-8.7,12.9-14.7l6.6-10.8c-2-4.6-3.8-7.6-5.4-9c-1.6-1.4-3.2-2.1-4.8-2.1
		c-2.6,0-5.7,1.7-9.3,5c-3.6,3.3-7.7,8.1-12.2,14.4c-4.5,6.3-9.6,14.2-15.2,23.6c-2.6,4.4-5.3,10.7-8.1,18.9
		C786.5,415.5,788.7,414.8,791.7,413.1z"/>
	<path class="st0" d="M913.5,437.5c-3,0-6-2.3-9-6.8c-3-4.5-5.4-10.1-7.1-16.7c-1.7-6.6-2.4-13.1-2-19.5c0-6.4,0.3-11.6,1.1-15.5
		c0.7-3.9,1.4-7.8,2.3-11.6c0.6-1.2,0.9-2.2,1-3c0.1-0.8,0.3-2.1,0.6-3.9c0.3-1.8,0.9-4.8,2-9c0.8-3.4,1.7-6.2,2.6-8.4
		c0.9-2.2,1.7-3.7,2.3-4.5c2.4-3.2,5.1-5.1,8.1-5.9c3-0.7,5.7-0.3,8.3,1.1c2.5,1.4,3.9,3.5,4.4,6.3c1.2,1,1.8,3.3,2,6.8
		c0.1,3.5-0.2,7.1-0.8,10.8c-0.6,3.7-1.5,6.4-2.7,8c-0.4,1-0.9,3.6-1.4,7.8c-0.5,4.2-1,8.6-1.5,13.2c-0.5,4.6-1.1,8.3-1.7,11.1
		c-0.6,3.6-0.4,5.9,0.8,6.8c1.1,0.9,3.1,0,6-2.7c2.9-2.7,6.8-7.6,11.6-14.6c4-6,6.9-10.7,8.9-14.1c1.9-3.4,3.4-6.5,4.5-9.3
		c1.1-2.8,2.3-6.1,3.8-9.9c1-3.2,2-5.8,2.9-7.8c0.9-2,1.7-3.4,2.6-4.2c2.2-3.2,5.1-4.5,8.9-4.1c3.7,0.5,6.8,1.6,9.2,3.2
		c2.4,2.4,3.9,5.7,4.4,9.8c0.5,4.1-0.5,8.6-2.9,13.4c-1.6,3.2-3.2,7-4.7,11.4c-1.5,4.4-2.7,8.8-3.6,13.2c-0.9,4.4-1.4,8.2-1.4,11.4
		c0,4,0.5,6.4,1.7,7.1c1.1,0.7,2.4,1.1,4.1,1.1c2.4,0,4.7-0.8,6.9-2.6c2.2-1.7,5.4-4.8,9.6-9.2c1.8-1.8,4-4.5,6.6-8.1
		c2.6-3.6,5.1-7.4,7.7-11.4c2.5-4,4.6-7.6,6.3-10.7c1.7-3.1,2.6-5,2.6-5.9c0-1.2,0.9-2.9,2.7-5.1c1.2-1.6,2.1-2.9,2.9-3.8
		c0.7-0.9,2-1.8,4.1-2.9c1.6-0.8,3.4-0.9,5.4-0.5c2,0.5,3.7,1.6,5.1,3.2c1,0.8,1.7,2.8,2.3,5.9c0.5,3.1,0.8,5.9,0.8,8.3
		c-0.6,2.2-1.5,5.3-2.7,9.2c-1.2,3.9-2.5,7.6-3.8,11.1c-1.3,3.5-2.5,5.9-3.5,7.1c-0.8,0.8-2.2,2.3-4.2,4.4c-2,2.1-3.8,4.4-5.4,6.8
		c-5,6-8.6,9.9-10.8,11.7c-2.2,1.8-4.1,3.5-5.7,5.1c-4.2,4.2-9,7.6-14.4,10.1c-5.4,2.5-10.5,3.9-15.3,4.2c-4.8,0.3-8.6-0.5-11.4-2.6
		c-6.2-3.2-9.3-8.6-9.3-16.2c0-1.6-0.5-3.7-1.5-6.3c-0.8,0-1.9,0.2-3.2,0.6c-1.3,0.4-2.7,1.8-4.1,4.2c-1.8,3.4-4.9,6.9-9.2,10.4
		c-4.3,3.5-8.7,6.4-13.1,8.7C919.3,436.4,915.9,437.5,913.5,437.5z"/>
	<path class="st0" d="M1082.4,444.8c-4-0.4-7.2-1.4-9.5-3.2c-2.3-1.7-4.1-3.9-5.3-6.5c-1.6-1.8-2.6-3.2-2.9-4.2
		c-0.3-1-0.4-1.9-0.2-2.7c1,0,1.9,0,2.7-0.2c0.8-0.1,1.3-0.4,1.5-1.1c0-0.6,0.3-1,1.1-1.2c0.7-0.2,1.4-0.2,2.3,0
		c3.8,0.2,8.5-1.1,14-3.9c5.5-2.8,11.6-6.8,18.2-11.9c6.6-5.1,13.2-10.7,19.8-16.7c5.2-6.8,8.9-11.8,11-15c2.1-3.2,3.2-5.7,3.3-7.4
		c0.1-1.7-0.4-3.5-1.4-5.3c-0.8-1.6-2.7-2.4-5.7-2.4c-3,0-7.6,2-13.8,6c-8.6,5.4-15.5,10.4-20.7,15c-5.2,4.6-10,9.8-14.4,15.6
		c-1.6,2-3.4,4.2-5.3,6.5c-1.9,2.3-4.2,5.1-6.8,8.3c0,0.8-1.2,1.8-3.5,3c-2.3,1.2-4.3,1.8-5.9,1.8c-0.8-0.4-1.9-1.1-3.2-2.3
		c-1.3-1.1-2.2-2.6-2.6-4.4c-1.8-1.4-3.3-2.6-4.5-3.8c-1.2-1.1-1.8-2.9-1.8-5.6c0-1.6,0.2-3.6,0.8-6c0.5-2.4,1.2-5.5,2.3-9.3
		c1.2-5.2,2.5-10.7,3.9-16.4c1.4-5.7,2.7-10.6,4.1-14.7c1.3-4.1,2.3-6.4,2.9-6.8c1.6-3.6,2.4-6.6,2.4-9c0.4-2.4,1.1-4.5,2-6.3
		c0.9-1.8,1.4-3.1,1.4-3.9c0.8-0.6,2-3,3.6-7.2c1.6-4.2,3.6-9.7,6-16.5c0-0.6,0.7-2.6,2.1-5.9c1.4-3.3,3.1-7.2,5.1-11.7
		c2-4.5,4.1-9.2,6.2-14.1c2.1-4.9,3.9-9.3,5.3-13.1c2.4-3.4,4.5-6.9,6.2-10.4c1.7-3.5,3.3-5.6,4.7-6.2c1-0.2,2.7,0.2,5.3,1.2
		c2.5,1,5.1,2.3,7.7,3.9c2.6,1.6,4.4,3.2,5.4,4.8c0.6,1,0.9,2,1.1,3c0.1,1-0.4,2.7-1.4,5c-1,2.3-2.7,6-5.1,11.1
		c-2.4,5.1-5.8,12.3-10.2,21.5c-5.6,12-10,22-13.1,30c-3.1,8-5.6,14.9-7.5,20.7c-1.9,5.8-3.9,11.3-5.9,16.5l-1.5,6.6l7.8-8.7
		c2-2,4.1-3.9,6.3-5.7c2.2-1.8,4.6-3.6,7.2-5.4c1.6-1.2,3.8-2.4,6.5-3.8c2.7-1.3,5.4-2.4,8-3.5c2.6-1,4.5-1.6,5.7-1.8
		c0.6-0.2,2.6-0.6,6.2-1.4c3.5-0.7,7-1.1,10.4-1.1c4.4,0,8.3,1.6,11.6,4.7c3.3,3.1,6.3,6.9,8.9,11.3c2.2,4.2,3,9.6,2.4,16.1
		c-0.6,6.5-2.3,12.1-5.1,16.7c-1,0.8-2,1.9-3,3.2c-1,1.3-1.5,2.4-1.5,3.2c-0.2,1.4-2,4.3-5.4,8.6c-3.4,4.3-6.8,8.4-10.2,12.2
		c-3.6,3.8-8,7.6-13.2,11.3c-5.2,3.7-10.4,7-15.5,9.9c-5.1,2.9-9.5,5-13.1,6.2c-1.6,0.2-3.9,0.6-6.9,1.1
		C1086.3,443.9,1083.9,444.4,1082.4,444.8z"/>
	<path class="st0" d="M1230.3,440.6c-6,3.4-12.4,5.4-19.1,5.9c-6.7,0.5-13-0.4-18.8-2.7c-5.8-2.3-10.5-5.7-14.1-10.4
		c-2-2.6-3.9-6.8-5.7-12.5c-1.8-5.7-2.1-13.5-0.9-23.3c1.2-9.2,4.1-18.5,8.6-27.9c4.5-9.4,10.1-17.7,16.7-24.9
		c6.6-7.2,13.8-12.1,21.6-14.7c2.8-1,5.7-1.8,8.6-2.3c2.9-0.5,6.8-0.5,11.6-0.2c4.6,0.6,8.7,1.8,12.3,3.5c3.6,1.7,6.2,3.6,7.8,5.6
		c3.2,3.2,5.3,6.3,6.3,9.3c1,3,1.4,5.9,1.2,8.7c-1,6.4-3.9,13.3-8.6,20.7c-4.7,7.4-11.3,12.9-19.7,16.5c-3.4,1.4-7.4,2.3-12,2.7
		c-4.6,0.4-10.9-0.2-18.9-1.8c-4.8-1-8-0.5-9.5,1.5c-1.5,2-2.2,5.9-2,11.7c0.4,3.6,1.2,6.8,2.6,9.5c1.3,2.7,3.8,4.6,7.4,5.6
		c4.6,0.8,7.9,0.9,9.9,0.2c2-0.7,4.5-1.7,7.5-3.2c1.6-1,3.2-2.1,4.7-3.3c1.5-1.2,3-2.4,4.5-3.6c1.5-1.2,2.7-2.1,3.8-2.7
		c1-0.8,2-1.3,3-1.5c1-0.2,2-0.3,3-0.3c2.2,0.2,4.3,1.4,6.3,3.6c2,2.2,3.3,4.3,3.9,6.3c0,1.6-1,3.9-3,6.8c-2,2.9-4.7,5.9-8,9
		C1237.9,435.4,1234.3,438.2,1230.3,440.6z M1226.4,373.6c1.4-0.6,3.5-2,6.2-4.2c2.7-2.2,5.1-4.5,7.4-7.1c2.2-2.5,3.3-4.5,3.3-5.9
		c0-2.2-1.5-4.1-4.4-5.7c-2.9-1.6-6.7-1.9-11.3-0.9c-1.6,0.4-3.5,1.5-5.7,3.3c-2.2,1.8-4.4,3.9-6.6,6.2c-2.2,2.3-4.1,4.5-5.7,6.6
		c-1.6,2.1-2.7,3.8-3.3,5c0.8,1,2.4,1.8,4.8,2.4c2.4,0.6,5.1,0.9,8,0.9C1221.9,374.2,1224.4,374,1226.4,373.6z"/>
	<path class="st0" d="M1278.4,438.5c-1.8-1.4-3.8-3.2-5.9-5.4c-2.1-2.2-2.9-5.3-2.3-9.3c0.6-5.6,1.4-10.6,2.4-14.9
		c1-4.3,2.2-9.3,3.6-14.9c0.4-2.4,1.4-6.5,3.2-12.3c1.7-5.8,3.8-12.1,6.2-18.9c2.4-6.8,4.9-13.3,7.5-19.4c2.6-6.1,4.9-10.7,6.9-13.7
		c2.2-2,5.4-3,9.8-3c4.3,0,7.3,0.8,8.9,2.4c2.2,1.8,2.9,5,2.1,9.5c-0.8,4.5-3.6,11.5-8.4,20.9c-1,2.4-2.3,5-3.8,7.7
		c-1.5,2.7-2.6,4.9-3.2,6.6c-0.6,1.7-0.4,2.5,0.6,2.3c1.2-2.2,3.4-4.8,6.6-7.7c3.2-2.9,6.6-5.7,10.2-8.6c3.6-2.8,7-5.3,10.2-7.5
		c3.2-2.2,5.4-3.6,6.6-4.2c1.6-1,3.5-1.8,5.6-2.6c2.1-0.7,3.6-1.2,4.4-1.7c4.6-2.2,9.7-3,15.2-2.6c5.5,0.5,8.9,2.3,10.1,5.3
		c0.2,1.6,1.4,3.2,3.6,4.8c0.8,0,1.3,0.6,1.5,1.8c0,1.4-1.4,3.4-4.1,6c-2.7,2.6-5.7,4-8.9,4.2c-2.6,0.2-4.9,0.7-6.9,1.5
		c-2,0.8-4.4,1.8-7.2,3c-7.6,4.4-14.5,8.3-20.6,11.7c-6.1,3.4-12.4,8.6-18.8,15.6c-1.4,1.6-2.9,3.1-4.5,4.5c-1.6,1.4-3.2,3.4-4.8,6
		c-1,1-2,3.2-3,6.6c-1,3.4-1.9,6.7-2.6,9.8c-0.7,3.1-1.1,5-1.1,5.6c-1.2,3.8-2.5,6.6-3.9,8.4c-2.4,3.2-4.8,5.2-7.1,6
		C1284.3,442.9,1281.6,441.7,1278.4,438.5z"/>
	<path class="st0" d="M1379.2,438.5c-1.8-1.4-3.8-3.2-5.9-5.4c-2.1-2.2-2.9-5.3-2.3-9.3c0.6-5.6,1.4-10.6,2.4-14.9
		c1-4.3,2.2-9.3,3.6-14.9c0.4-2.4,1.4-6.5,3.2-12.3c1.7-5.8,3.8-12.1,6.2-18.9c2.4-6.8,4.9-13.3,7.5-19.4c2.6-6.1,4.9-10.7,6.9-13.7
		c2.2-2,5.4-3,9.8-3c4.3,0,7.3,0.8,8.9,2.4c2.2,1.8,2.9,5,2.1,9.5c-0.8,4.5-3.6,11.5-8.4,20.9c-1,2.4-2.3,5-3.8,7.7
		c-1.5,2.7-2.6,4.9-3.2,6.6c-0.6,1.7-0.4,2.5,0.6,2.3c1.2-2.2,3.4-4.8,6.6-7.7c3.2-2.9,6.6-5.7,10.2-8.6c3.6-2.8,7-5.3,10.2-7.5
		c3.2-2.2,5.4-3.6,6.6-4.2c1.6-1,3.5-1.8,5.6-2.6c2.1-0.7,3.6-1.2,4.4-1.7c4.6-2.2,9.7-3,15.2-2.6c5.5,0.5,8.9,2.3,10.1,5.3
		c0.2,1.6,1.4,3.2,3.6,4.8c0.8,0,1.3,0.6,1.5,1.8c0,1.4-1.4,3.4-4.1,6c-2.7,2.6-5.7,4-8.9,4.2c-2.6,0.2-4.9,0.7-6.9,1.5
		c-2,0.8-4.4,1.8-7.2,3c-7.6,4.4-14.5,8.3-20.6,11.7c-6.1,3.4-12.4,8.6-18.8,15.6c-1.4,1.6-2.9,3.1-4.5,4.5c-1.6,1.4-3.2,3.4-4.8,6
		c-1,1-2,3.2-3,6.6c-1,3.4-1.9,6.7-2.6,9.8c-0.7,3.1-1.1,5-1.1,5.6c-1.2,3.8-2.5,6.6-3.9,8.4c-2.4,3.2-4.8,5.2-7.1,6
		C1385.2,442.9,1382.4,441.7,1379.2,438.5z"/>
	<path class="st0" d="M1473.2,509c-7.2,1.4-14.1,1.7-20.7,0.8c-6.6-0.9-12.2-2.7-16.7-5.3c-4.5-2.6-7.3-5.5-8.3-8.7
		c-1.2-4.6-0.6-8,1.8-10.2c2.4-2.2,5.3-3.5,8.6-3.9c3.3-0.4,5.5,0,6.5,1.2c1.6,1,4.2,2.5,7.7,4.5c3.5,2,7.9,2.5,13.1,1.5
		c4.6-1,8.7-3.2,12.3-6.6c3.6-3.4,6.8-7,9.6-10.8c1.6-2.4,4.3-6.7,8.1-12.9c3.8-6.2,7.8-13.1,11.9-20.6c4.1-7.5,7.6-14.5,10.4-20.9
		c0.6-1.6,1.3-3.5,2.1-5.7c0.8-2.2,1.8-4,3-5.4c1.2-2.4,2.3-4.7,3.2-6.8c0.9-2.1,1.4-3.5,1.7-4.4c0.2-1,1.1-3,2.7-6
		c1.6-3,3.1-6,4.5-9c1-3,2.5-7.4,4.5-13.2c2-5.8,4-10.5,6-14.1c2.4-4.6,4.4-8.4,5.9-11.3c1.5-2.9,3.2-4.7,5-5.3
		c1.8-1.4,3.5-2.1,5.1-2.1c1.6,0,3.5,0.6,5.7,1.8c2.4,2.4,4.4,4.8,5.9,7.1c1.5,2.3,2.1,5.1,1.8,8.4c-0.3,3.3-1.9,7.8-5,13.4
		c-1.6,4.8-3.4,9.2-5.3,13.1c-1.9,3.9-3.4,6.5-4.4,7.7c-1,2.4-2.2,5.1-3.5,8c-1.3,2.9-2.5,5.6-3.5,8c-3.6,8-6.7,14.5-9.3,19.5
		c-2.6,5-4.9,9.6-6.9,13.8c-2,4.2-4.1,9.1-6.3,14.7c-4.6,7.4-9.1,14.5-13.4,21.2c-4.3,6.7-8.9,13-13.7,18.8c-2,1.8-4.9,4.2-8.6,7.1
		c-3.7,2.9-7.5,5.6-11.4,8.1C1479.4,506.8,1476,508.4,1473.2,509z M1510.8,441.2c-3-0.4-6.3-2.4-9.8-6c-3.5-3.6-6.4-7.4-8.7-11.4
		c-2.3-4-3.3-6.8-2.9-8.4c0-1,0-2.1,0-3.3c-1.2,0-2.2-1.7-2.9-5.3c-0.7-3.5-1.2-8-1.5-13.4s-0.4-11-0.3-16.8
		c0.1-5.8,0.3-11.1,0.8-15.9c0.8-3.4,1.2-7.2,1.2-11.3c0-4.1,0.1-7.4,0.3-9.8c-0.2-3.2,0.5-5.8,2-7.8c1.5-2,2.6-3.3,3.5-3.9
		c7.4-3.2,12.8-1.5,16.2,5.1c3.4,6.6,4.6,17.1,3.6,31.5c-0.4,8-0.6,15.7-0.6,23c0,7.3,0.7,13.6,2.1,18.8c1.4,5.2,3.8,8.9,7.2,11.1
		c1.4,0.8,1.9,2.5,1.5,5.1c-0.4,2.6-1.3,5.4-2.7,8.3c-1.4,2.9-3,5.4-4.7,7.5C1513.4,440.4,1512,441.4,1510.8,441.2z"/>
	<path class="st0" d="M1702.2,466.1c-3.6-1-7.6-2.2-12-3.6c0.4-1,0.2-1.9-0.4-2.7c-0.7-0.8-2.2-1.3-4.4-1.5c-3-2-6.1-4.8-9.3-8.4
		c-3.2-3.6-6-7.3-8.4-11.1c-2.4-3.8-4-6.6-4.8-8.4c-1.4-3-1.3-4.8,0.3-5.6c1.6-0.7,3.5-1.5,5.7-2.6c2.2-1.6,4.5-2.8,7.1-3.6
		c2.5-0.8,4.5,0.5,6.2,3.9c2.6,4.6,6.6,8.5,12.2,11.7c5.5,3.2,11.8,5.1,18.9,5.7c7.1,0.6,14.3-0.6,21.5-3.6c4.8-2.2,7.4-5.3,7.8-9.2
		c0.4-3.9-1.1-8.5-4.5-13.7c-0.6-1.6-1.5-2.9-2.6-3.9c-1.1-1-2.7-2.3-4.8-3.9c-2.1-1.6-5.1-4.2-8.9-7.8c-3-1.4-5.8-2.7-8.3-3.9
		c-2.5-1.2-5.2-2.5-8-3.9c-3.2-1.6-6.8-3.8-10.8-6.8c-4-2.9-7.7-6.1-11.1-9.6c-3.4-3.5-6-6.9-7.8-10.1c-3.2-3-5.2-7.2-6-12.5
		c-0.8-5.3-0.7-11,0.4-17c1.1-6,2.9-11.4,5.6-16.2c1.2-2.8,3.4-6.5,6.6-11c3.2-4.5,6.8-9.2,10.8-14c4-4.8,7.8-9.2,11.6-13.1
		c3.7-3.9,6.7-6.6,8.9-8c1.6-1.6,4.2-4.1,7.8-7.5c0.2-1,0.8-1.5,1.8-1.5c1-0.6,3.2-1.6,6.6-3c3.4-1.4,7.1-4,11.1-7.8
		c13.4-6.4,24.8-10.8,34.2-13.1c9.4-2.3,16.8-3.5,22.2-3.5c5,0.2,9.9,1.6,14.7,4.1c4.8,2.5,9,5.7,12.5,9.5c3.5,3.8,5.6,8.1,6.2,12.9
		c1.4,4.8,0.8,10.6-2,17.3c-2.7,6.7-6.4,13-11.1,18.9c-4.7,5.9-9.6,10.3-14.6,13.1c-5.6,2.4-10.4,2.7-14.3,0.9
		c-3.9-1.8-5.8-4.6-5.6-8.4c0-1.6,0.5-3.5,1.7-5.7c1.1-2.2,4.2-6.1,9.2-11.7c6.4-9.4,9.8-16.1,10.2-20.1c0.4-4-1.4-6.3-5.4-6.9
		c-1.2-0.4-3.5-0.3-6.9,0.3c-3.4,0.6-7.1,1.4-11,2.3c-3.9,0.9-7.3,1.9-10.2,2.9c-2.9,1-4.4,1.7-4.4,2.1c0,1.2-0.4,1.7-1.2,1.5
		c-0.4,0-1.8,0.7-4.1,2c-2.3,1.3-5.1,3-8.3,5c-3.2,2-6.4,4.1-9.5,6.2c-3.1,2.1-5.8,4-8,5.6c-2.2,1.6-3.4,2.6-3.6,3
		c-0.4,2.2-2.7,4.2-6.9,6c-4,2.4-7.5,5.8-10.5,10.2c-3,4.4-6.5,10-10.5,16.8c-3.4,4.6-5.8,9.6-7.2,14.9c-1.4,5.3-1.4,9.6,0,12.8
		c1,3.2,3.8,6.4,8.3,9.5c4.5,3.1,10.7,7,18.5,11.6c6.8,3.8,13.2,7.8,19.2,12c6,4.2,11.1,8.3,15.3,12.2c4.2,3.9,6.9,7.2,8.1,9.8
		c2.4,3.4,3.8,7.3,4.4,11.7c0.5,4.4,0.5,8.7,0,12.8c-0.5,4.1-1.2,7.5-2,10.1c-1.4,3.2-3.6,6.6-6.5,10.2c-2.9,3.6-5.6,5.3-8,5.1
		c-2.2,0.6-3.9,1.3-5,2.1c-1.1,0.8-2.4,1.5-3.8,2.1c-1.4,0.8-4.7,1.7-9.9,2.9c-5.2,1.1-10.9,2-17.1,2.7
		C1712.2,466,1706.8,466.3,1702.2,466.1z"/>
	<path class="st0" d="M1813.9,437.5c-3,0-6-2.3-9-6.8c-3-4.5-5.4-10.1-7.1-16.7c-1.7-6.6-2.4-13.1-2-19.5c0-6.4,0.3-11.6,1.1-15.5
		c0.7-3.9,1.4-7.8,2.3-11.6c0.6-1.2,0.9-2.2,1.1-3c0.1-0.8,0.3-2.1,0.6-3.9c0.3-1.8,0.9-4.8,2-9c0.8-3.4,1.7-6.2,2.6-8.4
		c0.9-2.2,1.7-3.7,2.3-4.5c2.4-3.2,5.1-5.1,8.1-5.9c3-0.7,5.7-0.3,8.3,1.1c2.5,1.4,3.9,3.5,4.4,6.3c1.2,1,1.8,3.3,2,6.8
		c0.1,3.5-0.2,7.1-0.8,10.8c-0.6,3.7-1.5,6.4-2.7,8c-0.4,1-0.9,3.6-1.4,7.8c-0.5,4.2-1,8.6-1.5,13.2c-0.5,4.6-1.1,8.3-1.7,11.1
		c-0.6,3.6-0.4,5.9,0.8,6.8c1.1,0.9,3.1,0,6-2.7c2.9-2.7,6.8-7.6,11.6-14.6c4-6,6.9-10.7,8.9-14.1c1.9-3.4,3.4-6.5,4.5-9.3
		c1.1-2.8,2.4-6.1,3.8-9.9c1-3.2,2-5.8,2.9-7.8c0.9-2,1.7-3.4,2.6-4.2c2.2-3.2,5.2-4.5,8.9-4.1c3.7,0.5,6.8,1.6,9.2,3.2
		c2.4,2.4,3.9,5.7,4.4,9.8c0.5,4.1-0.5,8.6-2.9,13.4c-1.6,3.2-3.2,7-4.7,11.4c-1.5,4.4-2.7,8.8-3.6,13.2c-0.9,4.4-1.4,8.2-1.4,11.4
		c0,4,0.5,6.4,1.7,7.1c1.1,0.7,2.4,1.1,4.1,1.1c2.4,0,4.7-0.8,6.9-2.6c2.2-1.7,5.4-4.8,9.6-9.2c1.8-1.8,4-4.5,6.6-8.1
		c2.6-3.6,5.1-7.4,7.7-11.4c2.5-4,4.6-7.6,6.3-10.7c1.7-3.1,2.6-5,2.6-5.9c0-1.2,0.9-2.9,2.7-5.1c1.2-1.6,2.1-2.9,2.9-3.8
		c0.7-0.9,2-1.8,4.1-2.9c1.6-0.8,3.4-0.9,5.4-0.5c2,0.5,3.7,1.6,5.1,3.2c1,0.8,1.7,2.8,2.3,5.9c0.5,3.1,0.8,5.9,0.8,8.3
		c-0.6,2.2-1.5,5.3-2.7,9.2c-1.2,3.9-2.5,7.6-3.8,11.1c-1.3,3.5-2.5,5.9-3.5,7.1c-0.8,0.8-2.2,2.3-4.2,4.4c-2,2.1-3.8,4.4-5.4,6.8
		c-5,6-8.6,9.9-10.8,11.7c-2.2,1.8-4.1,3.5-5.7,5.1c-4.2,4.2-9,7.6-14.4,10.1c-5.4,2.5-10.5,3.9-15.3,4.2c-4.8,0.3-8.6-0.5-11.4-2.6
		c-6.2-3.2-9.3-8.6-9.3-16.2c0-1.6-0.5-3.7-1.5-6.3c-0.8,0-1.9,0.2-3.2,0.6c-1.3,0.4-2.7,1.8-4.1,4.2c-1.8,3.4-4.9,6.9-9.2,10.4
		c-4.3,3.5-8.7,6.4-13.1,8.7C1819.7,436.4,1816.3,437.5,1813.9,437.5z"/>
	<path class="st0" d="M2005,440.6c-6,3.4-12.4,5.4-19.1,5.9c-6.7,0.5-13-0.4-18.8-2.7c-5.8-2.3-10.5-5.7-14.1-10.4
		c-2-2.6-3.9-6.8-5.7-12.5c-1.8-5.7-2.1-13.5-0.9-23.3c1.2-9.2,4.1-18.5,8.6-27.9c4.5-9.4,10.1-17.7,16.7-24.9
		c6.6-7.2,13.8-12.1,21.6-14.7c2.8-1,5.7-1.8,8.6-2.3c2.9-0.5,6.8-0.5,11.6-0.2c4.6,0.6,8.7,1.8,12.3,3.5c3.6,1.7,6.2,3.6,7.8,5.6
		c3.2,3.2,5.3,6.3,6.3,9.3c1,3,1.4,5.9,1.2,8.7c-1,6.4-3.9,13.3-8.6,20.7c-4.7,7.4-11.3,12.9-19.7,16.5c-3.4,1.4-7.4,2.3-12,2.7
		c-4.6,0.4-10.9-0.2-18.9-1.8c-4.8-1-8-0.5-9.5,1.5c-1.5,2-2.2,5.9-2,11.7c0.4,3.6,1.2,6.8,2.6,9.5c1.3,2.7,3.8,4.6,7.4,5.6
		c4.6,0.8,7.9,0.9,9.9,0.2c2-0.7,4.5-1.7,7.5-3.2c1.6-1,3.2-2.1,4.7-3.3c1.5-1.2,3-2.4,4.5-3.6c1.5-1.2,2.7-2.1,3.8-2.7
		c1-0.8,2-1.3,3-1.5c1-0.2,2-0.3,3-0.3c2.2,0.2,4.3,1.4,6.3,3.6c2,2.2,3.3,4.3,3.9,6.3c0,1.6-1,3.9-3,6.8c-2,2.9-4.7,5.9-8,9
		C2012.7,435.4,2009,438.2,2005,440.6z M2001.1,373.6c1.4-0.6,3.5-2,6.2-4.2c2.7-2.2,5.1-4.5,7.4-7.1c2.2-2.5,3.3-4.5,3.3-5.9
		c0-2.2-1.5-4.1-4.4-5.7c-2.9-1.6-6.7-1.9-11.3-0.9c-1.6,0.4-3.5,1.5-5.7,3.3c-2.2,1.8-4.4,3.9-6.6,6.2c-2.2,2.3-4.1,4.5-5.7,6.6
		c-1.6,2.1-2.7,3.8-3.3,5c0.8,1,2.4,1.8,4.8,2.4c2.4,0.6,5.1,0.9,8,0.9C1996.7,374.2,1999.1,374,2001.1,373.6z"/>
	<path class="st0" d="M2104.7,440.6c-6,3.4-12.4,5.4-19.1,5.9c-6.7,0.5-13-0.4-18.8-2.7c-5.8-2.3-10.5-5.7-14.1-10.4
		c-2-2.6-3.9-6.8-5.7-12.5c-1.8-5.7-2.1-13.5-0.9-23.3c1.2-9.2,4.1-18.5,8.6-27.9c4.5-9.4,10.1-17.7,16.7-24.9
		c6.6-7.2,13.8-12.1,21.6-14.7c2.8-1,5.7-1.8,8.6-2.3c2.9-0.5,6.8-0.5,11.6-0.2c4.6,0.6,8.7,1.8,12.3,3.5c3.6,1.7,6.2,3.6,7.8,5.6
		c3.2,3.2,5.3,6.3,6.3,9.3c1,3,1.4,5.9,1.2,8.7c-1,6.4-3.9,13.3-8.6,20.7c-4.7,7.4-11.3,12.9-19.7,16.5c-3.4,1.4-7.4,2.3-12,2.7
		c-4.6,0.4-10.9-0.2-18.9-1.8c-4.8-1-8-0.5-9.5,1.5c-1.5,2-2.2,5.9-2,11.7c0.4,3.6,1.2,6.8,2.6,9.5c1.3,2.7,3.8,4.6,7.4,5.6
		c4.6,0.8,7.9,0.9,9.9,0.2c2-0.7,4.5-1.7,7.5-3.2c1.6-1,3.2-2.1,4.7-3.3c1.5-1.2,3-2.4,4.5-3.6c1.5-1.2,2.7-2.1,3.8-2.7
		c1-0.8,2-1.3,3-1.5c1-0.2,2-0.3,3-0.3c2.2,0.2,4.3,1.4,6.3,3.6c2,2.2,3.3,4.3,3.9,6.3c0,1.6-1,3.9-3,6.8c-2,2.9-4.7,5.9-8,9
		C2112.4,435.4,2108.7,438.2,2104.7,440.6z M2100.8,373.6c1.4-0.6,3.5-2,6.2-4.2c2.7-2.2,5.1-4.5,7.4-7.1c2.2-2.5,3.3-4.5,3.3-5.9
		c0-2.2-1.5-4.1-4.4-5.7c-2.9-1.6-6.7-1.9-11.3-0.9c-1.6,0.4-3.5,1.5-5.7,3.3c-2.2,1.8-4.4,3.9-6.6,6.2c-2.2,2.3-4.1,4.5-5.7,6.6
		c-1.6,2.1-2.7,3.8-3.3,5c0.8,1,2.4,1.8,4.8,2.4c2.4,0.6,5.1,0.9,8,0.9C2096.4,374.2,2098.8,374,2100.8,373.6z"/>
	<path class="st0" d="M2167.7,446.9c-2.2-0.4-4.6-1.7-7.2-4.1c-2.6-2.3-5-4.9-7.1-7.8c-2.1-2.9-3.5-5.4-4.1-7.4
		c0-0.4-0.5-1.2-1.5-2.4c-0.8-0.6-1.3-3.3-1.4-8c-0.1-4.7,0.2-10,0.8-15.8c0.6-5.8,1.3-10.4,2.1-13.8c1-3.2,2.5-7.6,4.5-13.1
		c2-5.5,3.7-10.5,5.1-14.9l8.1-17.4l-12-3.3c-1.4-0.4-2.6-1.2-3.5-2.4c-0.9-1.2-1.4-2.2-1.4-3c0-1.6,0.9-3.9,2.7-6.9
		c1.8-3,3.1-4.5,3.9-4.5c1,0.2,2.9,0.3,5.6,0.3c2.7,0,5.4-0.1,8-0.3c2.6-0.2,4.2-0.4,4.8-0.6c0.8-0.4,1.6-0.9,2.4-1.7
		c0.8-0.7,1.4-1.7,1.8-3.2c1-2.2,1.9-3.9,2.7-5.1c0.8-1.2,1.9-3,3.3-5.4c1.4-2.6,2.6-4.8,3.5-6.6c0.9-1.8,2.3-4.3,4.4-7.5
		c1-1.4,2.1-3.1,3.3-5.1c1.2-2,2.7-3.7,4.5-5.1c1.8-1.6,4.8-2.7,8.9-3.5c4.1-0.7,7.7,0.3,10.7,2.9c1.6,2,2.5,3.9,2.7,5.7
		c0.2,1.8-0.6,4.1-2.4,6.9c-1.6,3.4-3.5,6.5-5.6,9.2s-4.1,5.8-5.9,9.2c-3.2,4.4-3.8,6.9-1.8,7.5c2,0.6,7.6,0.2,16.8-1.2
		c5.8-1,10-0.4,12.6,1.8c2.6,2.2,4.1,5,4.5,8.4c0.6,4.8,0.1,7.7-1.5,8.7c-1.6,1-6.2,1.5-13.8,1.5c-4.8,0.8-8.9,1.3-12.3,1.4
		c-3.4,0.1-5.9,0.2-7.5,0.2c-2.6,0.2-4.3,0.3-5.1,0.3c-0.8,0-2,0.2-3.6,0.6c-1.6,0.4-2.8,1.1-3.5,2c-0.7,0.9-1.5,2.2-2.3,3.8
		c-0.8,0.8-2,2.9-3.6,6.3c-1.6,3.4-3.6,7.1-6,11.1c-2.8,8.4-5.2,16.5-7.1,24.2c-1.9,7.7-3.6,15.4-5,23c-0.6,3.8-0.5,6.6,0.5,8.3
		c0.9,1.7,3.5,2.8,7.7,3.2c2.2,0.2,5.4,0.2,9.6-0.2c4.2-0.3,7.7-0.8,10.5-1.7c2.2-1,4.5-2,6.9-3.2c2.4-1.1,4.6-2.3,6.6-3.5
		c1.8-1,4.5-2.6,8.1-4.8c1-1.6,2.4-1.4,4.4,0.8c1.9,2.1,3.3,4.4,4.1,6.8c0,2.4-0.5,5.3-1.5,8.6c-1,3.3-4.7,6.8-11.1,10.4
		c-9,5.6-18,9-27,10.2C2180,447.8,2172.9,447.9,2167.7,446.9z"/>
	<path class="st0" d="M2254,448.4c-6.8-2.8-11.8-5.7-14.9-8.9c-3.1-3.1-4.4-5.9-3.8-8.3c0.4-1.2,1.1-2.3,2.1-3.3
		c1-1,3.2-1.4,6.8-1.4c3.5,0.1,9,1.1,16.4,2.9c2.2,0,4.4-0.1,6.6-0.3c2.2-0.2,4.2-0.5,6.2-0.9c1.9-0.4,3.5-0.9,4.7-1.5
		c1-0.4,1.3-0.9,0.9-1.7c-0.4-0.7-1.1-1.4-2.1-2.3c-0.8-1-1.7-1.7-2.7-2c-1-0.3-1.9-0.4-2.7-0.4c-0.4-1-1.3-2-2.6-3
		c-1.3-1-2.9-2.1-4.7-3.3c-4.4-3.6-8.4-6.8-12-9.6c-3.6-2.8-5-4.9-4.2-6.3c0-0.8,0-1.3,0-1.5c-1.4,0-2.7-2-3.9-5.9
		c-1.2-3.9-1.8-7.5-1.8-10.7c0-4,0.8-8,2.6-12c1.7-4,3.9-7.8,6.6-11.4c2.7-3.6,5.4-6.8,8.3-9.6c3.8-3.6,7.9-7.2,12.2-10.7
		c4.3-3.5,9-6.6,14.1-9.5c5.1-2.8,10.8-5,17-6.6c2.8-0.6,6-0.9,9.6-0.9c3.6,0,6.2,0.5,7.8,1.5c1.6-1,3.6-0.8,6,0.7
		c2.4,1.5,4.8,3.6,7.2,6.2c2.4,2.6,4.2,5.2,5.4,7.8c0,2.4-0.1,5.4-0.2,8.9c-0.1,3.5-0.4,6.6-0.7,9.2c-0.4,2.6-1.3,3.9-2.7,3.9
		c-1,0.2-1.5,0.8-1.5,1.8c0,2-1.5,4.3-4.5,6.9c-3.8,2.6-7.4,4.7-10.8,6.3c-3.4,1.6-6,1.7-7.8,0.3c-1.2-0.8-2.3-1.6-3.3-2.4
		c-1-0.8-1.9-1.8-2.7-3c-1-1.8-1.5-3.1-1.5-3.9c0-0.8,0.6-1.9,1.8-3.3c2.8-2.6,5-5,6.5-7.2c1.5-2.2,2.6-4.2,3.2-5.9
		c0.6-1.7,0.9-3,0.9-4.1c0-1.2-0.3-2-0.7-2.3c-0.5-0.3-1.6-0.5-3.2-0.5c-1,0-3.2,0.8-6.5,2.4c-3.3,1.6-6.8,3.6-10.4,5.9
		c-3.6,2.3-6.4,4.4-8.4,6.2c-0.8,1.4-1.4,2.3-1.7,2.7c-0.3,0.4-0.9,0.6-1.7,0.6c0-0.8-0.5-0.7-1.5,0.3c-1,1-2.2,2.4-3.6,4.2
		c-1.4,1.8-2.8,3.7-4.2,5.7c-1.4,2-2.5,3.6-3.3,4.8c-0.2,1.8-0.7,3.5-1.4,5c-0.7,1.5-1,3.1-0.8,4.7c0.2,2,1.2,3.9,3,5.7
		s4.4,4.1,7.8,6.9c7,5.2,12.3,9.3,15.8,12.3c3.5,3,6,5.4,7.4,7.2c1.4,1.8,2.3,3.6,2.7,5.4c3.4,6.2,3.8,11.6,1.2,16.1
		c-2.6,4.5-6.6,8-12,10.4c-2,1-5.5,2-10.5,2.9c-5,0.9-10.3,1.3-15.8,1.2C2262.5,450.8,2257.8,450,2254,448.4z"/>
</g>
</svg>
