<svg xmlns="http://www.w3.org/2000/svg" viewBox="0 0 570.87 640.58"><defs><style>.cls-1{fill:#ff6358;}.cls-2{fill:#030113;}</style></defs><title>icon</title><g id="Layer_2" data-name="Layer 2"><g id="Layer_1-2" data-name="Layer 1"><path class="cls-1" d="M278.43,640.58a22.27,22.27,0,0,0-2.87-.81,60.3,60.3,0,0,1-21.06-7.61l-47.77-27.57-104-60.07c-24.29-14-48.68-27.91-72.84-42.16-16.22-9.57-25.75-24-29.08-42.53a53.47,53.47,0,0,1-.71-9.55q0-130,.05-260c.05-22.65,10.37-40.17,29.64-51.88,18.09-11,36.63-21.28,55-31.87L185,48.56q34.68-20,69.35-40.05A61,61,0,0,1,286.88,0a58.72,58.72,0,0,1,28.37,7.76q42,24.14,83.91,48.41Q446.62,83.58,494.07,111c15.64,9,31.39,17.9,46.9,27.15,16.33,9.73,26.07,24.18,29.2,42.94a70,70,0,0,1,.62,11.23q0,127.88.08,255.74c0,10.87-1.92,21.11-7.08,30.7a60,60,0,0,1-23.19,24q-65.19,37.68-130.41,75.3l-94.28,54.44a62.05,62.05,0,0,1-22.08,7.58,7.41,7.41,0,0,0-1.48.51ZM550.08,320.29q0-63.33,0-126.67a44.77,44.77,0,0,0-.79-9C546.46,171,538.87,161,526.9,154.05q-78.81-45.47-157.6-91Q338.57,45.33,307.83,27.6a43.94,43.94,0,0,0-31.46-5.07,50.67,50.67,0,0,0-15.45,6.3Q204.05,61.72,147.15,94.55c-34.61,20-69.27,39.87-103.79,60-14.8,8.63-22.47,21.86-22.49,39q-.16,126.79-.05,253.58a44.57,44.57,0,0,0,22.53,39l72,41.6q73.71,42.56,147.45,85.07c15.11,8.69,30.54,8.53,45.63-.16q109.36-63,218.64-126.24c15.14-8.76,22.93-22.08,22.95-39.67Q550.14,383.51,550.08,320.29Z"/><path class="cls-2" d="M550.08,320.29q0,63.22,0,126.43c0,17.59-7.81,30.91-22.95,39.67Q417.85,549.62,308.47,612.63c-15.09,8.69-30.52,8.85-45.63.16Q189,570.4,115.39,527.72l-72-41.6a44.57,44.57,0,0,1-22.53-39q0-126.8.05-253.58c0-17.12,7.69-30.35,22.49-39,34.52-20.12,69.18-40,103.79-60Q204,61.7,260.92,28.83a50.67,50.67,0,0,1,15.45-6.3,43.94,43.94,0,0,1,31.46,5.07Q338.6,45.29,369.3,63.07q78.79,45.5,157.6,91c12,6.9,19.56,17,22.35,30.53a44.77,44.77,0,0,1,.79,9Q550.12,257,550.08,320.29Zm-13,.26q0-63.33,0-126.66a32.78,32.78,0,0,0-1.32-9.7,31.49,31.49,0,0,0-14.95-18.58l-42.77-24.68Q390,90.11,302,39.29c-11-6.34-22-6.34-33,0q-109.22,63-218.41,126.1c-11.26,6.5-16.75,16.29-16.75,29.22q0,125.7,0,251.4c0,.56,0,1.12,0,1.67a31.77,31.77,0,0,0,16.11,27.2l53.78,31q82.64,47.7,165.26,95.41c11,6.34,22,6.34,33,0Q411.3,538.23,520.6,475.1c11-6.34,16.48-15.91,16.48-28.62Z"/><path class="cls-1" d="M537.08,320.55V446.48c0,12.71-5.51,22.28-16.48,28.62Q411.31,538.24,302,601.32c-11,6.34-22,6.34-33,0q-82.64-47.69-165.26-95.41l-53.78-31a31.77,31.77,0,0,1-16.11-27.2c0-.55,0-1.11,0-1.67q0-125.7,0-251.4c0-12.93,5.49-22.72,16.75-29.22q109.2-63,218.41-126.1c11-6.33,22-6.33,33,0Q390,90.1,478.06,140.93l42.77,24.68a31.49,31.49,0,0,1,14.95,18.58,32.78,32.78,0,0,1,1.32,9.7Q537.07,257.22,537.08,320.55ZM58.76,330.1h0q-.2,10.31-.37,20.62-.26,15.22-.48,30.46-.42,29.73-.82,59.47c-.12,8.91,3.86,15.47,11.5,19.87Q153.81,509.59,239,558.61c6.17,3.55,12.32,7.11,18.51,10.63,3.86,2.2,7.92,2.7,11.87.44,10.42-5.94,20.75-12,31.12-18a4.83,4.83,0,0,0,2.55-3.57,22.85,22.85,0,0,0,.25-3.09q.06-19.07.09-38.14.17-53,.34-106,.11-39.58.13-79.16a16.29,16.29,0,0,0-8.68-15q-95.91-55.41-191.85-110.79c-1.38-.8-2.75-1.63-4.18-2.35a5.41,5.41,0,0,0-5.69.18c-2.16,1.36-4.41,2.58-6.62,3.86-8,4.62-15.88,9.27-23.86,13.83A5.5,5.5,0,0,0,59.92,216c-.06.79-.13,1.59-.14,2.39,0,11.91,0,23.83-.07,35.74-.06,11-.2,22.06-.34,33.09C59.19,301.48,59,315.79,58.76,330.1Z"/><path class="cls-2" d="M58.76,330.1c.2-14.31.43-28.62.61-42.93.14-11,.28-22.06.34-33.09.07-11.91,0-23.83.07-35.74,0-.8.08-1.6.14-2.39A5.5,5.5,0,0,1,63,211.41c8-4.56,15.91-9.21,23.86-13.83,2.21-1.28,4.46-2.5,6.62-3.86a5.41,5.41,0,0,1,5.69-.18c1.43.72,2.8,1.55,4.18,2.35q95.93,55.4,191.85,110.79a16.29,16.29,0,0,1,8.68,15q-.06,39.57-.13,79.16-.15,53-.34,106-.06,19.06-.09,38.14a22.85,22.85,0,0,1-.25,3.09,4.83,4.83,0,0,1-2.55,3.57c-10.37,6-20.7,12.09-31.12,18-3.95,2.26-8,1.76-11.87-.44-6.19-3.52-12.34-7.08-18.51-10.63q-85.18-49.05-170.38-98.09c-7.64-4.4-11.62-11-11.5-19.87q.39-29.73.82-59.47.23-15.23.48-30.46.16-10.31.37-20.62Zm15.49-97c0,1.14-.12,1.93-.13,2.71q-.18,12.22-.35,24.46l-.48,30.93q-.48,31.65-1,63.3-.39,26.49-.75,53c-.15,11.11-.3,22.22-.51,33.33a7.51,7.51,0,0,0,2.08,5.68,14.4,14.4,0,0,0,3.1,2.21q91.08,52.47,182.19,104.91c.67.38,1.37.71,2.23,1.15.06-.73.13-1.19.14-1.65.05-7.19.11-14.39.14-21.58q.07-20,.13-40.06.23-74,.45-148a9.08,9.08,0,0,0-5.07-8.74q-47-26.05-93.84-52.24-43.21-24.14-86.37-48.38C75.7,233.85,75.14,233.58,74.25,233.13Z"/><path class="cls-1" d="M74.25,233.13c.89.45,1.45.72,2,1q43.19,24.2,86.37,48.38,46.89,26.19,93.84,52.24a9.08,9.08,0,0,1,5.07,8.74q-.27,74-.45,148-.06,20-.13,40.06c0,7.19-.09,14.39-.14,21.58,0,.46-.08.92-.14,1.65-.86-.44-1.56-.77-2.23-1.15Q167.35,501.19,76.25,448.74a14.4,14.4,0,0,1-3.1-2.21,7.51,7.51,0,0,1-2.08-5.68c.21-11.11.36-22.22.51-33.33q.39-26.49.75-53,.47-31.65,1-63.3l.48-30.93q.18-12.23.35-24.46C74.13,235.06,74.2,234.27,74.25,233.13ZM175.2,344.9c0-8.07.06-13.58,0-19.09a36.16,36.16,0,0,0-.67-6.66c-2.35-11.43-9.68-18.57-20.14-22.88a12.92,12.92,0,0,0-4.21-.77,5.46,5.46,0,0,0-5.7,3.55,15.89,15.89,0,0,0-1.32,5.29c-.22,6.07-.07,12.15-.3,18.21-.47,12.1.55,24.1,1.91,36.1.95,8.41,1.8,16.83,2.7,25.25.92,8.65,2,17.29,2.73,26,.64,7.39,4.9,11.7,11.35,14.34,3,1.25,4.74.32,5.51-2.82a9.66,9.66,0,0,0,.19-1.18q1.16-8.79,2.29-17.58c1.06-8.31,2.13-16.63,3.15-24.95.79-6.5,1.68-13,2.18-19.51C175.25,352.91,175.14,347.62,175.2,344.9ZM95,409.36H94.8c0,4.23-.06,8.47,0,12.7a54.54,54.54,0,0,0,.57,8.59c2.13,11.67,9.45,19.05,20.09,23.46a14.88,14.88,0,0,0,4.67.82,5.16,5.16,0,0,0,5.22-3.14A14,14,0,0,0,126.8,447c.29-4,.36-8,.38-12,0-7.91.36-15.85-.11-23.73-.58-9.8-1.82-19.56-2.82-29.33-.88-8.58-1.81-17.15-2.73-25.73-.62-5.71-1.2-11.43-1.9-17.14a12.38,12.38,0,0,0-4.3-8.57,35.41,35.41,0,0,0-6.64-4.2c-3.16-1.52-5-.44-5.75,3-.07.31-.1.63-.14.94q-1.42,11.18-2.86,22.34c-1.05,8.23-2.15,16.46-3.13,24.71-.68,5.7-1.39,11.42-1.72,17.15C94.79,399.44,95,404.4,95,409.36Zm127.31,72.91h0c0-1.68,0-3.36,0-5-.06-4.87.13-9.77-.28-14.61-.85-9.86-2-19.7-3.07-29.55-1.32-12.63-2.61-25.26-4-37.89A16.22,16.22,0,0,0,202.92,381c-2.34-.63-3.66.05-4.43,2.34a11.78,11.78,0,0,0-.55,2.33q-1.75,13.78-3.47,27.57c-.88,7-1.83,13.94-2.64,20.92-.63,5.47-1.42,10.95-1.57,16.44-.26,9.82-.17,19.66-.06,29.49a31,31,0,0,0,1,8c3.16,11.24,10.73,18.27,21.73,21.61,4.22,1.29,7.23-.53,8.49-4.76a23.46,23.46,0,0,0,.88-6.13C222.41,493.3,222.33,487.78,222.33,482.27Zm-46.74-12.72-.22,0c0-.88-.07-1.76-.14-2.63,0-.48-.14-.95-.22-1.42a38.09,38.09,0,0,0-10.21-19.68c-3.24-3.39-7-6.08-11.73-7a8.65,8.65,0,0,0-10,5.21,15.64,15.64,0,0,0-1.23,7.95A37.12,37.12,0,0,0,155,477a19.34,19.34,0,0,0,8.6,4.51c5.1,1.13,9.31-1.13,10.91-6.09A43.56,43.56,0,0,0,175.59,469.55ZM94.41,280.61c1.38,12.45,6.62,22.3,17.13,29a16.19,16.19,0,0,0,5.09,2c4.87,1.13,8.93-1.17,10.61-5.86a16.81,16.81,0,0,0,.88-7.79,37.54,37.54,0,0,0-13.55-24.78,18.86,18.86,0,0,0-8.49-4.22c-4.77-1-8.84,1.25-10.43,5.86A46.87,46.87,0,0,0,94.41,280.61Zm129.14,74.1-.15,0c0-.88-.09-1.76-.14-2.64a9.41,9.41,0,0,0-.13-1.19,38.33,38.33,0,0,0-12.7-22.25,20.14,20.14,0,0,0-8.11-4.49c-5.74-1.52-10.28,1-11.76,6.74A18.59,18.59,0,0,0,190,337c.92,10.3,5.64,18.67,13.46,25.34a19.27,19.27,0,0,0,7.55,4c5.73,1.52,10.27-1,11.8-6.74A45.12,45.12,0,0,0,223.55,354.71Z"/><path class="cls-2" d="M175.2,344.9c-.06,2.72.05,8-.36,13.26-.5,6.52-1.39,13-2.18,19.51-1,8.32-2.09,16.64-3.15,24.95q-1.12,8.79-2.29,17.58a9.66,9.66,0,0,1-.19,1.18c-.77,3.14-2.47,4.07-5.51,2.82-6.45-2.64-10.71-6.95-11.35-14.34-.74-8.67-1.81-17.31-2.73-26-.9-8.42-1.75-16.84-2.7-25.25-1.36-12-2.38-24-1.91-36.1.23-6.06.08-12.14.3-18.21a15.89,15.89,0,0,1,1.32-5.29,5.46,5.46,0,0,1,5.7-3.55,12.92,12.92,0,0,1,4.21.77c10.46,4.31,17.79,11.45,20.14,22.88a36.16,36.16,0,0,1,.67,6.66C175.26,331.32,175.2,336.83,175.2,344.9Z"/><path class="cls-2" d="M95,409.36c0-5-.23-9.92.06-14.86.33-5.73,1-11.45,1.72-17.15,1-8.25,2.08-16.48,3.13-24.71q1.42-11.17,2.86-22.34c0-.31.07-.63.14-.94.77-3.44,2.59-4.52,5.75-3a35.41,35.41,0,0,1,6.64,4.2,12.38,12.38,0,0,1,4.3,8.57c.7,5.71,1.28,11.43,1.9,17.14.92,8.58,1.85,17.15,2.73,25.73,1,9.77,2.24,19.53,2.82,29.33.47,7.88.15,15.82.11,23.73,0,4-.09,8-.38,12a14,14,0,0,1-1.42,4.76,5.16,5.16,0,0,1-5.22,3.14,14.88,14.88,0,0,1-4.67-.82c-10.64-4.41-18-11.79-20.09-23.46a54.54,54.54,0,0,1-.57-8.59c-.09-4.23,0-8.47,0-12.7Z"/><path class="cls-2" d="M222.33,482.27c0,5.51.08,11,0,16.54a23.46,23.46,0,0,1-.88,6.13c-1.26,4.23-4.27,6.05-8.49,4.76-11-3.34-18.57-10.37-21.73-21.61a31,31,0,0,1-1-8c-.11-9.83-.2-19.67.06-29.49.15-5.49.94-11,1.57-16.44.81-7,1.76-13.95,2.64-20.92q1.74-13.79,3.47-27.57a11.78,11.78,0,0,1,.55-2.33c.77-2.29,2.09-3,4.43-2.34a16.22,16.22,0,0,1,12.14,14.22c1.35,12.63,2.64,25.26,4,37.89,1,9.85,2.22,19.69,3.07,29.55.41,4.84.22,9.74.28,14.61,0,1.68,0,3.36,0,5Z"/><path class="cls-2" d="M175.59,469.55a43.56,43.56,0,0,1-1.08,5.84c-1.6,5-5.81,7.22-10.91,6.09A19.34,19.34,0,0,1,155,477a37.12,37.12,0,0,1-13.12-25,15.64,15.64,0,0,1,1.23-7.95,8.65,8.65,0,0,1,10-5.21c4.75.9,8.49,3.59,11.73,7A38.09,38.09,0,0,1,175,465.46c.08.47.18.94.22,1.42.07.87.1,1.75.14,2.63Z"/><path class="cls-2" d="M94.41,280.61a46.87,46.87,0,0,1,1.24-5.86c1.59-4.61,5.66-6.82,10.43-5.86a18.86,18.86,0,0,1,8.49,4.22,37.54,37.54,0,0,1,13.55,24.78,16.81,16.81,0,0,1-.88,7.79c-1.68,4.69-5.74,7-10.61,5.86a16.19,16.19,0,0,1-5.09-2C101,302.91,95.79,293.06,94.41,280.61Z"/><path class="cls-2" d="M223.55,354.71a45.12,45.12,0,0,1-.77,5c-1.53,5.69-6.07,8.26-11.8,6.74a19.27,19.27,0,0,1-7.55-4c-7.82-6.67-12.54-15-13.46-25.34a18.59,18.59,0,0,1,.59-6.16c1.48-5.73,6-8.26,11.76-6.74a20.14,20.14,0,0,1,8.11,4.49,38.33,38.33,0,0,1,12.7,22.25,9.41,9.41,0,0,1,.13,1.19c.05.88.1,1.76.14,2.64Z"/></g></g></svg>