<svg xmlns="http://www.w3.org/2000/svg" viewBox="0 0 1611.23 393.59"><defs><style>.cls-1{fill:#ff6358;}.cls-2{fill:none;stroke:#fff;stroke-miterlimit:10;stroke-width:2px;opacity:0.58;}</style></defs><title>logo-comp</title><g id="Layer_2" data-name="Layer 2"><g id="Layer_1-2" data-name="Layer 1"><path class="cls-1" d="M111.91,32A35.59,35.59,0,1,0,147.5,67.6,35.61,35.61,0,0,0,111.91,32Zm32.41,227L130.14,152c-1.58-11.41-6.18-15.25-18.23-15.25S95.26,140.61,93.69,152l-14.19,107a179.58,179.58,0,0,0-1.8,21.24v53.07c0,21.78,11.83,33.29,34.21,33.29s34.21-11.51,34.21-33.29V280.3A179.91,179.91,0,0,0,144.32,259Z"/><path class="cls-1" d="M183.93,191.82l-4-2.36.11-.05.05,0s0,.05,0,0v0Z"/><path class="cls-1" d="M441.54,306c-4.15-1.32-6.27,2.13-8.33,5.48-2.27,3.65-7,11.27-11.19,11.27-1.28,0-5.16,0-5.71-.59,0-.06-1.09-1.26-.25-7.61.67-5,2.88-14.92,5.69-27.49,13.9-62.24,27.29-130.33,10-150.49a17.81,17.81,0,0,0-13.92-6.32c-21.35,0-48.66,14.94-66.73,24.85l-4.38,2.39c1.17-9.28-.53-16.41-5-21.18-3.77-4-9.26-6.06-16.3-6.06-20.37,0-49.79,17.48-65.61,28-2.08-9.25-10-24.54-39.42-24.54-19,0-35.51,17.73-49.18,52.67a8.59,8.59,0,0,0,4.6,11,10.19,10.19,0,0,0,4.3,1,9.45,9.45,0,0,0,7.84-4.1,120.63,120.63,0,0,1,21.91-23.36c-2.43,24-9.69,80.93-15.6,127.28-3.29,25.73-6.12,47.95-7.38,58.66a8.06,8.06,0,0,0,8.16,9.07h31.67a8.11,8.11,0,0,0,8.25-7c1.22-11.52,4.92-37.65,8.84-65.32,4.41-31.12,9.4-66.4,11.94-88.3.66-5.72,7.38-13.93,18-21.94s20.82-12.82,25.73-14.19c-6.95,52.43-22.23,168.36-24.27,187.68a8.28,8.28,0,0,0,2.2,6.63,8.17,8.17,0,0,0,5.95,2.47h27.6a8.17,8.17,0,0,0,8.21-6.77c2.3-16,7.62-56.62,12.76-95.92,2.67-20.48,5.33-40.85,7.57-57.71.77-5.87,8.1-14.26,19.58-22.47s22.45-13,27.43-14.16c-3.92,29.2-8,54.3-11.62,76.52-9.82,60.47-15.23,93.79-.55,110,6.47,7.11,16.25,10.44,30.81,10.44,25.39,0,37.25-30,38.7-40.87.72-5.42,1.1-8.83,1.25-11.05C445.22,311.41,445.49,307.29,441.54,306Z"/><path class="cls-1" d="M669.56,162.39a80.59,80.59,0,0,0-30-23.83c-11.63-5.31-24.86-8-39.61-8-16.32,0-29.92,3.44-40.43,10.22a74,74,0,0,0-12.11,9.33,8.79,8.79,0,0,1-14.82-6.4V62.18A6.24,6.24,0,0,0,526.39,56H482a6.24,6.24,0,0,0-6.23,6.23V354a6.23,6.23,0,0,0,6.23,6.24h43.54a6.23,6.23,0,0,0,6.23-6.24v-.19a8.65,8.65,0,0,1,5.41-8.12,9.05,9.05,0,0,1,3.43-.69,8.78,8.78,0,0,1,6.25,2.65,56.45,56.45,0,0,0,9.1,7.58c11.19,7.33,26.24,11.05,44.77,11.05,29.45,0,52.71-11.52,69.14-34.28s24.89-52.14,24.89-87C694.77,211.38,686.29,183.59,669.56,162.39ZM622,300.71A43.35,43.35,0,0,1,606.11,315,45.42,45.42,0,0,1,585,319.81c-18.16,0-31.88-6.64-40.77-19.73C535.41,287.14,531,270.63,531,251c0-16.62,2.15-30.39,6.4-40.92,8.3-20,23.76-30.18,45.95-30.18,21.91,0,37.16,10.37,45.32,30.81,4.24,10.68,6.39,24.31,6.39,40.5C635,271.52,630.63,288.19,622,300.71Z"/><path class="cls-1" d="M786.19,274.35,932.4,241.54a6.25,6.25,0,0,0,4.72-7.44c-3.44-15.48-6.85-27.6-10.15-36-6.49-16.52-15.78-30.45-27.62-41.4-13.2-12.45-28.35-20.48-45-23.88s-34.92-3-53.93,1.3c-32,7.18-56.08,23.32-71.57,48s-19.06,56.36-10.56,94.23c9.07,40.4,26.93,67.41,53.07,80.29s54.28,16.17,83.36,9.64c35.21-7.9,60.54-24.87,75.31-50.44,7.25-12.27,11.42-23.83,12.36-34.39a6.07,6.07,0,0,0-2.07-5.15,6.22,6.22,0,0,0-5.52-1.4L889,285.11a6.26,6.26,0,0,0-4.57,4.18,48.11,48.11,0,0,1-7.48,14.25c-6.87,8.82-17.18,14.82-30.63,17.84-12.63,2.84-24.24,2.43-34.53-1.21-14.7-5-25.42-16.52-31.87-34.13a8.82,8.82,0,0,1,6.31-11.69Zm-16.33-45.07c.4-11,3.13-20.71,8.13-28.89a41.22,41.22,0,0,1,13-13.18,60.1,60.1,0,0,1,19.56-7.83c13.92-3.12,26.69-1.65,37.94,4.36,9.09,4.86,16.11,12.87,20.85,23.82a8.61,8.61,0,0,1-.24,7.37,8.8,8.8,0,0,1-6,4.62l-82.59,18.53a8.78,8.78,0,0,1-7.58-1.83A8.6,8.6,0,0,1,769.86,229.28Z"/><path class="cls-1" d="M1154.31,225.43V358.35a6.24,6.24,0,0,1-6.24,6.23h-40.83a6.24,6.24,0,0,1-6.23-6.23V252c0-37.93-12.56-55.61-39.56-55.61-35.93,0-40.88,27.21-40.88,56.59V358.35a6.24,6.24,0,0,1-6.24,6.23H974.84a6.24,6.24,0,0,1-6.23-6.23V222.78a92.88,92.88,0,0,1,179.22-34.19l0,.14a90.57,90.57,0,0,1,5.18,18.66l0,.19a120.08,120.08,0,0,1,1.23,16.28C1154.31,224.38,1154.31,224.9,1154.31,225.43Z"/><path class="cls-1" d="M1503.19,165.48c-18.83-23.59-47.88-35.55-86.33-35.55s-67.51,12-86.34,35.55S1302,217.53,1302,249.85c0,32.87,9.59,61.35,28.48,84.68s47.88,35,86.34,35,67.5-11.78,86.33-35a124.35,124.35,0,0,0,21.33-38.77,143.16,143.16,0,0,0,7.15-45.91C1531.67,217.53,1522.09,189.14,1503.19,165.48Zm-45.51,137.8a45.56,45.56,0,0,1-17.44,14.24,55.52,55.52,0,0,1-23.59,4.78c-17.71,0-31.56-6.4-41.15-19s-14.33-30.5-14.33-53.43S1366,209,1375.5,196.52s23.44-18.93,41.15-18.93,31.51,6.37,41,18.93,14.23,30.4,14.23,53.33S1467.13,290.75,1457.68,303.28Z"/><path class="cls-1" d="M1302,147v19.52a3.4,3.4,0,0,1-3.4,3.4h-29.59a3.4,3.4,0,0,0-3.4,3.39v8.82c0,.1,0,.21,0,.31l-14.89,165.26-2.31,25.13a3.39,3.39,0,0,1-6.2,1.58c-13.13-19.7-45.93-71.67-45.93-99.32,0-20.08,6.72-69,12.09-101.23a3.38,3.38,0,0,0-3.35-3.94h-25.2a3.4,3.4,0,0,1-3.39-3.4V147a3.39,3.39,0,0,1,3.39-3.39h31a3.43,3.43,0,0,0,3.35-2.8c.91-5.08,1.47-8,1.47-8s0-.23.12-.65c.83-4.23,5.46-28,7-38.86.14-1,.25-1.82.34-2.54.83-7.08-3.44-14.74-5.88-18.46a3.4,3.4,0,0,1,.46-4.31l57.6-56.09a3.4,3.4,0,0,1,5.75,2.75l-11.5,125.29a3.4,3.4,0,0,0,3.38,3.71h25.72A3.4,3.4,0,0,1,1302,147Z"/><line class="cls-2" x1="64.67" y1="393.47" x2="113.91" y2="0.12"/><line class="cls-2" x1="115.15" y1="393.47" x2="164.39" y2="0.12"/><line class="cls-2" x1="146.43" y1="393.47" x2="195.67" y2="0.12"/><line class="cls-2" x1="182.13" y1="393.47" x2="231.37" y2="0.12"/><line class="cls-2" x1="231.76" y1="393.47" x2="281.01" y2="0.12"/><line class="cls-2" x1="270.01" y1="393.47" x2="319.25" y2="0.12"/><line class="cls-2" x1="316.04" y1="393.47" x2="365.28" y2="0.12"/><line class="cls-2" x1="357.35" y1="393.47" x2="406.59" y2="0.12"/><line class="cls-2" x1="408.54" y1="393.47" x2="457.78" y2="0.12"/><line class="cls-2" x1="434.96" y1="393.47" x2="484.2" y2="0.12"/><line class="cls-2" x1="9.68" y1="129.93" x2="1603.57" y2="129.93"/><line class="cls-2" x1="4.7" y1="197.05" x2="1602.37" y2="197.05"/><line class="cls-2" y1="38.12" x2="1611.23" y2="38.12"/><line class="cls-2" y1="57.37" x2="1611.23" y2="57.37"/><line class="cls-2" y1="129.93" x2="1611.23" y2="129.93"/><line class="cls-2" y1="170.83" x2="1611.23" y2="170.83"/><line class="cls-2" y1="197.05" x2="1611.23" y2="197.05"/><line class="cls-2" y1="360.39" x2="1611.23" y2="360.39"/><line class="cls-2" y1="369.49" x2="1611.23" y2="369.49"/><line class="cls-2" x1="77.7" y1="0.12" x2="77.7" y2="391.22"/><line class="cls-2" x1="20.86" y1="0.12" x2="20.86" y2="391.22"/><line class="cls-2" x1="1585.94" y1="0.12" x2="1585.94" y2="391.22"/><line class="cls-2" x1="1529.1" y1="0.12" x2="1529.1" y2="391.22"/></g></g></svg>