<svg xmlns="http://www.w3.org/2000/svg" viewBox="0 0 1911.01 605.7"><defs><style>.cls-1{fill:#fff;}.cls-2{fill:#780499;}</style></defs><title>logo-dark</title><g id="Layer_2" data-name="Layer 2"><g id="Layer_1-2" data-name="Layer 1"><path class="cls-1" d="M1622.93,307.64h129.59c-.13,4.55-1.79,7.56-3.32,10.53a83.83,83.83,0,0,1-6.15,10.38c-9.27,13-21.86,21.86-36.16,28.5-16.48,7.65-33.91,11.84-51.93,13.72-29.55,3.07-59,3.32-87.91-4.66-44.07-12.18-74-39.29-86.07-84.11-6.06-22.5-6.13-45.51-2.35-68.34,5.89-35.55,24.31-62.49,57-79a144.93,144.93,0,0,1,47-14.1,308.45,308.45,0,0,1,91.95,1.7c19.1,3.29,37.39,9,53.53,20.19,11.76,8.17,20.73,18.54,25.56,32.28,1.22,3.47.46,7.48,3,10.53h153.14c1.5-1.53,1.12-2.83,1.06-4-1.73-30.75-11.18-58.84-29-84.08-21.35-30.3-50.15-51.24-83.6-66.32-40.74-18.36-83.94-26.74-128.16-29.17-43.14-2.38-86.38-3-129.43,2.91-31.22,4.27-61.54,11.78-90.25,24.85-59.81,27.23-100.84,71.59-119.26,134.94-14.31,49.2-14,99.24-2.74,149.07,9.29,41.16,28.78,77,59.08,106.71C1419,451,1457.2,469.4,1499.5,479.94c38.3,9.55,77.33,11.86,116.58,10.61,28-.9,55.6-5.17,82.27-14.3,39.62-13.57,73.88-35,100.47-67.83,1.2-1.48,1.62-4,5.2-3.93v78.75h106.5V221.13H1622.93Zm-462.55,19.05c2.55-1.13,5.14-2.16,7.7-3.25,43.33-18.32,71.21-49.68,81-96.12a241.71,241.71,0,0,0-.63-103.41c-6-26.74-19.15-49.61-40.43-67.4-15.21-12.71-32.61-21.36-51.36-27.52-33.13-10.88-67.37-14.48-102-14.57-109.49-.29-219-.13-328.49-.09-2.35,0-5-.95-6.82,1V490.34H868.85V343.9H992.34l86.51,146.55h174.9l-95.45-162A13.07,13.07,0,0,1,1160.38,326.69Zm-63.46-133c-3.54,15.51-13.25,25.51-28.06,30.86-10.06,3.63-20.59,4.82-31.12,4.86-55,.2-110,.12-165,.11a24.93,24.93,0,0,1-3.59-.66v-98.7c3.33-1.76,6.49-1,9.52-1q76.91-.09,153.82,0c9.63,0,19.23.18,28.69,2.45,22.09,5.31,37.2,19.17,36.93,45.43C1098.05,182.62,1098.18,188.23,1096.92,193.7ZM393.53,529.13l-23.18,47c-8-16.56-15.29-31.83-22.55-47H314.52v75.66h23.16v-45.5l1.27-.31L361,605.21c6.51-.29,12.09.75,17.48-.7l21.57-45.32c1.17,7.88,1.13,15.51,1.18,23.14s-.21,15.23.16,22.46H425V529.13Zm1012.78,46.75c6.81,1,13.33-.54,19.49.92.23,2.27-1,3.34-2.12,4.33-8.23,7-26.54,7.19-35,.48-10-7.91-9.46-25.66.92-32.33,11.73-7.55,30.72-4.23,39.46,7.16,6.87,0,14,0,21.13,0a11.25,11.25,0,0,0,2.58-.66c-1.41-12.28-7.08-20.16-19.37-24.59-17.42-6.27-35.33-6.77-52.94-.89-16.57,5.53-25,18.6-24.68,36.37.35,18,9.81,31.73,26.59,36.07,17.93,4.64,35.72,5,50.88-8.5.39-.35,1.15-.29,1.73-.42,1.36,3.17-.43,6.77,1.45,10.2h16.31V562.6h-47.07C1405.88,567.38,1405,571.62,1406.31,575.88Zm-780.53,1.81c.78-.49,1.66-.85,2.42-1.38,9.83-6.8,11-16.76,9.49-27.36-1.44-10.06-8-15.87-17.56-18.24a66,66,0,0,0-16.62-2c-13.06.14-26.13,0-39.19.08-4.57,0-9.2-.59-14.05.54v75.52h24.41V582.33H595.1c4.69,7.61,9.37,15.2,13.86,22.46h28.5c-5.18-8.83-9.92-16.94-14.67-25C624.25,578.73,625,578.18,625.78,577.69Zm-21.73-14.33c-9.52.44-19.08.12-29,.12V547.72c9.63-1,19.19-.63,28.7-.29,5.85.21,8.45,3.15,8.5,7.83S609.81,563.1,604.05,563.36ZM183.35,550c-1.12-9.39-6-15.3-14.8-18.33a55.2,55.2,0,0,0-18.3-2.9c-16.16,0-32.33,0-48.5,0-2.07,0-4.41-.76-5.92,1.2v74.93c8.27.28,16.13.83,24.63-.43V582.62a73.8,73.8,0,0,1,20.51-.06l13.93,22.65c9.34-.26,18.46.59,28.31-.6l-15-25.14C181.66,573.93,184.94,563.3,183.35,550Zm-34.46,13.48c-9.23.33-18.47.09-28,.09-1.33-5.24-.63-10.09-.68-16.3,10,0,19.27-.22,28.47.08,6.23.2,9.5,3.29,9.56,7.95S155,563.26,148.89,563.47Zm639-12.68c-.85-9.28-5.36-15.62-14.15-18.85a55.19,55.19,0,0,0-19.18-3.16c-15.23,0-30.46,0-45.69,0-2.71,0-5.55-.68-8.48.88v75.18h24.14v-22.5c7.58-.48,14.27-.86,20.86.17,4.71,7.72,9.21,15.08,13.53,22.17h27.88c-3.57-9.39-9.85-16.47-14-25.3C785.78,574.15,789.05,563.67,787.87,550.79Zm-34.61,12.69c-9.19.32-18.41.08-28,.08-1.62-5.19-.27-10.09-1.15-16.25,10.67,0,20.16-.27,29.63.1,5.75.22,8.35,3.11,8.42,7.8C762.29,560.28,759.5,563.25,753.26,563.48Zm803.61,12.4c9.71-7.06,10.26-17.25,8.71-27.68-1.44-9.65-8-15.18-17.19-17.44a66.41,66.41,0,0,0-16.61-2c-12.74.14-25.49,0-38.24,0h-15v76.08h23.64c1.47-7.66-.86-15.45,1.37-22.62h19.6L1537,604.82h28.51l-14.73-25.27C1553.18,578.1,1555.14,577.14,1556.87,575.88Zm-16.66-20.13c-.15,4.71-2.64,7.43-8.55,7.67-9.21.39-18.45.11-28.7.11V547.7a201.76,201.76,0,0,1,29.39-.22C1538.07,547.76,1540.38,550.81,1540.21,555.75Zm145.63,7.36c-.8-15.56-7.84-26.93-22.29-32.22a79.66,79.66,0,0,0-55.55-.06c-15,5.43-22.68,18.17-22.66,34.93,0,17,8.3,29.49,23.38,35.54,8.54,3.42,17.43,4,26.46,3.52,4.34,0,8.72.37,13-.06C1668.61,602.7,1687.26,590.83,1685.84,563.11Zm-36.7,20.61a28.46,28.46,0,0,1-13.07,2.37,34.6,34.6,0,0,1-9.72-1.17c-10.22-2.95-15.24-9.22-15.21-19.39s5.09-16.15,15.58-19a37.28,37.28,0,0,1,21.07.77c7.8,2.39,11.72,8.13,12.11,16.77C1660.36,574.14,1657,580.55,1649.14,583.72Zm-811.81-8.07h47.84c-1-6.31,1-12.13-1.51-18.3H836.11c-.45-3.85-1.14-7.11.65-10.91h47.46V529.19h-73v76H884.7V587.65H836.08C835.72,583.22,834.67,579.61,837.33,575.65ZM525.07,587.76H476.25c-.51-4.24-.94-7.76.51-11.84,8.08,0,16.12.16,24.14,0s15.9,1,24.14-.86c-.21-5.92.6-11.37-.67-17.34H476.43a27.89,27.89,0,0,1-.22-11c8.46,0,16.47,0,24.47,0s15.88.15,23.78-.14V529.2H451.81v75.26c14.15,1.52,66.61,1.08,74-.71C525.32,598.75,526.4,593.58,525.07,587.76Zm1385.52-38.25c-1.2-9.12-6.46-15.19-15.36-18a60,60,0,0,0-18.34-2.73c-15.55,0-31.11,0-46.66,0-2.37,0-5-.83-7.17.94v75.08h24.55V582h21.2a126.3,126.3,0,0,0,19.51-1.13C1907.31,577.93,1912.64,565.14,1910.59,549.51Zm-25.4,6.23c-.16,4.25-2.66,7.33-7.82,7.57-9.53.44-19.1.13-29.58.13V548.6c4.34-1.18,26.5-2,30.25-1.12C1883,548.61,1885.36,551.39,1885.19,555.74Zm-86.34-27.61a141,141,0,0,0-25.11.08c0,5.81,0,10.75,0,15.7-.07,8.69.26,17.41-.4,26.05-.68,9-6.42,13.79-16.22,14.75-13,1.28-21.48-2.38-24.33-10.7a23.75,23.75,0,0,1-1.06-6.4c-.2-3.4-.15-6.82-.15-10.23,0-9.56,0-19.11,0-29.21h-25.17c.8,16.38-1.05,32.17,1.3,47.91,2,13.7,10,22.67,23,26.48a77.45,77.45,0,0,0,43.24.13c12.69-3.57,20.93-12.29,23.36-25.26C1800.33,561.24,1798.17,544.85,1798.85,528.13Zm-828.25,1H937.83l-34.74,76.09c8.92-.27,16.84.64,24.55-.56,3-4.08,3.44-9,6.75-12.41h39.16c3.37,3.85,3.81,9.25,7.36,13,8.38-.38,16.61.75,25.28-.75C994.16,579,982.42,554.14,970.6,529.12Zm-28.86,45.81a256.16,256.16,0,0,1,12-27.32,253,253,0,0,1,12.11,26.77C957.88,575.86,950.37,575,941.74,574.93Zm155.69-45.82c-1,6.43-1.57,12.7.47,19.62h32.37v56.11h24.87V586.17c0-6.5-.18-13,.06-19.51.21-6-1.07-12.19,1.14-18.59h31.91v-19Zm177.85,0-22.17,28.32L1231,529h-28.48c-.53,2.49,1.17,3.67,2.29,5.06,9.88,12.37,19.68,24.8,29.76,37,3.51,4.26,5.7,8.46,5.21,14.24-.54,6.39-.13,12.86-.13,19.59,8.85.14,16.72,1,24.93-.48,0-7.13.22-13.63-.07-20.1a16.7,16.7,0,0,1,4.11-11.87C1278,560.86,1287,549,1296,537.16c1.8-2.37,4.55-4.28,4.78-8ZM269.11,529,247,557.3l-22.53-28.5c-9.21,0-17.91,0-26.6,0-.51,0-1,.43-1.92.84,1.06,3.31,3.65,5.63,5.7,8.22,8.86,11.18,17.74,22.35,26.85,33.33,3.52,4.24,5.66,8.48,5.16,14.25-.55,6.37-.13,12.82-.13,19.27h24.57c0-6.59.24-12.73-.07-18.84a18.73,18.73,0,0,1,4.51-13.6c9.38-11.56,18.39-23.42,27.39-35.27,1.8-2.37,4.63-4.25,4.67-8Zm826.62,56h-45.25c-.4-19.19.11-37.62-.3-55.84h-24.57v75.22c13.09,1.55,64.24,1.06,71.27-.74C1096.41,597.84,1097.73,591.77,1095.73,585.07Z"/><path class="cls-2" d="M95.24,282.37c-11.26,1.64-21.77,6-32.61,9.09C44.14,296.8,25.7,302.35,7.27,307.89a15.81,15.81,0,0,1-7.27.68V51.44c8.81-.24,16.66,3.73,24.82,6,21.45,6.07,42.67,13,64,19.44,2,.61,4.26.52,6.4.76,2.33,2.32,5.56,2.57,8.45,3.44q71.1,21.33,142.24,42.51c13.28,4,26.61,7.72,39.9,11.56,1.2-1.62,2.13-2.84,3-4.09C317.64,91,375,83.34,413.43,113.51c26.65,20.91,37.08,48.75,31.51,82.33-6.64,39.95-47.63,74.81-96.24,68.34-24-3.19-43.3-14.12-58.22-33-1.51-1.91-2.65-4.23-5.55-5.4-9.21,1.16-18.13,4.86-27.3,7.54C216.37,245.39,175.11,257.49,134,270,121,273.94,107.7,276.82,95.24,282.37Z"/><path class="cls-1" d="M1909.87,185.28H1756.73c-2.56-3-1.8-7.06-3-10.53-4.83-13.74-13.8-24.1-25.57-32.27-16.13-11.22-34.42-16.91-53.53-20.2a308.06,308.06,0,0,0-91.94-1.69,144.54,144.54,0,0,0-47,14.1c-32.72,16.48-51.14,43.42-57,79-3.79,22.82-3.71,45.83,2.35,68.34,12.08,44.81,42,71.93,86.07,84.1,28.88,8,58.36,7.74,87.91,4.66,18-1.88,35.45-6.06,51.93-13.72,14.3-6.64,26.89-15.52,36.16-28.49a84.5,84.5,0,0,0,6.14-10.38c1.53-3,3.19-6,3.33-10.53h-129.6V221.12h287.59V483.24H1804V404.48c-3.58,0-4,2.46-5.2,3.94-26.59,32.81-60.86,54.26-100.48,67.82-26.66,9.14-54.23,13.41-82.26,14.3-39.26,1.25-78.28-1.06-116.58-10.6-42.31-10.55-80.48-28.95-111.92-59.76-30.29-29.69-49.78-65.54-59.08-106.7-11.25-49.83-11.56-99.87,2.74-149.07,18.43-63.35,59.46-107.71,119.27-134.94,28.71-13.07,59-20.59,90.25-24.85,43-5.88,86.29-5.29,129.43-2.92,44.21,2.43,87.42,10.82,128.16,29.18,33.45,15.08,62.24,36,83.6,66.31,17.79,25.24,27.25,53.34,29,84.09C1911,182.45,1911.36,183.76,1909.87,185.28Z"/><path class="cls-1" d="M1160.38,326.69c2.55-1.13,5.14-2.16,7.7-3.25,43.33-18.32,71.21-49.68,81-96.12a241.71,241.71,0,0,0-.63-103.41c-6-26.74-19.15-49.61-40.43-67.4-15.21-12.71-32.61-21.36-51.36-27.52-33.13-10.88-67.37-14.48-102-14.57-109.49-.29-219-.13-328.49-.09-2.35,0-5-.95-6.82,1V490.34H868.85V343.9H992.34l86.51,146.55h174.9l-95.45-162A13.07,13.07,0,0,1,1160.38,326.69Zm-63.46-133c-3.54,15.51-13.25,25.51-28.06,30.86-10.06,3.63-20.59,4.82-31.12,4.86-55,.2-110,.12-165,.11a24.93,24.93,0,0,1-3.59-.66v-98.7c3.33-1.76,6.49-1,9.52-1q76.91-.09,153.82,0c9.63,0,19.23.18,28.69,2.45,22.09,5.31,37.2,19.17,36.93,45.43C1098.05,182.62,1098.18,188.23,1096.92,193.7Z"/><path class="cls-1" d="M95.24,282.37C107.7,276.82,121,273.94,134,270c41.13-12.51,82.39-24.61,123.65-36.7,9.17-2.68,18.09-6.38,27.3-7.54,2.9,1.17,4,3.49,5.55,5.4,14.92,18.9,34.21,29.83,58.22,33,48.61,6.47,89.6-28.39,96.24-68.34,5.57-33.58-4.86-61.42-31.51-82.33C375,83.34,317.64,91,288.84,131.1c-.89,1.25-1.82,2.47-3,4.09-13.29-3.84-26.62-7.61-39.9-11.56q-71.13-21.18-142.24-42.51c-2.89-.87-6.12-1.12-8.45-3.44V16c2.77-2.56,5.38-1.66,7.74-1.66q163.74-.08,327.48.06C465.34,14.48,499.88,18,533.3,29c18.14,6,35,14.25,49.92,26.32,21.54,17.46,35.16,40.12,41.43,66.77a240.55,240.55,0,0,1,1.26,104.28c-9.58,46.85-37.49,78.5-81.1,97.09-3.1,1.32-6.59,1.88-10,4.9,31.61,53.61,63.28,107.33,95.51,162H455.43Q412.35,417.4,369,344H245.8v146.3H96.45c-2.13-2.74-1-6.28-1-9.53q-.12-94.07-.07-188.12C95.41,289.2,95.3,285.79,95.24,282.37Z"/><path class="cls-1" d="M314.52,529.2h33.27c7.27,15.12,14.6,30.39,22.56,47l23.18-47H425v75.65H401.4c-.36-7.22-.1-14.85-.15-22.46s0-15.25-1.18-23.14L378.5,604.5c-5.39,1.45-11,.41-17.49.71L339,559.05l-1.28.3v45.5H314.52Z"/><path class="cls-1" d="M1425.8,576.79c-6.17-1.45-12.68.06-19.49-.92-1.34-4.25-.44-8.49-.64-13.28h47.07V604h-16.31c-1.88-3.43-.09-7-1.45-10.2-.58.13-1.34.08-1.73.42-15.16,13.56-33,13.15-50.89,8.51-16.77-4.35-26.23-18.13-26.58-36.08-.34-17.76,8.11-30.84,24.67-36.37a79.12,79.12,0,0,1,52.94.9c12.3,4.43,18,12.31,19.37,24.58a10.71,10.71,0,0,1-2.57.67c-7.13.05-14.26,0-21.13,0-8.74-11.4-27.74-14.71-39.46-7.17-10.39,6.68-10.89,24.43-.92,32.34,8.45,6.71,26.77,6.47,35-.49C1424.84,580.14,1426,579.06,1425.8,576.79Z"/><path class="cls-1" d="M625.78,577.69c.78-.49,1.66-.85,2.42-1.38,9.83-6.8,11-16.76,9.49-27.36-1.44-10.06-8-15.87-17.56-18.24a66,66,0,0,0-16.62-2c-13.06.14-26.13,0-39.19.08-4.57,0-9.2-.59-14.05.54v75.52h24.41V582.33H595.1c4.69,7.61,9.37,15.2,13.86,22.46h28.5c-5.18-8.83-9.92-16.94-14.67-25C624.25,578.73,625,578.18,625.78,577.69Zm-21.73-14.33c-9.52.44-19.08.12-29,.12V547.72c9.63-1,19.19-.63,28.7-.29,5.85.21,8.45,3.15,8.5,7.83S609.81,563.1,604.05,563.36Z"/><path class="cls-1" d="M183.35,550c-1.12-9.39-6-15.3-14.8-18.33a55.2,55.2,0,0,0-18.3-2.9c-16.16,0-32.33,0-48.5,0-2.07,0-4.41-.76-5.92,1.2v74.93c8.27.28,16.13.83,24.63-.43V582.62a73.8,73.8,0,0,1,20.51-.06l13.93,22.65c9.34-.26,18.46.59,28.31-.6l-15-25.14C181.66,573.93,184.94,563.3,183.35,550Zm-34.46,13.48c-9.23.33-18.47.09-28,.09-1.33-5.24-.63-10.09-.68-16.3,10,0,19.27-.22,28.47.08,6.23.2,9.5,3.29,9.56,7.95S155,563.26,148.89,563.47Z"/><path class="cls-1" d="M787.87,550.79c-.85-9.28-5.36-15.62-14.15-18.85a55.19,55.19,0,0,0-19.18-3.16c-15.23,0-30.46,0-45.69,0-2.71,0-5.55-.68-8.48.88v75.18h24.14v-22.5c7.58-.48,14.27-.86,20.86.17,4.71,7.72,9.21,15.08,13.53,22.17h27.88c-3.57-9.39-9.85-16.47-14-25.3C785.78,574.15,789.05,563.67,787.87,550.79Zm-34.61,12.69c-9.19.32-18.41.08-28,.08-1.62-5.19-.27-10.09-1.15-16.25,10.67,0,20.16-.27,29.63.1,5.75.22,8.35,3.11,8.42,7.8C762.29,560.28,759.5,563.25,753.26,563.48Z"/><path class="cls-1" d="M1556.87,575.88c9.71-7.06,10.26-17.25,8.71-27.68-1.44-9.65-8-15.18-17.19-17.44a66.41,66.41,0,0,0-16.61-2c-12.74.14-25.49,0-38.24,0h-15v76.08h23.64c1.47-7.66-.86-15.45,1.37-22.62h19.6L1537,604.82h28.51l-14.73-25.27C1553.18,578.1,1555.14,577.14,1556.87,575.88Zm-16.66-20.13c-.15,4.71-2.64,7.43-8.55,7.67-9.21.39-18.45.11-28.7.11V547.7a201.76,201.76,0,0,1,29.39-.22C1538.07,547.76,1540.38,550.81,1540.21,555.75Z"/><path class="cls-1" d="M1685.84,563.11c-.8-15.56-7.84-26.93-22.29-32.22a79.66,79.66,0,0,0-55.55-.06c-15,5.43-22.68,18.17-22.66,34.93,0,17,8.3,29.49,23.38,35.54,8.54,3.42,17.43,4,26.46,3.52,4.34,0,8.72.37,13-.06C1668.61,602.7,1687.26,590.83,1685.84,563.11Zm-36.7,20.61a28.46,28.46,0,0,1-13.07,2.37,34.6,34.6,0,0,1-9.72-1.17c-10.22-2.95-15.24-9.22-15.21-19.39s5.09-16.15,15.58-19a37.28,37.28,0,0,1,21.07.77c7.8,2.39,11.72,8.13,12.11,16.77C1660.36,574.14,1657,580.55,1649.14,583.72Z"/><path class="cls-1" d="M811.22,529.19h73v17.24H836.75c-1.78,3.8-1.09,7.07-.65,10.92h47.55c2.49,6.17.52,12,1.52,18.3H837.32c-2.65,4-1.6,7.56-1.24,12H884.7V605.2H811.22Z"/><path class="cls-1" d="M524.46,529.19v17.37c-7.9.3-15.85.11-23.78.14s-16,0-24.47,0a28,28,0,0,0,.21,10.95h47.95c1.27,6,.46,11.42.66,17.35-8.24,1.81-16.23.65-24.13.86s-16.06,0-24.14,0c-1.46,4.08-1,7.61-.51,11.85h48.82c1.33,5.82.25,11,.73,16-7.38,1.79-59.84,2.22-74,.7V529.19Z"/><path class="cls-1" d="M1910.59,549.51c-1.2-9.12-6.46-15.19-15.36-18a60,60,0,0,0-18.34-2.73c-15.55,0-31.11,0-46.66,0-2.37,0-5-.83-7.17.94v75.08h24.55V582h21.2a126.3,126.3,0,0,0,19.51-1.13C1907.31,577.93,1912.64,565.14,1910.59,549.51Zm-25.4,6.23c-.16,4.25-2.66,7.33-7.82,7.57-9.53.44-19.1.13-29.58.13V548.6c4.34-1.18,26.5-2,30.25-1.12C1883,548.61,1885.36,551.39,1885.19,555.74Z"/><path class="cls-1" d="M1706.39,528.16h25.17c0,10.1,0,19.66,0,29.21,0,3.41,0,6.83.16,10.24a24.06,24.06,0,0,0,1,6.39c2.86,8.33,11.32,12,24.34,10.71,9.8-1,15.53-5.72,16.22-14.75.66-8.65.33-17.37.4-26.06,0-4.94,0-9.89,0-15.7a141.06,141.06,0,0,1,25.11-.07c-.68,16.72,1.48,33.1-1.55,49.3-2.43,13-10.68,21.69-23.36,25.26a77.54,77.54,0,0,1-43.24-.14c-13-3.8-21-12.77-23-26.47C1705.34,560.34,1707.19,544.55,1706.39,528.16Z"/><path class="cls-1" d="M970.6,529.12H937.83l-34.74,76.09c8.92-.27,16.84.64,24.55-.56,3-4.08,3.44-9,6.75-12.41h39.16c3.37,3.85,3.81,9.25,7.36,13,8.38-.38,16.61.75,25.28-.75C994.16,579,982.42,554.14,970.6,529.12Zm-28.86,45.81a256.16,256.16,0,0,1,12-27.32,253,253,0,0,1,12.11,26.77C957.88,575.86,950.37,575,941.74,574.93Z"/><path class="cls-1" d="M1130.27,604.84V548.73h-32.38c-2-6.92-1.44-13.19-.46-19.63h90.82v19h-31.91c-2.22,6.4-.93,12.57-1.15,18.6-.23,6.49,0,13,0,19.5v18.68Z"/><path class="cls-1" d="M1253.11,557.42l22.17-28.32h25.52c-.23,3.78-3,5.69-4.78,8.06-9,11.85-18.06,23.69-27.38,35.31a16.75,16.75,0,0,0-4.1,11.87c.29,6.48.07,13,.07,20.11-8.21,1.48-16.08.61-24.93.48,0-6.74-.42-13.2.12-19.59.49-5.79-1.69-10-5.2-14.24-10.08-12.21-19.89-24.64-29.76-37-1.12-1.4-2.82-2.58-2.29-5.06H1231Z"/><path class="cls-1" d="M195.91,529.67c.9-.41,1.42-.85,1.93-.85,8.69,0,17.38,0,26.6,0L247,557.3,269.11,529h25.46c-.05,3.75-2.87,5.64-4.67,8-9,11.85-18,23.71-27.39,35.27a18.78,18.78,0,0,0-4.52,13.6c.31,6.12.08,12.26.08,18.84H233.5c0-6.44-.43-12.89.12-19.26.5-5.78-1.64-10-5.15-14.25-9.11-11-18-22.15-26.86-33.34C199.56,535.3,197,533,195.91,529.67Z"/><path class="cls-1" d="M1025.61,604.45V529.23h24.57c.41,18.21-.1,36.64.3,55.83h45.25c2,6.71.67,12.78,1.15,18.64C1089.84,605.5,1038.7,606,1025.61,604.45Z"/></g></g></svg>