<svg xmlns="http://www.w3.org/2000/svg" viewBox="0 0 1927.22 540.78"><defs><style>.cls-1{fill:#3cfefe;}.cls-2{fill:#3bfefe;}.cls-3{fill:#38fefe;}.cls-4{fill:#39fefe;}.cls-5{fill:#51e20c;}.cls-6{fill:#4ee60d;}.cls-7{fill:#36fefe;}.cls-8{fill:#4ce30d;}.cls-9{fill:#3dfcfe;}.cls-10{fill:#35fefe;}.cls-11{fill:#31fefe;}.cls-12{fill:#31c1f4;}.cls-13{fill:#33fefe;}.cls-14{fill:#48a812;}.cls-15{fill:#45af27;}.cls-16{fill:#30baf2;}.cls-17{fill:#2daff3;}.cls-18{fill:#3efefe;}.cls-19{fill:#4ba507;}.cls-20{fill:#40f7fd;}.cls-21{fill:#44c432;}.cls-22{fill:#40d0a5;}.cls-23{fill:#4cab08;}.cls-24{fill:#4bd10b;}.cls-25{fill:#3afefe;}.cls-26{fill:#4ddc0d;}.cls-27{fill:#33dbfe;}.cls-28{fill:#40d9bb;}.cls-29{fill:#3ee5dc;}.cls-30{fill:#3dfcfd;}.cls-31{fill:#32d3fe;}.cls-32{fill:#2aa2ee;}.cls-33{fill:#47ca1a;}.cls-34{fill:#34cffa;}.cls-35{fill:#42d487;}.cls-36{fill:#37ebfe;}.cls-37{fill:#39f1fe;}.cls-38{fill:#47ad1b;}.cls-39{fill:#40dfca;}.cls-40{fill:#42efe7;}.cls-41{fill:#42f5f4;}.cls-42{fill:#36ecfe;}.cls-43{fill:#43e278;}.cls-44{fill:#3bf3f9;}.cls-45{fill:#48b924;}.cls-46{fill:#30c9fe;}.cls-47{fill:#44c730;}.cls-48{fill:#3ff7fd;}.cls-49{fill:#3ff4fc;}.cls-50{fill:#42e4c2;}.cls-51{fill:#3efbf9;}.cls-52{fill:#3df6f8;}.cls-53{fill:#38eff9;}.cls-54{fill:#48b526;}.cls-55{fill:#3de5e0;}.cls-56{fill:#3ff8fe;}.cls-57{fill:#46dc2c;}.cls-58{fill:#37f7fe;}.cls-59{fill:#35c9f5;}.cls-60{fill:#32dffe;}.cls-61{fill:#47d218;}.cls-62{fill:#4ddf0e;}.cls-63{fill:#28aafe;}.cls-64{fill:#43c973;}.cls-65{fill:#37d9fd;}.cls-66{fill:#44e391;}.cls-67{fill:#41f7fe;}.cls-68{fill:#4be41f;}.cls-69{fill:#40cd8f;}.cls-70{fill:#3cebee;}.cls-71{fill:#49b109;}.cls-72{fill:#33d3f5;}.cls-73{fill:#4fd00b;}.cls-74{fill:#40f9fe;}.cls-75{fill:#4bb308;}.cls-76{fill:#44b434;}.cls-77{fill:#42ebd8;}.cls-78{fill:#43bf4a;}.cls-79{fill:#3fe4d4;}.cls-80{fill:#27a6fe;}.cls-81{fill:#37dbfe;}.cls-82{fill:#36d5f7;}.cls-83{fill:#29b1fe;}.cls-84{fill:#4fe612;}.cls-85{fill:#3bf7f2;}.cls-86{fill:#3cf7fe;}.cls-87{fill:#35d4fe;}.cls-88{fill:#4dc80a;}.cls-89{fill:#2ebef6;}.cls-90{fill:#39e2fb;}.cls-91{fill:#49c713;}.cls-92{fill:#26a0fa;}.cls-93{fill:#46c12b;}.cls-94{fill:#40f7fe;}.cls-95{fill:#3aecfe;}.cls-96{fill:#3cecce;}.cls-97{fill:#3de8df;}.cls-98{fill:#48df18;}.cls-99{fill:#44c147;}.cls-100{fill:#2cc1fe;}.cls-101{fill:#3ffafb;}.cls-102{fill:#47bf31;}.cls-103{fill:#46d83c;}.cls-104{fill:#2cb9fe;}.cls-105{fill:#36defd;}.cls-106{fill:#44efbe;}.cls-107{fill:#46e97e;}.cls-108{fill:#42cf6c;}.cls-109{fill:#57e511;}.cls-110{fill:#3efcfe;}.cls-111{fill:#2ec2fa;}.cls-112{fill:#4bb913;}.cls-113{fill:#45e577;}.cls-114{fill:#45eda6;}.cls-115{fill:#40f4fe;}.cls-116{fill:#4ab317;}.cls-117{fill:#269ff2;}.cls-118{fill:#36f3fb;}.cls-119{fill:#3be8fa;}.cls-120{fill:#3cf5f3;}.cls-121{fill:#52e60f;}.cls-122{fill:#3ce9e8;}.cls-123{fill:#32cbfc;}.cls-124{fill:#37cff4;}.cls-125{fill:#40f4fd;}.cls-126{fill:#47d81e;}.cls-127{fill:#33d2fe;}.cls-128{fill:#32cafe;}.cls-129{fill:#3df8f9;}.cls-130{fill:#3ff9f5;}.cls-131{fill:#40eee7;}.cls-132{fill:#45cf61;}.cls-133{fill:#2ab4fd;}.cls-134{fill:#47cb3e;}.cls-135{fill:#3cf9f6;}.cls-136{fill:#45d598;}.cls-137{fill:#35ddfe;}.cls-138{fill:#2ebdfd;}.cls-139{fill:#34e5f9;}.cls-140{fill:#44d476;}.cls-141{fill:#4be51d;}.cls-142{fill:#4be438;}.cls-143{fill:#46c242;}.cls-144{fill:#4be63b;}.cls-145{fill:#3eefed;}.cls-146{fill:#35d8fe;}.cls-147{fill:#2ba5fe;}.cls-148{fill:#30c4fe;}.cls-149{fill:#44bf4c;}.cls-150{fill:#4bab0e;}.cls-151{fill:#49ca0f;}.cls-152{fill:#43e0c2;}.cls-153{fill:#3ff0fa;}.cls-154{fill:#2cb5f6;}.cls-155{fill:#2bb8fe;}.cls-156{fill:#2aadfe;}.cls-157{fill:#47cd1f;}.cls-158{fill:#42ebd5;}.cls-159{fill:#4ae535;}.cls-160{fill:#2fb2f2;}.cls-161{fill:#4ade13;}.cls-162{fill:#42e285;}.cls-163{fill:#4cd50d;}.cls-164{fill:#3cf6fc;}.cls-165{fill:#54cf0d;}.cls-166{fill:#41ba45;}.cls-167{fill:#42c051;}.cls-168{fill:#4cfdfc;}.cls-169{fill:#45eb94;}.cls-170{fill:#44e7a2;}.cls-171{fill:#3fe8c5;}.cls-172{fill:#3fc05d;}.cls-173{fill:#4ac821;}.cls-174{fill:#41d6a0;}.cls-175{fill:#41efc0;}.cls-176{fill:#30defe;}.cls-177{fill:#48e64a;}.cls-178{fill:#29a8f4;}.cls-179{fill:#49d223;}.cls-180{fill:#3ae8f6;}.cls-181{fill:#28abfa;}.cls-182{fill:#34c5f3;}.cls-183{fill:#34caf9;}.cls-184{fill:#30c9f4;}.cls-185{fill:#45d433;}.cls-186{fill:#2ab5fa;}.cls-187{fill:#47ba36;}.cls-188{fill:#38effc;}.cls-189{fill:#39fbfe;}.cls-190{fill:#48a916;}.cls-191{fill:#36e8fa;}.cls-192{fill:#2fbbf3;}.cls-193{fill:#3ddfca;}.cls-194{fill:#48d331;}.cls-195{fill:#30c4f4;}.cls-196{fill:#29b8fe;}.cls-197{fill:#43df8c;}.cls-198{fill:#2cbbf8;}.cls-199{fill:#41eee7;}.cls-200{fill:#42dab9;}.cls-201{fill:#48d819;}.cls-202{fill:#40f8f6;}.cls-203{fill:#48e22f;}.cls-204{fill:#46ca61;}.cls-205{fill:#3ae7fe;}.cls-206{fill:#47c240;}.cls-207{fill:#4ae223;}.cls-208{fill:#43efcb;}.cls-209{fill:#43d24a;}.cls-210{fill:#4ee510;}.cls-211{fill:#44dc78;}.cls-212{fill:#2fbdfe;}.cls-213{fill:#35edfa;}.cls-214{fill:#4bac0d;}.cls-215{fill:#30cefe;}.cls-216{fill:#38f1fb;}.cls-217{fill:#2cb0fe;}.cls-218{fill:#51c70a;}.cls-219{fill:#4fc10a;}.cls-220{fill:#3af8fe;}.cls-221{fill:#30eefe;}.cls-222{fill:#3feadb;}.cls-223{fill:#4dda0d;}.cls-224{fill:#46ba40;}.cls-225{fill:#48e866;}.cls-226{fill:#48e427;}.cls-227{fill:#3ef1da;}.cls-228{fill:#34cffd;}.cls-229{fill:#36c7f5;}.cls-230{fill:#43e259;}.cls-231{fill:#2aa8fe;}.cls-232{fill:#46af20;}.cls-233{fill:#41ce8c;}.cls-234{fill:#3ce8d9;}.cls-235{fill:#42f2ec;}.cls-236{fill:#48de5b;}.cls-237{fill:#44e791;}.cls-238{fill:#43e199;}.cls-239{fill:#31ebfe;}.cls-240{fill:#2ef3fe;}.cls-241{fill:#4be343;}.cls-242{fill:#4dcb0a;}.cls-243{fill:#34c7f8;}.cls-244{fill:#3df3e9;}.cls-245{fill:#2ba4ef;}.cls-246{fill:#4ec010;}.cls-247{fill:#49e75a;}.cls-248{fill:#41f6f3;}.cls-249{fill:#41ebbe;}.cls-250{fill:#50c40a;}.cls-251{fill:#41f2e9;}.cls-252{fill:#43e672;}.cls-253{fill:#42f4fa;}.cls-254{fill:#45e049;}.cls-255{fill:#39dcf9;}.cls-256{fill:#3bf3fc;}.cls-257{fill:#3ec570;}.cls-258{fill:#45bb38;}.cls-259{fill:#2be9fe;}.cls-260{fill:#29abf6;}.cls-261{fill:#3bebe0;}.cls-262{fill:#48c518;}.cls-263{fill:#46f3e2;}.cls-264{fill:#42f3f1;}.cls-265{fill:#46da67;}.cls-266{fill:#46ba3e;}.cls-267{fill:#3fe1ce;}.cls-268{fill:#3dfefe;}.cls-269{fill:#2ebffe;}.cls-270{fill:#2ddffe;}.cls-271{fill:#49e052;}.cls-272{fill:#4be040;}.cls-273{fill:#44e667;}.cls-274{fill:#3cf0e6;}.cls-275{fill:#32e0f9;}.cls-276{fill:#45eba9;}.cls-277{fill:#3deee2;}.cls-278{fill:#49c349;}.cls-279{fill:#48e684;}.cls-280{fill:#41f4ed;}.cls-281{fill:#49e748;}.cls-282{fill:#42e0c4;}.cls-283{fill:#43d146;}.cls-284{fill:#3fe7bb;}.cls-285{fill:#31d7f7;}.cls-286{fill:#43e777;}.cls-287{fill:#42f8f3;}.cls-288{fill:#2ab2f9;}.cls-289{fill:#2dd3fe;}.cls-290{fill:#45ecbd;}.cls-291{fill:#44e458;}.cls-292{fill:#41e9e3;}.cls-293{fill:#3ae1fe;}.cls-294{fill:#28ccfe;}.cls-295{fill:#40f2f2;}.cls-296{fill:#2fc5fe;}.cls-297{fill:#47d75a;}.cls-298{fill:#48e33d;}.cls-299{fill:#41d4b4;}.cls-300{fill:#33c1f3;}.cls-301{fill:#42e3a3;}.cls-302{fill:#44e85d;}.cls-303{fill:#40e4d7;}.cls-304{fill:#43e4cc;}.cls-305{fill:#4aea7e;}.cls-306{fill:#42e9a0;}.cls-307{fill:#55dc10;}.cls-308{fill:#43e8d6;}.cls-309{fill:#3efbfc;}.cls-310{fill:#42e5d8;}.cls-311{fill:#4be521;}.cls-312{fill:#40efc9;}.cls-313{fill:#3fedcc;}.cls-314{fill:#2ebcfe;}.cls-315{fill:#3ef0ed;}.cls-316{fill:#42e3d3;}.cls-317{fill:#32d0f5;}.cls-318{fill:#44b841;}.cls-319{fill:#4be85d;}.cls-320{fill:#4ae96b;}.cls-321{fill:#38e3fe;}.cls-322{fill:#43f0dd;}.cls-323{fill:#46eabb;}.cls-324{fill:#41f5f9;}.cls-325{fill:#40e8df;}.cls-326{fill:#30d8f7;}.cls-327{fill:#30cdf5;}.cls-328{fill:#2adbfe;}.cls-329{fill:#37cbf4;}.cls-330{fill:#4ab815;}.cls-331{fill:#4bede7;}.cls-332{fill:#4dd17a;}.cls-333{fill:#27a8f8;}.cls-334{fill:#43efdf;}.cls-335{fill:#41f2eb;}.cls-336{fill:#48d963;}.cls-337{fill:#30c6fe;}.cls-338{fill:#2ee0fe;}.cls-339{fill:#2af5fe;}.cls-340{fill:#2cbefe;}.cls-341{fill:#46e34c;}.cls-342{fill:#4de33b;}.cls-343{fill:#47ea74;}.cls-344{fill:#48af20;}.cls-345{fill:#3fd297;}.cls-346{fill:#26a4f6;}.cls-347{fill:#49be54;}.cls-348{fill:#49d97a;}.cls-349{fill:#41e7b8;}.cls-350{fill:#49eb94;}.cls-351{fill:#4fba0c;}.cls-352{fill:#30d9fe;}.cls-353{fill:#45c144;}.cls-354{fill:#2acffe;}.cls-355{fill:#4be853;}.cls-356{fill:#51dcf7;}.cls-357{fill:#2de4fe;}.cls-358{fill:#33bdf2;}.cls-359{fill:#46ebb0;}.cls-360{fill:#41ede7;}.cls-361{fill:#3ae6fe;}.cls-362{fill:#48b734;}.cls-363{fill:#34d9fe;}.cls-364{fill:#31e7fe;}.cls-365{fill:#52b20c;}.cls-366{fill:#39daf8;}.cls-367{fill:#41dec8;}.cls-368{fill:#48b226;}.cls-369{fill:#44d7ba;}.cls-370{fill:#31c1fe;}.cls-371{fill:#44efe2;}.cls-372{fill:#3de4f9;}.cls-373{fill:#46be35;}.cls-374{fill:#42f0ec;}.cls-375{fill:#54b90c;}.cls-376{fill:#46bd4e;}.cls-377{fill:#42e2cd;}.cls-378{fill:#30fbfe;}.cls-379{fill:#3ae8fe;}.cls-380{fill:#46b937;}.cls-381{fill:#46bc3e;}.cls-382{fill:#4be743;}.cls-383{fill:#4de84e;}.cls-384{fill:#3df8fe;}.cls-385{fill:#33cdfe;}.cls-386{fill:#30d0f6;}.cls-387{fill:#3aedfe;}.cls-388{fill:#2fe7fe;}.cls-389{fill:#49e987;}.cls-390{fill:#48ac1d;}.cls-391{fill:#48cb36;}.cls-392{fill:#29aef7;}.cls-393{fill:#2dc8fe;}.cls-394{fill:#40f1f8;}.cls-395{fill:#47c043;}.cls-396{fill:#44e9df;}.cls-397{fill:#43e5b0;}.cls-398{fill:#45edbe;}.cls-399{fill:#40ebc5;}.cls-400{fill:#2dd6fe;}.cls-401{fill:#48dc94;}.cls-402{fill:#46e347;}.cls-403{fill:#47d96d;}.cls-404{fill:#32d4f6;}.cls-405{fill:#41e6a7;}.cls-406{fill:#40edcd;}.cls-407{fill:#4ef7f4;}.cls-408{fill:#4ae76e;}.cls-409{fill:#2eb7fe;}.cls-410{fill:#2db5fe;}.cls-411{fill:#43cb96;}.cls-412{fill:#47efbb;}.cls-413{fill:#48ebaa;}.cls-414{fill:#3bf5fe;}.cls-415{fill:#41bd4c;}.cls-416{fill:#4be666;}.cls-417{fill:#46c057;}.cls-418{fill:#47e8ae;}.cls-419{fill:#37d2fa;}.cls-420{fill:#46e428;}.cls-421{fill:#49d654;}.cls-422{fill:#4ee51e;}.cls-423{fill:#46e256;}.cls-424{fill:#41e5a2;}.cls-425{fill:#31eafe;}.cls-426{fill:#3eedf2;}.cls-427{fill:#49db6d;}.cls-428{fill:#47b12d;}.cls-429{fill:#45de9d;}.cls-430{fill:#45e1a6;}.cls-431{fill:#44e4ac;}.cls-432{fill:#41eae3;}.cls-433{fill:#45db7f;}.cls-434{fill:#37e3f9;}.cls-435{fill:#35d7fe;}.cls-436{fill:#44eed5;}.cls-437{fill:#31b6f2;}.cls-438{fill:#45ebdb;}.cls-439{fill:#32c5fe;}.cls-440{fill:#3eeff4;}.cls-441{fill:#3df2f7;}.cls-442{fill:#44f5fd;}.cls-443{fill:#41e3d2;}.cls-444{fill:#4aecb7;}.cls-445{fill:#49e881;}.cls-446{fill:#35bbfb;}.cls-447{fill:#40edfa;}.cls-448{fill:#47de87;}.cls-449{fill:#35baf3;}.cls-450{fill:#57e49a;}.cls-451{fill:#37b5f5;}.cls-452{fill:#32d4fe;}.cls-453{fill:#38c4f7;}.cls-454{fill:#42ece8;}.cls-455{fill:#2da7fc;}.cls-456{fill:#33c0f9;}.cls-457{fill:#3fe0fa;}.cls-458{fill:#31a7f5;}.cls-459{fill:#3ffefe;}.cls-460{fill:#36c1f3;}.cls-461{fill:#2eb0fb;}.cls-462{fill:#36fdfe;}.cls-463{fill:#36bbf7;}.cls-464{fill:#3cc0f5;}.cls-465{fill:#3bf9fe;}.cls-466{fill:#4bb62e;}.cls-467{fill:#40fafd;}.cls-468{fill:#3cf0fe;}.cls-469{fill:#3fe8fe;}.cls-470{fill:#52de36;}.cls-471{fill:#41e4fe;}.cls-472{fill:#48da75;}.cls-473{fill:#3be0fe;}.cls-474{fill:#3af9fe;}.cls-475{fill:#4eda48;}.cls-476{fill:#4cdb2e;}.cls-477{fill:#31a5fe;}.cls-478{fill:#49d87c;}.cls-479{fill:#3ef7fd;}.cls-480{fill:#4de122;}.cls-481{fill:#32d5f7;}.cls-482{fill:#3bddfe;}.cls-483{fill:#54db32;}.cls-484{fill:#4cc567;}.cls-485{fill:#50e417;}.cls-486{fill:#40e5dd;}.cls-487{fill:#4cdc4d;}.cls-488{fill:#51e03e;}.cls-489{fill:#4fe01d;}.cls-490{fill:#52c057;}.cls-491{fill:#44ddc0;}.cls-492{fill:#4acd1c;}.cls-493{fill:#50e30f;}.cls-494{fill:#62fefe;}.cls-495{fill:#4cd539;}.cls-496{fill:#37dafe;}.cls-497{fill:#50e631;}.cls-498{fill:#47e39f;}.cls-499{fill:#37a2ef;}.cls-500{fill:#3ff0f9;}.cls-501{fill:#3dc7f5;}.cls-502{fill:#39abf0;}.cls-503{fill:#41fefe;}.cls-504{fill:#2ca0ee;}.cls-505{fill:#3bf4fe;}.cls-506{fill:#42faf9;}.cls-507{fill:#41fcfe;}.cls-508{fill:#54e811;}.cls-509{fill:#57d294;}.cls-510{fill:#4cd232;}.cls-511{fill:#50e273;}.cls-512{fill:#33cbfe;}.cls-513{fill:#43f4fe;}.cls-514{fill:#40fefe;}.cls-515{fill:#48ce41;}.cls-516{fill:#42edf8;}.cls-517{fill:#2ea7f2;}.cls-518{fill:#46a8ef;}.cls-519{fill:#40edf8;}.cls-520{fill:#3bdff6;}.cls-521{fill:#3df2fe;}.cls-522{fill:#3ae5f5;}.cls-523{fill:#3fc97e;}.cls-524{fill:#43ba44;}.cls-525{fill:#0d1f56;}</style></defs><title>logo_1</title><g id="Layer_2" data-name="Layer 2"><g id="Layer_1-2" data-name="Layer 1"><path class="cls-1" d="M352.29,37.28c-8-3-12.85-13.21-23.46-10-3.54-6.21.78-16,7.35-16.75l1.24,1c.8,2.06,1.26,4.27,2.57,6.11,4.61,9.63,20.57,8.72,20.81,22.41a110.14,110.14,0,0,0-.17,22.16l1.8,2.7c1.34,2.22,0,4.8,1,7.07,8.32,4.14,16.25,9.63,25,12.11,13,3.67,16.92,13.26,19.86,24.35-1.08,2.88-.56,7-5.44,6.92-3.85-16.15-14.63-25.31-30.1-29.55-20.9-5.72-21.49-21.74-20-38.9C353.3,43.68,354.16,40.41,352.29,37.28Z"/><path class="cls-2" d="M306.69,123.37c8.33,3.57,15.89,8.89,26,7.43,7.79-1.12,15,2.31,19.53,8.83,9.67,13.93-1.34,21-10.37,28.42,14.57,13.19,1.23,24.66-2,36.71-1.94,2.13-2.67,5.57-6.28,5.94-2.79-1.37-3-3.91-2.67-6.48.77-5.67,1.25-11.5,4.09-16.59,2.21-3.95,2.73-7.69.66-11.72-.88-3-3.49-4.62-5.51-6.71a4.59,4.59,0,0,1-.69-1.89,49.9,49.9,0,0,1,2.55-12,4,4,0,0,1,4.36-1.91c6.58,3.85,7.06,3.74,9.83-2.22-1.17-5.61-5.24-8.47-10-10.62-4.75-1.66-9.67-.43-14.5-.88-5.69-1.32-11.42-2.55-15.49-7.3C304.55,129.28,303.68,126.19,306.69,123.37Z"/><path class="cls-2" d="M337.23,109.9c20.17-.94,50.48,29.47,43.74,47.44-4.31,11.5-15.09,20.56-11.7,34.87-2.49,2-5.72,3.38-6.06,7.34-.1,1.08-1.38,1.72-2.67.93,2.27-15.27-3.13-30.84,10.46-45.82,4.46-4.92-5.71-29.47-23.75-34.93-2.38-.72-4.63-1.88-6.94-2.83-1.75,1-3.6.54-5.44.45C332.43,113.84,335.06,112,337.23,109.9Z"/><path class="cls-2" d="M374.8,28.44l-1.37-2.2c-.27-2.43.63-3.66,3.23-3.15,10.41,3.45,6.24,12.59,5,18-3.3,14,3.32,20.92,14.86,23.42,23.41,5.06,27.84,24.28,34.06,42.53-1.94,2.68-1.21,8-6.95,6.95-3.27-26.07-19.35-40.75-43.16-48.58-2.61-1.87-3.31-5.38-6.09-7.11l-.64-4.39C375.23,45.47,373.21,36.88,374.8,28.44Z"/><path class="cls-3" d="M422.29,231c4.54-14.93,9.07-29.86,13.53-44.53L407,188.13c-2.27-5.68,3.17-7.19,5.58-10.33,1.68-1.09,4.16-1.12,4.79-3.62,1.45-3.41,5.5-5.22,5.74-9.37,0-3.1.55-6,3.55-7.7l4.24,8.22c1.63,3.48-1.46,4.84-3.12,6.77s-3.95,3.28-5.09,5.46c-1.44,2.76.26,3,2.47,2.19,6.37-1.67,13.73-6.23,19.12-2,5.56,4.39-.95,10.89-2.31,16.11-4,15.42-9.4,30.49-14.25,45.7C422,239.2,421.6,235.46,422.29,231Z"/><path class="cls-2" d="M331.53,57.79l-1.41-10.24a12.2,12.2,0,0,0-7-4.67l0,0c-2.44-3.26-3.61-6.3,1.43-8.28l2.87,2.41c1.87,2,4.75,2.48,6.71,4.36l1.63,1.43c6.37,4.8,2.86,11.26,2.91,17.13q1.39,13.71,2.8,27.44c2.21,1.82,5.07,0,7.37,1.3,12.47,6.86,27.8,8.69,37.12,21.1-2.56,1.4-2.79,5-5.74,6C367.51,103.34,351.42,98,334.37,94.64c-1.66-6.93.28-14-1-21a1.19,1.19,0,0,1-.47-1C330.33,67.89,330.5,62.88,331.53,57.79Z"/><path class="cls-4" d="M440.79,77.19c4.2,10.5,9.62,20.7,12.32,31.58,4.48,18,14.15,24.13,31.57,17.42,7.78-3,12.88-.46,15.48,7.37a1.42,1.42,0,0,1-2.28,0,17.66,17.66,0,0,0-3.81-.31c-37.25,5-37.25,5-53.23-35.15-1.95-4.91-3.78-9.87-5.67-14.8C437.52,81.7,438.16,78.53,440.79,77.19Z"/><path class="cls-5" d="M37,225.87c-4.19-4.59-8-9.67-12.65-13.7-14.73-12.73-13.12-21.8,5.22-28.53,6.08-2.23,4.16-15.87,16-11.27,5.1,2,6.78,5.4,6.23,9.61-.66,5.08-4.88,9.68-9.67,8.45-8.47-2.16-12.64,4.58-19.77,6.25L41.45,220A6.14,6.14,0,0,1,37,225.87Z"/><path class="cls-2" d="M261.41,528.78c-12.26.15-12.68-12.27-19.09-18.33-3.5-3.31-5.68-7.95-11.18-8.55,1.13-5.56,2-5.91,10-4,10.09,6,10.53,22.52,25.25,23.4a11.54,11.54,0,0,0,6.21-2c5.68-3.44,10.8-3.16,14.4,2.56,3.2,5.09,1.91,10.17-3.28,13.13-5.78,3.29-10.65,1.71-13.51-4.63C267.56,528.09,264.15,530.3,261.41,528.78Z"/><path class="cls-6" d="M14.54,299.65l7.17,8.65c1,3.79,1.61,7.33-4.27,6.78C4.7,305.78,5.18,293,7.21,279.23c1.6-10.87,3.83-22.38-6.53-31a12.05,12.05,0,0,1-.07-7.78c8.75,3.83,15.71,10.18,16.34,19.64C17.61,270,15.47,280,14.56,290A19,19,0,0,0,14.54,299.65Z"/><path class="cls-7" d="M497.88,133.56h2.28c8.54,11.49-1.55,20.93-3.86,31-2.61,11.38-7.22,22.3-11,33.42-3.25,1.75-2.82,5.48-4.36,8.16-2.34,4-4.44,4.53-6.71,0Z"/><path class="cls-8" d="M30.56,251,14.15,231.54c.46-2.9.56-6,3.54-7.7C31.78,238.39,45.36,253.13,36.92,276c-1.37,3.35.21,7-1.08,10.38l1.45,7.17c1.18,3.61.68,6.55-3.26,8.09l-5.54-6.85a20.57,20.57,0,0,1,0-9.71l1.72-24.51C31.32,257.39,30.76,254.17,30.56,251Z"/><path class="cls-9" d="M313.68,52.51c9.4,8.2.59,20.49,6.63,29.44a14.89,14.89,0,0,0-.11,8.24c6.51,6,7,11.64-.74,17a10.51,10.51,0,0,1-7.49-.08c-5.26-1.75-7.67-7.33-5.17-10.33,10.38-12.46-.42-25.56,2.38-38-1.2-1.79-3.34-3.52-1.55-5.89S311.59,51.47,313.68,52.51Z"/><path class="cls-10" d="M464.18,192.21c-5.11,22.53-17.83,44-9.81,68.39-2.55,2-4.79,1.28-6.87-.77-1.34-2.34-.21-5-.89-7.4-11.29-6.69-4.17-14.81-1.77-22.57,1.93-2.11,1.86-4.89,2.52-7.43q5-15.84,10.09-31.67c.59-1,1.23-2,2.69-1.81C461.81,189.62,462.93,191,464.18,192.21Z"/><path class="cls-4" d="M395.73,136.39c5.18,13.09,18.31,26.15-.91,39-6.18,4.12-4.2,11.56-4.4,17.85,1.26,2.78-.08,5.85.94,8.66q3,2.81,6,5.59c-3.68,3.34-6.56.41-9.61-1.18-1.67-.72-3.86-.65-4.5-2.93-2.8-15.45-2.16-29,12.06-40.32,6.08-4.82-4-12.49-4.18-19.46C392.15,140.84,391.35,137,395.73,136.39Z"/><path class="cls-11" d="M489.18,260.42l.42-9.66c1.42-4.19-.44-8.65,1.1-12.83-3.79-11.22,2.93-20.43,5.8-30.39,5.63-10.08,8.29-21.4,13.18-31.79,1.37-2.9,1.54-7.05,6.17-7.27q-9,30.48-17.92,61a22.51,22.51,0,0,1,0,10.67c-.12,3.6-.25,7.2-.37,10.8-1.55,3.29,1.07,7.26-1.68,10.36C493.42,262.69,491.15,262.71,489.18,260.42Z"/><path class="cls-11" d="M510.47,256.39c-1.08-23.15,5.49-44.68,17-65.5q-5,37.11-10,74.22a3.65,3.65,0,0,1-1.74-2.22C515.65,259.38,513.61,257.44,510.47,256.39Z"/><path class="cls-12" d="M386.2,428.44l-16.77,30.65c-3-2.12-3.62-5.43-4.34-8.69,0-4.85,2.48-8.88,4.92-12.7,4.43-6.94,7.37-14.25,7.55-22.55,1.32-4.22,1.05-8.53.64-12.85-.57-4-2.74-7.74-1.73-12,2.25-4,5.08-4.33,8.42-1.31l2.63,6.92a13.71,13.71,0,0,1,.09,8.77l-.32,9.51C385.85,418.89,387.76,423.8,386.2,428.44Z"/><path class="cls-3" d="M464.18,192.21c-3,1.46-3.86-.24-4.09-2.81-1.18-2-.84-4-.13-6q3.27-11.82,6.53-23.64c-7.75-2.21-15.79,6.17-23.4-.67-.35-3.43,1.49-5.27,4.54-6.22,9.68,1.83,26.59-7.19,27.28-.62C476.25,165.08,468.28,178.84,464.18,192.21Z"/><path class="cls-13" d="M474.27,206.2c9.91,5.66,4.44-9.44,11.07-8.2-10.65,20.19-9.11,42.28-9.95,64a9.36,9.36,0,0,1-8,2.68C467.77,245,463.44,224.69,474.27,206.2Z"/><path class="cls-2" d="M440.79,77.19c-1.38,2.49.12,7.63-5.62,6.11-2.57-18.9-18.56-23.7-32.35-30.81-8.86-3.65-8.59-10.79-7.06-18.42C406.26,53.14,437.65,50.42,440.79,77.19Z"/><path class="cls-14" d="M146,61.05l9.84-4.74c-15.18-22.43,10-21.43,17.92-30.78,3.39,3.51,1.18,6.3-1.16,9.08-7.78,6-14.19,10.3-8.12,23.45,3,6.4-12.67,7.53-19.7,11.35-2.34.63-2-1.1-2-2.35C142.91,64.6,144.86,63,146,61.05Z"/><path class="cls-15" d="M187.86,74.83l-12.52,4.46c-2.67-4,1.31-6,2.63-8.83l7-3.68c-19.32-22.24,4.61-24.85,15.22-33.84,3.43,2.65,3.44,3.19.14,9.38-7.51,5.51-18.19,9.81-8.36,21.93C194,69.11,192.12,72.43,187.86,74.83Z"/><path class="cls-16" d="M407.15,434.06Q396,454.35,384.91,474.67c-4.07-1.93-3.54-5.34-2.82-8.81L383,463a12.58,12.58,0,0,0,4.3-7.36c4.65-11.84,14.19-21.92,12.91-35.88,1.2-1.3-.45-3.82,2-4.59,3.59.52,5.06,2.92,5.51,6.23C407.43,425.59,408.37,429.87,407.15,434.06Z"/><path class="cls-4" d="M426.65,157.11q-1.44,4.27-2.86,8.55c-.38.73-.75.73-1.12,0l-19.82-50.27,5.44-6.92Z"/><path class="cls-17" d="M428.12,438.31q-11.31,22.11-22.63,44.23c-3.19.34-3.95-1.9-3.67-4.19s-.17-4.9.93-7.18q9-18,18.08-36c2.91-5.78,3.46-6.13,7.77-4.81C428.52,433,429.13,435.71,428.12,438.31Z"/><path class="cls-18" d="M207.41,507.67c18.21,2.91,30.51,13.4,39.36,33.11-17.52-8.11-27-25.59-45.22-26.93-.78-1.22-.38-2.34.31-3.44a7.62,7.62,0,0,1,1.25-1.35A6.44,6.44,0,0,1,207.41,507.67Z"/><path class="cls-19" d="M101.08,71.63l32.84-38.25c6.41,25.28-20,25.77-25.55,40.35C102.75,74.93,102.68,74.91,101.08,71.63Z"/><path class="cls-20" d="M155.68,358.61l12.28-1.8c2.42-.79,4.82-1.05,7.18.16,11.87,10.79.67,15.72-5.56,21.92-4.38,0-5.24,5.59-9.42,5.9-3.27-10.19,8.19-12.71,11.25-20.52l-18.24,2.57C149.61,363.77,149.87,362.92,155.68,358.61Z"/><path class="cls-21" d="M129,193.05c-7.12-22,5.19-20.74,20-16.93,1,.26,2.55-1.54,3.84-2.39,3.19,5.77-1.21,8.57-4.58,11.77-2.89,1.35-5.62-2.17-8-.73-1.08.88-1.4,1.5-1.38,2.21.08,3.58,3.32,7.38.74,10.6-3.48,4.33-8.49,7.29-12.11,11.63-.33.41-1.29,0-1.84-.51C123.2,202.71,125.87,197.83,129,193.05Z"/><path class="cls-2" d="M488.66,111.11c-18.48,7-23.87.84-31.48-31.79C471.75,86.11,471,105.92,488.66,111.11Z"/><path class="cls-22" d="M115.22,456.05a65.25,65.25,0,0,0,11.36,30.65c-.2,3.12.67,6.61-3,8.53-11.45-12.18-16.53-26.82-16.7-43.35C111.07,450.5,113.27,453,115.22,456.05Z"/><path class="cls-23" d="M101.08,71.63l7.29,2.1C101.11,88,85.41,89,73.53,95.94c-4.15.51-6.33-1-5.71-5.49C78.48,83.43,92.05,81.54,101.08,71.63Z"/><path class="cls-24" d="M91.5,157.17,78.05,166c2.39,4,5.2,8.94,3.76,14.85-.67,4.91-2.3,5.22-7.45,1.38-9.29-17.81-2.52-27.66,15.76-31.8C91.89,152.42,92.07,154.72,91.5,157.17Z"/><path class="cls-25" d="M423.6,114l6.95-6.95c3.93,4.69,13.31,5.91,9.77,15.35-2.07,1.4-2.31,3.29-1.46,5.48l.25,1.51c-1,3.16,1.43,8.16-4.62,8.6q-2.62-4.78-5.23-9.57c-2.24-2.5-5.13-4.39-6.81-7.41Z"/><path class="cls-26" d="M66.33,227.3c-6.58-7.39-14.72-13.92-19.33-22.38-5.36-9.84,6.57-9,11-12.87,2.4,3.32.78,6-1.29,8.7l14.05,20.69C71,224.68,69.35,226.52,66.33,227.3Z"/><path class="cls-27" d="M409.94,287.44c-2.49,10.36,1.37,19.45,5.65,28.46.48,1.88,1.18,4.05-2.09,3.46a18.27,18.27,0,0,1-6.26-2.92q-2.81-9.81-5.6-19.61c1.38-3.75-.36-7.8,1.07-11.55L403,276c4.65-1.78,6.1,1.4,7.41,4.79C410.38,283,411,285.28,409.94,287.44Z"/><path class="cls-28" d="M141.28,488.42c-1.05-11.81-15-18.69-12.2-32-.52-2.65-1.84-5.51,1.88-7,2.3-.38,3.78.9,5.13,2.47.19,9.93,5.88,17.76,10,26.18C148.08,483.18,146.8,486.78,141.28,488.42Z"/><path class="cls-29" d="M195,423.87c1.57,12.07,5.88,22.93,14,32.11-1.84,2.58-4.22,3.82-7.43,3-9.24-9.3-13.31-20.68-13.55-33.61C190.05,423.27,192.2,422,195,423.87Z"/><path class="cls-30" d="M267.28,495.19a11.76,11.76,0,0,0,11.38,5.74c2.73,1.14,5.65.05,8.42.72,3.23,1.8,8.29,2.13,6.4,8-1.84.1-3.71.46-5.47-.44-14.82,2.26-26.23-2.06-32.31-16.7C260.69,488.51,263.71,493.05,267.28,495.19Z"/><path class="cls-31" d="M433.41,305.25c8,10.72,2.39,21.44,0,32.16-.86,2.8-.5,6.32-4.31,7.4-7.6-11.37,4-23.46-1.31-34.92-.84-2.28-.82-4.47,1.28-6C431,302.47,432.39,303.47,433.41,305.25Z"/><path class="cls-32" d="M443.06,465.78l-2.87,8.34a5.91,5.91,0,0,0-3.84,2.63l-12.16,11.63c-4.87,0-3.05-3.6-3.33-6.08q2.26-4.77,4.55-9.53c2.25-5.74,4.7-11.32,10.94-13.92l2.88,1.16C440,462.24,442.2,463.58,443.06,465.78Z"/><path class="cls-33" d="M97.3,186.6c-5.22-18.33,9.34-21.08,20.74-26.33,3.27,3.68.54,6.46-1.4,9.36-10.31.31-6.6,11.73-12.38,15.63-.88,1.67-1.78,3.31-4,3.38C98.87,188.55,98.11,187.53,97.3,186.6Z"/><path class="cls-34" d="M390.42,338.81,400,369.5c-1.49,2.71-3.09,5.17-6.7,2.79l-11.16-34.9C385.18,336.19,388.32,334.43,390.42,338.81Z"/><path class="cls-35" d="M235.59,84.78c-.14-3.65-.29-7.3-.43-11-.26-5-2.2-10.08,1.4-14.68l5.58-3.88c5.39,1.83,3,5.1,1.53,8.2-4.41,9.11,8.22,19.71-2.57,28.43-2,1.62-2.89,4.62-4.29,7C232.28,94.54,235.72,89.51,235.59,84.78Z"/><path class="cls-36" d="M370.57,254.59c-1.71-5.66,6.22-10.33,1.69-16.28-2.39,1.09-4.61,1.19-5.39-1.84-.6-2.3.29-3.77,3-4.24,1.69-.29,3.17-1.7,5-2.09,16.81-2.67,6.75,8.08,6.87,13.75-1.82,2.08-1.76,4.81-2.5,7.26l-2.79,8a5,5,0,0,1-2.11,1C370.75,259.91,369.44,258.06,370.57,254.59Z"/><path class="cls-37" d="M362.44,240c-3.66,1-9.52,3.39-10.29-.77-1.57-8.42,6.14-13.89,10.07-20.56,1.77-3.43,3.13-7.7,8.36-4.13,3.08,7.1-6.77,10-5.38,16.54C370.15,235.86,364.89,237.49,362.44,240Z"/><path class="cls-38" d="M168.49,82.6c-8,4.84-18.37,5.83-24,14.65-2.95,1.79-3.48-.31-3.77-2.46-.2-1.49.81-3.07-.31-4.51,7.76-11.12,20.79-12.34,32-17C174.24,77.7,170.4,79.74,168.49,82.6Z"/><path class="cls-39" d="M161.59,475.5c-8.22-9.05-13.6-19.3-13.49-31.87,3.84-3,6.12-1.6,7.43,2.6q5,10.59,9.92,21.17C166.85,471.38,166.17,474.37,161.59,475.5Z"/><path class="cls-40" d="M118,389.17c10.54,9.22,13,21.63,13.74,34.72-3.46,1.26-5.88-.63-8.22-2.74-2.15-7.66-2-16.17-8.05-22.41C116.34,395.56,115,391.78,118,389.17Z"/><path class="cls-41" d="M138.82,382.11c16.59,4.16,7.38,18.6,11.11,27.88-2.26,2.06-4.52,1.8-6.79,0-3.5-6.67.3-16.28-8.38-20.86C134.47,385.83,134.37,382.65,138.82,382.11Z"/><path class="cls-42" d="M426.59,242.46c-4.81,7.54,1.62,10.94,5.63,15.23,1.29,3,.42,6.18.54,9.28C428,268.64,428,268.64,425,262c-12.8-6.07-9.1-15.57-5.21-25.1C424,236.47,425.05,239.73,426.59,242.46Z"/><path class="cls-43" d="M113.34,308.25c-9.06-5.62-9.33-11.33-.17-17.13,2.61-.61,5.22-1,7.8.14l4.14,4.05C126.4,304.72,122.36,309.16,113.34,308.25Z"/><path class="cls-44" d="M303.87,486.77l-1.14,1.54a16.53,16.53,0,0,1-9.17,0c-12.24,2.49-20-3.08-24.89-13.82.63-4.89,4.37-2.48,6.89-2.94a6.76,6.76,0,0,1,3.78,2.85c1,1.43,1.77,3.13,3.67,3.72.56.2,1.1.42,1.66.64,3.29.92,6.62.39,9.94.35a6,6,0,0,1,3.68.29C300.57,481.52,301.88,484.4,303.87,486.77Z"/><path class="cls-45" d="M157.2,115.59c-3.75,4.52-6.93,9.79-11.48,13.28-2.76,2.12-4.73,9.93-9.84,5-4.66-4.52,1.71-7.48,4.16-10.55,3.73-4.67,7.88-9,11.86-13.48,1.89-1.17,3.63-2.9,6.29-1.71C160.31,110.89,158.15,113.17,157.2,115.59Z"/><path class="cls-46" d="M459.87,312.31c-1.19,11.09-5.32,22.1-1,33.36-1,3.11-2.75,4.64-6.08,3-4.11-8.11-7-16.33-2.38-25.26C453.9,320,453.06,312.89,459.87,312.31Z"/><path class="cls-47" d="M129,193.05q-1.27,8-2.56,16c0,3.25-4.38,4.44-3.79,8-1.3,2.7-2.93,4.75-6.35,3.15-2.49-2.71-8.16-7.45-5.6-8.61C119.61,207.61,117.9,194,129,193.05Z"/><path class="cls-25" d="M395.73,136.39l-4.57,7.18q-5.43-13.86-10.85-27.72c1.38-2.51.11-7.55,5.73-6Z"/><path class="cls-48" d="M194.89,327.39l-5.8-2.51c2.41-4.59,8.76-2.36,11.38-6.59,2.05-.81,4.41-1,5.82.58,5.34,6.09,11.87,11.59,11.81,20.77-1.34,2.48-2.7,4.95-5.26,6.45q-5.52-9.22-11-18.44C199.55,326.35,197.23,326.74,194.89,327.39Z"/><path class="cls-49" d="M275.64,57.69c9.38-6.15,12.41,4.54,18.55,7-.21,5.39-1.82,10.67.8,16.17,1.18,2.49,0,6-3.71,7.11-3.72-1.13-4.45-4.21-4.88-7.5C285,70,285,70,275.15,68.46a2.22,2.22,0,0,1-1.54-1.25C272.48,63.65,273.78,60.61,275.64,57.69Z"/><path class="cls-50" d="M253.66,95.91c9.67-7.72.82-21.4,9.47-29.45,4.2.28,3.37,3.63,3.35,6.05,0,6.43,0,12.87-.12,19.31-2.42,5.8-3.39,12.58-10.27,15.42C253,103.94,253.73,99.85,253.66,95.91Z"/><path class="cls-51" d="M184.81,383c9.17-7.73,8.13-18.43,8.35-28.76,2.06-2.6,4.51-3.26,7.45-1.55l-1.53,23.8a17.08,17.08,0,0,1-10.89,8.38C186.8,385.23,184.45,386.24,184.81,383Z"/><path class="cls-52" d="M236.71,472.82c8.56,3.61,19.71,2.78,23.85,13.94-1.88,2.23-4.55,2.52-7.16,3-6.42-8-17.15-6.65-25-11.58C229.06,473.1,233.46,473.86,236.71,472.82Z"/><path class="cls-53" d="M344.16,256.61c9-2.2,10.73,1.86,8.17,9.56-3.53,1.72-7.5-2.91-10.91.78-4.39,1.33-8.76,2.63-11.41-2.88-.44-2.56-.47-5.19-1.35-7.68a10.19,10.19,0,0,1,.59-6.58c3.84-4.22,6.16-1.82,8.17,1.88.87,1.4.08,3.17,1.05,4.69C340.26,257.53,342.19,257.35,344.16,256.61Z"/><path class="cls-54" d="M157.2,115.59V109.2l-5.3.62c6.14-10.58,17.21-13.07,27.54-16.77,2.07,2.67,2.31,3.7.64,5.69a16.74,16.74,0,0,1-4.78,3.94Z"/><path class="cls-55" d="M224,453.67l-12.59-18.49a7.62,7.62,0,0,0-1.1-5.62l-.37-4.22a6.73,6.73,0,0,1,6.9-2c3.87,8.69,9.24,16.47,14.65,24.23C230.67,451.65,226.65,451.8,224,453.67Z"/><path class="cls-56" d="M313.68,52.51c-5-.47-6.6,1.56-4.5,6.23l-20.86-14.4c-2.31-3.36-4.15-6.65,1.49-8.63Z"/><path class="cls-57" d="M79.12,276.38l0,.47c1.23,4.18,2.28,8.24-4.55,7.55-7.17-4.69-2.46-11.11-2.46-16.85,1.28-3.16,0-6.54.81-9.74,1.53-1.54,1.56-3.82,2.68-5.49s2.32-4.87,5.36-1.9c-.15,3.06.59,6.17-.52,9.17-.09,2.21-.19,4.41-.29,6.62C78.81,269.49,80.46,273.09,79.12,276.38Z"/><path class="cls-58" d="M387.49,203.36l9.89,4.1,0,0a11.48,11.48,0,0,1,.09,7.61c-5.88,6.77-11.69,10.48-17.12-.43-.09-2-1.17-4.1.1-6.11C381.72,205.35,385.79,206,387.49,203.36Z"/><path class="cls-13" d="M515.85,168.48,496.5,207.54,512.34,156C514.06,162.14,515,165.31,515.85,168.48Z"/><path class="cls-59" d="M373.36,354.11q4.45,13.23,8.92,26.47c-4,2.19-6.63-1.64-10-2.14-4.77-7.65-7.93-15.82-8.08-25C367.47,350.24,370.52,350.73,373.36,354.11Z"/><path class="cls-60" d="M425,302.85l-1.2-3.12a22.5,22.5,0,0,1-.11-11.55q.15-4.05.32-8.1c1.26-3-.16-6.24.93-9.44,2.65-1.34,5.06-.6,7.33,1.13q-.13,3.51-.28,7c-1.37,3.75.36,7.78-1.06,11.53q.9,6,1.81,12C430.24,304,427.62,303.62,425,302.85Z"/><path class="cls-61" d="M94.37,203.52c-1.78,2.49-8.32,2.48-4.2,8,1.58,1.31,2.33,2.81,1.16,4.8-1.42,2.4-3.42,1.75-5.44,1.09-18.83-15.54,1.29-16.68,8.37-22.64C97.1,197.68,96.5,200.59,94.37,203.52Z"/><path class="cls-62" d="M37,225.87,41.45,220l13.93,15c3.34,7,2.89,8.3-3.12,8.88Q44.64,234.9,37,225.87Z"/><path class="cls-63" d="M486.47,398.35l-1-17.74c1.12-3.08,0-8,5.9-7.17,5.3,8.65,4,17.89,2.44,27.16-2.9-1-4.4,5.2-7.83,1.53A7.51,7.51,0,0,1,486.47,398.35Z"/><path class="cls-64" d="M235.59,84.78q.61,7.05,1.22,14.11c-2.83,9.94-8.34,15.79-19.61,12.87a2,2,0,0,1,.92-1.53,8.55,8.55,0,0,1,2.65-.89c1-.31,2.54-.17,2.16-1.75s-2.08-1.18-3.31-1.36c-1.65-.27-3.3-.55-4.2-2.22C229.63,105.45,229.63,92,235.59,84.78Z"/><path class="cls-65" d="M391.48,312.21c5.72,8.25,1.28,16-1.27,23.76-4.14.44-4.66-3.47-6.69-5.56a22.21,22.21,0,0,0-.26-18c-1.82-5.22.94-5.48,4.69-4.12C389.66,308.88,390.64,310.59,391.48,312.21Z"/><path class="cls-66" d="M82.84,435.26Q78.72,425,74.58,414.72c-1.41-3.85-1.94-7.56,1.68-10.61,4.45,6.42,11.58,11.17,12.45,19.84C87.73,428.23,89.36,433.86,82.84,435.26Z"/><path class="cls-67" d="M291.1,87.48c6.47-6.86-6.2-16.32,3.09-22.8,2.43,13.26,9.32,26.37,1.41,40-4-3.86-2.36-9.82-5.31-14.07A3.58,3.58,0,0,1,291.1,87.48Z"/><path class="cls-68" d="M34,301.63c1.08-2.7,2.17-5.39,3.26-8.09l15.46,20c-.57,2.71-1.62,5-4.57,5.88Z"/><path class="cls-69" d="M95.48,465.83c.64,3.52,1.27,7.05,2.14,11.87-14.56-8-11.09-21.36-13.16-32.61-.72-1.5-1.1-3,.64-4.71,3.12,1.25,4.45,4.17,6,6.88C91.84,453.61,92.76,459.93,95.48,465.83Z"/><path class="cls-70" d="M250.48,463.1l-16.6-5.64c4.5-4.82,10.69-2.66,16.06-3.92,7.65,1.5,15.91,1.72,20.68,9.5-1.13,5.2-6.29,1.77-8.78,4.07l-2.89-.82C256.66,463.81,253.3,464.19,250.48,463.1Z"/><path class="cls-71" d="M99.91,98.73l20.88-16.84c6-.21,6.44.35,4.23,5.6l-13.59,14.09C107.34,101.63,102.52,104.64,99.91,98.73Z"/><path class="cls-72" d="M354.05,474.38l-5.59,5.44c-4.66,1.41-9.43.32-14.13.63-4.15-.9-6-3.5-5.79-7.7a5.24,5.24,0,0,1,2.89-1.73c4.17-.76,8.61.74,12.64-1.4,3.44-1.32,5.52-6.07,10.27-4.1C357.19,468.57,356,471.48,354.05,474.38Z"/><path class="cls-73" d="M45.33,148.66l22.46-10.82c1.87,1.54,4.84,2.25,4.25,5.65L49.7,154.68C47.24,153.4,44.75,152.14,45.33,148.66Z"/><path class="cls-74" d="M313.42,36,295.3,23.38c-1.83-3.27-1.6-6.2,1.48-8.63l19.67,13.79C317.26,31.77,317,34.55,313.42,36Z"/><path class="cls-75" d="M99.91,98.73l11.52,2.85-19.84,9.66c-4.53.72-9.37,2.89-12.59-2.64Z"/><path class="cls-76" d="M175.3,102.68l4.14-9.63,20.89-8.92c2.25,4.84-.57,7.65-4.09,10.18Z"/><path class="cls-77" d="M264.66,91.76l-1.53-25.3,12.51-8.77c-.4,3.43-.81,6.86-1.21,10.29a31.24,31.24,0,0,0-3.1,14C271.28,85.88,270,90.61,264.66,91.76Z"/><path class="cls-78" d="M211.29,51l9.9-6.94c5.37,1.91,3.05,5.21,1.51,8.36-2.89,3.79-11.42,4.47-6.82,12.39-.06,4.4,4.62,9.74-2.51,12.76l-4.47-9.68C210.26,62.38,208.92,56.45,211.29,51Z"/><path class="cls-79" d="M176.63,437.9q2.82,8.5,5.62,17c1.3,4.08.47,6.8-4.44,6.86-6.87-6.49-8.44-15-9.28-23.87C171.23,435.3,173.93,436.19,176.63,437.9Z"/><path class="cls-80" d="M523,323.57c-4.28,9.95,8.37,20.34-1.88,30.89l-6.79-22.31c.19-3.33,2.16-5.91,4.08-8.31C519.3,322.75,521.27,319.4,523,323.57Z"/><path class="cls-4" d="M434.49,138l4.62-8.6,8.52,23.52-4.53,6.22Q438.78,148.56,434.49,138Z"/><path class="cls-81" d="M391.48,312.21c-2.75-.8-5.62-6.77-8.22.17l-7-8.35c4.42-4.37,5.92-10.33,8.51-15.69C399.89,292.66,385.1,305.42,391.48,312.21Z"/><path class="cls-82" d="M368.18,313.58c6.61,8,2.05,15.93-.06,23.89-3.2,1.11-5.38-.71-7.52-2.63-.65-6.72,1-13.52-.68-20.22C362.18,310.36,365,310.45,368.18,313.58Z"/><path class="cls-83" d="M491.35,373.44l-5.9,7.17-7-20.94c.62-3.6.41-7.56,4.06-9.93Q486.92,361.59,491.35,373.44Z"/><path class="cls-84" d="M17.52,348.55c-7.47-7.67-13.82-15.88-13.34-29.39l16.36,20.55A8,8,0,0,1,17.52,348.55Z"/><path class="cls-85" d="M211.79,382.05l2.73-16.79c1.5-4.32,2.67-8.81,5.49-12.51,1.18-1.55,2.11-4.74,5.12-2,1,9.26-.83,18.12-3.72,26.83C218.85,380.47,216.59,384,211.79,382.05Z"/><path class="cls-86" d="M334.24,210.77l5.57-6c1.72,6.31,12.76,11.19,3,19.28-3.38.56-5.52,7.45-10.07,2C333.15,220.93,334.16,215.9,334.24,210.77Z"/><path class="cls-87" d="M412.69,334.78q2,7.59,4,15.2c-1.28,3.41-4,3.6-7,3.13-2.56-7.36-7.91-14.25-3.87-22.74C410.75,327.9,412.13,328.78,412.69,334.78Z"/><path class="cls-88" d="M76.2,133.74,95.73,124c3.3.38,5.78,1.61,5.73,5.49L81.9,139.63C79.48,138.17,76.31,137.44,76.2,133.74Z"/><path class="cls-89" d="M407,419.76l-5.53-4.19c-1.28-3.37-.92-6.76-.19-10.16l.11-10.72c-.84-1.32-.88-2.86.79-3.05,2.78-.32,5.85-.45,6.9,3.26-.26,4.25.61,8.54-.52,12.74-.12,3.58-.23,7.17-.35,10.75A2.37,2.37,0,0,1,407,419.76Z"/><path class="cls-90" d="M353.94,276.14,366.47,286c1.55,3,.41,6.17.77,9.24-3.19,5.16-5.35-.69-8.05-.74-2.69-5.25-9.05-7.31-11.34-12.94C348.28,277.94,350.67,276.54,353.94,276.14Z"/><path class="cls-91" d="M101.08,140.47c4.15-6.07,9-5.83,14.25-1.54,2.37,6.72-3.15,10.55-5.66,15.48L101.3,153C99.75,148.86,103.07,144.62,101.08,140.47Z"/><path class="cls-92" d="M486.78,403c2.63,0,2.61-7.53,7-2.44,1,9.95-.35,19.08-9.58,26.73.44-5,.81-9.09,1.17-13.2C487,410.58,484.68,406.53,486.78,403Z"/><path class="cls-93" d="M144.59,155.73l-15.32,7.32c-2.55-3.35-.57-6.05,1.26-8.77l18.1-8.21c4.38-1.29,4,1.53,3.37,4.14C151.07,154,147.7,154.74,144.59,155.73Z"/><path class="cls-94" d="M306.69,123.37c.39,3,.77,6,1.15,9-3.37,1.81-5.78-.18-7.66-2.41-3.35-4-6.69-8-7.71-13.39.78-3.37-.72-7.7,4-9.44Z"/><path class="cls-95" d="M396.13,242.5l7.05-20.9a2.3,2.3,0,0,1,2.37,1.14c1.07,1.87,2.21,3.71,3.26,5.6a1.64,1.64,0,0,1-.32,1.69l-5.55,16.76C399.42,247.35,397.29,245.69,396.13,242.5Z"/><path class="cls-96" d="M128.22,380.53l-7.54-3.64c-2-6.87.41-12.75,7.17-17.28,7.61,2.94,2.05,10.93,5.89,15.31C133.23,378.1,132.2,380.76,128.22,380.53Z"/><path class="cls-97" d="M217.25,423.94l-7.28,1.4q-1.35-8.22-2.69-16.45c.37-7.4,2.49-8.86,8.15-5.64C217.13,410.05,219.79,416.77,217.25,423.94Z"/><path class="cls-98" d="M50.9,287.45l-1.08-5.94c1.32-3.34-.25-7,1-10.32l.34-7.79a8,8,0,0,0,1.06-1.69c1-3.09,1.53-6.37,3.62-8.94,1-1.19,1.89-3.62,4.13-1.33a7.31,7.31,0,0,1-.47,4l-.3,6.59c-1.48,3.64.41,7.63-1.14,11.27l0-.1C56.13,278.15,55.92,284,50.9,287.45Z"/><path class="cls-99" d="M175.22,147.49c4.6-4.26,6.36-11.68,14-12.56,3.53.06,1.79,2.46,1.33,3.66-1,2.72-2.5,5.27-3.57,8a20.61,20.61,0,0,1-5.13,7.2,9,9,0,0,0-4,5.23c-2,3.12-3.31,7.39-8.54,5.44-1.39-2-.88-4,.26-5.85A31,31,0,0,0,175.22,147.49Z"/><path class="cls-100" d="M471.13,328.63c.34-2.26.67-4.52,1-6.79,2.44-1.24,4.2-4.54,7.71-2.57q-.77,9-1.54,17.92c.29,3.68,1.52,7.82-4.19,8.56q-1.51-4.65-3-9.3A12.45,12.45,0,0,1,471.13,328.63Z"/><path class="cls-101" d="M241.1,497.86c-3.66.51-7.89-.4-10,4l-18.28-6.52c.77-5.58,4.77-4.92,8.66-4.49Z"/><path class="cls-2" d="M405.55,215.68c.09-3.4-7.36-5.91-1.73-9.54,2.41-1.56,7.82-2,9.58-.42,6.23,5.61-1.32,10.45-2.11,15.81C406.63,222.28,404.56,220.48,405.55,215.68Z"/><path class="cls-102" d="M144.59,155.73c1.65-3.1,9.74-3.5,4-9.66l13.8-15.89a3.45,3.45,0,0,1,2.41,1.64c1.92,5.16-2.75,7.85-4.5,11.61-.73,1.59-2.57,2.64-3,4.54C153.67,151.54,152.05,158.41,144.59,155.73Z"/><path class="cls-103" d="M97.11,275.83c-9.16-4.75-2-12-2.78-18,1.07-1.92,1.17-4.43,3.11-5.77,1.37-.95,3.11-3.36,4.52.11-.18,3.45.53,6.95-.5,10.35l-.33,6.51C100.47,271.68,100.35,274.67,97.11,275.83Z"/><path class="cls-104" d="M502.12,319.7l-1.91,10.82c-.72,3.79.84,9.33-6.29,8.19-3.89-6.47-1-13-.11-19.47a13,13,0,0,0,2.85-3c1.22-1.55,2.87-2.66,4.76-1.52S502.68,317.93,502.12,319.7Z"/><path class="cls-105" d="M384.75,288.34c.57,7.07-.72,13.15-8.51,15.69-4.71-3.67-4.42-8.39-1.65-12.66C376.78,288,380.09,285,384.75,288.34Z"/><path class="cls-106" d="M118,389.17q-1.27,4.79-2.53,9.57l-11.56-15.21c.31-3.11.87-6.06,4.4-7.21Z"/><path class="cls-107" d="M91.07,368.31,80.16,357.36a7.23,7.23,0,0,1,3-8.33l15.78,14.73C97.51,367.38,95.3,369.57,91.07,368.31Z"/><path class="cls-108" d="M69,433.7c1,6.54,2,13.07,3.09,20.17-8.11-5.73-11.86-13.05-11.52-22.5-.23-3.74,2.35-3.2,4.66-3.07C67.65,429.27,67.83,431.82,69,433.7Z"/><path class="cls-109" d="M14.52,177.41c3.43-8.5,6.39-15.82,9.36-23.12C36.81,167.6,26,172.07,14.52,177.41Z"/><path class="cls-110" d="M336.18,10.56c-5.63,4.19-7,10.24-7.35,16.75-7.09-1.87-9.48-6.87-6.66-13C324.89,8.33,330,5.94,336.18,10.56Z"/><path class="cls-111" d="M425.16,379.27c4.38,5.28,6.53,11.23,5.45,18.14-.45.51-.89,1-1.3,1.57-1.81,1.71-3.62,3.35-6.06.92-.52-2.63.39-5.38-.59-8l-4.23-11.28C420.11,377.38,422.43,377.27,425.16,379.27Z"/><path class="cls-112" d="M106.88,118.39l15.42-7.15c1.93-1.58,3.44-.61,4.28,1.12,1.06,2.16.8,4.3-1.54,5.7l-14,7C107.18,124.35,104.4,123,106.88,118.39Z"/><path class="cls-113" d="M101.51,304.74,115.43,322c-2.3,1-2.79,4.54-6,4.35L98.29,312.84C97.8,309.52,100,307.28,101.51,304.74Z"/><path class="cls-114" d="M91.07,368.31l7.82-4.55,9.44,12.56-4.4,7.21Z"/><path class="cls-115" d="M172.51,334.52l21.2,7c-2.51,4.93-7,4.55-11.4,4.14l-14-2.7C166,338.27,169.92,336.72,172.51,334.52Z"/><path class="cls-116" d="M140.46,90.28l4.08,7-12.37,14c-5.49-.6-4.45-3.94-3.09-7.4Z"/><path class="cls-117" d="M471.16,428.15l-.09,4.21c-1.47,4.61.5,9.5-1.14,14.09L461.26,456c-1.16.2-2,.09-1.22-1.39l1.23-2.77c2.16-2.61-.09-6,1.47-8.68l.33-9.43a17.52,17.52,0,0,1,1.4-2.59C466.26,429.13,468,427,471.16,428.15Z"/><path class="cls-118" d="M296.77,502.2l4.23.13c3.72,1.36,7.73-.39,11.45,1.07l2.34-1.53c3.15,2.13,5.08,4.88,4.43,8.9l-18.34-.48c-1.35-1-3.09-.07-4.46-1C294.94,506.88,295.44,504.52,296.77,502.2Z"/><path class="cls-119" d="M353.94,276.14l-5.54,5.31c-6.32-1.2-9-4.59-8.07-10.27.36-2.35,1.54-4.35,2.49-6.47,4-5.07,6.21,1.81,9.51,1.46C351.56,269.71,350.05,273.36,353.94,276.14Z"/><path class="cls-120" d="M221.52,490.89l-8.66,4.49-15.32-5.61c-1.52-4.25-1-7,4.48-5.88Z"/><path class="cls-121" d="M17.69,223.84l-3.54,7.7c-5-6.06-14.78-10.14-8.45-21.25Z"/><path class="cls-122" d="M250.67,455l-16.79,2.5L224,453.67c0-4.89,4.34-4.13,7.09-5.42C239.16,446.05,245,450.39,250.67,455Z"/><path class="cls-123" d="M425.16,379.27l-6.73,1.36-5.61-16.76c2.11-3.86,4.59-5.53,8.07-1.37Q423,370.89,425.16,379.27Z"/><path class="cls-124" d="M361.19,334.59l6.93,2.88q2.61,8.32,5.24,16.64l-8.51-1.29C358.71,348.26,357.29,341.19,361.19,334.59Z"/><path class="cls-125" d="M296.43,107.15l-2.56,9.9c-5.83-2.22-9.45-7.33-8.3-13,1-4.85,2.08-9.85,5.55-13.78,5.07,3.68,3.8,9.34,4.48,14.39C295.88,105.5,296.15,106.33,296.43,107.15Z"/><path class="cls-126" d="M80.34,249.41l-6.64,8.32c-.94-.32-1.11-.88-.5-1.68l.34-6.64c1.34-3.33-.22-6.94,1-10.27v-1.83c.18-3-1-7.1,4.55-6.09l2.82,2.4a13.7,13.7,0,0,1,0,7.87L81.56,248A2.3,2.3,0,0,1,80.34,249.41Z"/><path class="cls-127" d="M459.87,312.31q-4.71,5.55-9.44,11.09c2.06-6.92.4-13.32-2.71-19.52,1.81-2.13,2.21-6.56,6.79-4.19Q457.2,306,459.87,312.31Z"/><path class="cls-128" d="M436.35,343l6.9,19.53c-2.17,1.42-4.32,2.87-7,3q-2.1-6.23-4.22-12.47a37,37,0,0,1-.9-5.92C431,343.78,432.1,341.22,436.35,343Z"/><path class="cls-129" d="M160.16,384.79c1.84-4.05,4.15-7.34,9.42-5.9-4.87,5.69.59,11.18.34,16.78-.73,4.81-3.47,5-7.14,3.14Q161.48,391.8,160.16,384.79Z"/><path class="cls-130" d="M184.81,383l14.27-6.51q-4.17,7.59-8.36,15.18c.56,5.3-1.93,7-6.85,5.77C183.56,392.56,179.4,387.45,184.81,383Z"/><path class="cls-131" d="M214.13,403c-5.06-1.27-5.68,2.62-6.85,5.88l-1.44-9.58c-2.4-9.93,7.58-10.81,10.82-16.27,3.47.85,3.53,3,3.74,5C219.31,393.43,216.34,398.06,214.13,403Z"/><path class="cls-132" d="M228.26,13.29l14-9.77c4.11,5-.42,7.9-2.76,11.33l-12.57,8.23C223.84,19.33,226.89,16.43,228.26,13.29Z"/><path class="cls-133" d="M465.54,394.17c0-2.61,0-5.21.07-7.82.31-3.62,1.64-6.42,5.65-7.08,3.13,5.35,3.31,11,1.6,16.79-1.46,1.36-1,3.5-2,5-1.48,2.26-3.17,4.07-5.82,1.3C465.1,399.63,464.52,396.86,465.54,394.17Z"/><path class="cls-134" d="M117.87,232l2-7.66c2.52-1.69,2.71-6,6.77-6,5.83,5.06,5.78,8.41-.21,17.68-3,2-4.54,7.11-9.71,5l.06-1.43C118,237.21,116.78,234.46,117.87,232Z"/><path class="cls-135" d="M223.94,350l-9.42,15.31c.61-6.49,2.34-13.09-1.68-19.17,0-3.26.95-5.79,4.76-6.06C222,341.88,225.07,344.57,223.94,350Z"/><path class="cls-136" d="M90.12,447.68l-5.56-3.31c.2-1.27,0-.27-.1.72l-1.62-9.83L88.71,424q2,12.56,4.09,25.11C91.28,449.84,90.87,448.44,90.12,447.68Z"/><path class="cls-137" d="M409.76,280.16,403,276c1.16-6-5.08-7.11-7.29-10.89.48-4.56,1.09-4.82,7.27-3.14,3.75,3.54,9.83,5.62,8,12.68C409.77,276.26,411.38,278.58,409.76,280.16Z"/><path class="cls-138" d="M447.5,375.09q2.16,9.06,4.33,18.13c-2.27,1.82-3.53,5.61-7.61,3.88-.61-3.1.42-6.31-.64-9.38l-2.82-7.09C442.17,377.76,442.55,373.65,447.5,375.09Z"/><path class="cls-139" d="M320.51,493.87l20.91-.14c2.23,2.18,3.94,4.44,1.23,7.43-6,.56-12,.13-18.08.23C320.76,500.21,319.83,497.47,320.51,493.87Z"/><path class="cls-140" d="M245.05,36.89,232.5,45.34c-2.78-2.31-1.78-5.29-1.44-8.16l14-9.77C250.59,30.56,245.37,33.73,245.05,36.89Z"/><path class="cls-141" d="M17.52,348.55c1-2.94,2-5.89,3-8.84l6.93,9.7c1.12,2.09,3.81,2.87,4.5,5.33-.17,3.1-1,5.6-4.88,5.09Z"/><path class="cls-142" d="M48.18,319.4l4.57-5.88L64.21,326c-1.13,2.93-2.62,5.36-6.41,4.54Z"/><path class="cls-143" d="M171.1,158.69l-1.32,5.82c-1.86,8.84-8.4,14.47-14.22,20.58a2.1,2.1,0,0,1-3.1-.2c.59-6.43,3.5-12,7-17.19a24.06,24.06,0,0,0,3.12-5.22l2.92-3.8C167.36,157.74,169.23,155.22,171.1,158.69Z"/><path class="cls-144" d="M44,335.05l9.8,12.12c1.4,3.61,3.48,7.44-2.87,8.4L42.48,345C41.29,341.44,40.81,338,44,335.05Z"/><path class="cls-145" d="M221.35,475.61c-4.79-1.31-10.25-1.37-12.76-6.89.54-3.41,1.57-6.13,5.91-4.3l15.16,5.81C228.74,474.88,225,475.14,221.35,475.61Z"/><path class="cls-146" d="M412.69,334.78c-1.16-3.27-2.94-5.54-6.9-4.41q.72-7,1.45-13.93c2.57-3.55,5.89,4.74,8.35-.54Q414.14,325.34,412.69,334.78Z"/><path class="cls-147" d="M510,361.2c4.07,8.31,5.73,16.63.15,25-4.18-1.1-.6-4.94-2.43-6.87l-3.09-9.64C504.75,365.77,505.45,362.25,510,361.2Z"/><path class="cls-148" d="M447.5,375.09l-6.74,5.54q-2.26-7.54-4.54-15.09c1.6-2.73,3.62-4.49,7-3Z"/><path class="cls-149" d="M185.22,146.55l4-11.62,13.88-6c2.86,4-.64,6.89-1.72,10.21C196.28,142.23,192,147.2,185.22,146.55Z"/><path class="cls-150" d="M146,61.05l-1.22,8.36-11.18,8.7a43.2,43.2,0,0,1-4.72-4.75C130.42,63.51,139.6,64.24,146,61.05Z"/><path class="cls-151" d="M101.08,140.47c5,4.1,2.59,8.33.22,12.55l-9.8,4.15-1.38-6.73C94.28,147.67,100.16,146.79,101.08,140.47Z"/><path class="cls-152" d="M105.25,441.17l-3.74-20c2.7-1.69,3.57.7,4.78,2.2,1.87,2.31,2.66,5.33,4.87,7.42q1.25,7.07,2.48,14.12C109.07,447.64,108.52,441.33,105.25,441.17Z"/><path class="cls-153" d="M200.41,319.12c-1.32,6.75-7.77,3.39-11.32,5.76l-8.3-4.68c-3.83-5.88,1.66-5.85,4.68-7.39C190.91,313.82,195.68,316.42,200.41,319.12Z"/><path class="cls-154" d="M427.9,429.53l-7.07,5.64q.18-5.64.37-11.28c1.19-2.75-.09-5.75.86-8.53,2-2.38,4-4.63,7.45-2.48-.1,3.23-.21,6.47-.31,9.71C427.81,424.73,429.65,427.47,427.9,429.53Z"/><path class="cls-155" d="M471.26,379.27l-5.65,7.08L462.82,378A32.1,32.1,0,0,1,461,371c-.47-3.42-.16-7.14,5.19-5.86Q468.74,372.19,471.26,379.27Z"/><path class="cls-156" d="M501.82,337.4q2.12,6.28,4.24,12.58c-1.88,3.62.11,8.67-4.2,11.4q-2.81-8.31-5.63-16.62C495.76,340.53,496.45,337.19,501.82,337.4Z"/><path class="cls-94" d="M182.31,345.62l11.4-4.14,6.9,11.18-7.45,1.55Q187.75,349.91,182.31,345.62Z"/><path class="cls-157" d="M94.37,203.52c0-2.9-.07-5.81-.11-8.71L97.78,192c1.89-.72.25-3.3,2.12-4l4.36-2.74C109.23,195.83,103.22,200.44,94.37,203.52Z"/><path class="cls-158" d="M172.47,320.68c-4.19,1.22-8.63,3.62-11.33-2.35-1.51-3.78.72-5.55,3.71-6.92,4.27-.82,8.55-1.74,12.92-.5,3.42,1.88,1.69,4,.24,6S174.19,319.25,172.47,320.68Z"/><path class="cls-159" d="M27.09,359.83l4.31-5.64c.37-.58.77-.57,1.18-.05l9.07,11c-.8,2.78.68,7.54-5.15,6Z"/><path class="cls-160" d="M402.75,471.17q1.37,5.68,2.74,11.37c-1.79,5-4,9.59-9.56,11.41-2.7-2.06-2.25-4.79-1.65-7.56Q398.51,478.77,402.75,471.17Z"/><path class="cls-161" d="M59.21,250.81q-3.39,6.29-6.79,12.58a19.41,19.41,0,0,1-.16-10.34v-9.14c5.73-1.31,3.23-5.52,3.12-8.88,3,2.75,6.07,5.51,5.22,10.25C59.33,246.92,61.08,249.32,59.21,250.81Z"/><path class="cls-162" d="M113.34,308.25c7.83-.76,11.17-5.61,11.77-12.94L136.45,308a7.93,7.93,0,0,1-6,4.7C126,306.17,118.72,310.91,113.34,308.25Z"/><path class="cls-163" d="M74.36,182.24c2.35-1.14,5.85,3.84,7.45-1.38,1.83,10.09-8.24,8.6-12.46,12.81-4.16,0-5.86-1.77-4.45-5.92Z"/><path class="cls-164" d="M333,225.67,342.8,224l-5.75,14.18c-2.64.85-4.77,2-5.18,5.27-.2,1.56-.36,4.71-3.68,2.6-2.63-5.26-2.14-10.66-.51-16C328.41,227.78,329.79,225.5,333,225.67Z"/><path class="cls-165" d="M54.08,129.45,30.55,141.31c4.73-7.43,5.17-13.5,12.15-14.56C46.77,126.48,51.06,125.29,54.08,129.45Z"/><path class="cls-166" d="M194.77,109.64l12.62-5.32c2.74,3.25.23,5.73-1.23,8.36l-15.49,6.72C189.23,115,192.51,112.52,194.77,109.64Z"/><path class="cls-167" d="M213.37,77.61q1.26-6.39,2.51-12.76c3.75,8.77,12.48,17.84-1.5,25.58-2.48-2.52-1.65-5.55-1.33-8.5Z"/><path class="cls-168" d="M181.08,521.56l33.27,10.08-.78,2.76-34.09-10.08C178.58,522.56,178.52,521.3,181.08,521.56Z"/><path class="cls-169" d="M88.47,397.9l-9.88-10a7.11,7.11,0,0,1,4.51-7.05l10.33,10.85C92.51,394.34,91.6,397,88.47,397.9Z"/><path class="cls-170" d="M130.4,312.69l6-4.7,7,9.34c.7,3.8-1.34,5.64-4.69,6.53Z"/><path class="cls-171" d="M111.16,430.77l-9.65-9.62c0-.48,0-1,0-1.45,1.34-3.89-2.08-9.51,4.23-11.58C111.51,414.72,108.91,423.33,111.16,430.77Z"/><path class="cls-172" d="M207.29,127.68c4.08-4.25,9.23-2.48,14.07-2.48,2,2.57,1.71,5-.45,7.31-2.11,1.78-5,1.45-7.3,2.72-3.08.79-5.92,3.42-9.39,1.22C202.66,132.63,205.34,130.28,207.29,127.68Z"/><path class="cls-173" d="M130.53,154.28l-1.26,8.77-12.63,6.58c.47-3.12.93-6.24,1.4-9.36Z"/><path class="cls-174" d="M253.66,95.91l2.68,11.37c1,4.56-1.69,7.82-4.06,11.12-.92,1.28-2.32,2.39-3.94.6a17.17,17.17,0,0,1-.55-12.22Z"/><path class="cls-175" d="M127.85,359.61l-7.17,17.28-5.46-4.52c-2-6.19,2.34-9.79,5.62-13.83Z"/><path class="cls-176" d="M453,280.14l-.07,2.84c-1.24,3.7,0,7.57-.75,11.32-1.3,4-3.71,4.82-7.23,2.59q0-7,0-14c.42-.9.78-1.82,1.29-2.68Q449.55,276.3,453,280.14Z"/><path class="cls-177" d="M57.8,330.51,64.21,326l7.73,10.09c.36,3.47-.42,6-4.66,5.77Z"/><path class="cls-178" d="M441.79,440.21c.06-1.7.12-3.4.19-5.11,1.55-2.57,2.95-5.39,7.31-4,.41,3.74.75,7.56-.25,11.4l-2.92,7-4.2-1.75A10.48,10.48,0,0,1,441.79,440.21Z"/><path class="cls-179" d="M85.89,217.45c2.93-.86,6.33-1.39,4.28-5.89L100,222.74c1.68,3,0,4.8-2.42,6.24a2.19,2.19,0,0,1-2.06-.4Z"/><path class="cls-180" d="M303.87,486.77c-4.32-.53-5.79-3.35-5.87-7.29-2.65-4.22-1.33-7.8,1.78-11.09,5.8,2.09,11.06,4.77,12.55,11.56a1.64,1.64,0,0,1-2,0l-2.53-1.88c-3.61.07-1,3.54-2.6,4.73Z"/><path class="cls-181" d="M465.73,403l7.13-7-1.41,25.47a3.28,3.28,0,0,1-1.36-1.25c-.53-3.3-3.24-3.93-5.82-4.71q.11-3.52.19-7C465.71,406.89,464.13,404.59,465.73,403Z"/><path class="cls-182" d="M366.29,449.94q1.57,4.57,3.14,9.15l-8.31,10.07c-2.65-1.68-3.46-4.37-4-7.22C358.89,457,360.6,451.93,366.29,449.94Z"/><path class="cls-183" d="M393.29,372.29l6.7-2.79,6.09,15.17c-4.67,5-6.3-.54-8.94-2.57Q395.21,377.19,393.29,372.29Z"/><path class="cls-184" d="M360.89,486.63l9.78-8.4c5.28.72,5.49,3.46,2.93,7.32l-11.19,9.76C360.24,492.71,360.28,489.72,360.89,486.63Z"/><path class="cls-185" d="M101.31,250.85l-7,7q.61-7.68,1.22-15.35c2.31-1.77,2.72-7.45,7.7-3.74.14,1.91.35,3.83-.4,5.68-.1,2.14-.19,4.28-.29,6.42C102.16,251.57,101.75,251.58,101.31,250.85Z"/><path class="cls-186" d="M444.82,397.45l7-4.23-.33,9.83c-1.19,2.32.21,5-1,7.33a6.07,6.07,0,0,1-7.15,1c.06-2.34.13-4.68.19-7C444.91,402.24,443,399.5,444.82,397.45Z"/><path class="cls-187" d="M164.11,132.16l-1.68-2c4.43-5.39,7.55-12.31,15.61-13.52,2.36,3.21,0,5.45-1.68,7.74-1.83,2.49-4.36,4.49-5.34,7.59l-.08.1a4.93,4.93,0,0,1-2.43,1.3C166.82,133.77,165.46,133,164.11,132.16Z"/><path class="cls-188" d="M334.75,530.25l-15.66,2.4q-.7-.64-1.44-1.26c-1.65-2-3.35-4.06-1.35-6.82l1.43,0c3.78,1.45,7.86-.3,11.65,1.09l2-1.36C335.53,524.62,334.86,527.59,334.75,530.25Z"/><path class="cls-189" d="M360.54,200.48c.89-3.12,1.78-6.24,2.69-9.41l6,1.14c.1,3.74.19,7.49.29,11.23-2.73,2.08-6.24,1.56-9.27,2.74-2.4.93-4.05-.14-3.65-3.08Z"/><path class="cls-190" d="M172.56,34.61c.38-3,.77-6.05,1.16-9.08q5.64-4,11.27-8c3.57,3.84.31,6.75-1.33,9.88Z"/><path class="cls-191" d="M334.75,530.25l-3.33-5.91c1.14-4.14,0-10,7.25-9.5a4.78,4.78,0,0,1,3,4.36,6,6,0,0,1-1.6,4.1C339.53,526.55,339.9,530.52,334.75,530.25Z"/><path class="cls-192" d="M393.14,496.72,383.45,505c-5.31-1.91-3-5.21-1.54-8.37l9.77-8.39C394.28,490.7,394.56,493.56,393.14,496.72Z"/><path class="cls-193" d="M146.05,495.11c-.53-.37-1.05-.75-1.57-1.13-1.86-7.62,2.4-15.1,9-15.77l2.45,1.06C157,487.36,152.49,494.57,146.05,495.11Z"/><path class="cls-194" d="M102.6,238.26l-7,4.19c.12-2.34.23-4.68.35-7,1.34-2.15-.42-4.83,1.2-6.93,1-1.92,1.91-3.83,2.86-5.75,5.23,2.43,5,6.77,4,11.36C102.8,235.27,104.07,237.2,102.6,238.26Z"/><path class="cls-195" d="M381.91,496.63c.51,2.79,1,5.58,1.54,8.37l-11.26,9.87c-3.33-3.27-2-6.56-.05-9.86Z"/><path class="cls-196" d="M516.15,316.48q0-6.3,0-12.59c2.42-2.21,5-3.51,8.14-1.41,2.19,3.78,3.3,7.53-.17,11.21C522.05,316.34,520.63,320.76,516.15,316.48Z"/><path class="cls-197" d="M144.87,296.86l-9.09-8.12a13.28,13.28,0,0,1,7.62-6.43c5.76,1.59,8.55,5.52,8.94,11.34a6.55,6.55,0,0,1-2.75,3C148.05,297.53,146.49,298.3,144.87,296.86Z"/><path class="cls-198" d="M429.51,412.88l-7,2.7c-1.39-1.93-1-3.95-.28-6,.1-3.13.21-6.26.31-9.39.4-.75.81-.75,1.22,0l5.59-2.79a39.68,39.68,0,0,1,.08,15.47Z"/><path class="cls-199" d="M178.26,486.7l6.88,9.69c.41,3.46-1.81,5-4.5,6.24l-6.9-9.88C172.54,488.72,172.37,485.45,178.26,486.7Z"/><path class="cls-200" d="M105.25,441.17l.44-2.85,8,6.57q.78,5.58,1.58,11.16l-8.32-4.17Z"/><path class="cls-201" d="M79.12,231.22l-4.55,6.09q-4.12-5-8.24-10l4.4-5.86Z"/><path class="cls-202" d="M194.89,503.38l9.66,3.13c.77,1.74-.67,2.73-1.34,4h0c-1.86,1.14-3.6,2.77-6.07,1.57l-9.28-3C186.36,502.37,190.55,502.78,194.89,503.38Z"/><path class="cls-203" d="M59.49,288.3l10.25,11.16c-1.06,3-2,6.24-6.4,4.53l-6.83-8.26C55.63,292.5,56.9,290.14,59.49,288.3Z"/><path class="cls-204" d="M231.06,37.18l1.44,8.16-9.8,7.12c-.5-2.79-1-5.57-1.51-8.36Z"/><path class="cls-205" d="M396.13,242.5l6.81,4.29q-1.53,5.51-3.05,11c-3.36,1.28-5.75.18-7.3-3Z"/><path class="cls-206" d="M162.57,162.48,153,185.29c-2,4.23-3.84,2.53-5.61-.19l5.49-11.37Z"/><path class="cls-207" d="M59.49,288.3q-1.5,3.7-3,7.43l-5.61-8.28,7.26-14.25C59.13,278.19,54.56,283.66,59.49,288.3Z"/><path class="cls-208" d="M278.59,13.34l-6.83,4.82c-3.28-3.86.6-6.88,1.19-10.29C276.41,5,279.68.88,284.42,6,286.1,11.36,282.86,12.77,278.59,13.34Z"/><path class="cls-209" d="M115.05,264.76q.21-4.18.43-8.39c.89-1.55.15-3.42,1-5,1.56-4,5-7.06,6-11.46.33-1.5,1.63-3,3.51-1.08,2.52,5.2.34,10.23-.52,15.31a26.36,26.36,0,0,1-2.08,5.07C120.84,261.47,119.48,265.41,115.05,264.76Z"/><path class="cls-210" d="M17.44,315.08q2.13-3.39,4.27-6.78L30,318.23c.1,3.21.56,6.66-4.3,6.7Z"/><path class="cls-211" d="M143.37,282.41l-7.59,6.33-6.81-5.3c-.93-3.58,1.39-5.17,4-6.59C137.22,277.25,140.87,278.74,143.37,282.41Z"/><path class="cls-212" d="M466.2,365.11c-7.45,2.65-2.35,8.59-3.38,12.93l-6.72-18.32c1.87-1.89,1.14-6.34,5.6-5.69Z"/><path class="cls-213" d="M320.51,493.87l2.77,6.82c-.1.83-.93,1-1.37,1.55-.9,2.84-1.79,5.69-2.69,8.53q-2.22-4.45-4.43-8.9C315.31,498.21,315,493.94,320.51,493.87Z"/><path class="cls-214" d="M128.84,73.36l5-.3-.3,5-.95,1.16c-2.14,1.35-3.35,3.51-4.77,5.49L125,87.49c1.72-4.23-1.86-4.46-4.23-5.6Q124.81,77.62,128.84,73.36Z"/><path class="cls-215" d="M493.16,302.69q-2.46-5.71-4.93-11.42c1.48-3.31,3.58-5.07,7.26-2.93q2,5.64,3.91,11.28C497.94,301.9,496.18,303.57,493.16,302.69Z"/><path class="cls-216" d="M330.05,247V235.33l7,2.89c.1,2.68.21,5.35.32,8,.7,2,1,4-.21,6l-7-2.79A1.79,1.79,0,0,1,330.05,247Z"/><path class="cls-217" d="M516.15,316.48l8-2.79c-.37,3.29-.74,6.59-1.1,9.88l-8.67,8.58Q515.25,324.32,516.15,316.48Z"/><path class="cls-218" d="M54.08,129.45l-11.38-2.7,13.92-7c2.21,1.62,5,2.65,5.94,5.61Z"/><path class="cls-219" d="M65,115.59l9.58-4.71c3,1,8-1.62,8.5,4.32l-12,6C67.67,120.84,65.84,118.76,65,115.59Z"/><path class="cls-220" d="M356.64,203.1l12.92.34-2.86,5.09c.43,1.33,1.27,2.49,1.55,4.29a8,8,0,0,1-7.62.47C359,210,354.6,207.82,356.64,203.1Z"/><path class="cls-221" d="M467.42,264.68l8-2.68q-.57,7.86-1.16,15.72c-2.82-1.44-5.45-3.11-7.11-5.94Z"/><path class="cls-222" d="M123.54,421.15l8.22,2.74.48,9.76c-2,2.29-4.32,2.66-7,1.41Q124.39,428.1,123.54,421.15Z"/><path class="cls-223" d="M64.9,187.75c1.48,2,3,3.94,4.45,5.92l-12.67,7.08,1.29-8.7Z"/><path class="cls-224" d="M211.29,51c.46,5.8,2.47,11.83-2.39,16.89C205.12,61.65,200.1,55.2,211.29,51Z"/><path class="cls-225" d="M83.11,349q-1.47,4.17-3,8.33l-8.5-10.09c.84-2.66,1.84-5.21,4.49-6.65Z"/><path class="cls-226" d="M44,335.05c-.51,3.33-1,6.65-1.54,10L34.11,335a6.05,6.05,0,0,1,3-7.53Z"/><path class="cls-227" d="M139.14,348.22l8.39,9.78c.52,4.07-1.48,5.81-5.37,5.8l-6.07-8.07C135.26,352.48,136.44,350,139.14,348.22Z"/><path class="cls-228" d="M420.89,362.5l-8.07,1.37q-1.57-5.37-3.16-10.76l7-3.13Z"/><path class="cls-229" d="M373.1,378l9.18,2.58,2.61,8.45-7.21,1.49C372.08,387.84,371.55,383.3,373.1,378Z"/><path class="cls-230" d="M101.51,304.74q-1.62,4-3.22,8.1l-7-8.46c-.87-3.48.14-6.21,3.23-8.12Q98,300.51,101.51,304.74Z"/><path class="cls-231" d="M501.86,361.38l4.2-11.4,4,11.22-5.37,8.48C503.73,366.91,502.8,364.14,501.86,361.38Z"/><path class="cls-232" d="M197.62,17.58l-8.32,5.86c-3-2.86-1.64-5.77-.1-8.68l11.18-5.65C202.44,12.91,199.09,14.94,197.62,17.58Z"/><path class="cls-233" d="M238.15,123.86l6.8-11.6c3.68,2.93,1.37,7.39,2.81,10.89.23,4.19-1,7.68-4.79,9.91a4.51,4.51,0,0,1-3.31-.22c-2.21-1.86-2.33-4.45-2.42-7A3.57,3.57,0,0,1,238.15,123.86Z"/><path class="cls-234" d="M176.63,437.9h-8.1l-1.41-9.81c1.64-3.74,3.95-4.26,6.94-1.42Q175.35,432.28,176.63,437.9Z"/><path class="cls-235" d="M218.61,389.16v-5.94c-4.48,6.72-13.48,7.18-12.77,16.09-5.16-8.21,6.55-10.62,5.95-17.26l8.07-4.19C222.66,382,224.18,386,218.61,389.16Z"/><path class="cls-236" d="M50.58,421.39l-6.72-8.2c-.07-3.93-1.4-7.9.26-11.79l8.37,11.21C52.83,415.74,56.66,419.64,50.58,421.39Z"/><path class="cls-237" d="M109.45,326.33c1.61-2,.81-7.26,6-4.35,3.06.16,6.87-1,7.14,4.08-.44,2.72-.6,5.57-3.2,7.36Z"/><path class="cls-238" d="M245.05,36.89c0-3.16,0-6.32,0-9.48l9.78-7.12c4.05,4,.16,7.1-1.16,10.5Z"/><path class="cls-239" d="M447.57,259.23l6.8,1.37c0,.49-.05,1-.07,1.45-1.11,3.39-.18,6.88-.55,10.3-2.15,2.81-4.9,3.26-8.07,2a3.69,3.69,0,0,1,.31-2.94l.33-8.09C447.38,262.17,446.18,260.3,447.57,259.23Z"/><path class="cls-240" d="M489.18,260.42l7,.21c.84.4.95,1,.34,1.66l-1.35,19.54a4.38,4.38,0,0,1-2-3.27c.2-3.62-1.74-5.7-5-6.83,0-1,.09-1.92.14-2.88,1-2.72-.38-5.71,1-8.39Z"/><path class="cls-241" d="M32.87,388.07l7,8.38c1.83,3.67,2.14,7.11-1.58,9.89q-4-5.19-7.91-10.39C30.68,393.16,30.19,390.11,32.87,388.07Z"/><path class="cls-242" d="M76.2,133.74l5.7,5.89L72,143.49l-4.25-5.65Z"/><path class="cls-243" d="M397.14,382.1l8.94,2.57q1.2,3.56,2.38,7.09c.42.39.53.75.35,1.07s-.35.46-.52.46l-6.87,1.4Q399.29,388.41,397.14,382.1Z"/><path class="cls-244" d="M165.61,417q-.75-4.87-1.49-9.77c1.87-2.54,4.07-3.46,6.87-1.39q1.26,5.58,2.53,11.16C170.88,419.45,168.25,419.13,165.61,417Z"/><path class="cls-245" d="M436.35,458.85l-10.94,13.92C421.45,462.14,425.89,458.13,436.35,458.85Z"/><path class="cls-246" d="M106.88,118.39,111,125l-9.57,4.44L95.73,124Z"/><path class="cls-247" d="M51.1,377.7l5.61,6.91c1.54,3.34,1.41,6.39-1.59,8.92l-9.86-11.4A9.21,9.21,0,0,1,51.1,377.7Z"/><path class="cls-248" d="M194.89,503.38c-3.18.85-6.82,1.11-7,5.65l-7.21-6.4,4.5-6.24Z"/><path class="cls-249" d="M138.77,323.86l4.69-6.53,5.46,8.58c.84,3.27-.39,5.7-3,7.56Z"/><path class="cls-250" d="M65,115.59l6.06,5.62-8.53,4.12c-2.32-1.52-6.45-1.1-5.94-5.61Z"/><path class="cls-251" d="M143.14,410h6.79q.9,3.24,1.78,6.48c.29,6.43-.66,7.07-7,4.68Z"/><path class="cls-252" d="M62.35,391.5l7,8.39c1.46,3.41,3.66,7.12-2.93,7.3q-2.84-3.39-5.68-6.79C59.9,397.19,59.23,394,62.35,391.5Z"/><path class="cls-253" d="M142.16,363.8l5.37-5.8,8.15.61c-.84,2.74-1.68,5.49-2.51,8.23C148.64,368.93,144.62,369.21,142.16,363.8Z"/><path class="cls-254" d="M86.1,287.05q2.76,3.42,5.5,6.85c1.39,4,.66,6.5-4.3,5.88q-2.82-3.43-5.63-6.86C80.28,288.8,81.94,287,86.1,287.05Z"/><path class="cls-255" d="M359.57,294.11l6.83,2.79c1.08,1,.88,2.05.28,3.16-.05,2.2-.09,4.41-.14,6.61-2.87,2.16-5.42,1.67-7.72-.93-1.43-2.25-1.17-4.79-1.27-7.27A5.39,5.39,0,0,1,359.57,294.11Z"/><path class="cls-256" d="M316.3,524.57q1.38,3.43,2.78,6.87a19.27,19.27,0,0,1-11.18,0c-.83-1.64-2.8-4-2.3-4.8C308.21,522.37,312.52,524.43,316.3,524.57Z"/><path class="cls-257" d="M220,132l1.41-6.84,9.51-.22a1.69,1.69,0,0,1,2.32.48c1.51,2.64,1.41,5.12-.71,7.41C228.18,134.53,223.92,135.38,220,132Z"/><path class="cls-258" d="M171,132l7-15.33,6.72-2.81c3.87.4,2.72,2.79,1.53,4.61a15.41,15.41,0,0,1-5.41,5.26Z"/><path class="cls-259" d="M517.19,262c.1,1,.21,2.05.31,3.08l-.3,6.66c-2.17,2.38-4.26,5-8,2.79l.15-2.95c.89-2.79-.39-5.8.89-8.55a.9.9,0,0,1,0-1.07C512.57,260.15,514.89,260,517.19,262Z"/><path class="cls-260" d="M449,442.48V431.05L442,435.1c.07-2.34.13-4.69.2-7,.65-1.24.41-2.79,1.35-3.94,2.18-2,4.41-2.15,6.69-.19Q449.64,433.21,449,442.48Z"/><path class="cls-261" d="M195,423.87l-6.95,1.47-1.38-8.44c1.06-3.13,2.08-6.34,6.52-4.12Q194.1,418.33,195,423.87Z"/><path class="cls-262" d="M109.67,154.41q2.82-7.74,5.66-15.48c4.58,2.35,3.35,6.76,2.62,10C117.14,152.61,113.91,154.85,109.67,154.41Z"/><path class="cls-263" d="M278.59,13.34,284.42,6l6.73,4.7c1.87,3.69,1.67,6.47-3.19,7.16Z"/><path class="cls-264" d="M128.22,380.53l5.52-5.61,5.08,7.19-4.06,7Z"/><path class="cls-265" d="M50.58,421.39q1-4.39,1.91-8.78l7,8.37c1.92,2.95,2,5.52-1.53,7.33Z"/><path class="cls-266" d="M180.88,123.72c.76-3.49,6.65-5,3.88-9.87l10-4.21q-2.06,4.88-4.1,9.76Z"/><path class="cls-267" d="M146.05,495.11c6.22-3.45,7.64-9.9,9.88-15.84l4,7.48c-2.65,3-4.47,6.52-7,9.54Z"/><path class="cls-268" d="M337.23,109.9c-.93,2.25-1.85,4.5-2.78,6.76a10,10,0,0,1-8.33.12C323.15,103.71,333.09,111.49,337.23,109.9Z"/><path class="cls-269" d="M502.12,319.7c-2.2-10.37-5.68,2.19-8.31-.46l2.25-9.65c1-2.71,2.25-5,5.75-4.28C505,310,504,314.86,502.12,319.7Z"/><path class="cls-270" d="M494.88,277.36c.09,1.49.18,3,.28,4.47l.33,6.51-7.26,2.93-.36-2.38a16.42,16.42,0,0,1,0-9.14.78.78,0,0,1,0-1C490,277,492.05,275.28,494.88,277.36Z"/><path class="cls-271" d="M38.25,406.34c.53-3.3,1-6.6,1.58-9.89l4.29,4.95c1.67,4,3.14,7.93-.26,11.79Z"/><path class="cls-215" d="M474.07,313.65l-1.6-6.37c-1.14-4-.62-6.86,4.57-6.29q2.08,4,4.16,8a2.28,2.28,0,0,1,.14,2C479.33,313,477.49,315.52,474.07,313.65Z"/><path class="cls-272" d="M86.1,287.05q-2.22,2.93-4.43,5.87L74.6,284.4c4.23-.88,4.07-4.4,4.55-7.55Z"/><path class="cls-273" d="M62.35,391.5q-.81,4.46-1.64,8.9l-5.59-6.87,1.59-8.92Z"/><path class="cls-274" d="M193.2,412.78l-6.52,4.12c-.46-2.79-.92-5.59-1.39-8.38.89-3.72,1.09-8.13,6.91-7Q192.7,407.17,193.2,412.78Z"/><path class="cls-275" d="M340,518.88l-1.35-4,11.15-.05c2.73,1.91,5.18,3.89,2.18,7.46C348,521.32,342.53,525.27,340,518.88Z"/><path class="cls-276" d="M88.47,397.9l5-6.22L97.34,397c-.37,3.14,2.15,7.27-3,8.81Z"/><path class="cls-277" d="M165.61,417h7.91l.54,9.71-6.94,1.42Q166.37,422.53,165.61,417Z"/><path class="cls-278" d="M228.26,13.29l-1.35,9.79L220,27.62c-2.57-2-2.15-4.64-1.75-7.31Z"/><path class="cls-268" d="M313.42,36l3-7.46q4.08,3.06,8.18,6.1-.72,4.14-1.43,8.28Z"/><path class="cls-279" d="M66.39,407.19c4.35-1.08,2.2-4.77,2.93-7.3q3.47,2.12,6.94,4.22l-1.68,10.61Z"/><path class="cls-280" d="M192.2,401.56l-6.91,7q-.71-5.55-1.42-11.11l6.85-5.77Q191.46,396.59,192.2,401.56Z"/><path class="cls-281" d="M51.1,377.7l-5.84,4.43L41,376.61c-.07-3.14.17-6.16,3.06-8.2Z"/><path class="cls-282" d="M136.09,451.87,132,450.46c-1.08-1.37-3.11.09-4.16-1.39l-1.35-8.37c3.15-2.11,5.71-.79,8.11,1.4Q135.35,447,136.09,451.87Z"/><path class="cls-283" d="M124.82,238.26c-1,5.6-2.79,10.79-8.06,14-1.35-2-.89-4-.28-6.06.09-1.7.19-3.4.28-5.1l8.19-5.58A1.85,1.85,0,0,1,124.82,238.26Z"/><path class="cls-284" d="M165.71,311.72c-1.52,2.21-3.05,4.41-4.57,6.61l-5.52-7.18c-1.65-3.72.41-5.49,3.52-6.72C163.67,304.75,165.47,307.53,165.71,311.72Z"/><path class="cls-285" d="M342.85,500.6q-.72-3.44-1.43-6.87l9.75-.05c2.85,1.95,5.2,4,2.16,7.64C349.83,501.11,346.24,502.27,342.85,500.6Z"/><path class="cls-286" d="M93,328.76l6.8,7.52c-.13,3.63-.65,6.86-5.65,5.36L90,336.18C89.07,332.93,90.1,330.47,93,328.76Z"/><path class="cls-287" d="M171,405.8l-6.87,1.39c-.45-2.79-.89-5.59-1.34-8.38l7.14-3.14C170.27,399.05,170.63,402.42,171,405.8Z"/><path class="cls-288" d="M443.37,425.33c-.4.91-.79,1.83-1.19,2.74q.57-8.34,1.13-16.69l6.88-1.39c1.4,2.32,1,4.71.24,7.11l0-.06A18.47,18.47,0,0,0,443.37,425.33Z"/><path class="cls-289" d="M477,301c-1.52,2.1-3.05,4.19-4.57,6.28q-2.09-5-4.15-10c-1.06-5.12,2.17-4.94,5.59-4.52Q475.48,296.87,477,301Z"/><path class="cls-290" d="M273,7.87q-.6,5.15-1.19,10.29l-7.06,3.9c-2.75-4.34.55-7.14,2.63-10.26Z"/><path class="cls-291" d="M83,327.7q-2.08-2.61-4.15-5.23c-1.33-3.45-.69-6.13,3-7.58L87.3,321C89,325.28,88.94,328.42,83,327.7Z"/><path class="cls-292" d="M201.61,459l7.43-3,3.86,5.86c-1.27,2.79-2.92,5-6.5,4Q204,462.38,201.61,459Z"/><path class="cls-293" d="M392.59,254.8l7.3,3c1,1.38,2.09,2.76,3.13,4.15l-7.27,3.14C391,262.78,388.35,259.85,392.59,254.8Z"/><path class="cls-294" d="M535.63,290.3c-5-3-5.94-7.7-5.49-13,.69-1.78.72-4.29,3.34-4.32,1.73,0,2.66,1.37,2.67,3.18C535.9,280.87,536.76,285.63,535.63,290.3Z"/><path class="cls-295" d="M221.35,475.61l8.31-5.38,7.05,2.59-8.3,5.35Z"/><path class="cls-296" d="M474.07,313.65l6.95-2.78a6.47,6.47,0,0,1,.12,5.89l-1.29,2.51-7.71,2.57Q473.12,317.75,474.07,313.65Z"/><path class="cls-297" d="M122.17,259.16l1.28-4.16c3.6,4,2.5,9.26,3.91,13.86-.94,5.86-4,5.83-8.18,3-1.16-1.43-2.32-2.87-3.49-4.3C118.05,264.92,120.57,262.39,122.17,259.16Z"/><path class="cls-298" d="M63.34,304l6.4-4.53,3.71,5.65c.88,3.23.55,6-3,7.43Z"/><path class="cls-299" d="M123.6,495.23c1-2.85,2-5.69,3-8.53l5.56,8.19c.28,3.23-.06,5.84-4.42,4.48Z"/><path class="cls-300" d="M373.6,485.55l-2.93-7.32L378.9,471c4.89,2,1.53,5.95,2.08,9Z"/><path class="cls-301" d="M148.76,295.51l3-1.46c4.67,0,5.84,3,6,6.94-1.3,2.33-2.47,4.78-5,6.18l-5.61-7.36A8,8,0,0,1,148.76,295.51Z"/><path class="cls-302" d="M62.55,369.48l-3.25-4c-.87-3.23-.54-6,3-7.42l5.49,5.9c1.39,2,1.9,4.14,0,6.13S64.17,370.72,62.55,369.48Z"/><path class="cls-303" d="M177.81,461.77l4.44-6.86q3,4.69,6,9.4a12,12,0,0,1-4.64,5.91Z"/><path class="cls-304" d="M134.6,442.1l-8.11-1.4c-.42-1.88-.83-3.76-1.25-5.64l7-1.41C133,436.47,133.82,439.28,134.6,442.1Z"/><path class="cls-305" d="M83.1,380.83l-4.51,7.05-6.79-7.16c2.64-1.47,2.61-4.65,4.34-6.71Z"/><path class="cls-306" d="M119.37,333.42q1.59-3.69,3.2-7.36l5.45,7.05c-.82,3-1.55,6.07-5.86,4.31Z"/><path class="cls-307" d="M45.33,148.66c1.46,2,2.91,4,4.37,6A60.77,60.77,0,0,1,42,157c-.48.09-2.19-2.66-1.92-3A50.46,50.46,0,0,1,45.33,148.66Z"/><path class="cls-308" d="M152.76,429.53l2.81,9.74c-3,1.49-5.71.8-8.13-1.36-.07-.79-.15-1.58-.22-2.37C146.44,428.21,146.62,428,152.76,429.53Z"/><path class="cls-1" d="M422.67,165.66h1.12q-2.79,4.89-5.59,9.78c-.58,2.15-2.68,2-4.18,2.79-3.38,2.57-7.2,4.81-7,9.9C405.47,175.93,419.13,174.33,422.67,165.66Z"/><path class="cls-309" d="M253.4,489.75c.95-4.45,4.56-2.51,7.16-3l6.72,8.43-11.58-2.67Z"/><path class="cls-60" d="M535.45,274.58l-5.31,2.72q.48-5.55,1-11.11c1.62-1.25,3-3.32,5.48-1.4v9.77C536.23,275.3,535.85,275.3,535.45,274.58Z"/><path class="cls-310" d="M169.46,486.9l-4.05-5.67c.19-3.26.93-6.2,4.48-7.44l5.24,7.78C174.76,485,173.27,487.17,169.46,486.9Z"/><path class="cls-311" d="M37.13,327.43q-1.52,3.76-3,7.53l-5.93-7.11c1.13-2.5.7-6.33,5.13-6Z"/><path class="cls-312" d="M139.14,348.22c-1,2.5-2,5-3,7.51l-4.17-5.57c-1.8-3.66-.95-6.24,3.07-7.54Z"/><path class="cls-313" d="M145.87,333.47q1.53-3.78,3-7.56l5.41,5.9c-.06,3.56-.27,7-5.44,5.53Z"/><path class="cls-314" d="M474.12,345.75q2.1-4.29,4.19-8.56l2.82,8.38c-.45,3.68.66,8-4.1,9.91Z"/><path class="cls-315" d="M162.72,344.15l-8.37.14c-1.87-4.26,1.37-5.37,4.16-6.76l8.35-1.32C167.74,340,164.94,341.94,162.72,344.15Z"/><path class="cls-316" d="M169.89,473.79q-2.25,3.72-4.48,7.44l-3.82-5.73q1.92-4,3.86-8.1Z"/><path class="cls-317" d="M360.89,486.63c.51,2.89,1,5.79,1.52,8.68l-4,4.14c-4.61-.83-2.78-4.58-3.31-7.27Z"/><path class="cls-318" d="M196.24,94.31l4.09-10.18,2.65-.95a3.31,3.31,0,0,1,3.1-.23c2.09,2.32,1.71,4.63,0,6.93a12.34,12.34,0,0,1-2.84,1.58Z"/><path class="cls-319" d="M76.15,340.62l-4.49,6.65-4.38-5.44,4.66-5.77Z"/><path class="cls-320" d="M62.55,369.48c5.57,1.84,5.29-1.92,5.23-5.47l4.4,4.87c1.16,3.67,2,7.19-3.54,7.85Z"/><path class="cls-321" d="M432.25,271.77l-6.55.66L424,280.08q.51-9,1-18.05l7,5.55c1.08,1,.87,2.06.28,3.18A.84.84,0,0,1,432.25,271.77Z"/><path class="cls-322" d="M274.18,32.92l7.28-2.83c1.84,3.82-.73,6.28-2.73,8.92l-5.64,4.05C269.57,39.26,273.47,36.26,274.18,32.92Z"/><path class="cls-323" d="M105.72,408.12l-4.23,11.58-3.11-8.25c.58-3.13-2.56-7.7,3.39-8.72C103.09,404.53,104.41,406.32,105.72,408.12Z"/><path class="cls-324" d="M288,17.9c1.06-2.38,2.13-4.77,3.19-7.16l5.63,4c-.49,2.88-1,5.75-1.48,8.63Z"/><path class="cls-325" d="M183.6,470.22c-.1-3.26.93-5.64,4.64-5.91l3.78,4.57c.89,4.55-.75,6.5-5.46,5.28Z"/><path class="cls-326" d="M352.6,521.61c-.93-2.28-1.85-4.55-2.78-6.82l9.75,0a6.44,6.44,0,0,1,1.65,7.16l-.09-.08C358.27,522.55,355.41,522.88,352.6,521.61Z"/><path class="cls-327" d="M372.14,505c0,3.29,0,6.57.05,9.86-1.39,1.4-2.78,2.79-4.16,4.19-4.36-2.25-3.17-5.48-1.57-8.79Z"/><path class="cls-328" d="M509.19,274.56l8-2.79c-.07,1.43-.14,2.86-.2,4.29-.75,4.72-2,8.63-8.12,5.48C509,279.21,509.08,276.89,509.19,274.56Z"/><path class="cls-329" d="M358.11,461.45q1.51,3.85,3,7.71l-7.07,5.22-.26-9.1C354,462.58,355.2,461.06,358.11,461.45Z"/><path class="cls-330" d="M129.08,103.89l3.09,7.4L125,118.06c.78-3,2.28-6.2-2.74-6.82Z"/><path class="cls-331" d="M172.47,320.68q2.66-4.29,5.32-8.56c3.3-3.94,5.7-3.31,7.29,1.43-1.08,2.44-6.14,2.31-4.29,6.65Z"/><path class="cls-332" d="M236.56,59.15q-.7,7.34-1.4,14.68C232.08,68.6,227.1,63.19,236.56,59.15Z"/><path class="cls-333" d="M464.27,415.57l6.81-3v7.29c-1.48,3.58-2.93,7.28-7.3,2.54a4.55,4.55,0,0,1,.35-3.08C464.18,418.08,464.22,416.82,464.27,415.57Z"/><path class="cls-334" d="M158.51,337.53l-4.16,6.76-5.46-7c1.82-1.84,3.63-3.69,5.44-5.53Z"/><path class="cls-335" d="M278.73,39l2.73-8.92,5.73,3.74c.45,3.52.76,6.94-4.56,6.26Z"/><path class="cls-336" d="M119.18,271.87c3.6,1.6,5.87-.18,7.71-3,3.46.78,4.55,3.25,4.6,6.46-1.23,3-2.83,5.31-6.6,3.51Z"/><path class="cls-337" d="M501.81,305.31l-5.75,4.28-2.9-6.9,6.23-3.07Z"/><path class="cls-338" d="M474.16,278.73q-.66,4.23-1.34,8.46c-2.08,1.49-4.16,3.44-6.37.17-.12-2.14-.08-4.29,0-6.44C468,276.65,470.9,277.07,474.16,278.73Z"/><path class="cls-339" d="M535.29,242.42l.33,6.62c1,3.34.63,6.7.22,10.06-1.89,1.18-3.2.84-3.79-1.41.16-3.8-.61-7.64.51-11.39l.33-10.74C537,236.69,533.43,240.5,535.29,242.42Z"/><path class="cls-340" d="M524.27,302.48l-8.14,1.41-1.71-5.56c1.45-3.23,3.48-5,7.08-2.83Z"/><path class="cls-341" d="M81.81,314.89c-1,2.53-2,5.06-3,7.58l-6-7.17c.62-2.71,1.94-4.86,4.73-5.83C79,311.28,80.39,313.08,81.81,314.89Z"/><path class="cls-342" d="M32.87,388.07c-.84,2.63-1.69,5.26-2.53,7.88q-2.79-5.56-5.56-11.13c1-1.73,2.45-2.34,4.37-1.54Z"/><path class="cls-343" d="M68.64,376.73l3.54-7.85,4,5.13c-.19,3.05,3.07,8.33-4.34,6.71Z"/><path class="cls-344" d="M168.49,82.6l3.95-9.33L178,70.46c-.87,2.94-1.75,5.89-2.63,8.83Z"/><path class="cls-345" d="M246.87,123.91,245,112.26l2.84-5.48q.84,6.64,1.67,13.3C249.72,122.11,249.28,123.67,246.87,123.91Z"/><path class="cls-346" d="M464.5,422.56l6.58-2.68c.12.55.25,1.1.37,1.65-.09,2.21-.19,4.41-.29,6.62l-6.87,4.17C463.35,429.05,463,425.78,464.5,422.56Z"/><path class="cls-347" d="M215.42,104l5.79.45c2.28,2.73,1.92,4.93-1.32,6.56l-2.73.3a4.52,4.52,0,0,1-4.58,0c-2-3.06-.93-5.33,1.83-7.18A.73.73,0,0,1,215.42,104Z"/><path class="cls-348" d="M239.48,14.85l2.76-11.33L246.32.8a1.37,1.37,0,0,1,2,.06c2,4.28-1.46,6.87-3.13,10Z"/><path class="cls-349" d="M257.59,44l5.65-3.86c3.28,3.77.72,6.74-1.33,9.78l-5.59,4.21C253.69,50.4,256.57,47.34,257.59,44Z"/><path class="cls-350" d="M104.13,340.5c3.33.62,7.54.9,6.33,5.75-1,4.12-4.58,3.52-7.78,2.28C100.55,345.38,102.6,343,104.13,340.5Z"/><path class="cls-351" d="M83.11,115.2l-8.5-4.32L79,108.6l12.59,2.64Z"/><path class="cls-352" d="M467.07,287.12l5.75.07q.56,2.78,1.09,5.55l-5.59,4.52q-1.23-5.06-2.45-10.12C466.26,286.45,466.66,286.41,467.07,287.12Z"/><path class="cls-353" d="M171.1,158.69h-5.61l9.73-11.19C176.41,152.17,175.37,156,171.1,158.69Z"/><path class="cls-354" d="M512.9,294.62c-.92-2.37-1.84-4.73-2.77-7.1.49-5.07,3.14-5.42,7-3.18l1.45,5.61C517.63,292.68,515.52,294,512.9,294.62Z"/><path class="cls-355" d="M62.29,358.11c-1,2.47-2,4.95-3,7.42L54.77,360c.25-3,.2-6.19,3.24-8.11Z"/><path class="cls-356" d="M310.35,480l1.75-.24c3.15-3.5,7.3-1.71,11-2.08a13.57,13.57,0,0,1,9.91,1.95l15.41.2Z"/><path class="cls-357" d="M494.88,277.36l-7,1.39.3-7C494.9,268.29,495.32,272.31,494.88,277.36Z"/><path class="cls-358" d="M381,480c-.69-3-1.39-6-2.08-9l3.19-5.18,2.82,8.81Z"/><path class="cls-359" d="M101.77,402.73l-3.39,8.72-4-5.68c1-2.94,2-5.87,3-8.81Q99.56,399.84,101.77,402.73Z"/><path class="cls-360" d="M192.31,482.5l-2.88-4.17c.23-3.43,1.77-5.61,5.48-5.7l4,6.08C198.29,482.73,195.61,483.15,192.31,482.5Z"/><path class="cls-361" d="M374.92,259.2h1.52c-.68,4.22-.6,8.89-5.19,11.14-.89.43-3.52-.48-3.57-.94a52,52,0,0,1,.2-7.58C371.16,263.47,372.56,260,374.92,259.2Z"/><path class="cls-362" d="M200.37,42.32c0-3.13-.09-6.25-.14-9.38l5.71-4.29c4.05,4,0,7.1-1.15,10.52Z"/><path class="cls-363" d="M444.94,296.89l6.73-2.79c.4-.74.78-.73,1.13,0l1.71,5.56-6.79,4.19Q446.34,300.39,444.94,296.89Z"/><path class="cls-364" d="M446.33,274.57l6.55-1.4c.85.41,1,1,.36,1.69-.08,1.76-.17,3.52-.25,5.28l-6.84,1.4C445.15,279.19,444.85,276.86,446.33,274.57Z"/><path class="cls-365" d="M67.82,90.45l5.71,5.49L68,98.73c-2.44,0-5.52,1.18-5.81-3Z"/><path class="cls-366" d="M359.6,305.28l6.94,1.39c.55,2.31,1.09,4.61,1.64,6.91l-7.2.07c-2.13-.67-2.83-2.34-3.08-4.35A4.47,4.47,0,0,1,359.6,305.28Z"/><path class="cls-367" d="M153.48,478.21c-7.36,2.77-8.07,9.33-9,15.77l-3.2-5.56q2.4-5.18,4.81-10.37Z"/><path class="cls-368" d="M197.62,17.58l2.76-8.47,7-2.43c1.61,1.21.18,2.86.63,4.24Z"/><path class="cls-369" d="M127.72,499.37l4.42-4.48c2.46,3.3,4.93,6.59,11,14.64Z"/><path class="cls-370" d="M461.7,354c-1.87,1.9-3.73,3.8-5.6,5.69-.68-2.26-1.37-4.52-2.05-6.78,1.78-2.61,2.41-8,7.31-3Z"/><path class="cls-371" d="M144.76,421.15c3.39,0,7.17.66,7-4.68l1.41,8.82c-1.88,3-4.37,3.29-7.3,1.67Z"/><path class="cls-372" d="M342.85,500.6l11.07,0a1.93,1.93,0,0,1,2.75.15l-34.76,1.53c.46-.52.92-1,1.37-1.55Z"/><path class="cls-373" d="M164.11,132.16h4.19c1,1.78-1.19,2.75-1.11,4.3L157.3,148Z"/><path class="cls-374" d="M192.31,482.5l6.58-3.79,3.13,5.18c-3.68.29-4.52,2.76-4.48,5.88Q194.92,486.14,192.31,482.5Z"/><path class="cls-375" d="M62.14,95.73l5.81,3-16.86,9.89Z"/><path class="cls-376" d="M214.41,104.1,212.94,111c-1.48,1.92-3.8.25-5.49,1.29a2.55,2.55,0,0,1-1.29.41l1.23-8.36Z"/><path class="cls-377" d="M147.44,437.91l8.13,1.36q0,3.48,0,7l-7.43-2.6Z"/><path class="cls-378" d="M517.19,262l-6.94,0c.07-1.87.15-3.73.22-5.6C517.15,253,517.71,256.86,517.19,262Z"/><path class="cls-379" d="M374.92,259.2c-1.23,2.36-2.47,4.71-4.36,8.31l-2.68-5.69,2.69-7.23Z"/><path class="cls-380" d="M204.79,39.17l1.15-10.52L210.09,26c3,2.43,3,2.43.08,9.44Z"/><path class="cls-381" d="M210.17,35.44q0-4.71-.08-9.44l5.62-4.31c4,4.18.19,7.38-1.36,10.87Z"/><path class="cls-382" d="M44.05,368.41,41,376.61q-2.25-2.75-4.49-5.5l5.15-6Z"/><path class="cls-383" d="M58,351.84,54.77,360,51,355.57q1.42-4.2,2.87-8.4C55.21,348.73,56.61,350.28,58,351.84Z"/><path class="cls-384" d="M405.55,215.68l5.74,5.85c-.93,2.83-1.87,5.66-2.8,8.5,0-.51-.08-1-.13-1.53-1.54-1.74-2.69-3.76-4.11-5.59-.36-.44-.71-.88-1.07-1.31Z"/><path class="cls-385" d="M436.35,343c-7.15.91-2.11,7.07-4.35,10.1l-2.88-8.26c1.43-2.47,2.87-4.93,4.31-7.4Q434.89,340.2,436.35,343Z"/><path class="cls-386" d="M366.46,510.27q.78,4.4,1.57,8.79l-2.71,1.28c-5.3.86-5.48-2.11-4.48-6Z"/><path class="cls-387" d="M362.44,240c.8-3,5.59-4.78,2.76-8.92l9.66-.93c1.42,3.45-13.26,1.77-2.6,8.17Z"/><path class="cls-388" d="M474.16,278.73l-6.94,1.43c-1.29-1.45-.94-3-.29-4.55.07-1.28.13-2.55.19-3.83,2.55,1.77,7.59.55,7.11,5.94A.84.84,0,0,1,474.16,278.73Z"/><path class="cls-389" d="M104.13,340.5q-.73,4-1.45,8L95.56,343c2.52-1.13,4-4.87,7.68-3A.91.91,0,0,1,104.13,340.5Z"/><path class="cls-390" d="M189.2,14.76c0,2.89.07,5.79.1,8.68l-5.64,3.92c.44-3.3.89-6.59,1.33-9.88Z"/><path class="cls-391" d="M125,218.88c-.41,3-.14,6.7-5.11,5.49l-3.58-4.13,6.44-4.49C124.65,216,125,217.28,125,218.88Z"/><path class="cls-392" d="M443.37,425.33c-.63-5.33,1.36-8.42,7.1-8.29-.08,2.3-.17,4.6-.25,6.9Z"/><path class="cls-393" d="M512.9,294.62l5.64-4.67q1.47,2.78,3,5.55l-7.08,2.83Z"/><path class="cls-394" d="M162.72,344.15l4.14-7.94,5.65-1.69q-2.1,4.2-4.21,8.4Z"/><path class="cls-395" d="M214.35,32.56q.69-5.45,1.36-10.87l2.56-1.38c.58,2.44,1.16,4.87,1.75,7.31Z"/><path class="cls-164" d="M296.77,502.2v6.85a1.83,1.83,0,0,1-2.81,0l-7-6.81c1.46-1.2,3-.9,4.57-.22Z"/><path class="cls-396" d="M169.46,486.9l5.67-5.33q1.56,2.56,3.13,5.13c-3.82.29-4.45,3-4.52,6.05Z"/><path class="cls-397" d="M152.74,307.17c.1-3.31,1-6,4.95-6.24,2.34.56,3,2.05,2.42,4.29-1.5,2-3,3.95-4.49,5.93Z"/><path class="cls-398" d="M135,342.62c-1,2.51-2,5-3.07,7.54l-2.88-4c-1.31-4-2.73-8,4.14-7.41Z"/><path class="cls-399" d="M261.91,50q.66-4.89,1.33-9.78l4.19-2.83c3.42,3.8,1.27,6.84-1.34,9.82Z"/><path class="cls-400" d="M517.09,284.34l-7,3.18c-.41-2-.83-4-1.25-6,4.2.39,6.62-1.87,8.12-5.48Z"/><path class="cls-401" d="M243.67,63.47l-1.53-8.2,4.1-2.83c3.91,2.21,3.91,2.21,1.6,8.35Z"/><path class="cls-1" d="M376.66,23.09l-3.23,3.15-8.3-5.75c-.25-1.39.12-2.16,1.72-1.66Z"/><path class="cls-402" d="M77.56,309.47l-4.73,5.83-2.37-2.76,3-7.43Z"/><path class="cls-4" d="M425.15,179.75l-5.73,1,11.47-15.4C435.37,172.68,421.68,172.8,425.15,179.75Z"/><path class="cls-2" d="M395.76,34.07c-1.32,7.55,1.15,13.64,7.06,18.42C391.24,49.89,394.82,41.47,395.76,34.07Z"/><path class="cls-403" d="M57.94,428.31,59.47,421q.68.16,1.35.27c2.79,1.08,3.37,3.95,4.93,6,.67.61,1.26,1.25.63,2.23l-5.83,1.85Z"/><path class="cls-404" d="M356.67,500.71l-2.75-.14c-.92-2.3-1.83-4.6-2.75-6.89l3.9-1.5,3.31,7.27Z"/><path class="cls-405" d="M261.83,24.5l-4.05,3.39c-3-2.86-.88-6-.45-9l5.84-4.25C265.18,18.25,263.05,21.31,261.83,24.5Z"/><path class="cls-406" d="M266.09,47.16c.45-3.27.89-6.55,1.34-9.82l2.67-1.59c3.22,2.55,3.22,3,.1,9.46Z"/><path class="cls-407" d="M181.08,521.56l-1.6,2.76-10.32-3.72C174.39,516.76,177.74,519.05,181.08,521.56Z"/><path class="cls-408" d="M93,328.76c-1,2.48-2,4.95-3,7.42l-3.73-4.47c.54-2.91,1-5.85,4.06-7.4Z"/><path class="cls-409" d="M477,355.48q2.06-5,4.1-9.91l1.38,4.17q-2,5-4.06,9.93C478,358.28,477.51,356.88,477,355.48Z"/><path class="cls-410" d="M501.82,337.4q-2.79,3.68-5.59,7.36l-2.31-6.05,6.29-8.19Q501,334,501.82,337.4Z"/><path class="cls-411" d="M90.12,447.68l2.68,1.38q1.35,8.38,2.68,16.77Q92.81,456.76,90.12,447.68Z"/><path class="cls-412" d="M120.84,358.54l-5.62,13.83C111.85,365.63,113.9,361.09,120.84,358.54Z"/><path class="cls-413" d="M122.16,337.42l5.86-4.31,2.91,2.72c-1.46,2.28-.88,6.54-5.54,5.71Z"/><path class="cls-414" d="M360.63,213.29c1.35-2.43,7.9,1.75,6.07-4.75l3.88,6-8.36,4.13Z"/><path class="cls-415" d="M213.05,81.93q.67,4.25,1.33,8.5l-2.35,0a4.35,4.35,0,0,1-3.15.24c-2.12-2.44-.9-4.72.31-7,.94-1.29,2.72-.75,3.8-1.74Z"/><path class="cls-416" d="M90.35,324.31l-4.06,7.4q-1.68-2-3.34-4c3.76-.73,4.19-3.63,4.35-6.69Z"/><path class="cls-417" d="M207.29,127.68c-.9,2.86-1.79,5.71-2.69,8.56-.64,2.12-1.43,4-4.21,2.5l2.7-9.82Z"/><path class="cls-418" d="M261.83,24.5q.66-4.93,1.34-9.87l4.16-2.83Q266,16.93,264.7,22.06Z"/><path class="cls-419" d="M383.52,330.41l6.69,5.56.21,2.84-8.29-1.42Q382.82,333.91,383.52,330.41Z"/><path class="cls-420" d="M29.15,383.28l-4.37,1.54c-1.67-3.38-3.35-6.76-7.63-15.42Z"/><path class="cls-245" d="M420.86,482.3l3.33,6.08-5.79,4.09c-1.61.26-2.28-.35-1.85-2Z"/><path class="cls-421" d="M122.17,259.16c.3,4.7-1.5,7.77-6.48,8.41-.21-.94-.43-1.87-.64-2.81Z"/><path class="cls-422" d="M33.31,321.83l-5.13,6c-.83-1-1.66-2-2.5-2.92l4.3-6.7Z"/><path class="cls-423" d="M87.3,299.78l4.3-5.88,2.91,2.36-3.23,8.12Z"/><path class="cls-424" d="M257.33,18.88l.45,9-4.13,2.9c.39-3.5.77-7,1.16-10.5Z"/><path class="cls-1" d="M374.8,28.44q-.54,12.73-1.09,25.47Q374.25,41.18,374.8,28.44Z"/><path class="cls-425" d="M532.68,257.79l2.77,1.37a1.76,1.76,0,0,1,1.07,1.36c0,1.43.05,2.85.08,4.27l-5.48,1.4q.18-4.2.37-8.38C531.87,257.13,532.27,257.09,532.68,257.79Z"/><path class="cls-426" d="M261.84,467.11c1.26-6.34,6.23-1.12,9-2.89a2,2,0,0,1,1.26,2.6c-2,3-4.68,3.16-7.72,1.91Z"/><path class="cls-427" d="M124.89,278.8l5.78-4.43c2-.34,2.86.66,2.89,2.57l-4.59,6.5Z"/><path class="cls-428" d="M187.86,74.83q2.07-5.3,4.15-10.58C197.1,70.31,194.42,73.33,187.86,74.83Z"/><path class="cls-429" d="M247.84,60.79c-.54-2.78-1.07-5.57-1.6-8.35l4.32-3c3,3,1.89,6.12.29,9.26Z"/><path class="cls-430" d="M250.85,58.65c-.1-3.09-.19-6.17-.29-9.26l4.14-2.94c2.33,3.77-.13,7-1.23,10.32Z"/><path class="cls-431" d="M253.47,56.77l1.23-10.32L257.59,44c-.42,3.37-.85,6.75-1.27,10.12Z"/><path class="cls-432" d="M194.91,472.63l-5.48,5.7-2.87-4.17,5.46-5.28Z"/><path class="cls-433" d="M245.16,10.88l2.73-9.68c1.09-1.55,2.59-.86,4-.71,1.63,2.39,0,4.1-1.22,5.9Z"/><path class="cls-434" d="M352.6,521.61l8.53.23-21,1.46-.09-4.42C343.46,523.26,348.29,521.23,352.6,521.61Z"/><path class="cls-435" d="M425,302.85l7.74-.52.69,2.92c-5.17-2.45-4.6,2.05-5.6,4.64C426.87,307.54,425.92,305.19,425,302.85Z"/><path class="cls-86" d="M426.59,242.46l-6.78-5.53,2.48-5.9,5.42,8.55C427.34,240.54,427,241.5,426.59,242.46Z"/><path class="cls-436" d="M270.2,45.21c0-3.15-.07-6.31-.1-9.46l4.08-2.83q-.56,5.07-1.09,10.14C272.12,43.77,271.16,44.49,270.2,45.21Z"/><path class="cls-437" d="M393.14,496.72c-.48-2.83-1-5.65-1.46-8.48l2.6-1.85,1.65,7.56Z"/><path class="cls-268" d="M360.63,62.24q.09-11.08.17-22.16Q360.71,51.15,360.63,62.24Z"/><path class="cls-438" d="M145.82,427l7.3-1.67-.36,4.24c-4.78-.7-5.75,2.11-5.54,6C146.75,432.68,146.29,429.82,145.82,427Z"/><path class="cls-268" d="M333.34,73.65q.51,10.5,1,21Q333.86,84.16,333.34,73.65Z"/><path class="cls-439" d="M461.36,349.93c-4-2.87-4.61,2.66-7.31,3-.41-1.43-.83-2.85-1.24-4.28l6.08-3Q460.14,347.8,461.36,349.93Z"/><path class="cls-440" d="M264.34,468.73l7.38-3.19c3.76.64,5.52,2.47,3.75,6.36-3.4,0-6.82,0-9.93-1.71Z"/><path class="cls-441" d="M265.54,470.19l10.15,1.22a1,1,0,0,1,.44,1.29l-7.46,1.77Z"/><path class="cls-442" d="M282.63,40.09l4.56-6.26,2.62,1.88c-.5,2.87-1,5.75-1.49,8.63Z"/><path class="cls-443" d="M152.94,496.29l7-9.54Z"/><path class="cls-268" d="M338.75,60c-.83-5.74,1.7-12-2.91-17.13C343.66,47.39,338.72,54.1,338.75,60Z"/><path class="cls-444" d="M125.39,341.54l5.54-5.71,2.25,3c-4.66.63-3.77,4.38-4.14,7.41Z"/><path class="cls-445" d="M103.24,340l-7.68,3-1.41-1.38,5.65-5.36Z"/><path class="cls-446" d="M444.82,397.45l-1.32,6.91q0-8.33.08-16.64C444,391,444.41,394.21,444.82,397.45Z"/><path class="cls-447" d="M337.16,252.22l.21-6c3,3-2.58,11.55,6.79,10.36C339.13,259.44,337,257.61,337.16,252.22Z"/><path class="cls-448" d="M250.67,6.39,252,1.11c2.07-1,4.21-2.32,5.5,1Z"/><path class="cls-449" d="M407,419.76l1.21-1.37q-.54,7.83-1.09,15.66Z"/><path class="cls-450" d="M257.54,2.11l-5.5-1-4.15.1L246.32.8l13.42,0Z"/><path class="cls-451" d="M427.9,429.53c.43-2.31.87-4.62,1.3-6.94l-1.08,15.71C428.05,435.38,428,432.46,427.9,429.53Z"/><path class="cls-452" d="M535.45,274.58l1.14,0-1,15.74Z"/><path class="cls-453" d="M408.29,393.29c.06-.51.11-1,.17-1.53q.06,7.94.13,15.88Z"/><path class="cls-268" d="M331.53,57.79q.68,7.43,1.34,14.86C328.7,68,330.61,62.87,331.53,57.79Z"/><path class="cls-454" d="M206.4,465.8l6.5-4,1.6,2.58-5.91,4.3Z"/><path class="cls-455" d="M486.78,403l-1.4,11.09q.56-7.89,1.09-15.78C486.58,399.92,486.68,401.48,486.78,403Z"/><path class="cls-456" d="M429.46,412.89q0-7.74-.08-15.47h1.23Q430,405.15,429.46,412.89Z"/><path class="cls-457" d="M366.68,300.06c-.09-1.05-.19-2.1-.28-3.16,0-3.64,0-7.27.07-10.91Z"/><path class="cls-458" d="M464.5,422.56l-.21,9.76-1.22,1.38q.53-7.18,1.06-14.36C464.25,420.41,464.38,421.49,464.5,422.56Z"/><path class="cls-459" d="M326.12,116.78l8.33-.12,5.86.24Z"/><path class="cls-460" d="M386.2,428.44q.54-7.11,1.09-14.21Q386.74,421.34,386.2,428.44Z"/><path class="cls-461" d="M465.73,403q-.63,2.75-1.27,5.51l1.08-14.37C465.6,397.12,465.67,400.08,465.73,403Z"/><path class="cls-462" d="M535.29,242.42l-2.4-6.86c.08-1.47.17-2.94.25-4.41l1.28,0Z"/><path class="cls-463" d="M422.26,409.61l.27,6c-.44,2.77-.89,5.54-1.33,8.31Q421.73,416.75,422.26,409.61Z"/><path class="cls-464" d="M401.31,405.41c.06,3.39.13,6.77.19,10.16-.42,1.38-.85,2.76-1.27,4.15Z"/><path class="cls-465" d="M387.49,203.36,380.63,209c-.48-.28-.66-.59-.54-.92s.26-.52.41-.52l2.77-4.18Z"/><path class="cls-446" d="M450.43,417.1c-.08-2.37-.15-4.74-.23-7.11.43-2.31.87-4.63,1.3-6.94Q451,410.07,450.43,417.1Z"/><path class="cls-458" d="M469.93,446.45l1.14-14.09Z"/><path class="cls-13" d="M490.7,237.93q-.56,6.42-1.1,12.83Q490.16,244.34,490.7,237.93Z"/><path class="cls-2" d="M422.45,121l6.81,7.41C425.55,127.26,422.81,125.23,422.45,121Z"/><path class="cls-466" d="M208,10.92l-.63-4.24h6.76Z"/><path class="cls-467" d="M294,509l2.81,0,4.11,1.23L288,509.22Z"/><path class="cls-293" d="M409.76,280.16l1.29-5.55-1.11,12.83Z"/><path class="cls-1" d="M374.35,58.3l6.09,7.11Z"/><path class="cls-468" d="M453.24,274.86l-.36-1.69q.71-5.57,1.42-11.12Q453.78,268.46,453.24,274.86Z"/><path class="cls-467" d="M291.55,502l-4.57.22-8.32-1.29Z"/><path class="cls-469" d="M432.3,270.76c-.09-1.06-.18-2.12-.28-3.18.07-3.3.13-6.6.2-9.89Q432.27,264.23,432.3,270.76Z"/><path class="cls-137" d="M402.71,285.28q-.54,5.78-1.07,11.55Q402.18,291.06,402.71,285.28Z"/><path class="cls-470" d="M73.2,256.05c.17.56.33,1.12.5,1.69l-1.56,9.81Q72.66,261.81,73.2,256.05Z"/><path class="cls-471" d="M452.8,294.13c-.37,0-.75,0-1.12,0q.61-5.57,1.24-11.12Z"/><path class="cls-472" d="M65,428.12q-2.1-3.44-4.18-6.87l5.9,5.35C66.47,427.48,65.61,427.66,65,428.12Z"/><path class="cls-468" d="M447.57,259.23c-.41,1.37-.83,2.75-1.25,4.12q.14-5.46.29-10.92Z"/><path class="cls-321" d="M430.91,290.34q.52-5.77,1.06-11.53Q431.45,284.57,430.91,290.34Z"/><path class="cls-473" d="M466.93,275.61c.1,1.51.19,3,.29,4.55l-.15,7-1.2,0Z"/><path class="cls-474" d="M496.51,262.29c-.11-.55-.23-1.11-.34-1.66.46-3.24.91-6.49,1.37-9.73Q497,256.6,496.51,262.29Z"/><path class="cls-475" d="M101.31,250.85l1.25,0q-.56,5.83-1.1,11.68Z"/><path class="cls-462" d="M536.52,260.52l-1.07-1.36c.06-3.37.11-6.74.17-10.12Z"/><path class="cls-471" d="M446.33,274.57l-.18,7-1.2,1.38q.53-5.75,1-11.48C446.1,272.48,446.21,273.52,446.33,274.57Z"/><path class="cls-476" d="M80.34,249.41,81.56,248q-.54,5.78-1.09,11.55C80.43,256.2,80.38,252.81,80.34,249.41Z"/><path class="cls-462" d="M532.68,257.79l-1.19,0q.54-5.76,1.07-11.51Z"/><path class="cls-477" d="M507.76,379.32l2.43,6.87c-3.65,4.75-2.39.36-2.45-1.34S507.75,381.16,507.76,379.32Z"/><path class="cls-478" d="M65,428.12l1.72-1.52q1.14,3.56,2.26,7.1-1.31-2.08-2.6-4.18Z"/><path class="cls-479" d="M307.9,531.45h11.18c0,.41,0,.81,0,1.21Z"/><path class="cls-480" d="M58.11,273.3,59.25,262Z"/><path class="cls-164" d="M312.45,503.4,301,502.33Z"/><path class="cls-481" d="M360.84,514.37c0,3.09.73,5.68,4.48,6l-4.1,1.58-1.65-7.16A5.65,5.65,0,0,1,360.84,514.37Z"/><path class="cls-256" d="M329.38,525.7l-11.65-1.09Z"/><path class="cls-482" d="M423.67,288.18q0,5.77.11,11.55Q423.72,294,423.67,288.18Z"/><path class="cls-483" d="M74.57,239.14c-.34,3.42-.69,6.84-1,10.27C73.88,246,74.23,242.56,74.57,239.14Z"/><path class="cls-268" d="M323.16,42.88c3.57-.31,5.93,1.18,7,4.67Z"/><path class="cls-13" d="M497.91,240.1c0-3.56,0-7.11,0-10.67Q497.93,234.76,497.91,240.1Z"/><path class="cls-484" d="M207.45,112.27l5.49-1.29,4.22.34,0,.44Z"/><path class="cls-485" d="M35.84,286.37,36.92,276Z"/><path class="cls-486" d="M210.34,429.56c2.19,1.51,3.85,3.13,1.1,5.61Q210.9,432.37,210.34,429.56Z"/><path class="cls-480" d="M50.87,271.19l-1,10.32Z"/><path class="cls-487" d="M97.11,275.83l4-6.83C101.28,272.15,101.68,275.45,97.11,275.83Z"/><path class="cls-488" d="M79.12,276.38q.52-5.08,1.06-10.17Z"/><path class="cls-358" d="M387.32,455.6c.54,3.6-.94,6-4.3,7.36C384.45,460.5,385.89,458.05,387.32,455.6Z"/><path class="cls-426" d="M250.48,463.1l8.47,3.19Z"/><path class="cls-489" d="M59.21,250.81l1.39-5.53-1.05,10.16C59.44,253.9,59.32,252.35,59.21,250.81Z"/><path class="cls-210" d="M14.54,299.65l0-9.69Z"/><path class="cls-489" d="M52.26,253.05q.09,5.16.16,10.34H51.21Z"/><path class="cls-490" d="M213,82l-2.84,1.65a3.35,3.35,0,0,1-4.17,0l-3-.43Z"/><path class="cls-491" d="M127.84,449.07l4.16,1.39-2.92,6C128.67,454,128.25,451.52,127.84,449.07Z"/><path class="cls-492" d="M99.9,188c-.71,1.35-1.41,2.7-2.12,4l-.48-5.44Z"/><path class="cls-493" d="M30.56,251l-.31,9.61Z"/><path class="cls-494" d="M366.85,18.83l-1.72,1.66-3.94-2.62L362,16.5Z"/><path class="cls-495" d="M102.6,238.26l1.32-4.16c-.36,3.43-.71,6.86-1.07,10.29C102.77,242.34,102.68,240.3,102.6,238.26Z"/><path class="cls-268" d="M334.21,41.41l-6.71-4.36Z"/><path class="cls-421" d="M116.48,246.15q.13,3,.28,6.06c-.43,1.38-.86,2.77-1.28,4.16C115.81,253,116.14,249.56,116.48,246.15Z"/><path class="cls-268" d="M352.29,37.28c2.77,3.09,2.19,6.35.46,9.66C352.6,43.72,352.44,40.5,352.29,37.28Z"/><path class="cls-485" d="M28.53,285.07c0,3.23,0,6.47,0,9.71C28.5,291.54,28.52,288.3,28.53,285.07Z"/><path class="cls-496" d="M487.87,279.75v0Z"/><path class="cls-497" d="M32.58,354.14l-1.18.05-3.93-4.78Z"/><path class="cls-498" d="M148.76,295.51c-.55,1.43-1.09,2.87-1.63,4.3-.76-1-1.51-2-2.26-2.95Z"/><path class="cls-4" d="M460,183.43q.06,3,.13,6l-2.64,1.36Q458.69,187.1,460,183.43Z"/><path class="cls-378" d="M510.23,263.06c-.3,2.85-.59,5.7-.89,8.55C509.64,268.76,509.93,265.91,510.23,263.06Z"/><path class="cls-11" d="M489.3,260.46l-1,8.39Z"/><path class="cls-499" d="M462.74,443.13l-1.47,8.68Z"/><path class="cls-258" d="M167.19,136.46l1.11-4.3,2.64-.07Z"/><path class="cls-456" d="M423.79,400.21h-1.22l.09-8.31C423,394.68,423.41,397.44,423.79,400.21Z"/><path class="cls-500" d="M293.56,488.29l9.17,0Z"/><path class="cls-501" d="M387.61,404.72l-.09-8.77Z"/><path class="cls-502" d="M416.55,490.48c.62.66,1.24,1.32,1.85,2l-5.31,4.14C415.19,492.9,415.87,491.69,416.55,490.48Z"/><path class="cls-490" d="M208.77,90l3.26.5-8.82,1,1.45-1.4C206,89.36,207.37,88.91,208.77,90Z"/><path class="cls-268" d="M348.92,88.71l-7.37-1.3Z"/><path class="cls-503" d="M320.2,90.19q0-4.11.11-8.24Q320.25,86.08,320.2,90.19Z"/><path class="cls-150" d="M127.84,84.76l4.77-5.49Z"/><path class="cls-379" d="M379.23,251.15l2.5-7.26Z"/><path class="cls-504" d="M443.06,465.78,439.23,460Z"/><path class="cls-505" d="M380.5,207.53c0,.48.09,1,.13,1.44-.11,1.88-.22,3.76-.32,5.65C380.37,212.25,380.44,209.89,380.5,207.53Z"/><path class="cls-3" d="M447.36,222.43l-2.52,7.43Z"/><path class="cls-506" d="M203.21,510.5l1.34-4,2.86,1.16Z"/><path class="cls-268" d="M340,17.67l-2.57-6.11Z"/><path class="cls-507" d="M391.36,201.87q-.48-4.32-.94-8.66C390.73,196.1,391,199,391.36,201.87Z"/><path class="cls-268" d="M261.41,528.78l8.76,1.59Z"/><path class="cls-508" d="M.61,240.49l.07,7.78Z"/><path class="cls-509" d="M232.47,125.54l-1.6-.56,7.28-1.12.06,1.41C236.37,127,234.45,126.82,232.47,125.54Z"/><path class="cls-296" d="M471.13,328.63l0,7.82Z"/><path class="cls-1" d="M363.4,72c-.32-2.36-.64-4.71-1-7.07C362.76,67.3,363.08,69.65,363.4,72Z"/><path class="cls-465" d="M397.43,215.05l-.09-7.61Z"/><path class="cls-510" d="M97.1,228.49l-1.2,6.93-.42-6.84Z"/><path class="cls-506" d="M197.13,512.07l6.07-1.57-1.65,3.35Z"/><path class="cls-511" d="M121,291.26l-7.8-.14Z"/><path class="cls-512" d="M481.14,316.76l-.12-5.89.18-1.9Z"/><path class="cls-513" d="M194.89,327.39l6.92.26Z"/><path class="cls-253" d="M175.14,357l-7.17-.16Z"/><path class="cls-514" d="M312,107.08l7.49.08Z"/><path class="cls-515" d="M117.87,232l-1.05,7.59Z"/><path class="cls-516" d="M305.22,482.84c.9-1.55-2.45-5.45,2.6-4.73C307,479.69,306.09,481.27,305.22,482.84Z"/><path class="cls-517" d="M441.79,440.21l.13,7.52C441.88,445.22,441.83,442.72,441.79,440.21Z"/><path class="cls-504" d="M436.35,476.75c.33-2.27,1-4.06,3.84-2.63Z"/><path class="cls-2" d="M438.86,127.87c-1.54-2.37-2-4.44,1.46-5.48C439.83,124.22,439.34,126,438.86,127.87Z"/><path class="cls-483" d="M81.92,241.49c0-2.62,0-5.25,0-7.87C81.93,236.24,81.93,238.87,81.92,241.49Z"/><path class="cls-518" d="M460,454.58c.41.46.82.92,1.22,1.39l-2.45,3.11-1.12-.82Q458.86,456.42,460,454.58Z"/><path class="cls-2" d="M337.24,154.88c5.55,5.27,7.56-1.25,10.91-3.29.75,4.39-2.92,5.64-5.64,6.61C341.29,158.62,339,156.07,337.24,154.88Z"/><path class="cls-2" d="M338.59,139.38l-17-1.54Z"/><path class="cls-2" d="M330,168.62q1.49-6.44,3-12.85Q331.5,162.19,330,168.62Z"/><path class="cls-2" d="M337.09,174.71,330,168.62Z"/><path class="cls-4" d="M414,178.23l4.18-2.79C418.53,179,416.8,179.37,414,178.23Z"/><path class="cls-501" d="M379.29,415.53q.54-7.15,1.07-14.32Q379.84,408.37,379.29,415.53Z"/><path class="cls-500" d="M282.78,479.82l12.85,1.27Z"/><path class="cls-441" d="M278.59,475.56l4.15,4.25Z"/><path class="cls-519" d="M331.5,263.78c-.35-2.44-.69-4.87-1-7.31C330.81,258.91,331.15,261.34,331.5,263.78Z"/><path class="cls-484" d="M219.89,111l1.32-6.56c4.45-.75,4.6,2.43,5.29,6.56Z"/><path class="cls-520" d="M319.08,472.77l9.75-.07c1.4,2.31,2.81,4.61,4.22,6.92l-9.78.07C321.49,477.61,317,477.21,319.08,472.77Z"/><path class="cls-356" d="M331.32,472.64l14.19-.76Z"/><path class="cls-521" d="M404.25,222.91c1.37,1.86,2.74,3.73,4.12,5.59C407,226.64,405.62,224.77,404.25,222.91Z"/><path class="cls-149" d="M180.53,153.09c-1.23,1.53-2.47,3.06-3.7,4.6C178.06,156.15,179.3,154.62,180.53,153.09Z"/><path class="cls-509" d="M242.26,132.14,213,133.35,220,132l12.53-.14c2.31-1.71,4.63-1.84,7,0Z"/><path class="cls-522" d="M319.08,472.77l4.19,6.92-11.17.06-11.33-11.52C309.26,460.11,311.69,476.47,319.08,472.77Z"/><path class="cls-523" d="M239.43,131.89l-7,0q0-3.19,0-6.37l5.74-.28Q238.81,128.57,239.43,131.89Z"/><path class="cls-457" d="M359.46,309.74c0-4,0-7.94,0-11.92l.18,7.46C359.55,306.76,359.51,308.25,359.46,309.74Z"/><path class="cls-524" d="M208.77,90l-4.11.11L206,83.61h4.17Z"/><path class="cls-525" d="M632.45,326.85v-30h13.89V218.57H632.45v-30h74.93q27.79,0,42,9.55t14.19,28.48a32.37,32.37,0,0,1-4.9,17.72,31.1,31.1,0,0,1-14.2,11.8,34.59,34.59,0,0,1,15.72,12q5.73,8,5.73,19.23,0,19-13.9,29.22t-39.76,10.21ZM702.09,217.7H690.45v26.57h11.64q16.14,0,16.15-13.29T702.09,217.7Zm-11.64,80.06h13.46q16.67,0,16.67-14.68t-16.67-14.67H690.45Z"/><path class="cls-525" d="M805.36,328.41a34.14,34.14,0,0,1-15.93-3.61,27.31,27.31,0,0,1-10.95-9.94,27,27,0,0,1-4-14.58q0-12.86,9.9-20.5t26.4-7.64a81.57,81.57,0,0,1,10.94.7,65.54,65.54,0,0,1,10.59,2.34v-1.91q0-7.9-4.82-11.46t-15.41-3.56a61.83,61.83,0,0,0-15.45,2,59.8,59.8,0,0,0-14.24,5.55l-2.35-1V239.41A99.32,99.32,0,0,1,800.8,234a150.51,150.51,0,0,1,23.31-1.82q26,0,37.95,8.68t12,27.88v32h11.29v26.05H837.92l-4.25-13.64a28.75,28.75,0,0,1-11.6,11.16A34.73,34.73,0,0,1,805.36,328.41Zm18.15-22.23a16,16,0,0,0,4.9-.82,9.6,9.6,0,0,0,4-2.22v-14.5a17.4,17.4,0,0,0-4.38-1.3,27,27,0,0,0-4.13-.35,10.94,10.94,0,0,0-7.42,2.6,8.76,8.76,0,0,0-3,7,9.17,9.17,0,0,0,2.78,7A10.23,10.23,0,0,0,823.51,306.18Z"/><path class="cls-525" d="M942.69,328.41q-20.58,0-31.78-9.42t-11.2-27.31V259.81H885.38v-23.7l14.33-1.39V213.88l41.68-9.12v29h21v26.05h-21v31q0,5.2,2.56,8.12t7.77,2.91a20.24,20.24,0,0,0,5.17-.57c1.42-.37,2.76-.76,4-1.17l2.35,1V326q-4.95,1.13-9.94,1.78A83.19,83.19,0,0,1,942.69,328.41Z"/><path class="cls-525" d="M1001.74,328.41a34.19,34.19,0,0,1-15.94-3.61,27.35,27.35,0,0,1-10.94-9.94,27,27,0,0,1-4-14.58q0-12.86,9.9-20.5t26.4-7.64a81.57,81.57,0,0,1,10.94.7,65.54,65.54,0,0,1,10.59,2.34v-1.91q0-7.9-4.82-11.46t-15.41-3.56a61.83,61.83,0,0,0-15.45,2,60,60,0,0,0-14.25,5.55l-2.34-1V239.41A99.32,99.32,0,0,1,997.18,234a150.51,150.51,0,0,1,23.31-1.82q26,0,38,8.68t12,27.88v32h11.29v26.05H1034.3l-4.25-13.64a28.75,28.75,0,0,1-11.6,11.16A34.76,34.76,0,0,1,1001.74,328.41Zm18.15-22.23a16,16,0,0,0,4.9-.82,9.6,9.6,0,0,0,4-2.22v-14.5a17.52,17.52,0,0,0-4.38-1.3,27,27,0,0,0-4.13-.35,10.94,10.94,0,0,0-7.42,2.6,8.76,8.76,0,0,0-3,7,9.17,9.17,0,0,0,2.78,7A10.23,10.23,0,0,0,1019.89,306.18Z"/><path class="cls-525" d="M1141.69,328.41q-25.8,0-40.42-13t-14.63-36q0-14.51,6.38-25.1A42.83,42.83,0,0,1,1110.86,238q11.46-5.78,26.66-5.77,14.85,0,25.44,5.43a38.34,38.34,0,0,1,16.19,15.11,43.74,43.74,0,0,1,5.61,22.35c0,2-.09,3.87-.26,5.69s-.38,3.49-.61,5h-55.83q1.47,8.87,8,12.72t16,3.87a41.72,41.72,0,0,0,15.24-2.82,43,43,0,0,0,12.28-7.08l2.35,1v24.92a44.75,44.75,0,0,1-10.77,5.13,94.35,94.35,0,0,1-29.52,4.86Zm-1.91-74.85a9.8,9.8,0,0,0-8.77,4.52q-3,4.51-3.3,12.59h24.14q-.36-8.09-3.26-12.59T1139.78,253.56Z"/><path class="cls-525" d="M1193.81,326.85V300.8h12.59V260.94h-12.59v-23.7l53.4-5.13v11.81a36,36,0,0,1,13.46-8.72,48.15,48.15,0,0,1,17.36-3.09q15.72,0,23.06,8.9t7.33,26.79v33h12.16v26.05h-53.83V267.8c0-3.36-.73-5.8-2.18-7.34a7.5,7.5,0,0,0-5.73-2.3,11.34,11.34,0,0,0-5.86,1.74,15.15,15.15,0,0,0-4.9,4.77V300.8h7.81v26.05ZM1272,222.65a21.71,21.71,0,0,1-10.51-2.69q-5-2.7-9.34-5.34a16.33,16.33,0,0,0-8.46-2.65,13.16,13.16,0,0,0-6.86,2,43.23,43.23,0,0,0-8.42,7.42l-9.82-8.16a93.06,93.06,0,0,1,5.3-10.33,33.54,33.54,0,0,1,7.64-9,16.35,16.35,0,0,1,10.68-3.69,21.29,21.29,0,0,1,10.51,2.65c3.18,1.77,6.26,3.54,9.25,5.34a17.58,17.58,0,0,0,9.16,2.69,11.62,11.62,0,0,0,7.51-2.47,65.68,65.68,0,0,0,7.34-7.25l9.89,8.24a83.23,83.23,0,0,1-5.34,10.25,35.86,35.86,0,0,1-7.81,9.16A16.29,16.29,0,0,1,1272,222.65Z"/><path class="cls-525" d="M1378.09,328.41q-16.32,0-28.17-5.82A42.33,42.33,0,0,1,1331.68,306q-6.37-10.77-6.38-25.62t6.38-25.7a42.56,42.56,0,0,1,18.24-16.63q11.85-5.87,28.17-5.86t28.18,5.86a42.53,42.53,0,0,1,18.23,16.63q6.39,10.77,6.39,25.7T1424.5,306a42.3,42.3,0,0,1-18.23,16.58Q1394.42,328.41,1378.09,328.41Zm0-25.27q11.73,0,11.72-22.84t-11.72-22.83q-11.71,0-11.72,22.83T1378.09,303.14Z"/><path class="cls-525" d="M1477.6,326.85v-30h13.89V218.57H1477.6v-30h74.59q28.3,0,42.72,11t14.41,32.87q0,21.19-14.32,32.08t-41.94,10.9H1535.6v21.45h25.18v30Zm69.55-109.15H1535.6V249h10.68q8.87,0,13.29-3.74t4.43-11.89q0-8.25-4.3-11.94T1547.15,217.7Z"/><path class="cls-525" d="M1644.49,328.41a34.14,34.14,0,0,1-15.93-3.61,27.31,27.31,0,0,1-11-9.94,27,27,0,0,1-3.95-14.58q0-12.86,9.9-20.5t26.4-7.64a81.57,81.57,0,0,1,10.94.7,65.54,65.54,0,0,1,10.59,2.34v-1.91q0-7.9-4.82-11.46t-15.41-3.56a61.83,61.83,0,0,0-15.45,2,59.8,59.8,0,0,0-14.24,5.55l-2.35-1V239.41a99.32,99.32,0,0,1,20.71-5.39,150.51,150.51,0,0,1,23.31-1.82q26,0,38,8.68t12,27.88v32h11.29v26.05h-47.41l-4.25-13.64a28.75,28.75,0,0,1-11.6,11.16A34.73,34.73,0,0,1,1644.49,328.41Zm18.15-22.23a16,16,0,0,0,4.9-.82,9.6,9.6,0,0,0,4-2.22v-14.5a17.4,17.4,0,0,0-4.38-1.3A27,27,0,0,0,1663,287a10.94,10.94,0,0,0-7.42,2.6,8.76,8.76,0,0,0-3,7,9.17,9.17,0,0,0,2.78,7A10.23,10.23,0,0,0,1662.64,306.18Z"/><path class="cls-525" d="M1787.14,328.41a70.61,70.61,0,0,1-17.19-2.09,52.42,52.42,0,0,1-14.76-6l-2.69,6.52h-19.1V294.2h22.23a20.61,20.61,0,0,0,6.94,10.68,17,17,0,0,0,10.77,3.9q7.64,0,7.64-5.73a7.24,7.24,0,0,0-3.43-6.42,32.36,32.36,0,0,0-8.86-3.82q-5.43-1.56-11.5-3.39a52.82,52.82,0,0,1-11.51-5,25.29,25.29,0,0,1-8.85-8.69q-3.43-5.5-3.43-14.45a26.36,26.36,0,0,1,4.29-14.68q4.3-6.59,13-10.55t21.92-3.95a66.29,66.29,0,0,1,15.76,1.78,47.27,47.27,0,0,1,13.59,5.69l2.09-5.82h19.1v29.87H1801q-2.27-6.6-6.47-9.68a15.09,15.09,0,0,0-9.07-3.08q-8.52,0-8.51,5.21a6.48,6.48,0,0,0,3.52,5.77,36.84,36.84,0,0,0,9,3.69q5.5,1.56,11.67,3.56a54.28,54.28,0,0,1,11.68,5.39,27.26,27.26,0,0,1,9,9q3.53,5.64,3.52,14.67,0,13.81-9.94,22T1787.14,328.41Z"/><path class="cls-525" d="M1889,328.41a70.63,70.63,0,0,1-17.2-2.09,52.54,52.54,0,0,1-14.76-6l-2.69,6.52h-19.1V294.2h22.23a20.61,20.61,0,0,0,6.94,10.68,17,17,0,0,0,10.77,3.9q7.63,0,7.64-5.73a7.24,7.24,0,0,0-3.43-6.42,32.36,32.36,0,0,0-8.86-3.82q-5.43-1.56-11.5-3.39a52.82,52.82,0,0,1-11.51-5,25.37,25.37,0,0,1-8.85-8.69q-3.43-5.5-3.43-14.45a26.36,26.36,0,0,1,4.29-14.68q4.31-6.59,13-10.55t21.92-3.95a66.29,66.29,0,0,1,15.76,1.78,47.27,47.27,0,0,1,13.59,5.69l2.09-5.82h19.1v29.87h-22.23q-2.27-6.6-6.47-9.68a15.09,15.09,0,0,0-9.07-3.08q-8.52,0-8.51,5.21a6.48,6.48,0,0,0,3.52,5.77,36.84,36.84,0,0,0,9,3.69q5.51,1.56,11.67,3.56a54.28,54.28,0,0,1,11.68,5.39,27.26,27.26,0,0,1,9,9q3.52,5.64,3.52,14.67,0,13.81-9.94,22T1889,328.41Z"/></g></g></svg>