<svg xmlns="http://www.w3.org/2000/svg" viewBox="0 0 1910.15 410.49"><defs><style>.cls-1{fill:#e32618;}.cls-2{fill:#4f4d51;}</style></defs><title>logo</title><g id="Layer_2" data-name="Layer 2"><g id="Layer_1-2" data-name="Layer 1"><path class="cls-1" d="M133.07,7.69H248.88c21.7,78.56,43.55,157.68,65.38,236.76.68-2.3-1,1.4,1.11.13a3.15,3.15,0,0,0,1.15-1.4,4.4,4.4,0,0,0,.25-1.74c0-77.43,0-154.86,0-233.2h97.49c2.52,12.77,3.35,366.81.69,398.15-35.38,0-70.86-.07-106.35.06-6.89,0-8.72-3.56-10.63-9.58-5.3-16.68-8.36-33.93-14.23-50.49-5.05-14.25-7.34-29.44-11.74-43.95-7.77-25.68-15.59-51.31-22-77.38-5.31-21.4-12.55-42.33-20.22-67.7-2.33,20.35-1.12,36.41-1.34,52.4-.22,16.47-.05,32.95-.05,49.42V405.79H133.07Z"/><path class="cls-1" d="M931.28,7.51H799.85c-32.09,132.21-64.28,264.8-96.48,398.88,33,0,64.23,0,95.43,0,14,0,14.64-.09,15.58-15.11.33-5.14,4.8-8.09,4-13.55-1.93-13.82,5.65-26.57,4.05-40.61H906c7.69,21.83,6.22,46,13.3,68.38,37.43,2.43,96.41,1.67,109.8-1.56C996.61,272.31,964.13,140.69,931.28,7.51Zm-94.2,248.21c8.33-54.27,18.74-108.71,27.5-167.83,13.09,58,19.72,112.92,30,167.83Z"/><path class="cls-1" d="M605.36,124.25c-2.85-11.82-.12-21.69-3.92-32.14-4.77-13.13-13-19.79-25.07-22.21-12.55-2.51-21.21,3.48-28.5,16.87-11,20.2-7.31,39,12,53.42a152.29,152.29,0,0,0,38.72,21c23.76,8.74,47.21,18.21,68.14,32.85,25.25,17.66,40.48,41.56,44.36,71.94.77,6,5.18,10.95,3.77,17.18-4.4,19.54-2.7,39.67-9.61,59.31-10.18,29-30.39,46-57.35,56.53-20.6,8-42.22,12.36-64.73,11.34-14.11-.65-28.37.93-42.38-.38-19.37-1.8-38.35-5.06-56.42-13.87-28-13.64-40.25-37.31-45.65-65.54-2.09-11-5.6-22-3.95-33.67,1.17-8.35,2.53-10.87,10.77-10.93q40.56-.29,81.14,0c9.36.06,11,2.08,11.23,12.16s.64,19.54,6,29.32c6.06,11.14,15.88,14.24,25.77,16.27,13.64,2.79,33-11.6,34.38-25.39,1.25-12.86,2.84-26.19-6.07-38.23-3.6-4.86-7-9.14-11.88-12.79-15.79-11.86-34.31-18.19-52.29-25.3-21-8.32-41.49-17.69-58.57-32.29-15.07-12.89-24-30.29-29.65-49.49-6.19-20.91-5.22-42.38-2.7-62.95C447.1,62.34,463.77,32.78,496,15.34,508.05,8.79,522,5.35,536.27,3,552,.43,567.51-.1,583.2,0a161.37,161.37,0,0,1,73.47,18.13c12.75,6.54,22.41,15.85,28.84,28.42,8.08,15.79,15.42,31.88,14.89,50.2-.16,5.45,4.41,9.38,3.69,15.43-1.12,9.44-2.29,12-11.66,12C663.63,124.36,634.82,124.25,605.36,124.25Z"/><path class="cls-1" d="M102.42,8.09V404.25C89.55,407.1,34.4,407.77,0,405.4V8.09Z"/><path class="cls-2" d="M958.44,8h68.33c2.52,13.79,3.34,253.28.72,290.16C1004.11,199.9,981.38,104.37,958.44,8Z"/><path class="cls-2" d="M1104,405.91c-2.43-2-5.63-3.9-5.21-8.32.28-3,.07-6.09.07-9.13V22.71c0-3.65.06-7.31,0-11-.08-4.43,2.91-4.54,6.11-4.42,2.67.09,4.69.82,4.6,4.09-.1,3.66,0,7.32,0,11q0,182.88-.11,365.74C1109.44,394.38,1112.53,402,1104,405.91Z"/><path class="cls-2" d="M1471.19,334.81c0,15.05-.06,30.19,0,45.33,0,3.56-.11,7.37,1.08,10.61.94,2.56,3.36,5.28,7,4.56,3.15-.61,3.05-3.24,3.05-5.66,0-14-.07-28.06.07-42.08.13-13.39.55-13.65,18.18-13.6,0,18.64.68,37.37-.24,56-.62,12.75-19,20.3-32.87,15-10.39-4-14.39-11.7-14.59-21.94-.21-11.58-.13-23.17,0-34.76C1453,334.07,1453.81,333.52,1471.19,334.81Z"/><path class="cls-2" d="M1334.73,334.29c0,16.78,0,32,0,47.26,0,4.15-.36,7.86-2.64,12-6.83,12.33-11.47,15-28.21,13-7.93-1-16.43-10.47-16.81-20.45-.55-14.61-.28-29.25-.1-43.88.08-5.68,3.57-8.74,9.24-8.65s8.92,3.11,9,8.95c.06,5.48,0,11,0,16.46,0,10.36.12,20.72,0,31.09,0,3.66,1.33,5.49,5.22,5.58,3.57.08,5.91-.82,5.9-4.85,0-3.05.09-6.09.09-9.14,0-11-.11-21.95.06-32.92.08-4.63-1.67-9.84,3.34-13.35C1324.24,332.23,1328.85,333.39,1334.73,334.29Z"/><path class="cls-2" d="M1261.42,335.23c-6.55-2.72-12.63-2.92-19,0-6.17,2.8-9.13,6.64-11.79,13.74-5,13.4-2.86,26.5-2.22,39.39.65,13.14,14.16,20,30.2,18.14,9.07-1,17-11,17.25-21.94.11-4.27,0-8.54,0-12.81h0c0-4.88-.42-9.81.08-14.64C1277.15,345.69,1271.43,339.38,1261.42,335.23Zm-.49,35.24c-.53,7.25,1.47,14.44-3.38,20.94-1.4,1.89-1.87,4.66-4.59,3.91a12,12,0,0,1-5.48-4.16c-1-1.21-1.22-3.26-1.23-4.93-.11-10.83.12-21.66-.16-32.48-.09-3.46,1.36-5.64,3.69-7.66,2.63-2.29,5.09-2.68,7.33.59C1262.22,354.13,1260.64,362.59,1260.93,370.47Z"/><path class="cls-2" d="M1442,384.53c-.62-4.8-.11-9.75-.11-14.63h0c0-4.27.07-8.54,0-12.81-.23-12.59-4.68-18.9-16-22.83-10.13-3.52-25.36,1-28.25,9.54-5.89,17.36-5.53,35-.13,52.56a9.38,9.38,0,0,0,2.06,2.92c4.61,5.41,22.56,10.73,28.52,6.85C1435.53,401.29,1443.41,395.73,1442,384.53Zm-18.37,5.85c-.94,2-.34,4.83-3.72,5.06-3.69.25-5.46-2.56-6.83-5-1.06-1.88-.82-4.56-.88-6.89-.11-4.8,0-9.62,0-14.43h0c0-4.81.12-9.62-.05-14.43a10,10,0,0,1,2.92-8c3.1-3.18,6-3.11,8.14.86.27.5,0,1.26.27,1.77C1428.28,359.28,1428.22,380.3,1423.59,390.38Z"/><path class="cls-2" d="M1567.92,333.76h37.69a2.75,2.75,0,0,1,1,.87c2,3.93,1.64,7.95.19,12.86h-19.08c-3.13,5.14-2.61,9.58-1.27,15h19.24c3.25,4.74,1.92,8.86,1.35,13.82h-18.83c-4.15,5.05-2.75,9.66-2,15.07h19.43c3.25,5.1,2.69,9.54,1.17,14.55h-38.86Z"/><path class="cls-2" d="M1512.44,384.53c6.86.39,13.34-2.68,15.47,6.48.83,3.57,5.12,7,10,2.48,4.55-4.22,4.1-6.25-.93-11.87-3.43-3.82-8.08-5.35-12.17-7.17-5.88-2.61-11.31-6-12.68-11.6-1.53-6.29-1.09-13.42.14-19.86,1-5,6.9-6.32,11.2-8.13,12.73-5.34,29,.89,32.58,12.12,1.57,4.93-.79,7.83-5.93,8.28-6.26.56-10.67-1.32-12.52-7.55-1.24-4.14-3.86-4.35-6.68-2-2.65,2.17-6.08,4.3-3.25,8.88,3.74,6,10.09,9,15.9,11.2,10.35,4,13.26,10.74,12.71,20.87-.82,15.05-9.2,19.16-19.62,19.87-4.86.33-10,.86-14.6-.32-3.16-.82-5.87-4.18-8.29-6.84C1510.13,395.3,1511.55,390.48,1512.44,384.53Z"/><path class="cls-2" d="M1585.58,76.17c-14,.41-15.69.13-18.18-9.88-2.92-11.76-7.48-22.59-15.2-36.68,0,16.34-.1,29,.07,41.58,0,3.67-1,5.46-4.94,5.81-5.09.47-6.13-1.94-6.1-6.38.16-18.9,0-37.8.1-56.7,0-2.85-.78-6.3,3.82-6.66,3.12-.25,6.33-.3,8.12,2.73a91,91,0,0,1,6.38,12.42c4.3,10.76,8.24,21.67,13.75,36.3,2.2-15.7.84-27.65,1.26-39.48.09-2.44.1-4.88,0-7.32-.16-4.3,2.57-4.66,5.92-4.7,4-.06,5.07,2,5,5.58-.12,12.19,0,24.38,0,36.57Z"/><path class="cls-2" d="M1198.42,7.7c8.58-.71,12.36-1.08,15.76,8.12,5.7,15.42,11.58,31.13,20.9,45.91q0-20.73,0-41.46c0-3.64-.06-7.29.27-10.91.07-.72,1.69-1.58,2.74-1.87,1.94-.54,3.45.51,4.43,2.13.27.46.07,1.19.07,1.8q0,30.09.06,60.18c0,2.56-.3,5-3.35,5.24-2.27.15-4.66.92-7-.87-4.54-3.5-6-8.82-8-13.56-4.28-10.1-7.57-20.61-11.37-30.91-.28-.75-1.43-1.18-3.65-2.91,0,15-.06,28.84,0,42.66,0,3.52-.79,5.6-4.87,5.77-4.84.2-6.16-1.88-6.11-6.45C1198.53,50,1198.42,29.41,1198.42,7.7Z"/><path class="cls-2" d="M1530.16,136.21c0,15.09,0,30.17,0,45.25,0,2.57-.28,4.89-3.43,5.2-1.79.17-3.88.42-5.4-.29-2.6-1.23-2-4-2-6.39q0-30.18,0-60.23c1.35-2.74,3.78-2.71,6.23-2.63,4.14.12,6.91-.3,8.86,5.81,5.3,16.52,12.71,32.37,19.88,49.94,2.86-8,1.44-15,1.62-21.78.26-10.36,0-20.73.21-31.09,0-1.64,1.52-3.08,3.84-2.87,2.17.19,3.51,1.44,3.52,3.22q.15,31.1,0,62.18c0,3.24-4.84,5.66-8,4.29-4.2-1.78-5.65-5.34-7.35-9.41C1542.35,163.78,1536.74,150.13,1530.16,136.21Z"/><path class="cls-2" d="M1223.67,135.42c-.31-9.78-10.54-17.82-20.8-18.15-7.64-.25-15.56-1.48-22.91,1.13v68.36c8.61,0,16.06,1.07,23-.28,7.73-1.5,14.66-3.55,18.06-13.83C1225.25,160,1224.05,147.72,1223.67,135.42Zm-10.51,25.67c0,5.49-.09,10.66-5.26,14.52-4.26,3.19-4,3.55-16.71,2.31V125.53c6.28-1.3,11.52-2.38,17,2.68,4.72,4.4,5,9.22,5,14.66C1213.15,148.94,1213.11,155,1213.16,161.09Z"/><path class="cls-2" d="M1385.65,406.27H1347c-2.33-7.4-.88-15.22-1.1-22.85-.25-8.48-.06-17-.06-25.47V335.83c2.94-3.47,5.62-2.5,7.82-2.29,8.68.85,10.3,2.44,10.42,11,.2,15.13.05,30.26.05,45.24,3.78,3.76,8.27,1.8,12.31,2C1386.29,392.29,1386.3,392.12,1385.65,406.27Z"/><path class="cls-2" d="M1434.94,291.92c-2.17-2-5.94-4.77-3.92-7.33,6.13-7.74,2-16.42,3.34-22.48,0-7.48.46-13-.1-18.4-1.14-11-14.15-22.22-22.88-20.28-9.89,2.21-20.3,13.45-21.1,23.95a147.61,147.61,0,0,0,0,25.49c1.86,18.86,11.73,26.87,30,23.34,4.44-.86,7-1.95,9.87,1.76,2.24,2.95,3.54.82,5.38-.71C1438.29,294.93,1436.8,293.64,1434.94,291.92Zm-8.38-17.35c0,4.09-2.83,9.67-9.25,4.32-.1-.09-4.66,4.62-4.51,4.8,7.25,8.19-1.16,5.92-4.07,5.48a8.39,8.39,0,0,1-7.55-8.62c-.11-6.66,0-13.32,0-20h-.06c0-6.06-.55-12.18.16-18.15.68-5.78,5.53-9,10.35-11.44,2.44-1.21,4.1,2.57,6.19,2.83,4.86.61,4.27,4.09,5.84,7.24C1429.1,252,1426.48,263.42,1426.56,274.57Z"/><path class="cls-2" d="M1773.69,26.73q0,22.63,0,45.27c0,2.45-.11,4.85-3.71,4.82s-3.79-2.24-3.79-4.77q0-29.19,0-58.38c0-3-.45-6.23,4.12-6.4,3.89-.15,5.59.84,7.71,5.06a204.42,204.42,0,0,1,9.22,22.58c3.26,9,9.11,17,12.3,26.65q0-21.66,0-43.32a69.5,69.5,0,0,1,.4-9c.1-.7,1.75-1.43,2.8-1.72a3.29,3.29,0,0,1,4.17,2.35c.49,1.69.16,3.62.16,5.45q0,27.36,0,54.73c0,2.85.78,6.16-3.58,6.92-4,.7-6.69-.9-9.53-3.75-3.36-3.39-1.71-7.78-3.72-11.68-5.8-11.28-9.89-23.42-14.66-35.23Z"/><path class="cls-2" d="M1219.68,334.22c.53,13.14.53,13.14-13.73,14.84V404c-4.76,4.31-9.17,1-15,3.91-.49-20.36-.11-39-.29-57.71-3.72-5.19-11.58,1.2-14.44-4.59-1.43-2.88-.25-7-.25-11.36Z"/><path class="cls-2" d="M1748.17,14.82c-2-3.18-3.86-6.51-7.19-7.4-16.87-4.47-32.33,8.22-30.22,21.63.66,4.16.1,8.51.1,12.77h.1c0,6.09-.46,12.22.1,18.26,1,10.21,10,19.49,19.14,20.31,6.72.6,19-6.78,21.2-14.23C1756.48,48.82,1758.9,31.49,1748.17,14.82Zm-4.08,45.37c-.33,4.84-7.68,13.78-10.74,12.5-4.3-1.81-10-2-12-8.52-.94-3.21-3.18-6-3.06-9.86.25-7.85.46-15.73-.07-23.55-.36-5.42,1.77-9.14,5.45-12.59,7.49-7,17.53-4.17,20.26,5.87a13.89,13.89,0,0,1,.2,3.54q0,9.06,0,18.12C1744.17,50.53,1744.43,55.38,1744.09,60.19Z"/><path class="cls-2" d="M1223.43,290.77c-3.45-8.12-4.86-16.76-7-25.24-2.94-11.81-7.31-23.26-10.75-35-1.94-6.6-6.93-2.95-10.58-3.48-3-.44-3.61,1.94-4.24,4.54-3.56,14.72-6.36,29.75-11.62,43.86-2,5.25-2.52,10.23-3.48,15.39-.36,1.94-6.28,4.64.53,5.65,2.75.4,7.13.94,6.93-3.34-.28-6,4.34-9.56,5.67-15,4.29,0,8.54-.15,12.79,0,8.23.35,9.54,1.6,11.27,10.54.34,1.78-.41,3.93.32,5.42,1.67,3.39,5.29,2.79,8.06,2.24S1224.51,293.32,1223.43,290.77Zm-18.63-21c-4.27,1.89-8.35,1.47-13.51.13-2.21-11.43,4-20.94,9.42-30.94C1200,249.59,1209.39,258.88,1204.8,269.81Z"/><path class="cls-2" d="M1371.89,186.92c-16.26-.07-16.62-.44-21.58-16-.86-2.71-.81-5.13,1.77-5.83,2.74-.75,6.5-1.39,8.17,1.92,1,2-.07,5,.87,7,2.82,6.12,8.61,5.28,14.16,5.69s6.44-3.31,8.83-6.72c2.73-3.89,1.93-6.05-.6-9.43-5.4-7.2-14.07-9-21.32-12.58-6.43-3.21-9-6.6-9.3-13.39-.39-7.81.83-14.69,7.94-18.86,6.73-3.95,14.39-1.73,21.55-1.4,5.42.25,6.9,5.6,9,9.94,1.37,2.8,4,5.65.31,7.5-2.75,1.38-7.36,2.53-8.87-2.56-.79-2.67,1-7-3.15-7.42-4.71-.53-9.72-1.81-14.37.64a9.2,9.2,0,0,0-2.68,13.93c4.62,5.91,11.06,9,18.13,10.68s12.22,5.75,12.85,13c.66,7.68,1.41,15.53-6.5,21.35C1381.84,188.26,1376.51,186,1371.89,186.92Z"/><path class="cls-2" d="M1681.78,124.54v16.65c7,3.38,14.46,6.78,21.73,10.51,7.93,4.06,12.54,12.56,11.08,19.74-1.39,6.85-12.06,15.51-19.88,15.37-7-.12-14.38,2.07-20.32-4.87-3.62-4.24-3.94-8.45-4-13.27a3.32,3.32,0,0,1,3-3.7,3.73,3.73,0,0,1,4.42,2.08c.74,1.57.75,3.78,1.9,4.8,2.51,2.23.7,7.87,6.16,7.58,4.21-.22,8.69.42,12.57-.82,6.29-2,7.75-13.84,2.18-18.36-3.54-2.86-8.09-5.75-12.41-6.14-8-.73-11.61-6.56-15.54-11.47-6.73-8.4,1.36-24.86,12.24-25.54,9-.57,18.63-2.18,24.51,7.49a13.14,13.14,0,0,1,1.65,4.93c.32,2.37.38,5-2.74,5.7-1.83.43-4-.07-4.48-1.94C1701,120.79,1691.39,124.88,1681.78,124.54Z"/><path class="cls-2" d="M1864.91,70.48c-4.74-14.94-9.49-29.9-13.52-45-1.19-4.5-.64-9.15-3.65-13.53-3.77-5.46-8-6.53-12.38-2-2.37,2.46-2,5.39-2.8,8.21-5.51,19.32-11.44,38.53-17.26,57.88,4.11.77,9.58,3.58,9.77-3.2.15-5.32,4.74-8.26,4.91-14.3h10.57c.61,0,1.22,0,1.84,0,9.75.44,10.53,1.12,12.43,11.22.22,1.19-.07,2.46.15,3.65.8,4.22,4.25,3.72,7.11,3.44C1866.41,76.42,1866,73.87,1864.91,70.48ZM1843.2,51.19c-11.55,0-12-.25-7.8-11.83,2.1-5.79-2.23-14.29,7.23-16.91,2.38,8.93,4.87,18.27,7.38,27.71C1848.12,52.11,1845.52,51.2,1843.2,51.19Z"/><path class="cls-2" d="M1611.74,296.72c-15.33,0-19.45-2.93-25.09-15.64-1.2-2.71-1.17-5.19,1.21-6,2.6-.88,6.11-1.64,8.28,1.42.6.85.39,2.28.49,3.45.54,6.5,4,9.58,10.64,9.47,5.39-.08,13.3-4.07,14.36-9.12,1.11-5.29-2.25-9.46-6.45-12.95-4.37-3.62-10-3.08-14.8-5.45-9.54-4.73-14.51-15.23-11.23-24.9,2-5.91,13.86-13.94,19.94-13.52,8.89.62,17.71,7.42,19.62,15.38.91,3.8-2.7,5.08-4.91,6.13-2,1-4.84-.09-4.91-3.44-.07-3.69-.33-6.08-5.21-7.74-7.38-2.51-9.48-2.75-14.8,3.67-4,4.79-3.11,8.83.93,12.76,3,2.89,5.47,6.73,10.53,6.09,2.79-.35,4.25,2,6.35,3,15.27,7.52,17.45,15.6,9.71,30.19C1622.32,297.22,1616.24,296.8,1611.74,296.72Z"/><path class="cls-2" d="M1640.68,64.92c-6.62-13.25-8.07-27.85-12.28-41.68-1.15-3.78-.79-8.25-3.43-11.65-2.35-3-5-4.84-9.27-4.42-4.41.44-3.48,3.56-4.54,6.23-5,12.47-6.82,25.81-11.23,38.32-2.29,6.52-4.08,13.28-6.78,19.7-.52,1.23.27,3.86,1.36,4.74,2.15,1.73,4.49.67,6.19-1.36,1.52-1.8,3.46-3.26,3.38-6.11-.27-9.38,5.87-10.6,13.35-10.18,3.57.2,7.17,0,11.65,0,0,6.46,3.3,11.37,5.11,16.84.23.72,1.91,1.1,3,1.37,2.32.58,3.53-1.08,3.71-2.81C1641.18,70.93,1641.9,67.37,1640.68,64.92ZM1617,51.22c-2.41.08-4.82,0-8.62,0,2.9-10.59,5.47-20,8.16-29.74,4.29,5.84,5.37,12.19,7.35,18.22C1627.51,50.7,1627.49,50.86,1617,51.22Z"/><path class="cls-2" d="M1298.89,186.92c-14.37-.08-20.19-5.25-19.64-17.39.12-2.61.53-4.69,3.94-4.64,2.3,0,2.93,1.35,3.61,3.12,4.66,12.15,5.1,11.71,15.89,11.8,6.49.05,5.62-5.15,8.2-7.81,3.69-3.8.53-6.37-1.83-9.2-5.59-6.73-14.4-8-21.32-12.48-7.81-5.1-10.28-10.14-8.35-21,1.17-6.56,7.86-12,15.48-12.29a86.33,86.33,0,0,1,12.87.13c5.7.64,12.69,10,11.91,15.73-.24,1.78-2,2.73-4.09,2.56-2.93-.23-6.49.55-6.51-4,0-3.94-.35-7.34-5.69-7s-11.11-1.68-14.89,4.17c-2.19,3.37-2.71,6.92-.12,9.88,3.07,3.51,5.52,8.5,11.39,8,3.52-.3,5.39,2.33,8,3.65,12.19,6.19,14.78,11.38,12.27,24.57C1318.46,182.72,1311.15,187,1298.89,186.92Z"/><path class="cls-2" d="M1497.85,226.9c11.07,0,21.39,0,31.72,0,3,0,4.45,1.34,4.17,4.31a3.16,3.16,0,0,1-3.52,3.12h-21c-2.16,7-.81,13.9-1.2,22.05,8.34,0,15.56-.13,22.78.08,1.79.05,3.11,1.32,3,3.66s-1.31,3.4-3.21,3.44c-6.74.15-13.48.06-21.11.06-3,8-.71,16.19-1.55,25.59,7,0,13-.11,19,.05,2.71.08,6.59-1.32,7,3.25s-3.17,4.14-6.16,4.14h-29.85Z"/><path class="cls-2" d="M1637.8,179.41c7.73,0,14.41.05,21.08,0,3.1,0,4.42,1.5,4.12,4.37-.2,2-1.59,3-3.65,3h-32.43c-1.59-23-.15-45.7-.9-69.61,12.09,0,23-.08,33.86.08,1.8,0,3.07,1.24,3.11,3.56s-1.29,3.55-3.06,3.6c-7.23.21-14.47.09-22.25.09v22h19.65c2.41,0,5.14-.21,5.4,3.13.36,4.62-3.16,4.22-6.14,4.24-6,.05-12,0-18.79,0Z"/><path class="cls-2" d="M1275.89,7.12c7.67-1.54,13.32,2.1,16.56,10.75,1.16,3.08,2.86,6.13-.67,7.35-2.73,1-8.42,2.08-8.37-3.41.12-11-7.9-6.3-12.9-7.27-7.5-1.45-5.45,6.62-8.92,9.43-1.87,1.51.58,4.16,2.06,6.13,4.17,5.55,10.41,7.71,16.46,10,13,5,18.4,14.19,14,26.31-1.8,4.91-6.18,8.28-11.43,10.74-5.74,2.7-10,3.8-16.45.48-9.35-4.81-13.89-9.73-12.65-19.27a3.43,3.43,0,0,1,3.4-3.31c2.26-.28,3.74,1,3.85,2.72.24,3.68.24,7.1,3.54,9.78s5.71,6.66,10.76,5.44c5.68-1.37,9.36-5.53,11.49-10.47,1.49-3.45-.59-6.68-3.26-9.66-5.41-6-13.28-7.51-19.8-11.43-8.54-5.12-12.76-14.45-9.9-23.67,1.86-6,10-10.57,19-10.66Z"/><path class="cls-2" d="M1433.25,178.38a46.23,46.23,0,0,1,6.08-16.13c.4-.68,2.23-.95,3.25-.72a3.86,3.86,0,0,1,2.59,2.06c2.85,10.48-5.43,22.71-15.63,23.29-17.37,1-25.19-3.66-27.58-20.52-1.55-10.87-2.58-22.2,2.49-33.58C1411,118,1410.87,116.87,1426,117c12.33.08,17.16,4,19.39,16.08.43,2.33.31,5.21-2.81,5.65-1.47.21-3.39-.84-4.71-1.83a12.39,12.39,0,0,1-3.43-4.17c-4-7.93-6.27-9-13.56-8.4-7.91.69-7.67,8-8.21,12-1.39,10.17-1.11,20.72-.26,31C1413.29,178.18,1416.89,179.72,1433.25,178.38Z"/><path class="cls-2" d="M1612.85,138.5a18.85,18.85,0,0,1-5.89-8.69c-2.2-6.3-8.68-6.28-14-5.24s-7.56,5.15-7.43,10.79c.24,11,.11,21.95,0,32.93,0,6.19,2.34,10.32,8.92,11.27,7.51,1.08,11.48-.38,13-8.67,1.75-9.51,6.28-5.93,10.68-5.4,1.5,4.76-1.48,6.66-2.88,9.19-6.81,12.3-11.49,14.58-24.81,12.18-6.75-1.22-15.08-10.78-15.7-19.79-.71-10.32-1.18-20.85.09-31.07,1.9-15.43,20.59-24.79,34.74-18.37,5.62,2.56,6.17,8.71,8.78,13.19C1620.33,134.28,1616,136.73,1612.85,138.5Z"/><path class="cls-2" d="M1486.06,257.37c0,7.92.22,15.85-.06,23.76-.33,9.22-6.56,15.07-16,15.57-.61,0-1.23,0-1.84,0-17.07.43-22.5-4.66-22.74-21.91-.2-14.62,0-29.24,0-43.86,0-3.31,2-4.18,4.67-3.76,1.8.28,2.91,1.52,2.89,3.79-.11,12.18,0,24.37,0,36.55,0,3.65-.52,7.39.06,11,1.26,7.74,5.5,11,13.18,10.91,6.72-.08,11.85-4.29,12.24-11.74.58-10.93.14-21.92.14-32.88,0-4.88-.13-9.76.11-14.62.09-1.78,1.21-3.06,3.56-3.13s3.66,1.24,3.74,2.94c.26,6.09.12,12.18.13,18.28v9.13Z"/><path class="cls-2" d="M1460.17,38.05c0,7.32.14,14.64,0,22-.26,10.75-10.7,20.92-20.71,20.38S1419.76,70.83,1419.6,61c-.27-15.85-.08-31.71-.11-47.57,0-3.11-.16-6.37,4.4-6,3.34.3,3.14,3,3.14,5.38q0,19.22,0,38.42c0,3.05-.24,6.13.06,9.14.53,5.22,6.43,12,11.27,12.55,6.45.68,8.76-3.44,11.6-8.78,2.54-4.78,2.59-9.12,2.63-13.82.12-12.8.05-25.61.07-38.42,0-2.66.71-4.83,4-4.61s3.5,2.58,3.49,5.08Q1460.17,25.24,1460.17,38.05Z"/><path class="cls-2" d="M1265.44,232.88c-4.5-6.93-11.29-6.24-17.92-5.92-5.25.26-10.8-1.54-16.11,1.74q0,31.86,0,63.6c0,3,1.46,4.4,4.37,4.1a3.16,3.16,0,0,0,3.12-3.51c0-7.86,0-15.72,0-25.65h8.59c14-.08,23.42-8.21,24.53-22.19C1272.47,239.18,1268,236.78,1265.44,232.88Zm-7.62,21.54c-5.75,6.27-11.75,7.17-18.66,4.07V236.21c3.19-3.49,7.09-1.34,10.49-2,4.85-.9,9,1.13,10.45,5.27C1261.87,244.44,1262.21,249.64,1257.82,254.42Z"/><path class="cls-2" d="M1243.35,146.46c7.39,0,14,0,20.67,0,3,0,4.49,1.3,4.21,4.26a3.18,3.18,0,0,1-3.55,3.08h-21c-2.18,8.24-.54,16.39-1.31,25.65,9.72,0,18.16-.1,26.58.09,1.76,0,3.1,1.25,3,3.61s-1.3,3.49-3.13,3.51c-10.87.15-21.75.07-32.21.07-.77-2.1-1.48-3.16-1.49-4.21-.06-21.2,0-42.4,0-65.31,11.12,0,21.92,0,32.72,0,2.16,0,3.58.93,3.87,2.78.44,2.76-.79,4.5-4,4.49-7.86-.05-15.73,0-24.36,0Z"/><path class="cls-2" d="M1319.91,244.64c-2.42-10.85-11.24-17.62-23.2-17.74-5.37-.06-10.73,0-17.39,0,0,21.69,0,41.07,0,60.46a41.08,41.08,0,0,0,.3,7.2c.13.77,1.71,1.54,2.76,1.83,2,.54,4.2-.54,4.26-2.16.29-8.87.14-17.76.14-26.94,6.11,0,10.44.6,14.53-.13C1311.1,265.41,1321.61,252.29,1319.91,244.64Zm-12.49,7.72c-4.42,6.58-10.75,9.25-20.3,6.76V236.27c2.86-4.15,7.59-2.08,11.44-1.87C1308.3,234.93,1312.84,244.29,1307.42,252.36Z"/><path class="cls-2" d="M1482.69,153.78v24.46c7.88,2.53,16.44.62,24.78,1.13,3,.19,4.48,1.44,4.16,4.37-.22,2-1.48,3-3.65,3-10.4,0-20.81,0-32.14,0V119.17c6-1.36,28.8-3,33.17-1.9a3.3,3.3,0,0,1,2.57,4c-.35,2-1.44,3.12-3.58,3.12-4.3,0-8.6,0-12.91,0-3.63,0-7.27,0-11.79,0v21.05c6.1,2.08,13.44.53,20.56.9,3,.15,4.5,1.39,4.2,4.34-.21,2-1.56,3-3.64,3Z"/><path class="cls-2" d="M1545,296.6V228c11.61-2.41,23.54-.17,36.26-1.31-6,7.54-6,7.54-26.9,7.86-3.46,2.83-1.61,6.73-1.89,10.15s-.07,7-.07,11.64c8.28,0,15.48-.12,22.68.08,1.79,0,3,1.26,3.08,3.56s-1.31,3.54-3.06,3.59c-7.2.21-14.4.09-22.12.09v25.59c7.83,0,15.59,0,23.36,0,2.45,0,5.06-.1,5.3,3.2.33,4.59-3.06,4.21-6.09,4.21Z"/><path class="cls-2" d="M1666.6,15.55c0,19.43-.14,37.62.1,55.8.07,5.36-2.89,5.73-6.87,5.62-4.51-.13-4.18-3.29-4.18-6.32q0-17.28,0-34.55c0-6.6,0-13.2,0-19.6-5-3.38-10-1.08-14.63-1.82-2.1-.33-3.19-1.23-3.57-3.17s.75-4.06,2.42-4.07c13.36-.05,26.71.18,40.06.51.54,0,1.1,1.82,1.52,2.85.57,1.38.15,2.74-1.28,3C1676.17,14.47,1672.1,14.86,1666.6,15.55Z"/><path class="cls-2" d="M1316.39,16.91c-5.65-4.94-15.06,2.8-14.3-6.76.45-5.55,8.1-2.48,12.44-2.77,7.9-.52,15.85-.25,23.78-.09,2.69.06,6.84-1.4,7.1,3.1.33,5.91-4.67,4-7.84,4.26-2.92.26-5.88.06-10.26.06,0,19.4-.14,38,.09,56.61.06,5.26-2.65,5.84-6.78,5.63-4.41-.22-4.26-3.16-4.25-6.28,0-11.51,0-23,0-34.53C1316.38,29.54,1316.39,22.94,1316.39,16.91Z"/><path class="cls-2" d="M1393.78,14.61V65.76c0,2.42-.1,4.84,0,7.26.09,2.14-1,3.48-2.91,3.7-2.63.3-4.63-.51-4.62-3.82,0-15.13.11-30.27,0-45.4-.11-10.61-.74-11.11-12.32-12.8-1.19-.17-2.61.33-3.61-.14a3.61,3.61,0,0,1-2.09-4.39c.3-1,1.24-2.68,1.9-2.68q20.06-.15,40.12.18c.61,0,1.42,1.73,1.72,2.77a3,3,0,0,1-2.38,4C1404.8,14.85,1400,14.61,1393.78,14.61Z"/><path class="cls-2" d="M1493.37,16.08c0,18.5,0,37.17,0,55.84,0,2.42-.07,4.83-3.6,4.9s-3.87-2.1-3.87-4.66c0-18.69,0-37.38,0-55.83-5.28-3.06-10.24-1-14.92-1.67a3.43,3.43,0,0,1-3.28-3.39c-.23-2.2,1-3.84,2.71-3.87q19.21-.29,38.44,0c1.66,0,3.16,1.4,2.93,3.74a3.57,3.57,0,0,1-3.23,3.5C1503.84,15.38,1498.91,13.48,1493.37,16.08Z"/><path class="cls-2" d="M1689,42.05c0-9.74.11-19.48-.06-29.22-.06-3.68,1.08-5.53,5-5.58,3.5,0,5.85.58,5.83,4.77q-.09,30.14,0,60.26c0,4.24-2.51,4.73-5.92,4.69-4-.06-5-2.08-5-5.7C1689.11,61.54,1689,51.79,1689,42.05Z"/><path class="cls-2" d="M1360.61,42.16c0,9.66-.07,19.32,0,29,0,3.37-.41,5.84-4.63,5.89s-6.58-.92-6.51-6q.43-29,0-58c-.07-5.21,2.43-5.94,6.6-5.84s4.58,2.65,4.54,6C1360.53,22.84,1360.61,32.5,1360.61,42.16Z"/><path class="cls-2" d="M1463.85,151.65c0,10.26,0,20.52,0,30.78,0,4.34-2.89,4.5-6.09,4.37-2.56-.11-4.87-.61-4.87-3.78,0-20.52,0-41,0-61.57,0-4.39,3-4.31,6.13-4.38,4-.1,5,2.06,4.9,5.61C1463.76,132.33,1463.85,142,1463.85,151.65Z"/><path class="cls-2" d="M1873.26,77c0-22.39,0-43.57,0-64.75,0-2.48.19-4.83,3.73-4.81s3.73,2.31,3.74,4.81q0,18.27,0,36.53V69.61c9.5,0,18-.12,26.39.1,1.7,0,3.17,1.4,3,3.73-.18,2.13-1.4,3.45-3.23,3.47C1896,77.05,1885.14,77,1873.26,77Z"/><path class="cls-2" d="M1334.79,289.24c9.48,0,17.36.05,25.25,0,3.24,0,4.3,1.8,3.93,4.52-.25,1.87-1.49,2.92-3.75,2.9-10.36-.12-20.73-.05-32.92-.05,0-22.67-.07-44.95.13-67.24,0-1.57,2.3-2.74,4.29-2.18,1,.29,2.58,1.08,2.72,1.85a41.2,41.2,0,0,1,.34,7.21C1334.8,253.25,1334.79,270.27,1334.79,289.24Z"/><path class="cls-2" d="M1379.07,261.58c0,10.27,0,20.55,0,30.82,0,3.12-1.69,4.29-4.47,4-1.92-.22-3-1.44-3-3.62q.06-30.83,0-61.65c0-3.18,1.73-4.24,4.49-3.93,1.92.21,3,1.45,3,3.59,0,10.28,0,20.55,0,30.83Z"/><path class="cls-2" d="M1179.86,40.09c0-9.68,0-19.35,0-29,0-2.15,1.08-3.36,3-3.57,2.84-.29,4.42,1,4.42,4q0,30.84,0,61.67a3.2,3.2,0,0,1-3.08,3.54c-2.82.29-4.44-.9-4.42-4,.06-10.88,0-21.76,0-32.64Z"/><path class="cls-2" d="M1527.29,208.82c-3.93,5.84-8.84,8.71-10.08,14.23-.07.31-2.38.56-3.31.12s-2.1-2.09-1.86-2.62c1.86-4,3.64-8.14,6.33-11.55C1519.25,207.89,1522.75,208.82,1527.29,208.82Z"/></g></g></svg>